<svg width="52" height="53" viewBox="0 0 52 53" fill="none" xmlns="http://www.w3.org/2000/svg">
<path d="M51.0201 27.9638C51.0216 27.9953 51.0231 28.0268 50.9929 28.0899C50.933 28.4661 50.905 28.8107 50.877 29.1553C50.8762 29.1862 50.8755 29.2171 50.8433 29.2799C50.7617 29.6777 50.7115 30.0434 50.6613 30.4092C50.6596 30.4415 50.6579 30.4738 50.6249 30.5394C50.5759 30.6141 50.5537 30.6543 50.5416 30.6972C50.2666 31.6713 49.9943 32.6462 49.7179 33.6199C49.5865 34.083 49.4475 34.5441 49.3119 35.0061C49.3119 35.0061 49.3158 35.0215 49.2874 35.0379C48.9212 35.7503 48.5818 36.4455 48.2489 37.1438C48.2276 37.1884 48.256 37.2567 48.2613 37.314C48.2534 37.336 48.2455 37.358 48.2037 37.3983C47.8435 37.6849 47.8287 38.0712 47.7389 38.4463C47.5665 39.166 47.3283 39.87 47.1189 40.5809C47.113 40.6012 47.1235 40.6263 47.1263 40.6492C47.1263 40.6492 47.1194 40.6771 47.0856 40.6908C47.03 40.7564 47.0081 40.8082 46.9862 40.8601C46.9862 40.8601 46.9834 40.8863 46.9508 40.8993C46.7506 41.2141 46.5831 41.5159 46.4156 41.8178C46.4156 41.8178 46.4178 41.8186 46.396 41.8289C46.3134 41.963 46.2526 42.0869 46.1917 42.2108C46.1917 42.2108 46.1925 42.2225 46.1651 42.2313C46.0935 42.335 46.0492 42.4298 46.0049 42.5246C46.0049 42.5246 45.9951 42.5176 45.9768 42.5276C45.8977 42.6652 45.8369 42.7927 45.7761 42.9202C45.7761 42.9202 45.7765 42.9283 45.7498 42.9337C45.6335 43.1056 45.5439 43.2721 45.4543 43.4387C45.4543 43.4387 45.4413 43.4308 45.4265 43.4407C45.3734 43.4901 45.335 43.5296 45.2963 43.5396C45.441 43.1336 45.2108 42.797 45.1331 42.4625C44.9918 41.8552 45.2833 41.2198 44.8487 40.608C44.5763 40.2247 44.5101 39.6826 44.1761 39.2757C43.7435 38.7486 43.7976 38.5532 44.2268 38.2582C44.1716 38.1533 44.1039 38.0247 44.0627 37.896C44.7042 38.1015 45.3162 38.3175 45.9373 38.503C46.049 38.5363 46.2598 38.4871 46.3191 38.4021C46.5554 38.0635 46.75 37.6958 46.972 37.3233C46.9908 37.2827 46.9975 37.2575 47.0239 37.2207C47.0731 37.1405 47.1026 37.072 47.1487 36.9873C47.217 36.8592 47.2687 36.7474 47.3398 36.6264C47.3824 36.5534 47.4055 36.4896 47.4407 36.4095C47.4569 36.3802 47.461 36.3673 47.4836 36.3462C47.5121 36.2996 47.5219 36.2611 47.5337 36.2221C47.5356 36.2215 47.5346 36.2176 47.5556 36.2065C47.7205 35.8548 47.8643 35.5142 48.0182 35.1604C48.0281 35.1471 48.0389 35.1158 48.0595 35.1027C48.1357 34.9325 48.1914 34.7753 48.2536 34.6077C48.2601 34.5972 48.2598 34.5725 48.28 34.5592C48.4158 34.2192 48.5313 33.8925 48.6562 33.5482C48.6703 33.5047 48.6751 33.4788 48.6998 33.4393C48.7763 33.2363 48.8329 33.047 48.9026 32.8368C48.9204 32.7837 48.9253 32.7515 48.9487 32.7027C49.0316 32.4446 49.0959 32.2029 49.1682 31.951C49.1762 31.9408 49.1764 31.9148 49.1881 31.9012C49.1998 31.8644 49.1998 31.8412 49.2097 31.7919C49.6035 30.3449 49.8304 28.8985 49.9358 27.4308C50.1411 24.5718 49.936 21.7475 49.1382 18.9892C47.7106 14.0532 45.0471 9.91121 41.071 6.63485C38.1737 4.24735 34.8932 2.58209 31.245 1.7426C25.9613 0.526755 20.7854 0.925163 15.7923 3.13031C10.9537 5.26724 7.17017 8.6117 4.48934 13.1656C1.89101 17.5793 0.818847 22.3584 1.20452 27.4738C1.42898 30.451 2.19526 33.2722 3.46964 35.962C3.77818 36.6132 4.12301 37.2472 4.44892 37.9157C4.75501 38.4685 5.06 38.9967 5.37621 39.5182C5.41222 39.5776 5.51113 39.5988 5.57546 39.6392C5.57006 39.6406 5.57884 39.6337 5.57598 39.6562C5.61217 39.716 5.65122 39.7533 5.70093 39.7982C5.71158 39.8057 5.7188 39.8308 5.71601 39.8574C5.81716 39.9585 5.97348 40.1192 6.01636 40.0931C6.25439 39.9485 6.46486 39.7586 6.69481 39.5759C6.70486 39.5676 6.73081 39.5661 6.765 39.5705C7.31313 39.5461 7.81373 39.5884 8.30112 39.7807C8.9097 40.0209 9.55947 40.176 10.1351 40.4759C11.0841 40.9703 11.9878 41.5515 12.8945 42.1101C12.9096 42.2125 12.9408 42.301 12.9698 42.3832C12.8755 42.4579 12.7983 42.519 12.7211 42.5801C12.7555 42.5815 12.7899 42.583 12.8242 42.5844C12.8759 42.7797 12.9276 42.9749 12.9791 43.1702C13.0463 43.425 13.0388 43.7491 13.1969 43.9193C13.4744 44.2177 13.4237 44.335 13.0937 44.4936C12.7841 44.6423 12.7555 45.1187 12.9954 45.3682C13.0691 45.4447 13.109 45.5894 13.0993 45.6971C13.0934 45.7625 12.9688 45.8561 12.8875 45.8679C12.7117 45.8934 12.5294 45.8745 12.346 45.8646C12.3366 45.8521 12.3309 45.8488 12.3253 45.8456C12.3333 45.855 12.3414 45.8645 12.3527 45.9004C12.4311 46.0019 12.4969 46.1274 12.583 46.1435C13.0226 46.2254 13.4098 46.3912 13.7241 46.7185C13.7838 46.7807 13.8787 46.8091 13.9615 46.8769C14.1863 47.1108 14.407 47.3208 14.6513 47.5533C14.9507 47.3526 15.0604 47.7657 15.2933 47.876C15.3804 47.9172 15.4761 47.94 15.5853 47.9715C15.6026 47.9717 15.6372 47.9725 15.6372 47.9997C15.6973 48.4064 15.992 48.3818 16.2874 48.4028C16.4573 48.5001 16.6061 48.5869 16.7558 48.6982C16.8029 48.7757 16.8493 48.8289 16.9211 48.8851C17.536 49.0725 18.1255 49.2568 18.7384 49.4516C18.8621 49.4791 18.9623 49.496 19.0684 49.5384C19.1878 49.5927 19.3013 49.6216 19.4372 49.6526C19.514 49.6787 19.5686 49.7025 19.6384 49.7447C19.7604 49.7958 19.8672 49.8286 19.9931 49.8807C20.2315 49.9352 20.4507 49.9703 20.6704 50.0219C20.671 50.0383 20.6734 50.071 20.678 50.0964C20.9134 50.1974 21.1443 50.2729 21.402 50.35C21.8526 50.469 22.2764 50.5863 22.6945 50.7297C22.5522 50.7723 22.4154 50.8039 22.279 50.8021C22.0009 50.7985 21.723 50.7769 21.4451 50.7627C21.3919 50.7592 21.3388 50.7556 21.2515 50.7183C20.8689 50.6068 20.5146 50.5492 20.1732 50.4478C18.8515 50.055 17.5341 49.6476 16.2146 49.2475C16.042 49.1952 15.8662 49.1537 15.6919 49.1072C15.6919 49.1072 15.6974 49.0998 15.6904 49.08C15.3276 48.9164 14.9718 48.7726 14.6159 48.6287C14.6159 48.6287 14.5984 48.6322 14.5824 48.6008C14.4885 48.5439 14.4105 48.5184 14.3325 48.493C14.3104 48.4866 14.2882 48.4803 14.2489 48.4386C13.6908 48.1234 13.1497 47.8433 12.6087 47.5633C12.6087 47.5633 12.5814 47.5579 12.5672 47.5246C12.454 47.4454 12.355 47.3994 12.2559 47.3534C12.2559 47.3534 12.2302 47.3456 12.2181 47.3122C11.7175 46.9393 11.2316 46.5957 10.7391 46.262C10.5074 46.105 10.263 45.9668 10.0244 45.8201C10.0244 45.8201 10.0316 45.809 10.0256 45.7958C9.99612 45.7741 9.97256 45.7656 9.94899 45.7571C9.94899 45.7571 9.97042 45.748 9.95921 45.729C9.71183 45.537 9.47566 45.3641 9.23949 45.1913C9.23949 45.1913 9.21708 45.1861 9.20777 45.1532C8.88683 44.8634 8.5752 44.6066 8.26356 44.3498C8.2106 44.3073 8.15763 44.2648 8.09529 44.1788C7.71535 43.7808 7.34479 43.4261 6.97423 43.0715C6.94697 43.048 6.91972 43.0246 6.88381 42.9618C6.83927 42.9014 6.80338 42.8804 6.76749 42.8593C6.76749 42.8593 6.75935 42.86 6.7591 42.8315C6.44622 42.457 6.1336 42.1111 5.82097 41.7652C5.82097 41.7652 5.84154 41.7624 5.83725 41.7406C5.74824 41.6338 5.66351 41.5489 5.57878 41.464C5.57878 41.464 5.55993 41.4433 5.55906 41.4039C5.37254 41.1429 5.18689 40.9215 5.00123 40.7001C5.00123 40.7001 5.00503 40.6978 5.00302 40.6745C4.84398 40.4558 4.68695 40.2605 4.52992 40.0652C4.52992 40.0652 4.50972 40.0467 4.50887 40.0068C4.2831 39.5794 4.04298 39.1999 3.83612 38.803C3.21782 37.6168 2.61352 36.4233 1.99988 35.2347C1.96117 35.1597 1.8894 35.1018 1.83301 35.0359C1.83301 35.0359 1.82314 35.0217 1.83458 34.9843C1.83518 34.8792 1.83661 34.8066 1.8117 34.7446C1.00477 32.7353 0.528403 30.6436 0.24527 28.5029C0.233862 28.4166 0.183441 28.3355 0.151197 28.252C0.138278 28.1528 0.125359 28.0535 0.132841 27.9052C0.127404 27.7049 0.101563 27.5536 0.0757253 27.4022C0.0678611 27.3715 0.059997 27.3407 0.071426 27.2635C0.0957058 26.5435 0.102923 25.8698 0.101662 25.1962C0.101553 25.1389 0.0448408 25.0818 0.0144259 25.0246C0.00935385 24.9739 0.00428192 24.9232 0.0291957 24.8348C0.0593224 24.4554 0.0594633 24.1137 0.0596042 23.7721C0.0589446 23.7409 0.0582871 23.7097 0.089003 23.646C0.120763 23.4327 0.121151 23.252 0.12154 23.0712C0.122904 22.9962 0.124268 22.9212 0.16028 22.8096C0.217756 22.4773 0.240586 22.1815 0.263419 21.8857C0.262956 21.8539 0.262495 21.8221 0.293509 21.7584C0.548789 20.7592 0.759023 19.7886 0.999424 18.8254C1.4113 17.1754 2.02979 15.6022 2.8033 14.0881C2.94308 13.8144 3.04309 13.5205 3.16145 13.236C3.16734 13.2128 3.17322 13.1896 3.21434 13.1487C3.55149 12.6162 3.85342 12.1015 4.15534 11.5867C4.15534 11.5867 4.16194 11.5966 4.1827 11.5927C4.28072 11.4456 4.358 11.3025 4.43527 11.1594C4.43527 11.1594 4.43853 11.1326 4.47056 11.1191C4.64214 10.8919 4.78169 10.6782 4.92124 10.4646C4.92124 10.4646 4.92742 10.4716 4.94676 10.4653C5.16329 10.1815 5.36048 9.90407 5.55767 9.62664C5.55767 9.62664 5.56523 9.59695 5.59985 9.58519C5.75338 9.41336 5.8723 9.25329 5.99122 9.09321C5.99122 9.09321 5.98997 9.08622 6.01678 9.08299C6.27801 8.79649 6.51242 8.51322 6.74684 8.22995C6.74684 8.22995 6.74838 8.23808 6.77051 8.23661C6.93565 8.06699 7.07866 7.89885 7.22166 7.73071C7.22166 7.73071 7.23257 7.73256 7.24851 7.72925C7.27583 7.70072 7.28719 7.6755 7.29856 7.65028C7.32886 7.61401 7.35915 7.57774 7.43197 7.5366C7.57604 7.41109 7.67757 7.29043 7.77909 7.16977C7.77909 7.16977 7.78462 7.16758 7.80254 7.16804C7.83262 7.14638 7.84478 7.12428 7.85694 7.10217C7.85694 7.10217 7.858 7.11821 7.88101 7.11505C8.1515 6.86219 8.39898 6.61248 8.64645 6.36278C8.67165 6.33536 8.69684 6.30795 8.76588 6.27781C8.89421 6.18599 8.9787 6.09688 9.06318 6.00777C9.06318 6.00777 9.07646 5.99049 9.10918 5.98696C9.15735 5.96029 9.17279 5.93716 9.18824 5.91403C9.18824 5.91403 9.18859 5.92566 9.211 5.92423C9.3174 5.83507 9.40139 5.74736 9.48538 5.65964C9.48538 5.65964 9.48288 5.65427 9.51 5.65316C9.86511 5.39062 10.1931 5.12919 10.5211 4.86777C10.5211 4.86777 10.5231 4.8773 10.5463 4.87815C10.9452 4.64161 11.3252 4.41053 11.6943 4.16318C11.8123 4.08407 11.9015 3.96189 12.0039 3.85942C12.0512 3.82637 12.0986 3.79333 12.1946 3.75949C12.6063 3.53353 12.9693 3.30836 13.3323 3.08319C13.3323 3.08319 13.3548 3.06368 13.396 3.06126C14.1491 2.73297 14.8607 2.40671 15.5728 2.08139C15.9901 1.89074 16.4081 1.70158 16.8258 1.51175C16.8258 1.51175 16.8403 1.49984 16.8788 1.50903C16.963 1.51431 17.0108 1.51772 17.0541 1.50541C18.0381 1.22582 19.0207 0.941026 20.0057 0.665095C20.4569 0.538701 20.9128 0.429109 21.3666 0.311894C21.4001 0.302423 21.4336 0.29295 21.5138 0.301669C22.3322 0.250605 23.1039 0.18244 23.8751 0.108308C23.9077 0.105171 23.9351 0.0466374 23.9649 0.0139095C23.9961 0.00759624 24.0273 0.0012829 24.1044 0.0169568C24.8837 0.0442956 25.6171 0.0533573 26.3506 0.0523764C26.5321 0.052133 26.7136 0.0193038 26.8951 0.00145365C26.9481 -0.00110795 27.001 -0.00366959 27.0889 0.0255873C27.3972 0.062562 27.6704 0.0677183 27.9437 0.0728746C27.9969 0.0755761 28.0501 0.0782775 28.1392 0.111778C28.3308 0.143514 28.4865 0.144451 28.6422 0.145389C28.6743 0.145216 28.7065 0.145042 28.7719 0.177233C29.3117 0.277909 29.8183 0.346222 30.3248 0.414534C30.3777 0.418237 30.4305 0.421939 30.5168 0.457804C30.7302 0.5158 30.9101 0.541632 31.09 0.567464C31.1223 0.569025 31.1546 0.570585 31.2186 0.603119C31.3442 0.675075 31.4352 0.725402 31.5325 0.755606C32.6045 1.08849 33.6779 1.41691 34.75 1.74964C35.0776 1.85132 35.4023 1.96248 35.7283 2.0693C35.7283 2.0693 35.7228 2.07753 35.7297 2.09705C36.1294 2.28883 36.5222 2.46108 36.915 2.63334C36.915 2.63334 36.909 2.63719 36.919 2.65598C37.0344 2.74142 37.1339 2.82087 37.2464 2.87203C37.4856 2.98086 37.7314 3.07498 37.9745 3.17512C37.9745 3.17512 37.955 3.18197 37.9657 3.20459C38.3014 3.40272 38.6263 3.57822 38.9513 3.75372C39.0041 3.77561 39.0569 3.79749 39.126 3.86059C39.5143 4.13604 39.8862 4.37028 40.2582 4.60451C40.2582 4.60451 40.2593 4.60389 40.2621 4.62805C40.6366 4.91559 41.0083 5.17898 41.38 5.44236C41.38 5.44236 41.3785 5.44332 41.382 5.46665C41.4369 5.51739 41.4883 5.54481 41.5397 5.57223C41.5397 5.57223 41.5672 5.58036 41.5793 5.6143C41.8549 5.85543 42.1185 6.06261 42.382 6.26979C42.4139 6.28925 42.4458 6.30871 42.4883 6.36906C43.1861 7.10639 43.873 7.80317 44.5621 8.49771C44.5827 8.51849 44.627 8.51582 44.6602 8.52408C44.6602 8.52408 44.6652 8.52179 44.6667 8.54853C45.0131 9.01492 45.3573 9.45511 45.7053 9.89224C45.7198 9.91042 45.7702 9.89998 45.8039 9.90288C45.8039 9.90288 45.7988 9.91571 45.8019 9.9281C45.8253 9.95485 45.8456 9.96922 45.866 9.98358C45.866 9.98358 45.8578 9.98451 45.8575 10.0079C45.9674 10.1587 46.0776 10.2861 46.1878 10.4135C46.1878 10.4135 46.2086 10.4313 46.2107 10.4709C46.532 11.0185 46.8447 11.5311 47.1739 12.0328C47.3167 12.2505 47.4936 12.4457 47.655 12.6511C47.655 12.6511 47.6747 12.6741 47.6756 12.7156C47.7865 12.9325 47.8966 13.108 48.0067 13.2835C48.0308 13.3147 48.055 13.346 48.0709 13.4058C48.0774 13.449 48.0922 13.4637 48.1069 13.4785C48.1069 13.4785 48.0968 13.4823 48.0966 13.5056C48.2514 13.872 48.3975 14.2195 48.5654 14.5562C48.638 14.7017 48.7556 14.8248 48.8527 14.9581C48.8655 14.9782 48.8783 14.9984 48.8823 15.0657C48.8804 15.1699 48.8768 15.2306 48.8954 15.2835C49.3244 16.5066 49.7755 17.7225 50.1777 18.9543C50.352 19.4884 50.4182 20.0571 50.5494 20.6062C50.6408 20.9892 50.7592 21.3658 50.8655 21.7452C50.8718 21.7755 50.878 21.8058 50.8645 21.8802C50.8397 22.0162 50.8228 22.1091 50.8316 22.1996C50.8952 22.8534 51.0109 23.5059 51.0206 24.1602C51.0369 25.2591 50.9841 26.3588 50.9676 27.4583C50.9651 27.6265 51.0016 27.7953 51.0201 27.9638ZM11.6107 45.6907C11.5949 45.7291 11.5792 45.7675 11.5635 45.8058C11.6028 45.8127 11.642 45.8196 11.6813 45.8265C11.6698 45.7874 11.6583 45.7482 11.6107 45.6907ZM45.4155 42.6246C45.4348 42.6062 45.4543 42.588 45.4724 42.5684C45.4728 42.5679 45.4581 42.5534 45.4505 42.5454C45.4312 42.5638 45.4119 42.5823 45.4155 42.6246Z" fill="#75C223"/>
<path d="M35.2231 50.7722C35.0775 50.8604 34.9348 50.9538 34.7858 51.0359C33.9842 51.4772 33.1965 51.9475 32.3744 52.3468C31.3861 52.8268 30.3506 53.1521 29.2246 52.9265C29.1122 52.904 29.005 52.8554 28.8701 52.7823C28.7813 52.7356 28.7178 52.7254 28.6543 52.7152C28.6131 52.7087 28.5718 52.7022 28.5034 52.6839C28.4762 52.6721 28.4806 52.6686 28.4806 52.6686C28.4583 52.6591 28.436 52.6496 28.3777 52.5995C28.2476 52.524 28.1535 52.4891 28.0594 52.4542C28.0315 52.4528 28.0036 52.4513 27.9525 52.4158C27.8116 52.3321 27.6939 52.2825 27.5762 52.233C27.5762 52.233 27.5442 52.2213 27.5239 52.1895C27.3468 52.093 27.1899 52.0284 27.0246 51.9398C26.9478 51.8177 26.8445 51.6253 26.8164 51.6358C26.4814 51.7597 26.3209 51.4621 26.0813 51.3637C25.8655 51.275 25.6354 51.0405 25.3835 51.4564C25.3117 51.2302 25.2253 51.0838 25.2272 50.9385C25.2314 50.6194 24.922 50.6225 24.7727 50.4677C24.7322 50.4257 24.5464 50.5239 24.3666 50.575C24.2805 50.0711 24.1907 49.5452 24.1211 49.0162C24.1771 48.9779 24.2129 48.9425 24.2706 48.9018C24.3223 48.8952 24.3522 48.894 24.403 48.9105C24.7133 48.8883 25.0027 48.8485 25.2938 48.8297C25.3238 48.8731 25.352 48.8954 25.3802 48.9177C25.3954 48.8811 25.4105 48.8445 25.4499 48.8052C25.5525 48.7817 25.6308 48.7609 25.727 48.7596C26.1566 48.8058 26.399 49.0424 26.5643 49.4032C26.6021 49.4856 26.7355 49.5368 26.8354 49.575C26.9628 49.6236 27.1008 49.6442 27.2341 49.6772C27.8002 49.8171 28.3657 50.086 28.9544 49.8728C29.462 49.6889 29.9753 49.6596 30.485 49.735C30.8514 49.7891 31.1055 49.7575 31.3112 49.4221C31.3749 49.3181 31.562 49.2742 31.7017 49.2366C31.8676 49.1919 32.0615 49.2211 32.2093 49.1488C32.3465 49.0817 32.5545 48.8907 32.5319 48.8102C32.4019 48.3461 32.6558 48.2985 33.0002 48.3021C33.0428 48.3025 33.0864 48.2697 33.1283 48.2495C33.4802 48.0796 33.6975 47.5538 33.5749 47.187C33.5311 47.0558 33.5066 46.9182 33.4753 46.7678C33.4812 46.7318 33.4849 46.7114 33.5092 46.6824C33.5591 46.6706 33.5885 46.6674 33.6363 46.6794C33.8281 46.6454 34.0015 46.596 34.1933 46.5457C34.2361 46.5455 34.2605 46.5463 34.3166 46.5555C34.5937 46.5425 34.8392 46.5211 35.0967 46.5177C35.1672 46.5217 35.2257 46.5077 35.2934 46.4749C35.3239 46.4058 35.3452 46.3554 35.3888 46.301C35.4412 46.2957 35.4713 46.2944 35.5214 46.3122C35.8764 46.3157 36.2113 46.3001 36.5453 46.3099C36.2963 46.7168 36.1005 47.1105 35.9881 47.5653C35.8692 48.0462 35.6143 48.492 35.4482 48.9635C35.3855 49.1413 35.3616 49.2398 35.1272 49.2004C34.853 49.1543 34.7157 49.4147 34.8584 49.6617C34.8975 49.7294 34.9536 49.7873 35.0067 49.8558C34.9299 49.9542 34.8635 50.0394 34.8034 50.1164C34.9529 50.35 35.088 50.5611 35.2231 50.7722Z" fill="#AEE151"/>
<path d="M35.2449 50.7719C35.0888 50.5618 34.9537 50.3507 34.8042 50.1171C34.8643 50.0401 34.9307 49.9549 35.0075 49.8565C34.9544 49.788 34.8983 49.7301 34.8592 49.6624C34.7165 49.4153 34.8538 49.155 35.128 49.2011C35.3624 49.2405 35.3863 49.142 35.449 48.9642C35.6151 48.4927 35.87 48.0469 35.9889 47.5659C36.1013 47.1112 36.2971 46.7175 36.5729 46.2999C36.7031 46.2484 36.8053 46.2206 36.9078 46.2195C37.5078 46.2132 38.1079 46.2131 38.7097 46.2378C38.7381 46.6531 38.7012 47.0136 38.3471 47.2708C38.2853 47.3157 38.2885 47.4432 38.2481 47.526C38.177 47.6717 38.0622 47.8043 38.0252 47.9568C37.9494 48.2688 37.9064 48.5895 37.8634 48.9085C37.8451 49.0444 37.8604 49.185 37.8604 49.358C37.8635 49.3583 37.9422 49.3658 38.0062 49.3921C37.6539 49.5486 37.3115 49.6758 36.9806 49.8282C36.804 49.9095 36.6475 50.0342 36.4819 50.1393C36.2076 50.2847 35.9334 50.4301 35.6073 50.5724C35.4914 50.6136 35.4275 50.6579 35.3635 50.7022C35.331 50.7251 35.2984 50.748 35.2449 50.7719Z" fill="#A5DC46"/>
<path d="M24.0987 49.0198C24.1886 49.5457 24.2784 50.0716 24.3644 50.5755C24.5442 50.5244 24.73 50.4262 24.7705 50.4682C24.9198 50.623 25.2292 50.6199 25.225 50.9391C25.2231 51.0843 25.3095 51.2308 25.3813 51.4569C25.6332 51.041 25.8633 51.2755 26.0791 51.3642C26.3187 51.4626 26.4793 51.7603 26.8142 51.6363C26.8424 51.6259 26.9456 51.8183 26.9948 51.9394C26.8451 51.9406 26.7147 51.919 26.5844 51.8974C26.4924 51.8897 26.4004 51.882 26.2764 51.8407C26.1768 51.7898 26.1092 51.7725 26.0417 51.7551C25.964 51.743 25.8864 51.7309 25.7848 51.6842C25.7418 51.6159 25.7227 51.5823 25.7023 51.527C25.6735 51.4811 25.646 51.4567 25.6186 51.4322C25.6003 51.468 25.582 51.5038 25.5394 51.5382C25.264 51.4699 25.0128 51.4028 24.7616 51.3358C24.7371 51.3391 24.7127 51.3425 24.6601 51.3206C24.5922 51.2628 24.5522 51.2302 24.5276 51.1853C24.5413 51.1442 24.5396 51.1153 24.5379 51.0865C24.5066 51.1216 24.4753 51.1567 24.4164 51.1929C24.3517 51.195 24.3146 51.1959 24.2776 51.1968C24.2776 51.1968 24.2562 51.2063 24.2491 51.1761C24.2171 51.0462 24.1922 50.9465 24.1672 50.8468C24.1354 50.8562 24.1036 50.8655 24.0718 50.8749C24.0557 50.9341 24.0396 50.9934 23.9954 51.0528C23.5438 50.9367 23.1203 50.8204 22.6968 50.704C22.273 50.5867 21.8493 50.4694 21.3937 50.3258C21.1313 50.2234 20.9007 50.1474 20.67 50.0714C20.67 50.0714 20.6676 50.0387 20.6724 49.9977C20.7601 49.9047 20.843 49.8526 20.9521 49.7841C20.8134 49.6807 20.7532 49.6358 20.6705 49.5742C20.9798 49.2904 20.8434 49.0156 20.6959 48.7531C20.8536 48.7776 20.9857 48.7913 21.1394 48.8029C21.1859 48.8148 21.2109 48.8287 21.2433 48.8647C21.435 48.9301 21.6193 48.9732 21.833 49.0141C22.0011 49.0119 22.1395 49.0119 22.2919 49.0355C22.4593 49.0515 22.6127 49.0439 22.7963 49.0347C22.9475 49.0311 23.0684 49.0291 23.2101 49.0458C23.5201 49.0496 23.8094 49.0347 24.0987 49.0198Z" fill="#A5DB4B"/>
<path d="M36.4961 50.1496C36.6437 50.0338 36.8003 49.909 36.9769 49.8277C37.3077 49.6754 37.6501 49.5481 38.0315 49.3913C38.5923 49.2091 39.1092 49.0462 39.6498 48.8826C39.7287 48.8591 39.7839 48.8362 39.8647 48.8133C39.9415 48.8125 39.9926 48.8117 40.07 48.808C40.2238 48.76 40.3498 48.7095 40.4793 48.671C41.1045 48.4849 41.7307 48.3021 42.3772 48.1157C42.4316 48.0918 42.4654 48.0703 42.5222 48.0449C42.5987 47.9738 42.6522 47.9066 42.7243 47.8241C43.1282 47.1424 43.5135 46.4762 43.9171 45.795C44.3877 45.0432 44.8401 44.3062 45.2926 43.5692C45.3309 43.5297 45.3692 43.4902 45.4279 43.4459C45.1488 43.9761 44.8583 44.5163 44.5479 45.0447C44.0009 45.9759 43.4518 46.9061 42.8799 47.8219C42.7546 48.0225 42.5539 48.2636 42.3472 48.3121C40.3544 48.7792 38.4332 49.4654 36.4961 50.1496Z" fill="#A5DB4B"/>
<path d="M3.13919 13.2488C3.04107 13.5202 2.94107 13.8141 2.80129 14.0878C2.02777 15.6019 1.40928 17.1751 0.99741 18.8252C0.757009 19.7883 0.546775 20.7589 0.299561 21.7355C0.505954 20.6419 0.687182 19.5261 0.976906 18.4393C1.41549 16.794 2.06671 15.2235 2.85425 13.7121C2.9346 13.5579 3.03035 13.4118 3.13919 13.2488Z" fill="#8AC447"/>
<path d="M50.8682 21.7164C50.7567 21.3654 50.6384 20.9888 50.5469 20.6059C50.4158 20.0567 50.3496 19.4881 50.1752 18.954C49.773 17.7221 49.322 16.5062 48.8929 15.2831C48.8744 15.2302 48.8779 15.1695 48.8788 15.0836C49.1607 15.7036 49.4646 16.3418 49.7035 17.0035C50.2524 18.5236 50.6342 20.0888 50.8682 21.7164Z" fill="#8AC447"/>
<path d="M0.139893 28.2808C0.181209 28.3359 0.23163 28.417 0.243038 28.5033C0.526171 30.644 1.00254 32.7357 1.80947 34.7449C1.83438 34.807 1.83295 34.8796 1.83562 34.9767C1.66367 34.5983 1.48062 34.197 1.33944 33.7815C0.734932 32.0026 0.311405 30.1824 0.139893 28.2808Z" fill="#8AC447"/>
<path d="M51.0291 27.9395C50.9973 27.7954 50.9608 27.6266 50.9634 27.4584C50.9798 26.3589 51.0327 25.2592 51.0164 24.1603C51.0067 23.5061 50.8909 22.8535 50.8273 22.1997C50.8185 22.1092 50.8354 22.0163 50.8576 21.9036C50.9607 22.6189 51.1081 23.3542 51.1191 24.0916C51.1381 25.3654 51.0725 26.6406 51.0291 27.9395Z" fill="#8AC447"/>
<path d="M15.7036 49.1276C15.8659 49.1539 16.0418 49.1954 16.2143 49.2477C17.5339 49.6478 18.8512 50.0552 20.173 50.448C20.5143 50.5494 20.8687 50.607 21.2274 50.7062C20.1347 50.4737 19.0219 50.2553 17.9321 49.9536C17.1768 49.7444 16.4533 49.4204 15.7036 49.1276Z" fill="#8AC447"/>
<path d="M1.83398 35.0632C1.88829 35.1014 1.96006 35.1594 1.99877 35.2344C2.61241 36.423 3.21671 37.6165 3.83501 38.8027C4.04187 39.1996 4.28199 39.5791 4.50475 39.9931C4.16005 39.5002 3.77152 39.0049 3.48462 38.4564C2.90587 37.3498 2.38236 36.2144 1.83398 35.0632Z" fill="#8AC447"/>
<path d="M49.3271 34.9893C49.444 34.5435 49.583 34.0825 49.7145 33.6193C49.9909 32.6456 50.2631 31.6708 50.5381 30.6967C50.5502 30.6537 50.5725 30.6136 50.6105 30.5608C50.4794 31.2254 50.363 31.9118 50.1673 32.5748C49.9283 33.3845 49.6227 34.1745 49.3271 34.9893Z" fill="#8AC447"/>
<path d="M47.1435 40.6371C47.12 40.6261 47.1094 40.601 47.1154 40.5807C47.3248 39.8697 47.563 39.1658 47.7354 38.446C47.8252 38.071 47.84 37.6847 48.1886 37.4115C47.983 38.2444 47.767 39.0857 47.5199 39.9178C47.4459 40.1668 47.2851 40.3901 47.1435 40.6371Z" fill="#8AC447"/>
<path d="M44.6539 8.50086C44.6247 8.5157 44.5804 8.51837 44.5598 8.49759C43.8707 7.80305 43.1838 7.10627 42.4939 6.38635C43.0324 6.86882 43.5778 7.37035 44.1125 7.88303C44.3049 8.06747 44.4715 8.27873 44.6539 8.50086Z" fill="#8AC447"/>
<path d="M22.6946 50.7301C23.1238 50.8203 23.5473 50.9366 23.9988 51.0649C24.0254 51.093 24.0238 51.109 24.0219 51.1251C23.1784 51.0135 22.3348 50.9019 21.4683 50.7767C21.7232 50.7772 22.0011 50.7988 22.2792 50.8024C22.4156 50.8042 22.5524 50.7727 22.6946 50.7301Z" fill="#8AC447"/>
<path d="M10.0286 45.8424C10.2599 45.9671 10.5043 46.1053 10.7359 46.2623C11.2284 46.596 11.7143 46.9396 12.2064 47.3021C11.4852 46.8382 10.7605 46.3513 10.0286 45.8424Z" fill="#8AC447"/>
<path d="M47.6546 12.6261C47.4912 12.4452 47.3143 12.25 47.1715 12.0324C46.8423 11.5307 46.5296 11.0181 46.2119 10.4836C46.6027 11.012 46.9947 11.5647 47.379 12.1227C47.4834 12.2742 47.5647 12.4415 47.6546 12.6261Z" fill="#8AC447"/>
<path d="M48.278 37.2989C48.2534 37.2566 48.225 37.1883 48.2462 37.1437C48.5792 36.4454 48.9185 35.7502 49.2797 35.0441C48.9678 35.7839 48.6325 36.5339 48.278 37.2989Z" fill="#8AC447"/>
<path d="M0 25.0555C0.0426808 25.0817 0.0993927 25.1389 0.0995016 25.1961C0.100763 25.8698 0.0935458 26.5434 0.0710677 27.2395C0.0316295 26.5368 0.00968292 25.8117 0 25.0555Z" fill="#8AC447"/>
<path d="M45.7981 9.87975C45.7687 9.90046 45.7183 9.91089 45.7038 9.89271C45.3558 9.45558 45.0116 9.01539 44.6641 8.55151C45.0389 8.97023 45.4165 9.41319 45.7981 9.87975Z" fill="#8AC447"/>
<path d="M12.6182 47.5848C13.1488 47.8435 13.6898 48.1235 14.2351 48.4268C13.7025 48.1687 13.1655 47.8875 12.6182 47.5848Z" fill="#8AC447"/>
<path d="M48.8512 14.9319C48.754 14.8245 48.6365 14.7014 48.5639 14.5559C48.396 14.2192 48.2498 13.8717 48.0991 13.5017C48.3527 13.9519 48.6019 14.429 48.8512 14.9319Z" fill="#8AC447"/>
<path d="M4.13118 11.5938C3.85157 12.1014 3.54965 12.6162 3.22534 13.1358C3.50492 12.6273 3.80689 12.1141 4.13118 11.5938Z" fill="#8AC447"/>
<path d="M6.97314 43.0947C7.34112 43.4262 7.71168 43.7809 8.08273 44.1605C7.71406 43.8296 7.34489 43.4738 6.97314 43.0947Z" fill="#8AC447"/>
<path d="M5.82471 41.7883C6.13195 42.1109 6.44457 42.4568 6.75816 42.8272C6.44945 42.5051 6.13977 42.1584 5.82471 41.7883Z" fill="#8AC447"/>
<path d="M8.27124 44.3721C8.57361 44.6068 8.88525 44.8636 9.19937 45.144C8.89474 44.9099 8.58762 44.652 8.27124 44.3721Z" fill="#8AC447"/>
<path d="M6.72154 8.23535C6.50994 8.51273 6.27552 8.796 6.01782 9.08294C6.22927 8.80483 6.464 8.52304 6.72154 8.23535Z" fill="#8AC447"/>
<path d="M8.62301 6.36646C8.39856 6.61246 8.15108 6.86216 7.87842 7.10728C8.10215 6.85852 8.35107 6.61434 8.62301 6.36646Z" fill="#8AC447"/>
<path d="M14.6284 48.6482C14.9698 48.7724 15.3256 48.9162 15.6883 49.0845C15.3444 48.9619 14.9936 48.8149 14.6284 48.6482Z" fill="#8AC447"/>
<path d="M42.3709 6.24767C42.1156 6.06286 41.8521 5.85567 41.5852 5.62585C41.8421 5.81058 42.1024 6.01794 42.3709 6.24767Z" fill="#8AC447"/>
<path d="M50.6785 30.3902C50.7102 30.0435 50.7604 29.6778 50.8334 29.3018C50.8031 29.6514 50.75 30.0113 50.6785 30.3902Z" fill="#8AC447"/>
<path d="M46.4348 41.8079C46.5808 41.5156 46.7483 41.2138 46.9397 40.9088C46.7944 41.2033 46.6254 41.5008 46.4348 41.8079Z" fill="#8AC447"/>
<path d="M0.0415398 23.7982C0.0545379 24.1143 0.054397 24.4559 0.0323457 24.8108C0.0164232 24.4906 0.0224131 24.1572 0.0415398 23.7982Z" fill="#8AC447"/>
<path d="M5.53269 9.63416C5.35769 9.90368 5.1605 10.1811 4.93945 10.4637C5.1139 10.1932 5.3122 9.91763 5.53269 9.63416Z" fill="#8AC447"/>
<path d="M25.7069 51.5483C25.726 51.582 25.7451 51.6157 25.7715 51.6673C25.4509 51.5827 25.1231 51.4803 24.78 51.3567C25.0161 51.4026 25.2673 51.4696 25.5661 51.5396C25.6448 51.5445 25.6759 51.5464 25.7069 51.5483Z" fill="#8AC447"/>
<path d="M50.8882 29.1304C50.9044 28.8107 50.9325 28.4661 50.9854 28.1127C50.9736 28.4377 50.9368 28.7717 50.8882 29.1304Z" fill="#8AC447"/>
<path d="M0.24836 21.9084C0.24059 22.1817 0.21776 22.4775 0.173096 22.7847C0.178607 22.5077 0.205953 22.2194 0.24836 21.9084Z" fill="#8AC447"/>
<path d="M5.00269 40.7249C5.1852 40.922 5.37085 41.1434 5.55497 41.3906C5.3709 41.1939 5.18836 40.9715 5.00269 40.7249Z" fill="#8AC447"/>
<path d="M9.24634 45.2133C9.47306 45.364 9.70923 45.5369 9.94654 45.7347C9.71706 45.5849 9.48642 45.4101 9.24634 45.2133Z" fill="#8AC447"/>
<path d="M4.89697 10.4712C4.77946 10.6777 4.63991 10.8913 4.47681 11.1079C4.59381 10.9001 4.73437 10.6892 4.89697 10.4712Z" fill="#8AC447"/>
<path d="M4.53003 40.0892C4.68614 40.2608 4.84317 40.4561 5.00088 40.6765C4.84469 40.5054 4.68782 40.3092 4.53003 40.0892Z" fill="#8AC447"/>
<path d="M7.19832 7.73694C7.07756 7.89874 6.93455 8.06688 6.7666 8.23346C6.88646 8.06903 7.03127 7.90615 7.19832 7.73694Z" fill="#8AC447"/>
<path d="M5.9668 9.09985C5.87001 9.25376 5.75109 9.41383 5.6084 9.57484C5.70464 9.4192 5.82466 9.26261 5.9668 9.09985Z" fill="#8AC447"/>
<path d="M48.0038 13.2585C47.8939 13.108 47.7838 12.9325 47.6763 12.7303C47.7871 12.8803 47.8953 13.057 48.0038 13.2585Z" fill="#8AC447"/>
<path d="M24.0423 51.1453C24.0224 51.109 24.024 51.093 24.0255 51.0647C24.0417 50.9933 24.0578 50.934 24.0739 50.8748C24.1057 50.8654 24.1375 50.856 24.1693 50.8467C24.1943 50.9464 24.2192 51.0461 24.2414 51.1696C24.1805 51.1842 24.1224 51.1749 24.0423 51.1453Z" fill="#AEE151"/>
<path d="M45.4729 43.4281C45.542 43.2714 45.6316 43.1049 45.7439 42.9325C45.6755 43.0905 45.5845 43.2543 45.4729 43.4281Z" fill="#A5DB4B"/>
<path d="M46.1855 10.3899C46.0757 10.2859 45.9655 10.1585 45.8589 10.0052C45.97 10.1084 46.0775 10.2374 46.1855 10.3899Z" fill="#8AC447"/>
<path d="M0.109331 23.0968C0.120327 23.2521 0.119938 23.4328 0.0974859 23.6244C0.0829274 23.4642 0.0904351 23.2932 0.109331 23.0968Z" fill="#8AC447"/>
<path d="M4.40916 11.1686C4.35366 11.3022 4.27639 11.4453 4.17383 11.5885C4.22816 11.4518 4.30777 11.3149 4.40916 11.1686Z" fill="#8AC447"/>
<path d="M0.0632324 27.4304C0.098032 27.554 0.123872 27.7053 0.132411 27.8755C0.0948321 27.7489 0.0745526 27.6036 0.0632324 27.4304Z" fill="#8AC447"/>
<path d="M7.75484 7.17603C7.67531 7.29028 7.57378 7.41094 7.4458 7.52853C7.52385 7.41112 7.62835 7.29678 7.75484 7.17603Z" fill="#8AC447"/>
<path d="M9.03604 6.00952C8.97461 6.09675 8.89013 6.18586 8.78027 6.2726C8.84093 6.18395 8.92695 6.09768 9.03604 6.00952Z" fill="#8AC447"/>
<path d="M9.46042 5.66248C9.39916 5.74706 9.31517 5.83478 9.2063 5.91866C9.26684 5.83176 9.35226 5.74868 9.46042 5.66248Z" fill="#8AC447"/>
<path d="M45.7957 42.9135C45.8343 42.7932 45.8952 42.6656 45.9792 42.5314C45.9408 42.6519 45.8793 42.7791 45.7957 42.9135Z" fill="#A5DB4B"/>
<path d="M46.2119 42.2032C46.2514 42.0868 46.3122 41.9629 46.3947 41.83C46.3554 41.9458 46.2943 42.0707 46.2119 42.2032Z" fill="#A5DB4B"/>
<path d="M5.5752 41.4863C5.6593 41.5486 5.74402 41.6335 5.82304 41.7431C5.73683 41.6815 5.65633 41.5952 5.5752 41.4863Z" fill="#8AC447"/>
<path d="M46.0254 42.5168C46.0481 42.4291 46.0924 42.3343 46.1586 42.2327C46.136 42.3205 46.0914 42.4151 46.0254 42.5168Z" fill="#A5DB4B"/>
<path d="M24.2942 51.2164C24.3154 51.1951 24.3525 51.1942 24.4343 51.1936C24.479 51.1939 24.513 51.1969 24.513 51.1969C24.553 51.2295 24.5929 51.262 24.6443 51.3103C24.5405 51.2962 24.4253 51.2664 24.2942 51.2164Z" fill="#8AC447"/>
<path d="M12.262 47.3751C12.3518 47.3996 12.4508 47.4455 12.5546 47.5145C12.4632 47.4906 12.3672 47.4436 12.262 47.3751Z" fill="#8AC447"/>
<path d="M35.3877 50.703C35.4269 50.6573 35.4909 50.613 35.5828 50.5737C35.5447 50.6206 35.4785 50.6625 35.3877 50.703Z" fill="#AEE151"/>
<path d="M14.3455 48.5117C14.4077 48.5189 14.4857 48.5443 14.5732 48.595C14.5089 48.5902 14.435 48.5601 14.3455 48.5117Z" fill="#8AC447"/>
<path d="M47.0039 40.8511C47.006 40.8078 47.0279 40.7559 47.0722 40.6991C47.0709 40.7436 47.0473 40.7931 47.0039 40.8511Z" fill="#8AC447"/>
<path d="M6.77002 42.88C6.80156 42.8804 6.83745 42.9014 6.8766 42.9442C6.8447 42.9442 6.80953 42.9224 6.77002 42.88Z" fill="#8AC447"/>
<path d="M48.1035 13.4624C48.0888 13.4652 48.0738 13.4502 48.0691 13.4268C48.0794 13.4184 48.1032 13.4447 48.1035 13.4624Z" fill="#8AC447"/>
<path d="M45.8604 9.96429C45.8421 9.96938 45.8218 9.95501 45.7991 9.92139C45.8172 9.91637 45.8378 9.9306 45.8604 9.96429Z" fill="#8AC447"/>
<path d="M7.27803 7.65784C7.28584 7.67547 7.27447 7.70069 7.24183 7.73068C7.23332 7.71212 7.24609 7.68877 7.27803 7.65784Z" fill="#8AC447"/>
<path d="M7.83831 7.1062C7.84469 7.1244 7.83254 7.1465 7.80036 7.17018C7.79349 7.1512 7.80663 7.13066 7.83831 7.1062Z" fill="#8AC447"/>
<path d="M9.16552 5.91882C9.17027 5.93738 9.15482 5.96051 9.11743 5.98558C9.1121 5.96614 9.12871 5.94477 9.16552 5.91882Z" fill="#8AC447"/>
<path d="M9.9519 45.7743C9.96916 45.7651 9.99273 45.7736 10.0205 45.8017C10.0026 45.8115 9.9804 45.8017 9.9519 45.7743Z" fill="#8AC447"/>
<path d="M41.797 37.3748C41.8076 37.3695 41.8182 37.3643 41.8584 37.3694C41.9271 37.3779 41.9661 37.3761 42.0051 37.3743C42.0051 37.3743 42.0081 37.3926 42.0079 37.4227C42.0299 37.4859 42.0522 37.5191 42.0781 37.5775C42.1814 37.8143 42.3284 37.7985 42.5187 37.689C42.5977 37.6662 42.6528 37.6432 42.7282 37.6291C42.8079 37.6234 42.8673 37.6089 42.9485 37.5916C42.998 37.5971 43.0257 37.6054 43.0587 37.6399C43.297 37.7176 43.5299 37.769 43.7597 37.8207C43.7565 37.821 43.7581 37.8147 43.7724 37.8374C43.8566 37.8707 43.9265 37.8812 44.0064 37.8875C44.0163 37.8833 44.0334 37.8962 44.0334 37.8962C44.1011 38.0249 44.1688 38.1534 44.2239 38.2583C43.7947 38.5534 43.7406 38.7488 44.1732 39.2758C44.5073 39.6827 44.5735 40.2248 44.8459 40.6082C45.2804 41.2199 44.989 41.8553 45.1302 42.4627C45.208 42.7972 45.4382 43.1337 45.2935 43.5398C44.8414 44.3062 44.389 45.0432 43.8958 45.7821C43.6545 45.5862 43.7799 45.4208 43.9207 45.2752C44.1502 45.0378 44.1524 44.9226 43.8956 44.7309C43.8149 44.6707 43.7257 44.622 43.6421 44.5692C43.6594 44.5297 43.6629 44.5034 43.6779 44.4902C43.8642 44.3255 44.0844 44.1754 43.6594 44.0146C43.5862 43.987 43.5499 43.7755 43.5519 43.6499C43.5632 42.9422 43.6334 42.2326 43.5941 41.5286C43.5776 41.2332 43.3398 40.9509 43.2061 40.6611C43.1508 40.5413 43.0959 40.42 43.0559 40.2946C42.9216 39.8743 42.9128 39.4097 42.5633 39.0686C42.3422 38.8528 42.0967 38.6297 41.9695 38.3593C41.855 38.1158 41.8705 37.8145 41.5054 37.7728C41.6194 37.6171 41.7082 37.496 41.797 37.3748Z" fill="#7DC725"/>
<path d="M16.7536 48.6743C16.6048 48.5875 16.4559 48.5007 16.2752 48.3821C16.0409 48.2246 15.8384 48.0988 15.6359 47.9731C15.6359 47.9731 15.6012 47.9723 15.5812 47.9475C15.5613 47.8364 15.5398 47.7429 15.5655 47.665C15.6697 47.3484 15.9233 47.0126 15.8725 46.7284C15.78 46.2105 15.7752 45.7038 15.7785 45.1882C15.779 45.1004 15.729 45.0134 15.7144 44.924C15.6884 44.7644 15.6717 44.6034 15.651 44.4429C15.6207 44.4413 15.5903 44.4397 15.56 44.4381C15.6791 44.1936 15.7982 43.9491 15.943 43.708C16.4172 43.8962 16.8658 44.0811 17.3189 44.2908C17.3909 44.4529 17.457 44.5909 17.5262 44.7273C17.5658 44.8054 17.5927 44.9028 17.6558 44.9538C17.935 45.1791 17.959 45.4744 17.9377 45.8002C17.9255 45.9864 17.9856 46.1775 17.9717 46.3633C17.9371 46.8256 18.0977 47.2199 18.3392 47.597C18.3725 47.649 18.3588 47.7323 18.3635 47.8013C18.4016 48.3649 18.3335 48.9511 18.7136 49.4417C18.1241 49.2574 17.5347 49.0731 16.918 48.8632C16.845 48.7832 16.7993 48.7287 16.7536 48.6743Z" fill="#8DCE34"/>
<path d="M18.7365 49.4514C18.333 48.9503 18.4011 48.3641 18.3629 47.8005C18.3582 47.7315 18.3719 47.6483 18.3386 47.5963C18.0972 47.2191 17.9365 46.8249 17.9711 46.3626C17.985 46.1767 17.925 45.9856 17.9371 45.7994C17.9584 45.4736 17.9344 45.1784 17.6552 44.953C17.5921 44.902 17.5652 44.8046 17.5256 44.7265C17.4564 44.5901 17.3903 44.4521 17.3445 44.293C17.5073 44.3184 17.6468 44.3717 17.79 44.4119C18.2764 44.5485 18.7648 44.6777 19.2509 44.8152C19.528 44.8936 19.6607 45.0174 19.4006 45.2837C19.3284 45.3576 19.313 45.487 19.2514 45.5943C19.2219 45.6441 19.2125 45.6906 19.203 45.7667C19.1795 46.0614 19.1079 46.333 19.1436 46.5897C19.2071 47.0466 19.2257 47.544 19.6921 47.831C19.6921 47.831 19.6929 47.8318 19.6956 47.8562C19.8832 48.0507 20.0681 48.2207 20.253 48.3907C20.2663 48.3927 20.2797 48.3947 20.3145 48.4299C20.4004 48.4864 20.4648 48.5096 20.5293 48.5329C20.5293 48.5329 20.5314 48.5314 20.5319 48.548C20.5324 48.5646 20.5336 48.5954 20.5356 48.6185C20.5823 48.6749 20.627 48.7082 20.6717 48.7415C20.8447 49.015 20.9812 49.2897 20.6719 49.5735C20.7546 49.6352 20.8148 49.6801 20.9535 49.7835C20.8444 49.852 20.7615 49.904 20.6733 49.9806C20.4487 49.9701 20.2295 49.935 19.9905 49.8539C19.9046 49.5653 19.7666 49.6301 19.6212 49.7261C19.5666 49.7023 19.5121 49.6784 19.4297 49.6268C19.2882 49.5702 19.1744 49.5415 19.0607 49.5127C18.9604 49.4958 18.8601 49.4789 18.7365 49.4514Z" fill="#97D43D"/>
<path d="M13.956 46.8531C13.8773 46.8091 13.7824 46.7807 13.7227 46.7185C13.4084 46.3912 13.0212 46.2254 12.5816 46.1435C12.4954 46.1274 12.4297 46.0019 12.3514 45.9003C12.3482 45.8739 12.3484 45.8737 12.3484 45.8737C12.528 45.8744 12.7103 45.8934 12.8861 45.8679C12.9674 45.8561 13.092 45.7625 13.0979 45.6971C13.1076 45.5894 13.0676 45.4447 12.994 45.3682C12.7541 45.1187 12.7827 44.6423 13.0923 44.4936C13.4223 44.335 13.473 44.2177 13.1955 43.9192C13.0374 43.7491 13.0449 43.425 12.9777 43.1702C12.9262 42.9749 12.8745 42.7797 12.8228 42.5844C12.7885 42.583 12.7541 42.5815 12.7197 42.5801C12.7969 42.519 12.8741 42.4578 12.9684 42.3832C12.9394 42.301 12.9082 42.2125 12.9174 42.1129C13.5248 42.4495 14.0917 42.7972 14.6579 43.1626C14.657 43.1919 14.657 43.2036 14.6541 43.2402C14.606 43.5013 14.646 43.7586 14.4318 43.9482C14.1395 44.2069 14.2759 44.4714 14.4282 44.7477C14.4967 44.872 14.5216 45.0337 14.523 45.1788C14.5267 45.5667 14.4194 45.9788 14.5176 46.3371C14.6602 46.8575 14.6738 46.9057 14.1298 46.8545C14.0723 46.8491 14.014 46.8534 13.956 46.8531Z" fill="#7AC622"/>
<path d="M13.9595 46.8768C14.0134 46.8533 14.0717 46.849 14.1292 46.8544C14.6732 46.9056 14.6596 46.8575 14.517 46.337C14.4188 45.9787 14.5261 45.5666 14.5224 45.1787C14.5209 45.0336 14.4961 44.8719 14.4276 44.7477C14.2753 44.4714 14.1389 44.2068 14.4312 43.9481C14.6453 43.7586 14.6054 43.5012 14.6713 43.2399C14.7037 43.2144 14.7155 43.2139 14.7558 43.2137C15.1617 43.3773 15.5392 43.5407 15.9166 43.704C15.7975 43.9485 15.6784 44.193 15.5593 44.4374C15.5897 44.439 15.62 44.4407 15.6504 44.4423C15.671 44.6027 15.6878 44.7638 15.7138 44.9234C15.7283 45.0127 15.7784 45.0997 15.7778 45.1876C15.7745 45.7032 15.7794 46.2098 15.8719 46.7277C15.9226 47.0119 15.6691 47.3478 15.5648 47.6643C15.5392 47.7422 15.5606 47.8357 15.5632 47.9466C15.4741 47.9399 15.3783 47.9172 15.2913 47.8759C15.0584 47.7656 14.9486 47.3525 14.6492 47.5532C14.405 47.3208 14.1843 47.1107 13.9595 46.8768Z" fill="#82CA2A"/>
<path d="M15.9427 43.7072C15.5396 43.5405 15.1621 43.3772 14.7481 43.199C14.6976 43.1659 14.6799 43.1528 14.6584 43.1448C14.0915 42.797 13.5246 42.4492 12.9334 42.0987C11.9863 41.5512 11.0825 40.9701 10.1336 40.4757C9.5579 40.1757 8.90813 40.0206 8.29955 39.7805C7.81216 39.5881 7.31156 39.5458 6.76343 39.5703C6.97318 39.5216 7.22271 39.4196 7.46012 39.4427C8.65555 39.5586 9.72195 40.0637 10.753 40.6349C12.2678 41.474 13.7494 42.3741 15.2754 43.1917C16.4977 43.8467 17.8086 44.3006 19.1516 44.6541C19.3201 44.6984 19.4838 44.7619 19.6475 44.8229C19.6993 44.8422 19.7436 44.8819 19.771 44.8994C19.6123 45.2766 19.4339 45.6266 19.3165 45.9959C19.1081 46.6518 19.3801 47.2242 19.693 47.8052C19.2261 47.5439 19.2075 47.0465 19.144 46.5896C19.1083 46.3329 19.1799 46.0613 19.2205 45.7539C19.2492 45.6712 19.2605 45.6311 19.2719 45.5909C19.3133 45.4869 19.3287 45.3576 19.4009 45.2837C19.6611 45.0173 19.5283 44.8936 19.2512 44.8152C18.7651 44.6777 18.2767 44.5484 17.7904 44.4119C17.6472 44.3717 17.5077 44.3184 17.3403 44.2681C16.8656 44.0803 16.417 43.8954 15.9427 43.7072Z" fill="#8AC447"/>
<path d="M43.0543 37.613C43.0266 37.6047 42.9988 37.5964 42.9264 37.5756C42.7512 37.5489 42.6208 37.5347 42.4739 37.5058C42.3866 37.4791 42.3158 37.4672 42.2377 37.4375C42.2261 37.4076 42.222 37.3955 42.2178 37.3833C42.701 37.461 43.1957 37.4969 43.6645 37.6267C44.2764 37.796 44.8664 38.0439 45.4686 38.2499C45.8504 38.3805 46.2581 38.1974 46.4712 37.8561C46.589 37.6675 46.7632 37.5141 46.935 37.3416C46.748 37.6953 46.5534 38.063 46.3171 38.4016C46.2578 38.4866 46.047 38.5358 45.9353 38.5025C45.3142 38.317 44.7022 38.101 44.0607 37.8955C44.0343 37.8956 44.0171 37.8826 43.9886 37.8677C43.893 37.8399 43.826 37.8269 43.7589 37.814C43.7589 37.814 43.7574 37.8203 43.7462 37.798C43.5082 37.7214 43.2812 37.6672 43.0543 37.613Z" fill="#D9D9D9"/>
<path d="M4.44678 37.9158C4.82285 38.4559 5.1967 39.0225 5.57464 39.6135C5.50899 39.5989 5.41009 39.5776 5.37408 39.5183C5.05787 38.9968 4.75287 38.4686 4.44678 37.9158Z" fill="#8AC447"/>
<path d="M5.71484 39.8573C5.86038 39.9704 5.98525 39.9917 6.1545 39.8401C6.28571 39.7226 6.47063 39.665 6.65764 39.5824C6.46369 39.7584 6.25322 39.9484 6.01519 40.093C5.97231 40.119 5.816 39.9583 5.71484 39.8573Z" fill="#8AC447"/>
<path d="M15.637 48C15.8395 48.0986 16.042 48.2243 16.2553 48.3713C15.9917 48.3821 15.6971 48.4067 15.637 48Z" fill="#82CA2A"/>
<path d="M47.5532 36.206C47.6748 35.8719 47.8173 35.5266 47.9829 35.1772C47.862 35.5138 47.7181 35.8543 47.5532 36.206Z" fill="#D9D9D9"/>
<path d="M48.2754 34.5593C48.3681 34.2401 48.481 33.9076 48.6181 33.5704C48.5267 33.8926 48.4112 34.2193 48.2754 34.5593Z" fill="#D9D9D9"/>
<path d="M20.6763 50.0961C20.9023 50.1466 21.1329 50.2226 21.3685 50.3233C21.1425 50.2725 20.9117 50.197 20.6763 50.0961Z" fill="#8DCE34"/>
<path d="M48.9478 32.7026C48.9908 32.4742 49.0525 32.2294 49.1367 31.9728C49.0949 32.2027 49.0307 32.4444 48.9478 32.7026Z" fill="#D9D9D9"/>
<path d="M48.6982 33.4392C48.7345 33.2603 48.7906 33.0678 48.8674 32.8665C48.8314 33.047 48.7747 33.2363 48.6982 33.4392Z" fill="#D9D9D9"/>
<path d="M19.6343 49.7449C19.7644 49.6305 19.9024 49.5657 19.9691 49.8349C19.863 49.8288 19.7563 49.796 19.6343 49.7449Z" fill="#8DCE34"/>
<path d="M48.0591 35.1029C48.0933 34.9577 48.148 34.7995 48.2247 34.6298C48.191 34.7755 48.1353 34.9326 48.0591 35.1029Z" fill="#D9D9D9"/>
<path d="M19.0686 49.5386C19.1765 49.5418 19.2903 49.5706 19.4095 49.6249C19.3015 49.6217 19.188 49.5929 19.0686 49.5386Z" fill="#8DCE34"/>
<path d="M11.6282 45.6992C11.6578 45.7475 11.6693 45.7867 11.6808 45.8259C11.6415 45.819 11.6023 45.8121 11.563 45.8052C11.5787 45.7668 11.5944 45.7285 11.6282 45.6992Z" fill="#7AC622"/>
<path d="M47.3369 36.627C47.3407 36.569 47.364 36.5018 47.4065 36.4304C47.4026 36.4901 47.3795 36.5539 47.3369 36.627Z" fill="#D9D9D9"/>
<path d="M16.7554 48.6981C16.8003 48.7281 16.846 48.7826 16.8935 48.8595C16.8489 48.8288 16.8025 48.7757 16.7554 48.6981Z" fill="#82CA2A"/>
<path d="M47.0239 37.2208C47.0305 37.1601 47.0567 37.0878 47.1075 37.0095C47.1026 37.0721 47.0731 37.1406 47.0239 37.2208Z" fill="#D9D9D9"/>
<path d="M5.57178 39.6565C5.6115 39.6725 5.64835 39.711 5.68564 39.7702C5.64702 39.7536 5.60797 39.7163 5.57178 39.6565Z" fill="#8AC447"/>
<path d="M45.3997 42.6128C45.4075 42.5824 45.4268 42.564 45.4462 42.5455C45.4538 42.5535 45.4684 42.5681 45.468 42.5686C45.4499 42.5881 45.4304 42.6063 45.3997 42.6128Z" fill="#7DC725"/>
<path d="M47.4789 36.3459C47.4713 36.3174 47.4824 36.2806 47.5102 36.2332C47.5171 36.2609 47.5073 36.2993 47.4789 36.3459Z" fill="#D9D9D9"/>
<path d="M49.1877 31.901C49.1749 31.8909 49.1738 31.8671 49.1861 31.8306C49.1995 31.841 49.1995 31.8642 49.1877 31.901Z" fill="#D9D9D9"/>
<path d="M12.3464 45.8746C12.3382 45.865 12.33 45.8554 12.3218 45.8457C12.3275 45.849 12.3333 45.8524 12.3429 45.865C12.3467 45.8743 12.3464 45.8746 12.3464 45.8746Z" fill="#7AC622"/>
<path d="M29.8357 47.542C29.8616 47.5394 29.8874 47.5368 29.958 47.5401C30.0861 47.4999 30.1694 47.4538 30.2528 47.4077C30.3099 47.3908 30.3671 47.374 30.4645 47.375C30.7834 47.3449 31.0666 47.314 31.3395 47.2438C31.59 47.1794 31.8296 47.0726 32.074 46.9844C32.1196 46.9812 32.1651 46.978 32.2636 46.9788C32.7015 46.9164 33.0863 46.8499 33.4711 46.7834C33.5045 46.9181 33.529 47.0558 33.5728 47.187C33.6954 47.5538 33.4781 48.0795 33.1262 48.2495C33.0843 48.2696 33.0407 48.3025 32.9981 48.3021C32.6537 48.2985 32.3998 48.346 32.5298 48.8102C32.5524 48.8907 32.3444 49.0816 32.2072 49.1487C32.0594 49.2211 31.8655 49.1919 31.6996 49.2366C31.5599 49.2742 31.3728 49.3181 31.3091 49.422C31.1034 49.7575 30.8492 49.7891 30.4829 49.735C29.9732 49.6596 29.4599 49.6889 28.9523 49.8728C28.3636 50.086 27.7981 49.8171 27.232 49.6772C27.0987 49.6442 26.9606 49.6236 26.8333 49.5749C26.7334 49.5368 26.6 49.4856 26.5622 49.4032C26.3969 49.0423 26.1545 48.8058 25.7419 48.7405C26.5669 48.4788 27.3944 48.2615 28.2179 48.0302C28.7601 47.8779 29.2967 47.7055 29.8357 47.542Z" fill="#BDE75E"/>
<path d="M29.8165 47.5258C29.2964 47.7051 28.7599 47.8775 28.2176 48.0298C27.3941 48.2611 26.5666 48.4784 25.7238 48.7207C25.6285 48.7605 25.5501 48.7813 25.4253 48.8047C25.3491 48.8076 25.3194 48.808 25.2897 48.8082C25.0003 48.8481 24.7109 48.8879 24.4006 48.9101C24.959 48.7489 25.5406 48.6141 26.117 48.4597C27.1428 48.1851 28.1646 47.8957 29.19 47.6197C29.388 47.5663 29.5948 47.5456 29.8165 47.5258Z" fill="#CBE686"/>
<path d="M35.521 46.3118C36.3719 46.1017 37.2497 45.9962 38.1433 46.0728C38.3164 46.0876 38.4911 46.0843 38.6952 46.1149C38.7191 46.1636 38.7129 46.1867 38.7067 46.2099C38.1067 46.2121 37.5066 46.2121 36.9066 46.2184C36.8041 46.2195 36.7019 46.2474 36.5727 46.2735C36.2109 46.2997 35.876 46.3153 35.521 46.3118Z" fill="#CBE686"/>
<path d="M33.4758 46.7678C33.0889 46.8499 32.7041 46.9164 32.2891 46.9795C32.4172 46.9098 32.5704 46.8234 32.7349 46.7821C32.9633 46.7247 33.2001 46.7012 33.4612 46.677C33.4854 46.7113 33.4817 46.7317 33.4758 46.7678Z" fill="#CBE686"/>
<path d="M34.3159 46.5557C34.6254 46.4626 34.9665 46.3779 35.3367 46.2992C35.3445 46.3556 35.3232 46.406 35.268 46.4768C35.184 46.4981 35.134 46.499 35.084 46.4999C34.8385 46.5213 34.593 46.5427 34.3159 46.5557Z" fill="#CBE686"/>
<path d="M23.2124 49.0452C23.524 48.9805 23.8563 48.9345 24.2188 48.8978C24.2131 48.9425 24.1773 48.9778 24.1213 49.0161C23.8118 49.0341 23.5224 49.049 23.2124 49.0452Z" fill="#CBE686"/>
<path d="M33.637 46.6796C33.7905 46.6165 33.9624 46.5686 34.155 46.5338C34.0022 46.5962 33.8288 46.6455 33.637 46.6796Z" fill="#CBE686"/>
<path d="M25.2927 48.8299C25.3207 48.8085 25.3504 48.8082 25.4023 48.808C25.4094 48.8447 25.3943 48.8813 25.3792 48.9179C25.3509 48.8956 25.3227 48.8732 25.2927 48.8299Z" fill="#BDE75E"/>
<path d="M35.095 46.518C35.133 46.499 35.183 46.4981 35.2578 46.4956C35.224 46.508 35.1655 46.522 35.095 46.518Z" fill="#BDE75E"/>
<path d="M38.7081 46.2366C38.7126 46.1866 38.7188 46.1634 38.7273 46.1225C38.754 46.0955 38.7782 46.0863 38.8475 46.0789C38.9264 46.0821 38.9603 46.0833 38.9964 46.1086C39.0445 46.1844 39.0903 46.2363 39.15 46.3064C39.2253 46.2915 39.2868 46.2585 39.3775 46.2254C39.5043 46.2261 39.6018 46.2267 39.7166 46.2426C39.9185 46.0219 39.8787 45.8223 39.6285 45.733C39.6278 45.7334 39.6284 45.7321 39.6268 45.7116C39.6031 45.6589 39.5811 45.6265 39.5511 45.5762C39.5245 45.5235 39.5058 45.4888 39.5012 45.4348C39.5369 45.3472 39.591 45.2697 39.5746 45.2123C39.4692 44.8419 39.3384 44.4786 39.2352 44.1076C39.1108 43.6603 38.8845 43.2253 39.058 42.734C39.084 42.6605 39.0272 42.5572 39.0072 42.468C38.9581 42.2482 38.8406 42.0188 38.8711 41.8108C38.9612 41.1962 38.4772 40.8266 38.2856 40.3374C38.1394 39.964 37.83 39.6547 37.5947 39.3158C37.3257 38.9283 37.2001 38.401 36.6226 38.293C36.7109 38.1973 36.7854 38.0924 36.8829 38.0627C37.3278 37.9272 37.7792 37.8129 38.2285 37.7209C38.2112 37.9646 38.2134 38.1558 38.465 38.2618C38.527 38.2879 38.5212 38.4617 38.5581 38.5633C38.6107 38.7077 38.663 38.8542 38.7358 38.9889C38.8123 39.1304 38.9361 39.2491 38.9978 39.3952C39.1146 39.6716 38.9827 40.0724 39.4144 40.19C39.449 40.1995 39.4868 40.2907 39.4811 40.3391C39.4516 40.5918 39.6087 40.7088 39.7892 40.8353C39.9743 40.9651 40.1118 41.1152 39.9632 41.3891C39.8893 41.5254 39.8961 41.7347 39.933 41.8957C40.0115 42.2382 40.1279 42.5728 40.2398 42.9069C40.3147 43.1305 40.4094 43.3474 40.4935 43.5679C40.5264 43.6543 40.6053 43.7666 40.577 43.8259C40.3946 44.2072 40.5807 44.5684 40.5946 44.939C40.6167 45.5278 40.5693 46.1203 40.5293 46.7097C40.5116 46.972 40.4844 47.2492 40.3837 47.4867C40.2104 47.8951 39.9763 48.2778 39.7443 48.6716C39.69 48.7421 39.6592 48.8123 39.6283 48.8825C39.1114 49.0454 38.5944 49.2084 38.0484 49.3718C37.9406 49.3646 37.862 49.3572 37.8588 49.3569C37.8588 49.1838 37.8435 49.0433 37.8618 48.9073C37.9049 48.5884 37.9478 48.2677 38.0236 47.9557C38.0606 47.8031 38.1754 47.6705 38.2465 47.5248C38.2869 47.442 38.2837 47.3145 38.3456 47.2696C38.6996 47.0124 38.7365 46.6519 38.7081 46.2366Z" fill="#97D53B"/>
<path d="M20.5318 48.5954C20.5318 48.5954 20.5306 48.5646 20.5298 48.5492C20.7155 48.6105 20.9019 48.6873 21.1029 48.7841C20.9853 48.7906 20.8532 48.7769 20.6956 48.7524C20.6699 48.7415 20.6698 48.7415 20.6672 48.7189C20.6203 48.6627 20.576 48.629 20.5318 48.5954Z" fill="#8AC447"/>
<path d="M21.2454 48.8638C21.4213 48.8834 21.6047 48.9252 21.7969 48.9912C21.6213 48.9722 21.4371 48.9291 21.2454 48.8638Z" fill="#8AC447"/>
<path d="M22.2937 49.0353C22.4317 49.0057 22.5837 48.9997 22.7518 49.0149C22.6145 49.0437 22.461 49.0513 22.2937 49.0353Z" fill="#CBE686"/>
<path d="M24.5304 51.1851C24.515 51.1974 24.4809 51.1945 24.4639 51.193C24.4781 51.1565 24.5093 51.1214 24.5406 51.0863C24.5423 51.1151 24.544 51.1439 24.5304 51.1851Z" fill="#AEE151"/>
<path d="M39.7672 48.6715C39.9757 48.278 40.2099 47.8954 40.3831 47.4869C40.4838 47.2495 40.511 46.9722 40.5288 46.71C40.5687 46.1206 40.6162 45.5281 40.5941 44.9393C40.5802 44.5687 40.3941 44.2075 40.5765 43.8261C40.6048 43.7669 40.5259 43.6546 40.4929 43.5682C40.4088 43.3476 40.3142 43.1307 40.2393 42.9071C40.1274 42.573 40.011 42.2385 39.9324 41.8959C39.8955 41.7349 39.8888 41.5256 39.9627 41.3894C40.1112 41.1154 39.9737 40.9653 39.7887 40.8356C39.6082 40.709 39.451 40.5921 39.4806 40.3393C39.4862 40.291 39.4485 40.1997 39.4139 40.1903C38.9822 40.0727 39.1141 39.6719 38.9973 39.3955C38.9355 39.2493 38.8118 39.1306 38.7353 38.9891C38.6625 38.8545 38.6102 38.708 38.5576 38.5636C38.5206 38.4619 38.5264 38.2882 38.4645 38.2621C38.2128 38.1561 38.2107 37.9649 38.2565 37.7193C38.5981 37.6408 38.9139 37.6068 39.2236 37.5429C39.4098 37.5045 39.5864 37.4195 39.7673 37.3555C39.7988 37.35 39.8304 37.3445 39.9041 37.3599C40.0495 37.3906 40.1529 37.4003 40.2513 37.4351C40.1456 37.5127 40.0449 37.5651 39.8954 37.6431C39.9986 37.6667 40.0502 37.6802 40.1025 37.6903C40.6512 37.7961 40.6436 37.7976 40.7564 38.3524C40.7735 38.4366 40.8899 38.5431 40.9777 38.5631C41.3182 38.6406 41.2841 38.797 41.1278 39.0328C41.0654 39.127 41.0122 39.2945 41.0543 39.3791C41.2223 39.7161 41.4304 40.033 41.6217 40.3586C41.7701 40.6112 41.919 40.8636 42.0592 41.1208C42.084 41.1664 42.0754 41.2359 42.0682 41.2925C42.0138 41.7244 42.0531 42.1258 42.3633 42.473C42.4188 42.5351 42.4254 42.7273 42.3728 42.7854C42.0692 43.1205 42.3742 43.4399 42.3784 43.763C42.3807 43.9421 42.4702 44.1183 42.4916 44.2993C42.5315 44.6362 42.5083 44.986 42.5887 45.3114C42.6893 45.7186 42.5022 46.1834 42.8352 46.5436C42.8536 46.5636 42.8131 46.6381 42.7948 46.7068C42.6866 46.6321 42.6081 46.5779 42.4429 46.4637C42.4633 46.8346 42.4792 47.1235 42.4701 47.4151C42.3248 47.5222 42.1238 47.6154 42.1075 47.734C42.0919 47.8483 42.2669 47.9887 42.3582 48.1177C41.7323 48.3017 41.1061 48.4845 40.4809 48.6705C40.3514 48.7091 40.2254 48.7596 40.0716 48.7834C40.0279 48.5012 39.8612 48.6979 39.7672 48.6715ZM39.6633 37.6699C39.6239 37.6622 39.5845 37.6546 39.5451 37.6469C39.5447 37.6749 39.5443 37.703 39.5439 37.731C39.5836 37.7244 39.6231 37.7177 39.6633 37.6699Z" fill="#8ECF35"/>
<path d="M42.4943 47.4132C42.4784 47.1243 42.4625 46.8354 42.442 46.4645C42.6073 46.5787 42.6858 46.6329 42.7939 46.7076C42.8122 46.6389 42.8528 46.5644 42.8343 46.5444C42.5013 46.1842 42.6885 45.7194 42.5879 45.3122C42.5075 44.9868 42.5307 44.637 42.4908 44.3001C42.4694 44.1191 42.3799 43.9429 42.3776 43.7638C42.3734 43.4407 42.0684 43.1213 42.3719 42.7861C42.4245 42.7281 42.4179 42.5359 42.3624 42.4738C42.0523 42.1266 42.013 41.7252 42.0674 41.2933C42.0745 41.2367 42.0832 41.1672 42.0583 41.1216C41.9181 40.8644 41.7693 40.612 41.6208 40.3594C41.4296 40.0338 41.2214 39.7169 41.0535 39.3799C41.0114 39.2953 41.0646 39.1278 41.127 39.0336C41.2833 38.7978 41.3174 38.6414 40.9769 38.5639C40.889 38.5439 40.7727 38.4374 40.7555 38.3532C40.6427 37.7984 40.6504 37.7969 40.1017 37.6911C40.0494 37.681 39.9977 37.6675 39.8945 37.6439C40.0441 37.5659 40.1448 37.5135 40.2706 37.4342C40.3299 37.3889 40.3641 37.3704 40.3987 37.3401C40.3991 37.3283 40.39 37.3066 40.39 37.3066C40.4667 37.3158 40.5435 37.3249 40.6619 37.3561C40.7864 37.3648 40.8692 37.3515 40.952 37.3382C41.2133 37.3421 41.4746 37.3461 41.7662 37.3625C41.7077 37.4963 41.6189 37.6174 41.5049 37.7731C41.87 37.8148 41.8545 38.1161 41.969 38.3596C42.0962 38.63 42.3417 38.8531 42.5628 39.0689C42.9122 39.41 42.9211 39.8746 43.0554 40.2949C43.0954 40.4203 43.1503 40.5416 43.2056 40.6614C43.3393 40.9512 43.5771 41.2335 43.5936 41.5289C43.6329 42.2329 43.5627 42.9425 43.5514 43.6502C43.5494 43.7758 43.5857 43.9873 43.6589 44.0149C44.0839 44.1757 43.8636 44.3258 43.6774 44.4905C43.6624 44.5037 43.6589 44.53 43.6416 44.5695C43.7252 44.6223 43.8144 44.671 43.8951 44.7312C44.1519 44.9229 44.1497 45.0381 43.9202 45.2755C43.7794 45.4211 43.654 45.5865 43.8771 45.7973C43.5143 46.4765 43.129 47.1428 42.7214 47.7977C42.6309 47.662 42.5626 47.5376 42.4943 47.4132Z" fill="#84CB2C"/>
<path d="M42.3802 48.1161C42.2683 47.9896 42.0932 47.8491 42.1089 47.7348C42.1252 47.6162 42.3261 47.523 42.472 47.4434C42.4992 47.6618 42.5007 47.8555 42.5022 48.0493C42.4684 48.0707 42.4346 48.0922 42.3802 48.1161Z" fill="#84CB2C"/>
<path d="M42.5254 48.0446C42.5009 47.8548 42.4994 47.6611 42.4973 47.4399C42.565 47.5369 42.6333 47.6614 42.7053 47.8124C42.6554 47.9063 42.6019 47.9735 42.5254 48.0446Z" fill="#8ECF35"/>
<path d="M39.7646 48.6717C39.8587 48.698 40.0254 48.5013 40.0429 48.7865C39.9917 48.8114 39.9406 48.8123 39.8463 48.8011C39.7903 48.75 39.7775 48.7108 39.7646 48.6717Z" fill="#97D53B"/>
<path d="M39.7439 48.6724C39.7802 48.7112 39.793 48.7504 39.8234 48.8015C39.7857 48.8363 39.7305 48.8592 39.6516 48.8827C39.6588 48.8131 39.6897 48.7429 39.7439 48.6724Z" fill="#8ECF35"/>
<path d="M25.0753 24.8038C25.0502 25.064 25.0285 25.2928 25.0058 25.5317C25.7345 24.8655 26.4445 24.2164 27.1544 23.5673C27.1907 23.5978 27.227 23.6283 27.2633 23.6588C27.2181 23.735 27.1811 23.8178 27.1264 23.8865C26.1326 25.1345 25.5008 26.5475 25.2778 28.1238C25.1903 28.7423 25.2133 29.3782 25.2086 30.0064C25.1974 31.5093 25.1792 33.0128 25.21 34.5152C25.2181 34.9109 25.3801 35.3075 25.4966 35.6961C25.7542 36.5547 26.0307 37.4076 26.2911 38.2654C26.3216 38.366 26.3413 38.5061 26.2953 38.5883C25.6359 39.7648 24.9644 40.9345 24.2634 42.1625C24.2534 42.0245 24.2422 41.9417 24.2421 41.8588C24.241 41.0661 24.2488 40.2733 24.2384 39.4808C24.2345 39.1821 24.2469 38.9191 24.5208 38.7143C24.7471 38.5452 24.7448 38.2915 24.6222 38.0506C24.4741 37.7596 24.1828 37.6986 23.9335 37.7929C23.7498 37.8625 23.5513 38.0801 23.5054 38.2675C23.4685 38.4182 23.6094 38.6668 23.7452 38.7921C23.9205 38.954 23.9714 39.1116 23.9691 39.3352C23.9593 40.2527 23.965 41.1704 23.965 42.1948C23.7924 41.905 23.6688 41.704 23.5515 41.4994C23.025 40.5805 22.4915 39.6654 21.9837 38.7363C21.9014 38.5857 21.8793 38.3556 21.9257 38.1891C22.213 37.1569 22.6354 36.1498 22.8049 35.1008C22.9929 33.9375 22.9851 32.7389 23.0132 31.5545C23.0432 30.2965 23.0687 29.0342 23.0002 27.779C22.8954 25.8586 22.3667 24.0868 20.8751 22.738C20.6884 22.5691 20.4858 22.4178 20.3066 22.2236C21.3614 22.5476 22.3397 23.03 23.2551 23.7568C23.6112 22.2959 24.2053 20.9794 24.9298 19.7185C25.6505 18.4642 26.4111 17.2434 27.7036 16.4557C27.47 16.9104 27.2284 17.3612 27.0044 17.8206C26.0324 19.8142 25.3956 21.9081 25.1408 24.1144C25.1155 24.3332 25.0991 24.553 25.0753 24.8038Z" fill="#35383A"/>
<path d="M34.8993 34.2915C34.9444 34.3708 34.9896 34.4501 35.0591 34.5559C35.0856 34.5959 35.0878 34.6094 35.0899 34.6228C34.9627 34.7423 34.8354 34.8618 34.6906 34.9995C34.6457 35.0225 34.6184 35.0274 34.5911 35.0322C34.5911 35.0322 34.5921 35.0315 34.5946 35.0112C34.5436 34.9301 34.4899 34.8694 34.4363 34.8087C34.4263 34.7802 34.4163 34.7518 34.4212 34.6856C34.4463 34.5432 34.4565 34.4385 34.4667 34.3338C34.4752 34.2836 34.4836 34.2333 34.5207 34.1476C34.5529 34.0581 34.5566 34.0041 34.5603 33.9501C34.5576 33.8582 34.5549 33.7663 34.5626 33.6375C34.5575 33.5414 34.542 33.4823 34.5264 33.4232C34.455 33.1978 34.3835 32.9723 34.312 32.7468C34.2861 32.7484 34.2602 32.75 34.2342 32.7515C34.218 33.0358 34.2081 33.3206 34.1835 33.6042C34.1635 33.834 34.1394 34.065 34.0935 34.2907C33.946 35.0159 33.8583 35.7639 33.6129 36.4553C33.3827 37.1036 33.6572 37.7132 33.5798 38.3426C33.5372 38.6881 33.684 39.057 33.7568 39.4813C33.4503 39.5512 33.1767 39.6136 32.9911 39.6559C32.8108 39.409 32.6851 39.2426 32.5666 39.0713C32.5303 39.0188 32.4879 38.9509 32.4918 38.893C32.564 37.8146 32.5251 36.7443 32.324 35.6789C32.2164 35.1085 32.13 34.532 32.0764 33.9544C32.0539 33.7118 32.1412 33.459 32.1178 33.2592C32.0107 33.0499 31.9035 32.8405 31.7848 32.6086C31.3853 32.7244 31.1711 33.3951 30.6087 33.2166C30.4896 33.3222 30.39 33.4106 30.2903 33.4989C30.2356 33.3857 30.1834 33.2711 30.1255 33.1595C30.0199 32.9561 29.9108 32.7546 29.7339 32.5922C29.7839 33.3105 29.8916 34.0308 29.8676 34.7466C29.8439 35.4561 29.6874 36.1612 29.5844 36.9029C29.2296 36.8713 29.2119 37.2332 29.1665 37.5254C29.1225 37.809 29.1006 38.1158 29.1641 38.3905C29.2265 38.6609 29.1814 38.7597 28.9164 38.7482C28.8766 39.1108 28.5503 39.229 28.0957 39.044C28.7618 38.3643 28.144 37.73 28.0568 37.0538C27.7813 37.0538 27.5294 37.0538 27.2871 37.0538C27.3166 36.4239 27.3562 35.8144 27.3704 35.2044C27.3847 34.5928 27.3736 33.9805 27.3736 33.4033C27.0284 33.677 27.1595 34.1667 27.0468 34.5725C26.6642 34.4867 26.6494 34.439 26.7617 34.1086C26.8397 33.8793 26.85 33.6275 26.9206 33.3949C27.1176 32.7457 27.3405 32.1043 27.5333 31.4539C27.6717 30.9875 28.0004 30.7867 28.4473 30.7162C28.4907 30.7094 28.5316 30.6858 28.5302 30.6863C28.4843 30.4212 28.3807 30.1657 28.4194 29.934C28.4482 29.7615 28.6347 29.5778 28.7985 29.474C29.044 29.3183 29.2842 29.4015 29.4522 29.6467C29.6582 29.9473 29.5577 30.3183 29.1483 30.6845C29.3294 30.7656 29.4919 30.8468 29.6606 30.912C29.9477 31.0232 30.0863 31.2118 30.1372 31.5307C30.2078 31.9727 30.3561 32.4023 30.4695 32.8314C30.5112 32.8344 30.5513 32.8437 30.5544 32.8367C30.7622 32.3624 31.2604 32.1004 31.425 31.5728C31.5132 31.2903 31.7784 31.0333 32.023 30.8396C32.1957 30.7027 32.2318 30.5821 32.1328 30.4453C31.94 30.1788 32.1716 30.0013 32.2788 29.8577C32.3704 29.7348 32.6364 29.6528 32.7907 29.6913C32.9411 29.729 33.0867 29.924 33.1617 30.084C33.2298 30.229 33.1999 30.4199 33.2159 30.6266C33.993 30.6438 34.283 31.2681 34.6151 31.8431C34.7722 32.115 34.9814 32.3742 35.0623 32.668C35.1446 32.9672 35.1114 33.3022 35.1021 33.6207C35.0978 33.7677 35.0297 33.9129 34.9562 34.0933C34.9143 34.1822 34.9068 34.2369 34.8993 34.2915Z" fill="#35383A"/>
<path d="M31.6667 18.0444C34.1679 17.1835 36.4247 17.612 38.5564 19.2172C37.361 20.3685 36.1442 21.3647 34.4995 21.7269C32.5871 22.1482 30.9097 21.5252 29.259 20.7167C29.2561 20.6823 29.2532 20.6479 29.2502 20.6135C30.0307 20.3435 30.8111 20.0735 31.5916 19.8035C31.5874 19.7718 31.5832 19.7401 31.5791 19.7084C30.8501 19.7084 30.1212 19.7084 29.3922 19.7084C29.3808 19.6728 29.3695 19.6372 29.3581 19.6016C29.9827 18.8935 30.7689 18.4131 31.6667 18.0444Z" fill="#EE763C"/>
<path d="M16.8275 36.7765C17.0337 36.4183 17.1486 36.0154 17.5702 35.8914C17.5702 35.6003 17.5467 35.3204 17.5749 35.0458C17.6409 34.4019 18.2827 34.1189 18.8079 34.489C19.3235 34.8524 19.3247 34.8528 19.1395 35.4222C19.0704 35.6346 19.0107 35.8524 18.9171 36.054C18.8029 36.3 18.5085 36.3684 18.1406 36.2406C18.234 36.5539 18.3207 36.8451 18.4094 37.1427C19.1115 36.6991 19.1394 36.6991 19.5493 37.1681C19.9794 36.8801 20.4149 36.5885 20.8643 36.2876C21.0408 36.5666 20.9976 36.7198 20.7694 36.8782C20.5889 37.0035 20.4719 37.2171 20.3008 37.3605C20.2 37.4449 20.0485 37.4688 19.9107 37.5235C19.9149 38.2023 20.5223 38.8684 21.5673 39.0936C21.4329 39.1573 21.3671 39.211 21.2965 39.2182C20.9393 39.2547 20.581 39.2853 20.2224 39.301C20.166 39.3035 20.0525 39.2154 20.0554 39.1759C20.093 38.6742 19.688 38.4845 19.3955 38.2169C19.2937 38.1237 19.1822 38.0411 19.0505 37.9337C18.9886 38.0304 18.8805 38.121 18.8898 38.1973C18.9653 38.8136 18.3975 38.9746 18.0706 39.2163C17.8114 39.4079 17.3275 39.3732 16.9638 39.3139C16.7744 39.283 16.6292 38.9815 16.5277 38.8714C16.3737 39.0047 16.1983 39.2819 15.9813 39.3196C15.4442 39.4128 14.8812 39.435 14.5315 38.8508C14.367 38.5762 14.1657 38.3236 13.9876 38.0704C13.6821 38.2846 13.3838 38.4653 13.1241 38.6905C13.0283 38.7735 13.034 38.9661 12.9731 39.0994C12.9371 39.1781 12.8595 39.2993 12.8038 39.2976C12.4219 39.2861 12.0406 39.2499 11.6599 39.2131C11.6164 39.2089 11.578 39.1523 11.533 39.1165C11.7617 39.0149 11.9605 38.9049 12.1728 38.8366C12.7311 38.657 12.8531 38.1136 13.1319 37.7046C13.2147 37.5832 13.163 37.4659 12.969 37.4639C12.8834 37.463 12.7818 37.4107 12.7169 37.3501C12.5606 37.2044 12.4373 37.0208 12.2723 36.8877C12.0151 36.6802 12.0052 36.6926 12.111 36.3198C12.3387 36.4414 12.569 36.5455 12.7786 36.6814C13.0067 36.8293 13.2157 37.0068 13.424 37.1645C13.9787 36.6754 14.1014 36.6797 14.5691 37.2015C14.6787 36.8759 14.7802 36.5745 14.8916 36.2437C14.3753 36.4098 14.232 36.3077 14.0825 35.8224C14.0003 35.5553 13.8361 35.3135 13.6619 34.9668C13.9178 34.7748 14.1682 34.4813 14.4818 34.3756C14.9913 34.2039 15.4182 34.5624 15.571 35.1652C15.6235 35.3723 15.6995 35.5734 15.7869 35.8464C15.7838 35.8485 15.7179 35.8918 15.6967 35.9057C15.9849 36.4293 16.2625 36.9337 16.5286 37.4172C16.6118 37.2394 16.7144 37.0198 16.8275 36.7765Z" fill="#35383A"/>
<path d="M24.9869 8.89456C25.0931 9.56455 25.1941 10.2062 25.3078 10.9282C23.8846 10.7923 22.6285 10.4429 21.6289 9.48373C20.3633 8.26951 20.1473 6.7041 20.201 5.01554C21.5322 5.00167 22.6777 5.34464 23.6036 6.27639C24.3221 6.99949 24.7208 7.89732 24.9869 8.89456Z" fill="#45B24D"/>
<path d="M32.5647 46.1453C32.535 46.1532 32.5054 46.161 32.4383 46.1486C32.245 46.175 32.0893 46.2216 31.9335 46.2682C31.9032 46.2771 31.8728 46.286 31.8043 46.2767C31.6587 46.3079 31.5513 46.3574 31.4439 46.4068C31.3471 46.4173 31.2503 46.4277 31.1244 46.4069C31.074 46.1518 31.1222 45.9974 31.3527 45.8671C31.4763 45.7973 31.5986 45.451 31.5407 45.3826C31.3083 45.1083 31.3841 44.8085 31.3779 44.5167C31.3657 43.9385 31.2546 43.7844 30.6868 43.6504C30.8216 43.3418 30.5978 43.3085 30.3823 43.2152C29.9995 43.0495 29.6097 43.2086 29.234 43.1399C28.5808 43.0205 28.1146 43.3228 27.7115 43.7716C27.5268 43.9773 27.3293 44.0912 27.0454 44.0591C26.9062 44.0434 26.7667 44.0528 26.7958 44.2808C26.8651 44.824 26.925 45.3692 26.9618 45.9154C26.9804 46.1926 27.0761 46.3202 27.3651 46.2964C27.5882 46.278 27.7388 46.3506 27.7531 46.6245C27.7572 46.7037 27.9185 46.7949 28.0249 46.8407C28.084 46.8662 28.1824 46.7846 28.256 46.7961C28.3405 46.8093 28.4172 46.8722 28.4973 46.9135C28.4349 46.9633 28.3766 47.0196 28.3093 47.0615C28.1913 47.135 28.0678 47.1996 27.9467 47.268C27.9467 47.268 27.9475 47.2723 27.9324 47.2779C27.9009 47.2934 27.8888 47.3071 27.881 47.3247C27.8495 47.3321 27.8179 47.3394 27.7516 47.33C27.6768 47.3371 27.6366 47.3609 27.5965 47.3848C27.5235 47.3972 27.4506 47.4096 27.338 47.405C27.2588 47.4214 27.2193 47.455 27.1797 47.4885C27.0806 47.5143 26.9816 47.54 26.8559 47.5451C26.8288 47.5102 26.8283 47.496 26.8279 47.4537C26.8058 47.0867 26.7063 46.8287 26.3057 46.7713C25.9522 46.7206 25.8276 46.4614 25.8647 46.112C25.9009 45.7712 25.8881 45.423 25.8718 45.0793C25.8483 44.5825 25.8039 44.0898 26.2685 43.7377C26.6325 43.4619 26.558 42.9694 26.7988 42.6306C26.8012 42.6272 26.7692 42.5993 26.7685 42.5595C26.8898 42.506 26.9945 42.4563 27.1021 42.4492C27.5828 42.417 28.0655 42.4105 28.5447 42.3657C28.7244 42.3489 28.8967 42.2533 29.0723 42.1937C29.1031 42.1881 29.1339 42.1824 29.2093 42.1967C29.5157 42.1884 29.793 42.2057 30.0363 42.1231C30.6772 41.9054 31.3034 41.6442 31.9324 41.4247C31.8114 41.6666 31.9634 41.7303 32.1219 41.8012C32.2302 41.8496 32.3623 41.8938 32.4274 41.9816C32.737 42.399 32.8613 42.9456 33.3275 43.2581C33.379 43.2926 33.3901 43.4009 33.4028 43.4778C33.4888 43.9994 33.5252 44.5346 33.669 45.0394C33.7624 45.3673 33.7729 45.6198 33.5184 45.8708C33.4165 45.9122 33.34 45.9524 33.2635 45.9925C33.1893 46.0021 33.1151 46.0116 32.9975 46.0002C32.8244 46.0346 32.6945 46.09 32.5647 46.1453Z" fill="#C0EA5E"/>
<path d="M28.9499 25.0015C28.8389 24.7862 28.7406 24.5931 28.5879 24.293C29.0551 24.4005 29.4146 24.4832 29.7742 24.566C29.7955 24.5286 29.8168 24.4912 29.8381 24.4538C29.4603 24.1521 29.0826 23.8504 28.7048 23.5488C28.7093 23.5094 28.7138 23.47 28.7183 23.4306C29.1457 23.383 29.5722 23.307 30.0007 23.2927C32.0535 23.2243 33.6087 24.0853 34.6734 25.8386C34.6794 25.8485 34.6841 25.8594 34.6907 25.8689C35.2907 26.7274 35.2413 26.6828 34.2913 26.9179C32.679 27.3169 31.166 27.0248 29.8375 26.0091C29.4949 25.7472 29.2516 25.3556 28.9499 25.0015Z" fill="#FAC64C"/>
<path d="M27.9729 47.2657C28.0665 47.1998 28.1899 47.1351 28.3079 47.0617C28.3752 47.0198 28.4335 46.9635 28.4959 46.9136C28.4158 46.8723 28.3391 46.8095 28.2547 46.7963C28.181 46.7848 28.0826 46.8663 28.0236 46.8409C27.9171 46.7951 27.7558 46.7039 27.7517 46.6247C27.7375 46.3508 27.5869 46.2782 27.3638 46.2966C27.0747 46.3204 26.9791 46.1928 26.9604 45.9156C26.9236 45.3694 26.8637 44.8242 26.7944 44.281C26.7653 44.053 26.9049 44.0436 27.0441 44.0593C27.3279 44.0914 27.5254 43.9775 27.7102 43.7718C28.1133 43.323 28.5794 43.0207 29.2326 43.1401C29.6083 43.2088 29.9982 43.0497 30.3809 43.2154C30.5964 43.3087 30.8202 43.342 30.6855 43.6506C31.2532 43.7846 31.3643 43.9387 31.3765 44.5169C31.3827 44.8087 31.3069 45.1084 31.5393 45.3828C31.5973 45.4512 31.4749 45.7975 31.3513 45.8673C31.1209 45.9975 31.0726 46.152 31.0936 46.405C30.6425 46.5654 30.1937 46.7047 29.74 46.8254C29.1622 46.9792 28.5805 47.118 27.9729 47.2657ZM28.8698 46.7864C28.8061 46.8032 28.7423 46.8199 28.6786 46.8367C28.6963 46.8728 28.714 46.9088 28.7317 46.9449C28.7934 46.8956 28.8551 46.8462 28.8698 46.7864Z" fill="#CAEE68"/>
<path d="M19.553 14.8867C19.553 14.8867 19.5573 14.9165 19.5532 14.9558C19.4565 14.996 19.339 15.0339 19.2761 14.9912C19.0514 14.8388 18.8436 14.6611 18.6324 14.4893C18.0808 14.0406 17.7913 13.4247 17.5585 12.7773C17.249 11.9168 17.0299 11.0457 17.3002 10.1261C17.3288 10.0289 17.2993 9.91602 17.3181 9.81434C17.3475 9.65429 17.3714 9.37656 17.4396 9.36324C17.6102 9.32992 17.8396 9.3663 17.9824 9.46545C18.4259 9.77334 18.8372 10.1271 19.2683 10.4536C19.3424 10.5097 19.452 10.5191 19.5452 10.5501C19.5452 10.5501 19.555 10.5776 19.5557 10.6193C19.5687 10.7281 19.557 10.8202 19.5969 10.8584C20.1023 11.3418 20.2795 11.9908 20.3837 12.63C20.4871 13.2643 20.4418 13.9233 20.453 14.5717C20.4539 14.6249 20.3884 14.6794 20.3129 14.7971C20.1639 14.5798 20.0553 14.3955 19.9206 14.2329C19.8043 14.0923 19.6583 13.9764 19.5255 13.8495C19.5255 13.8495 19.4984 13.8367 19.49 13.8016C19.4451 13.7005 19.4087 13.6345 19.3722 13.5685C19.2949 14.0454 19.2211 14.5021 19.553 14.8867Z" fill="#A44998"/>
<path d="M16.7667 23.1104C16.7967 23.1026 16.8267 23.0948 16.8932 23.096C16.9863 23.0902 17.0429 23.0754 17.0995 23.0605C17.1294 23.0567 17.1593 23.053 17.2436 23.052C17.682 23.0452 18.066 23.0356 18.4499 23.026C18.4786 23.0336 18.5072 23.0412 18.5782 23.0662C18.7213 23.1033 18.8221 23.1231 18.9228 23.1429C18.9228 23.1429 18.9245 23.1408 18.9259 23.1667C18.9218 23.2576 18.9162 23.3224 18.9107 23.3873C18.9107 23.3873 18.8993 23.3985 18.884 23.4064C18.8557 23.421 18.8479 23.4315 18.8454 23.446C18.8045 23.4714 18.7635 23.4968 18.6841 23.5376C18.5964 23.5923 18.547 23.6315 18.4976 23.6708C18.4976 23.6708 18.4821 23.6789 18.4672 23.6832C18.4523 23.6875 18.4319 23.7078 18.4319 23.7078C18.4156 23.7167 18.3994 23.7257 18.3498 23.7502C18.3031 23.7711 18.2946 23.7809 18.2912 23.795C18.2912 23.795 18.2683 23.8131 18.2505 23.8245C18.2327 23.836 18.2188 23.8607 18.2188 23.8607C18.2188 23.8607 18.1999 23.8785 18.1678 23.8901C17.9261 24.013 17.7165 24.1243 17.5069 24.2356C17.5168 24.2611 17.5266 24.2866 17.5364 24.3122C17.8341 24.2204 18.1317 24.1287 18.4293 24.0369C18.5135 24.0254 18.5976 24.0138 18.7387 23.9977C18.9272 23.9817 19.0588 23.9703 19.1904 23.9588C19.1594 24.0254 19.1284 24.0919 19.0688 24.1904C19.0214 24.2716 19.0025 24.3208 18.9836 24.37C18.9836 24.37 18.9733 24.3834 18.9571 24.3945C18.9266 24.4167 18.9214 24.4311 18.9252 24.4487C18.8766 24.5111 18.828 24.5734 18.7533 24.6582C18.7137 24.6911 18.707 24.7048 18.7069 24.7218C18.7069 24.7218 18.6968 24.732 18.6798 24.7413C18.6467 24.7611 18.6389 24.7758 18.6394 24.795C18.6306 24.8035 18.6219 24.812 18.5846 24.8349C18.5332 24.8625 18.5261 24.8817 18.5349 24.9067C18.5349 24.9067 18.5068 24.9261 18.4755 24.9401C18.4125 24.9895 18.3809 25.0248 18.3493 25.0601C18.3289 25.081 18.3086 25.1019 18.2638 25.1412C18.2265 25.1667 18.2187 25.1774 18.216 25.1918C18.216 25.1918 18.1956 25.2092 18.1792 25.2195C18.1627 25.2298 18.1482 25.2518 18.1482 25.2518C17.229 25.9647 16.191 26.3237 15.0274 26.2259C14.6053 26.1904 14.1921 26.0473 13.7757 25.9492C13.5431 25.8945 13.5613 25.76 13.6548 25.5837C14.1195 24.7067 14.7746 24.0203 15.6984 23.5502C15.781 23.511 15.8219 23.4783 15.8628 23.4456C15.8628 23.4456 15.8945 23.4369 15.9326 23.4334C16.0478 23.3898 16.1247 23.3497 16.2017 23.3097C16.2972 23.2724 16.3928 23.2352 16.5333 23.197C16.6411 23.1675 16.7039 23.139 16.7667 23.1104Z" fill="#1EACBE"/>
<path d="M34.0948 39.5669C34.305 39.4043 34.5152 39.2417 34.7564 39.1014C34.7171 39.243 34.6467 39.3624 34.5408 39.5422C34.7022 39.7321 34.8874 39.9765 35.1005 40.1933C35.3215 40.4181 35.5762 40.6095 35.8044 40.8278C36.1239 41.1336 35.9603 41.6964 36.3894 41.9522C36.4134 41.9666 36.395 42.0425 36.4086 42.0858C36.4569 42.2388 36.5107 42.39 36.5621 42.5419C36.6972 42.9411 36.831 43.3406 36.9677 43.7391C37.0074 43.8548 37.0532 43.9684 37.0997 44.0815C37.171 44.2545 37.2445 44.4266 37.3185 44.5984C37.3682 44.7136 37.3964 44.8495 37.4766 44.9376C37.6399 45.1169 37.8318 45.2702 38.012 45.4341C37.1468 45.5055 36.2816 45.5768 35.388 45.6321C35.3595 45.6161 35.3562 45.5908 35.3724 45.5717C35.4447 45.4271 35.5568 45.2953 35.5436 45.1774C35.5253 45.014 35.4411 44.8378 35.3345 44.709C35.156 44.4932 35.1323 44.3046 35.2391 44.0397C35.2908 43.9117 35.2156 43.6895 35.1271 43.5572C34.9517 43.2951 34.781 43.0624 34.7846 42.7122C34.7874 42.4338 34.7169 42.1258 34.5842 41.8827C34.437 41.613 34.188 41.3966 33.9724 41.1672C33.8007 40.9844 33.6126 40.8171 33.4106 40.6226C33.4214 40.5132 33.4406 40.3188 33.4598 40.1244C33.6242 39.9763 33.7885 39.8282 33.9895 39.6612C34.049 39.6172 34.0719 39.592 34.0948 39.5669Z" fill="#AADF4E"/>
<path d="M38.0447 45.4411C37.8335 45.2703 37.6416 45.1171 37.4783 44.9378C37.3981 44.8497 37.3699 44.7138 37.3202 44.5986C37.2462 44.4268 37.1726 44.2547 37.1014 44.0817C37.0549 43.9686 37.0091 43.855 36.9694 43.7393C36.8327 43.3408 36.6988 42.9413 36.5638 42.5421C36.5124 42.3902 36.4586 42.239 36.4103 42.086C36.3966 42.0427 36.4151 41.9668 36.391 41.9524C35.962 41.6966 36.1256 41.1338 35.8061 40.828C35.5779 40.6096 35.3232 40.4183 35.1022 40.1935C34.8891 39.9766 34.7039 39.7323 34.5425 39.5424C34.6484 39.3626 34.7188 39.2432 34.7812 39.096C34.7734 39.0681 34.7769 39.0684 34.8072 39.0756C34.8953 39.1495 34.9579 39.2127 35.0099 39.2837C35.0775 39.3758 35.1366 39.4741 35.2202 39.5668C35.2817 39.4987 35.3225 39.4334 35.3824 39.3481C35.4928 38.6469 35.6366 38.4913 36.2692 38.4192C36.2406 38.604 36.2159 38.7595 36.182 38.913C36.1598 39.0137 36.0734 39.1737 36.1044 39.1991C36.1975 39.2755 36.3346 39.3367 36.4535 39.3349C36.6766 39.3316 37.1912 39.6426 37.1647 39.8505C37.1094 40.2834 37.4385 40.5024 37.65 40.7529C37.885 41.0312 38.0058 41.3073 38.0199 41.6566C38.0362 42.0619 38.0376 42.4712 38.1016 42.8698C38.1396 43.1064 38.2717 43.3332 38.3872 43.5508C38.5356 43.8306 38.6683 44.0825 38.5497 44.4324C38.4713 44.6637 38.5348 44.943 38.5348 45.2481C38.8371 45.1508 39.036 45.147 39.0426 45.4463C38.8713 45.4442 38.7263 45.4438 38.5812 45.4433C38.4127 45.4449 38.2443 45.4464 38.0447 45.4411Z" fill="#A2DA43"/>
<path d="M10.3125 22.2941C11.4364 20.8612 13.2325 20.7814 14.6922 21.4274C14.1885 23.3926 12.4603 24.4405 9.42944 23.7097C9.7282 23.2301 10.0133 22.7724 10.3125 22.2941Z" fill="#47B24F"/>
<path d="M36.9385 13.1734C35.9372 15.0193 33.7073 15.1202 32.106 14.5987C32.9719 12.293 34.8298 11.3599 37.3191 12.3426C37.196 12.613 37.0735 12.882 36.9385 13.1734Z" fill="#47B24F"/>
<path d="M20.7891 44.803C20.7891 44.803 20.7976 44.7779 20.829 44.7646C20.9845 44.6376 21.1085 44.5238 21.2325 44.4101C21.2325 44.4101 21.2535 44.395 21.2944 44.395C21.4133 44.3962 21.4914 44.3973 21.5936 44.3978C21.6493 44.35 21.681 44.3028 21.7182 44.2315C21.8119 44.1774 21.9001 44.1474 22.0124 44.1198C22.0666 44.0745 22.0966 44.0268 22.1395 43.9585C22.3109 43.856 22.4693 43.7741 22.6284 43.7196C22.7985 44.0437 22.7981 44.2993 22.4947 44.5275C22.4445 44.5653 22.4582 44.7945 22.5206 44.8572C22.7719 45.1092 22.7817 45.409 22.7728 45.7284C22.7697 45.8395 22.8081 45.9532 22.8362 46.0635C22.8798 46.2352 22.9823 46.4093 22.9688 46.5749C22.9298 47.0523 23.0213 47.4229 23.5419 47.5694C23.5884 47.5825 23.6144 47.6686 23.6499 47.7207C23.594 47.7475 23.5405 47.7837 23.4816 47.7988C23.3925 47.8216 23.2997 47.8297 23.2084 47.844C23.2104 47.8795 23.2125 47.915 23.2145 47.9505C23.3206 47.9696 23.4358 48.0248 23.5311 48.0008C23.7766 47.9391 23.7415 48.0976 23.7467 48.2356C23.7161 48.243 23.6854 48.2504 23.6199 48.2385C23.5448 48.2363 23.5046 48.2533 23.4644 48.2703C23.3197 48.2891 23.1751 48.3078 22.9877 48.3039C22.8619 48.2995 22.7789 48.3178 22.6959 48.3361C22.2267 48.2644 21.7576 48.1927 21.2563 48.0889C20.9187 47.8483 20.6133 47.6398 20.3079 47.4313C20.3079 47.4313 20.3047 47.4285 20.306 47.4019C20.2358 47.2539 20.1643 47.1326 20.0928 47.0113C20.0928 47.0113 20.0938 47.0061 20.0959 46.9804C20.0416 46.8242 19.9854 46.6937 19.9291 46.5631C19.9263 46.4716 19.9234 46.38 19.9474 46.2524C19.9859 46.1633 19.9976 46.1102 20.0093 46.0571C20.0093 46.0571 20.0138 46.03 20.0416 46.0074C20.1873 45.7317 20.3052 45.4786 20.4231 45.2254C20.4231 45.2254 20.4283 45.2165 20.457 45.2154C20.5868 45.0773 20.688 44.9402 20.7891 44.803Z" fill="#A7DD49"/>
<path d="M23.7728 48.2415C23.7442 48.0972 23.7793 47.9387 23.5338 48.0004C23.4385 48.0244 23.3233 47.9692 23.2172 47.9501C23.2152 47.9146 23.2131 47.8791 23.2111 47.8436C23.3024 47.8292 23.3952 47.8211 23.4843 47.7983C23.5432 47.7833 23.5967 47.747 23.6526 47.7203C23.6171 47.6681 23.5911 47.5821 23.5446 47.569C23.024 47.4225 22.9325 47.0519 22.9715 46.5744C22.985 46.4088 22.8825 46.2348 22.8389 46.0631C22.8108 45.9527 22.7724 45.8391 22.7755 45.7279C22.7844 45.4086 22.7746 45.1088 22.5233 44.8567C22.4609 44.7941 22.4471 44.5649 22.4974 44.527C22.8008 44.2989 22.8012 44.0433 22.6464 43.702C23.3509 43.3938 24.0406 43.1301 24.7303 42.8959C24.7158 43.2164 24.6984 43.5075 24.6889 43.7989C24.6864 43.8755 24.6819 43.9749 24.7241 44.0262C24.8725 44.2064 24.8274 44.3767 24.7586 44.5712C24.6049 45.0058 24.3267 45.4424 24.7182 45.8993C24.7482 45.9343 24.7144 46.0174 24.7342 46.0689C24.8322 46.3239 24.9035 46.599 25.0518 46.822C25.1806 47.0155 25.4002 47.558 25.3174 47.755C25.2906 47.8188 25.2082 47.8603 25.1488 47.9091C25.0802 47.9654 25.0088 48.0185 24.9387 48.0729C24.8644 48.0878 24.7901 48.1027 24.6745 48.097C24.5719 48.1015 24.5106 48.1266 24.4492 48.1517C24.3754 48.1647 24.3016 48.1777 24.185 48.1695C24.0582 48.1749 23.9742 48.2013 23.8901 48.2277C23.8588 48.2344 23.8275 48.2411 23.7728 48.2415Z" fill="#B2E354"/>
<path d="M33.4404 40.1349C33.4425 40.3192 33.4233 40.5136 33.4125 40.6229C33.6144 40.8174 33.8026 40.9848 33.9743 41.1675C34.1899 41.3969 34.4389 41.6133 34.5861 41.8831C34.7188 42.1262 34.7893 42.4342 34.7864 42.7125C34.7829 43.0628 34.9536 43.2954 35.129 43.5575C35.2175 43.6898 35.2926 43.912 35.241 44.04C35.1342 44.3049 35.1578 44.4935 35.3364 44.7093C35.443 44.8382 35.5272 45.0144 35.5455 45.1778C35.5587 45.2956 35.4466 45.4275 35.3508 45.5731C35.2579 45.6175 35.2045 45.6417 35.1511 45.6659C34.9841 45.6919 34.8172 45.718 34.6074 45.7238C34.48 45.7295 34.3955 45.7555 34.311 45.7815C34.2584 45.7906 34.2058 45.7997 34.1109 45.7874C33.9865 45.8014 33.9043 45.8369 33.8222 45.8723C33.7968 45.8808 33.7715 45.8893 33.699 45.8891C33.6152 45.8771 33.5786 45.8736 33.542 45.8701C33.7712 45.6205 33.7608 45.368 33.6674 45.0401C33.5236 44.5353 33.4871 44.0002 33.4012 43.4786C33.3885 43.4016 33.3774 43.2933 33.3258 43.2588C32.8596 42.9463 32.7354 42.3997 32.4258 41.9824C32.3606 41.8945 32.2286 41.8503 32.1202 41.8019C31.9618 41.731 31.8098 41.6673 31.9542 41.421C32.104 41.2751 32.2272 41.1579 32.3504 41.0408C32.3925 41.0082 32.4346 40.9757 32.5112 40.9262C32.5982 40.8639 32.6507 40.8186 32.7032 40.7732C32.9419 40.5638 33.1805 40.3544 33.4404 40.1349Z" fill="#B4E454"/>
<path d="M14.4925 12.1115C15.1187 12.6675 15.5337 13.3293 15.7508 14.1076C14.1088 14.9439 12.0162 13.6383 11.3032 11.5303C12.4478 11.2721 13.5187 11.3368 14.4925 12.1115Z" fill="#48B250"/>
<path d="M24.9624 48.0815C25.0075 48.0187 25.0789 47.9656 25.1475 47.9093C25.2069 47.8605 25.2893 47.819 25.3161 47.7552C25.3989 47.5583 25.1793 47.0157 25.0505 46.8222C24.9022 46.5992 24.8309 46.3241 24.7329 46.0691C24.7131 46.0176 24.7469 45.9345 24.7169 45.8995C24.3254 45.4427 24.6036 45.006 24.7573 44.5714C24.8261 44.3769 24.8712 44.2067 24.7228 44.0264C24.6806 43.9751 24.6851 43.8758 24.6876 43.7991C24.6971 43.5077 24.7145 43.2167 24.7551 42.8922C25.3228 42.7671 25.8644 42.6753 26.4166 42.5994C26.4681 42.6043 26.5089 42.5931 26.5751 42.5822C26.6512 42.5827 26.7018 42.5831 26.7525 42.5835C26.7684 42.6 26.8004 42.6278 26.798 42.6313C26.5571 42.9701 26.6317 43.4625 26.2677 43.7384C25.8031 44.0905 25.8474 44.5832 25.871 45.0799C25.8873 45.4237 25.9001 45.7718 25.8639 46.1127C25.8268 46.4621 25.9514 46.7213 26.3049 46.7719C26.7055 46.8294 26.805 47.0874 26.8042 47.458C26.7507 47.5368 26.7201 47.584 26.6894 47.6312C26.1221 47.7841 25.5547 47.937 24.9624 48.0815Z" fill="#BDE75E"/>
<path d="M28.6168 5.70246C28.912 7.2917 27.8621 8.40975 26.8162 8.8424C25.6858 7.29661 26.6612 5.50981 28.2793 4.57654C28.3921 4.95134 28.5006 5.31186 28.6168 5.70246Z" fill="#1EACBE"/>
<path d="M27.4744 11.0525C28.2625 9.4696 29.6479 8.61006 31.1738 7.82092C31.7824 9.3136 31.8504 10.815 31.4283 12.3328C30.9107 14.1937 29.8467 15.64 28.024 16.6083C28.1655 15.8424 28.2901 15.167 28.4148 14.4916C28.3836 14.4795 28.3523 14.4674 28.321 14.4553C27.9092 15.0993 27.4975 15.7432 27.0857 16.3872C27.052 16.3755 27.0184 16.3638 26.9847 16.3522C26.6875 14.5565 26.5465 12.7732 27.4744 11.0525ZM30.8954 13.2551C31.0775 12.7212 31.3327 12.1997 31.4259 11.6507C31.5978 10.6381 31.5241 9.61475 31.296 8.61119C31.2538 8.42568 31.1172 8.26164 31.0256 8.09046C27.06 10.0774 26.5061 13.0309 27.1314 15.9726C27.5912 15.2809 28.0021 14.6627 28.413 14.0446C28.4673 14.0611 28.5217 14.0777 28.576 14.0942C28.6711 14.8027 28.2505 15.4825 28.3412 16.2669C29.4525 15.4521 30.4157 14.5982 30.8954 13.2551Z" fill="#C44653"/>
<path d="M26.1524 21.3608C26.4541 20.8498 26.8757 20.605 27.4442 20.706C27.9163 20.7898 28.2342 21.0872 28.3752 21.5456C28.5199 22.016 28.3289 22.5489 27.9453 22.8129C27.4759 23.1361 26.998 23.1436 26.5505 22.8348C26.1322 22.5461 25.9498 22.0429 26.086 21.5499C26.1014 21.494 26.123 21.4398 26.1524 21.3608Z" fill="#35383A"/>
<path d="M22.849 12.573C23.7005 13.1314 23.9954 14.4918 23.6922 15.2875C23.5704 15.2293 23.4506 15.1721 23.3062 15.1032C23.2706 15.2185 23.2388 15.3215 23.1913 15.4755C23.0413 15.3814 22.9052 15.3203 22.7993 15.2256C21.9343 14.4516 21.7368 13.4738 21.9424 12.3753C21.9809 12.1697 22.114 12.1241 22.2734 12.2043C22.4686 12.3026 22.6454 12.4374 22.849 12.573Z" fill="#F6C654"/>
<path d="M21.3171 20.5161C21.6157 20.027 22.0319 19.8231 22.5693 19.9199C23.0323 20.0034 23.3322 20.291 23.4668 20.7436C23.5974 21.1831 23.4341 21.6689 23.0638 21.9547C22.6368 22.2842 22.1895 22.3101 21.7377 22.0316C21.3239 21.7766 21.1221 21.3165 21.2195 20.84C21.2403 20.7383 21.2763 20.6398 21.3171 20.5161Z" fill="#35383A"/>
<path d="M12.9103 17.8255C12.7694 17.5865 12.6419 17.3692 12.5149 17.1526C14.5175 16.0023 17.9046 16.8844 19.3238 19.4209C18.8906 19.3769 18.4909 19.3364 18.0912 19.2958C18.0741 19.327 18.0571 19.3583 18.04 19.3896C18.3647 19.6842 18.6894 19.9788 19.0295 20.2874C17.0185 20.7892 14.4617 20.475 12.9103 17.8255ZM12.79 17.2845C12.9724 17.5878 13.1381 17.9027 13.3404 18.1921C13.8386 18.905 14.4754 19.4562 15.2601 19.8489C16.0306 20.2344 16.8484 20.34 17.6883 20.3358C17.9991 20.3342 18.3096 20.2678 18.6654 20.2256C18.4337 20.0066 18.2346 19.8458 18.0721 19.654C17.9807 19.546 17.9497 19.3868 17.8915 19.2507C18.0175 19.2184 18.143 19.1612 18.2695 19.1591C18.4998 19.1553 18.7307 19.184 18.9921 19.2012C18.4884 18.3657 17.7536 17.8705 16.9893 17.4195C16.109 16.9 15.1342 16.7685 14.1354 16.8537C13.673 16.8931 13.1812 16.9011 12.79 17.2845Z" fill="#4183A6"/>
<path d="M22.4575 18.619C22.1647 18.1829 22.1092 17.7209 22.1427 17.2371C23.0831 17.2297 23.7426 18.2129 23.4401 19.1714C23.0413 19.1336 22.7201 18.9562 22.4575 18.619Z" fill="#48B250"/>
<path d="M19.5404 10.5267C19.4488 10.519 19.3392 10.5096 19.265 10.4535C18.834 10.127 18.4226 9.77321 17.9791 9.46532C17.8363 9.36617 17.6069 9.32979 17.4363 9.36311C17.3682 9.37643 17.3443 9.65416 17.3148 9.81421C17.2961 9.91589 17.3255 10.0288 17.297 10.1259C17.0267 11.0456 17.2458 11.9167 17.5552 12.7771C17.788 13.4246 18.0776 14.0405 18.6291 14.4892C18.8403 14.661 19.0482 14.8387 19.2728 14.991C19.3358 15.0337 19.4533 14.9959 19.5507 14.9707C19.6096 15.0721 19.6637 15.1978 19.7416 15.3791C17.6129 14.6247 16.4356 11.5136 17.3823 9.01343C18.2002 9.3726 18.9409 9.83153 19.5404 10.5267Z" fill="#976091"/>
<path d="M26.407 42.5832C25.8655 42.675 25.3239 42.7668 24.7562 42.8626C24.0404 43.1301 23.3507 43.3938 22.6456 43.6746C22.4718 43.7736 22.3134 43.8556 22.1212 43.9625C22.0551 44.0306 22.0229 44.0738 21.9907 44.117C21.9026 44.1469 21.8144 44.1769 21.6992 44.2362C21.6387 44.3096 21.6054 44.3537 21.572 44.3979C21.4939 44.3968 21.4158 44.3957 21.3086 44.3891C21.5754 44.1664 21.85 43.9088 22.171 43.7393C23.2709 43.1585 24.4099 42.6704 25.6613 42.5223C26.5348 42.4189 27.4107 42.3352 28.2856 42.2443C28.5277 42.2192 28.7705 42.1999 29.0428 42.186C28.8969 42.2538 28.7247 42.3494 28.545 42.3662C28.0658 42.411 27.5831 42.4175 27.1024 42.4496C26.9948 42.4568 26.89 42.5065 26.7688 42.5599C26.7029 42.5829 26.6523 42.5825 26.565 42.5671C26.4879 42.5625 26.4475 42.5729 26.407 42.5832Z" fill="#CBE686"/>
<path d="M19.5312 13.8736C19.658 13.9761 19.8039 14.0921 19.9203 14.2326C20.0549 14.3953 20.1635 14.5795 20.3125 14.7968C20.3881 14.6791 20.4536 14.6247 20.4526 14.5714C20.4414 13.923 20.4867 13.2641 20.3833 12.6297C20.2792 11.9905 20.1019 11.3416 19.5965 10.8582C19.5566 10.82 19.5683 10.7278 19.5577 10.6334C20.0903 11.0703 20.3334 11.6959 20.5088 12.3495C20.7505 13.2504 20.6449 14.1619 20.5707 15.136C20.0365 14.8298 19.8283 14.3283 19.5312 13.8736Z" fill="#976091"/>
<path d="M36.2703 38.3886C35.6378 38.4909 35.494 38.6465 35.3761 39.3204C35.3234 39.1252 35.2973 38.9372 35.2712 38.7492C35.3347 38.6868 35.388 38.6055 35.4633 38.565C36.5083 38.0029 37.6186 37.6332 38.8463 37.4536C39.0251 37.4318 39.1493 37.409 39.2735 37.3862C39.3757 37.3738 39.4779 37.3613 39.6228 37.3469C39.6656 37.3449 39.6976 37.3308 39.6976 37.3308C39.7099 37.3331 39.7223 37.3354 39.7513 37.3466C39.5871 37.4194 39.4105 37.5043 39.2243 37.5427C38.9147 37.6066 38.5988 37.6407 38.2571 37.6892C37.7794 37.813 37.328 37.9273 36.8831 38.0628C36.7856 38.0925 36.7111 38.1974 36.5968 38.2932C36.4684 38.342 36.3694 38.3653 36.2703 38.3886Z" fill="#A5DB4B"/>
<path d="M32.3234 41.0403C32.2263 41.1582 32.1031 41.2754 31.9564 41.3969C31.3008 41.6452 30.6747 41.9064 30.0338 42.1241C29.7904 42.2067 29.5132 42.1894 29.2302 42.2006C29.4396 42.1234 29.669 42.058 29.9009 42.0038C30.6935 41.8188 31.4511 41.5498 32.1346 41.0962C32.181 41.0654 32.2428 41.0579 32.3234 41.0403Z" fill="#CBE686"/>
<path d="M34.5889 35.0619C34.6163 35.0272 34.6436 35.0224 34.6905 35.0247C34.835 35.8739 34.96 36.716 35.0549 37.5903C35.0067 37.6242 34.9885 37.6259 34.9704 37.6276C34.8431 36.7823 34.7159 35.937 34.5889 35.0619Z" fill="#505050"/>
<path d="M34.9717 37.6597C34.9889 37.626 35.0071 37.6243 35.0526 37.6211C35.1342 37.976 35.1886 38.3325 35.2564 38.7192C35.296 38.9373 35.3221 39.1253 35.3556 39.3406C35.3223 39.4332 35.2816 39.4984 35.2193 39.5376C35.145 39.3133 35.0924 39.1151 35.0398 38.9169C35.0174 38.5085 34.995 38.1001 34.9717 37.6597Z" fill="#35383A"/>
<path d="M39.1384 46.2887C39.0926 46.2369 39.0467 46.185 38.9997 46.0919C38.9985 46.0507 38.9987 46.0163 39.0023 45.9998C39.0059 45.9834 39.006 45.9497 39.006 45.9497C39.1112 45.8891 39.2165 45.8286 39.356 45.746C39.4233 45.7058 39.4563 45.6876 39.5022 45.6851C39.5537 45.7113 39.5922 45.722 39.6307 45.7326C39.6307 45.7326 39.6301 45.7339 39.6338 45.761C39.6589 45.9346 39.6803 46.0813 39.7016 46.2279C39.6041 46.2272 39.5066 46.2266 39.3661 46.2081C39.2615 46.2231 39.2 46.2559 39.1384 46.2887Z" fill="#75C223"/>
<path d="M32.0572 46.9698C31.8311 47.0724 31.5915 47.1792 31.341 47.2436C31.068 47.3138 30.7849 47.3447 30.4883 47.3769C30.5564 47.3113 30.6368 47.236 30.7293 47.2158C31.164 47.1207 31.602 47.0408 32.0572 46.9698Z" fill="#CBE686"/>
<path d="M19.5665 14.8674C19.2218 14.502 19.2956 14.0453 19.3729 13.5684C19.4094 13.6344 19.4458 13.7004 19.4819 13.7894C19.4822 13.9914 19.4708 14.1715 19.4872 14.3491C19.5027 14.5169 19.5474 14.682 19.5665 14.8674Z" fill="#976091"/>
<path d="M18.4153 24.0252C18.1323 24.1286 17.8347 24.2204 17.537 24.3121C17.5272 24.2866 17.5174 24.2611 17.5076 24.2355C17.7172 24.1242 17.9268 24.0129 18.1589 23.8989C18.143 24.1437 18.3233 23.9826 18.4153 24.0252Z" fill="#B5B5B5"/>
<path d="M18.4318 23.007C18.0651 23.0352 17.6811 23.0448 17.2646 23.0459C17.6263 23.0211 18.0204 23.0048 18.4318 23.007Z" fill="#B5B5B5"/>
<path d="M20.3101 47.455C20.6117 47.6398 20.9172 47.8483 21.2274 48.08C20.8619 47.9894 20.5044 47.8567 20.3101 47.455Z" fill="#CBE686"/>
<path d="M39.4855 45.6693C39.4525 45.6875 39.4195 45.7057 39.3683 45.7293C39.1109 45.6446 38.8716 45.5545 38.6064 45.4538C38.7257 45.4437 38.8708 45.4441 39.065 45.438C39.2379 45.4391 39.3617 45.4469 39.4856 45.4546C39.5042 45.4893 39.5229 45.5239 39.5413 45.5923C39.5224 45.6404 39.504 45.6548 39.4855 45.6693Z" fill="#AADF4E"/>
<path d="M20.2504 48.3678C20.0697 48.2209 19.8848 48.0509 19.6975 47.8569C19.8788 48.0035 20.0625 48.1741 20.2504 48.3678Z" fill="#8AC447"/>
<path d="M20.4024 45.2341C20.3051 45.4787 20.1872 45.7319 20.0471 45.995C20.1439 45.7509 20.2629 45.4968 20.4024 45.2341Z" fill="#CBE686"/>
<path d="M35.0074 38.9093C35.0923 39.1155 35.1449 39.3138 35.1983 39.5409C35.1363 39.4743 35.0772 39.376 35.0096 39.2839C34.9576 39.2129 34.895 39.1497 34.8086 39.0757C34.8451 39.0126 34.9102 38.957 35.0074 38.9093Z" fill="#AADF4E"/>
<path d="M20.7693 44.8105C20.69 44.9395 20.5889 45.0766 20.4631 45.2117C20.5415 45.0793 20.6445 44.949 20.7693 44.8105Z" fill="#CBE686"/>
<path d="M21.208 44.4094C21.1084 44.5233 20.9844 44.637 20.8359 44.7528C20.9355 44.6396 21.0595 44.5244 21.208 44.4094Z" fill="#CBE686"/>
<path d="M31.9595 46.276C32.0892 46.2218 32.2449 46.1752 32.4151 46.1486C32.2815 46.2069 32.1335 46.2452 31.9595 46.276Z" fill="#CAEE68"/>
<path d="M39.9709 37.3089C40.1063 37.2933 40.2417 37.2776 40.383 37.2839C40.3889 37.3058 40.3981 37.3275 40.3678 37.3312C40.2154 37.3263 40.0932 37.3176 39.9709 37.3089Z" fill="#D9D9D9"/>
<path d="M19.9207 46.5887C19.9863 46.6934 20.0425 46.8239 20.0941 46.9807C20.0301 46.8761 19.9707 46.7454 19.9207 46.5887Z" fill="#CBE686"/>
<path d="M31.4668 46.4137C31.5503 46.3576 31.6577 46.3081 31.7795 46.2767C31.6928 46.3367 31.5918 46.3785 31.4668 46.4137Z" fill="#CAEE68"/>
<path d="M32.5886 46.1472C32.6931 46.0906 32.823 46.0353 32.968 45.9988C32.86 46.0613 32.737 46.1049 32.5886 46.1472Z" fill="#CAEE68"/>
<path d="M33.5199 45.8715C33.5818 45.8736 33.6184 45.877 33.6821 45.887C33.5782 45.9312 33.4473 45.969 33.2908 46C33.3416 45.9531 33.4181 45.9129 33.5199 45.8715Z" fill="#CAEE68"/>
<path d="M20.0938 47.0364C20.1648 47.1324 20.2363 47.2537 20.305 47.4001C20.2328 47.3041 20.1635 47.1829 20.0938 47.0364Z" fill="#CBE686"/>
<path d="M39.2545 37.3732C39.15 37.4094 39.0258 37.4322 38.876 37.4451C38.9785 37.41 39.1067 37.3848 39.2545 37.3732Z" fill="#D9D9D9"/>
<path d="M18.9305 23.3843C18.9134 23.3217 18.919 23.2569 18.9222 23.1672C18.9798 23.1576 19.0397 23.1729 19.0996 23.1882C19.0508 23.2528 19.002 23.3174 18.9305 23.3843Z" fill="#B5B5B5"/>
<path d="M34.4518 34.351C34.4558 34.4392 34.4456 34.5439 34.4201 34.6635C34.4158 34.5748 34.4267 34.4711 34.4518 34.351Z" fill="#505050"/>
<path d="M33.8501 45.8742C33.9071 45.8368 33.9893 45.8014 34.087 45.7841C34.0267 45.8269 33.951 45.8515 33.8501 45.8742Z" fill="#C0EA5E"/>
<path d="M23.9114 48.2365C23.9714 48.2016 24.0554 48.1752 24.154 48.1672C24.0909 48.2055 24.0131 48.2252 23.9114 48.2365Z" fill="#BDE75E"/>
<path d="M22.7131 48.3494C22.7785 48.3175 22.8615 48.2992 22.9598 48.2987C22.8937 48.3321 22.8123 48.3475 22.7131 48.3494Z" fill="#BDE75E"/>
<path d="M34.3359 45.7889C34.3963 45.7554 34.4808 45.7293 34.5795 45.7225C34.5159 45.76 34.438 45.7782 34.3359 45.7889Z" fill="#C0EA5E"/>
<path d="M19.182 23.938C19.0573 23.97 18.9257 23.9815 18.7622 23.992C18.8785 23.9666 19.0267 23.942 19.182 23.938Z" fill="#B5B5B5"/>
<path d="M39.9554 37.3174C40.0941 37.3184 40.2164 37.3271 40.3684 37.3438C40.364 37.3703 40.3298 37.3888 40.2755 37.409C40.1519 37.401 40.0485 37.3913 39.9271 37.3636C39.9189 37.3388 39.9289 37.3319 39.9554 37.3174Z" fill="#A5DB4B"/>
<path d="M18.9042 23.1255C18.8175 23.1228 18.7168 23.103 18.5959 23.0676C18.6806 23.0708 18.7854 23.0896 18.9042 23.1255Z" fill="#B5B5B5"/>
<path d="M34.4292 34.8295C34.4886 34.8696 34.5423 34.9303 34.5929 35.0118C34.5344 34.9718 34.4789 34.9109 34.4292 34.8295Z" fill="#505050"/>
<path d="M34.509 33.4365C34.54 33.4827 34.5555 33.5418 34.5578 33.6148C34.5276 33.569 34.5106 33.5093 34.509 33.4365Z" fill="#505050"/>
<path d="M16.7438 23.1025C16.7024 23.1385 16.6396 23.1671 16.5557 23.1872C16.5971 23.1509 16.6597 23.123 16.7438 23.1025Z" fill="#B5B5B5"/>
<path d="M17.0842 23.0476C17.0419 23.0754 16.9853 23.0903 16.915 23.0916C16.9576 23.0636 17.0137 23.0491 17.0842 23.0476Z" fill="#B5B5B5"/>
<path d="M30.2255 47.4067C30.1678 47.4534 30.0845 47.4995 29.9758 47.5411C30.0336 47.4932 30.1168 47.4497 30.2255 47.4067Z" fill="#CBE686"/>
<path d="M24.4673 48.1618C24.5068 48.1275 24.5681 48.1024 24.6422 48.094C24.5997 48.1308 24.5444 48.1509 24.4673 48.1618Z" fill="#BDE75E"/>
<path d="M40.9244 37.3301C40.8684 37.3509 40.7856 37.3642 40.6899 37.3597C40.7506 37.3355 40.824 37.329 40.9244 37.3301Z" fill="#A5DB4B"/>
<path d="M20.5233 48.5122C20.4647 48.5104 20.4003 48.4872 20.3301 48.4435C20.3887 48.4456 20.4531 48.4682 20.5233 48.5122Z" fill="#8AC447"/>
<path d="M16.1776 23.3064C16.123 23.3491 16.0461 23.3892 15.9465 23.4275C16.001 23.3851 16.0782 23.3444 16.1776 23.3064Z" fill="#B5B5B5"/>
<path d="M32.6805 40.7706C32.6522 40.8188 32.5997 40.8642 32.5254 40.9109C32.5545 40.8642 32.6054 40.816 32.6805 40.7706Z" fill="#CBE686"/>
<path d="M18.5161 23.6748C18.5448 23.6306 18.5942 23.5913 18.6633 23.5519C18.6343 23.5944 18.5855 23.637 18.5161 23.6748Z" fill="#B5B5B5"/>
<path d="M42.188 37.3856C42.219 37.3961 42.2232 37.4083 42.2134 37.4505C42.157 37.5045 42.1147 37.5284 42.0724 37.5522C42.0501 37.5191 42.0278 37.4859 42.0046 37.4319C42.0562 37.4031 42.1087 37.3952 42.188 37.3856Z" fill="#8ECF35"/>
<path d="M34.9155 34.2791C34.9065 34.2371 34.914 34.1825 34.9416 34.118C34.9518 34.1609 34.9419 34.2136 34.9155 34.2791Z" fill="#505050"/>
<path d="M34.5421 33.9633C34.5553 34.0047 34.5516 34.0587 34.5302 34.125C34.5167 34.0834 34.521 34.0296 34.5421 33.9633Z" fill="#505050"/>
<path d="M23.4788 48.2818C23.5062 48.2529 23.5464 48.2359 23.5977 48.2355C23.5697 48.2659 23.5306 48.2798 23.4788 48.2818Z" fill="#BDE75E"/>
<path d="M26.7107 47.6321C26.7205 47.5837 26.7511 47.5365 26.8046 47.4857C26.8279 47.4963 26.8284 47.5106 26.8297 47.5462C26.7975 47.5895 26.7645 47.6115 26.7107 47.6321Z" fill="#CAEE68"/>
<path d="M27.2 47.4891C27.2188 47.4555 27.2583 47.422 27.3096 47.4059C27.2878 47.4453 27.2542 47.4672 27.2 47.4891Z" fill="#CAEE68"/>
<path d="M27.616 47.3918C27.6366 47.3616 27.6768 47.3378 27.7273 47.3293C27.7035 47.3625 27.6695 47.3803 27.616 47.3918Z" fill="#CAEE68"/>
<path d="M19.9891 46.0679C19.9958 46.1096 19.9841 46.1627 19.9527 46.2251C19.9455 46.1827 19.958 46.131 19.9891 46.0679Z" fill="#CBE686"/>
<path d="M15.8388 23.4404C15.8183 23.4773 15.7774 23.51 15.7168 23.5367C15.7375 23.4992 15.7779 23.4677 15.8388 23.4404Z" fill="#B5B5B5"/>
<path d="M18.3662 25.0603C18.3784 25.0242 18.41 24.9889 18.4594 24.9498C18.4466 24.9844 18.4161 25.0227 18.3662 25.0603Z" fill="#B5B5B5"/>
<path d="M18.9985 24.3618C18.9994 24.3203 19.0182 24.2711 19.0567 24.2159C19.0564 24.258 19.0365 24.3061 18.9985 24.3618Z" fill="#B5B5B5"/>
<path d="M35.178 45.6691C35.2047 45.6415 35.2581 45.6172 35.3348 45.592C35.3583 45.5909 35.3616 45.6162 35.3618 45.629C35.3095 45.652 35.2571 45.6623 35.178 45.6691Z" fill="#C0EA5E"/>
<path d="M41.9928 37.3628C41.9693 37.3757 41.9303 37.3774 41.8782 37.3628C41.9025 37.3481 41.9398 37.3499 41.9928 37.3628Z" fill="#D9D9D9"/>
<path d="M38.9946 46.0171C38.9946 46.0171 38.9943 46.0515 38.9933 46.0687C38.9584 46.0846 38.9245 46.0834 38.8652 46.0807C38.8556 46.0602 38.8716 46.0412 38.9228 46.0199C38.9702 46.0174 38.9824 46.0172 38.9946 46.0171Z" fill="#8DCE34"/>
<path d="M34.0768 39.5682C34.0728 39.5918 34.0499 39.6169 34.0098 39.6454C34.0143 39.6225 34.0361 39.5962 34.0768 39.5682Z" fill="#B4E454"/>
<path d="M38.9986 45.9997C38.9828 46.0163 38.9706 46.0165 38.9408 46.012C38.934 45.9868 38.9495 45.9707 38.986 45.9543C39.0023 45.9496 39.0022 45.9833 38.9986 45.9997Z" fill="#CBE686"/>
<path d="M18.227 23.8656C18.2164 23.8608 18.2304 23.8357 18.2375 23.8341C18.2446 23.8325 18.2538 23.8538 18.2538 23.8538C18.2538 23.8538 18.2376 23.8703 18.227 23.8656Z" fill="#B5B5B5"/>
<path d="M27.8978 47.3256C27.89 47.3082 27.9023 47.2943 27.9321 47.2786C27.9445 47.2963 27.934 47.3137 27.8978 47.3256Z" fill="#CAEE68"/>
<path d="M18.8568 23.4496C18.8464 23.4309 18.8543 23.4202 18.8776 23.4113C18.8971 23.4302 18.8912 23.445 18.8568 23.4496Z" fill="#B5B5B5"/>
<path d="M18.5449 24.9013C18.523 24.8819 18.5302 24.8624 18.5703 24.8484C18.5836 24.8676 18.5738 24.8834 18.5449 24.9013Z" fill="#B5B5B5"/>
<path d="M18.6498 24.7942C18.6351 24.7764 18.643 24.7614 18.6719 24.7468C18.6899 24.7644 18.6832 24.781 18.6498 24.7942Z" fill="#B5B5B5"/>
<path d="M18.2276 25.1964C18.2173 25.1779 18.2252 25.167 18.2485 25.1578C18.2674 25.1766 18.2614 25.1915 18.2276 25.1964Z" fill="#B5B5B5"/>
<path d="M18.1566 25.2577C18.1468 25.2513 18.1616 25.2289 18.1684 25.2278C18.1751 25.2267 18.1836 25.2485 18.1836 25.2485C18.1836 25.2485 18.1663 25.2641 18.1566 25.2577Z" fill="#B5B5B5"/>
<path d="M35.1104 34.6196C35.0867 34.6105 35.0846 34.5968 35.0815 34.5624C35.0977 34.5661 35.1148 34.5906 35.1104 34.6196Z" fill="#505050"/>
<path d="M39.691 37.3217C39.6983 37.3313 39.6657 37.3456 39.6482 37.3429C39.6483 37.3308 39.666 37.3214 39.691 37.3217Z" fill="#D9D9D9"/>
<path d="M18.4382 23.7157C18.4293 23.7079 18.4501 23.6873 18.4575 23.6875C18.465 23.6877 18.4673 23.7112 18.4673 23.7112C18.4673 23.7112 18.4472 23.7235 18.4382 23.7157Z" fill="#B5B5B5"/>
<path d="M18.9345 24.4456C18.9183 24.4311 18.9236 24.4165 18.9492 24.4006C18.9676 24.4149 18.963 24.4302 18.9345 24.4456Z" fill="#B5B5B5"/>
<path d="M18.7194 24.7214C18.7056 24.7051 18.7125 24.6911 18.7371 24.6761C18.7578 24.6925 18.7529 24.7087 18.7194 24.7214Z" fill="#B5B5B5"/>
<path d="M18.3027 23.7997C18.2943 23.781 18.3029 23.771 18.3265 23.7649C18.3419 23.7846 18.3345 23.7979 18.3027 23.7997Z" fill="#B5B5B5"/>
<path d="M42.0779 37.5772C42.1165 37.5281 42.1588 37.5043 42.2226 37.468C42.3147 37.4676 42.3854 37.4796 42.4747 37.5306C42.4938 37.5858 42.4944 37.6019 42.4949 37.6357C42.4948 37.6651 42.4948 37.6769 42.4947 37.6886C42.3282 37.7983 42.1812 37.814 42.0779 37.5772Z" fill="#84CB2C"/>
<path d="M43.0598 37.6394C43.2815 37.6674 43.5084 37.7216 43.7497 37.7979C43.531 37.7685 43.298 37.7171 43.0598 37.6394Z" fill="#75C223"/>
<path d="M42.4943 37.6182C42.4938 37.602 42.4933 37.5859 42.4907 37.5454C42.6191 37.5352 42.7495 37.5494 42.9029 37.5789C42.8665 37.6087 42.807 37.6233 42.7007 37.6284C42.6007 37.6187 42.5475 37.6184 42.4943 37.6182Z" fill="#75C223"/>
<path d="M43.772 37.8375C43.8248 37.8276 43.8918 37.8405 43.9775 37.8726C43.9262 37.8812 43.8562 37.8707 43.772 37.8375Z" fill="#75C223"/>
<path d="M42.4939 37.6361C42.5471 37.6187 42.6003 37.619 42.6801 37.6198C42.6516 37.6434 42.5964 37.6663 42.5175 37.6892C42.4938 37.6773 42.4938 37.6655 42.4939 37.6361Z" fill="#8ECF35"/>
<path d="M20.5364 48.6191C20.5786 48.6297 20.6229 48.6633 20.6698 48.7195C20.6278 48.7088 20.5831 48.6755 20.5364 48.6191Z" fill="#A5DB4B"/>
<path d="M19.252 45.5944C19.2608 45.6312 19.2494 45.6714 19.2209 45.7243C19.2131 45.6906 19.2224 45.6442 19.252 45.5944Z" fill="#A5DB4B"/>
<path d="M14.6553 43.1627C14.6775 43.1532 14.6953 43.1663 14.7173 43.1991C14.7136 43.2142 14.7017 43.2146 14.6721 43.2153C14.6544 43.2038 14.6545 43.192 14.6553 43.1627Z" fill="#8DCE34"/>
<path d="M39.4992 45.4348C39.3612 45.4464 39.2374 45.4387 39.0907 45.4392C39.035 45.1464 38.836 45.1502 38.5337 45.2476C38.5337 44.9425 38.4702 44.6631 38.5486 44.4319C38.6672 44.082 38.5345 43.8301 38.3861 43.5503C38.2707 43.3326 38.1386 43.1059 38.1005 42.8692C38.0365 42.4707 38.0351 42.0613 38.0188 41.6561C38.0047 41.3067 37.8839 41.0307 37.649 40.7524C37.4374 40.5018 37.1084 40.2829 37.1636 39.85C37.1901 39.6421 36.6755 39.331 36.4525 39.3344C36.3335 39.3361 36.1964 39.275 36.1033 39.1986C36.0723 39.1732 36.1587 39.0132 36.1809 38.9124C36.2148 38.759 36.2396 38.6035 36.2681 38.4187C36.3671 38.3652 36.4662 38.3418 36.5913 38.3185C37.198 38.401 37.3236 38.9282 37.5927 39.3158C37.8279 39.6547 38.1373 39.9639 38.2835 40.3373C38.4751 40.8265 38.9591 41.1962 38.869 41.8108C38.8385 42.0187 38.956 42.2482 39.0052 42.468C39.0251 42.5572 39.0819 42.6604 39.0559 42.734C38.8824 43.2253 39.1087 43.6603 39.2331 44.1076C39.3363 44.4785 39.4672 44.8418 39.5726 45.2122C39.5889 45.2697 39.5348 45.3472 39.4992 45.4348Z" fill="#9BD83D"/>
<path d="M39.716 46.2434C39.6774 46.0815 39.656 45.9349 39.6316 45.7609C39.8781 45.8231 39.9179 46.0227 39.716 46.2434Z" fill="#8DCE34"/>
<path d="M39.1489 46.3065C39.1967 46.2554 39.2582 46.2226 39.3335 46.2076C39.2857 46.2586 39.2242 46.2916 39.1489 46.3065Z" fill="#8DCE34"/>
<path d="M39.4983 45.6849C39.5038 45.6548 39.5223 45.6403 39.5491 45.6102C39.5794 45.6269 39.6014 45.6592 39.6251 45.712C39.5882 45.7218 39.5498 45.7111 39.4983 45.6849Z" fill="#8DCE34"/>
<path d="M39.664 37.6914C39.6241 37.7186 39.5845 37.7253 39.5449 37.732C39.5453 37.7039 39.5457 37.6759 39.5461 37.6478C39.5855 37.6555 39.6249 37.6632 39.664 37.6914Z" fill="#84CB2C"/>
<path d="M28.8924 46.7926C28.8542 46.8472 28.7925 46.8965 28.7308 46.9459C28.7131 46.9098 28.6954 46.8737 28.6777 46.8376C28.7415 46.8209 28.8052 46.8041 28.8924 46.7926Z" fill="#C0EA5E"/>
<path d="M22.0142 44.1197C22.0221 44.0741 22.0543 44.031 22.1074 43.9834C22.0983 44.0267 22.0683 44.0744 22.0142 44.1197Z" fill="#B2E354"/>
<path d="M21.5947 44.3975C21.604 44.3539 21.6373 44.3098 21.6922 44.2605C21.6821 44.3026 21.6505 44.3497 21.5947 44.3975Z" fill="#B2E354"/>
<path d="M26.4177 42.5997C26.4475 42.5733 26.4879 42.563 26.5396 42.5674C26.51 42.5934 26.4692 42.6045 26.4177 42.5997Z" fill="#C0EA5E"/>
<path d="M30.8844 13.2798C30.4155 14.5983 29.4524 15.4522 28.3411 16.267C28.2504 15.4826 28.671 14.8028 28.5758 14.0943C28.5215 14.0778 28.4672 14.0612 28.4129 14.0447C28.002 14.6629 27.5911 15.281 27.1313 15.9728C26.5059 13.031 27.0599 10.0775 31.0255 8.09058C31.117 8.26176 31.2537 8.4258 31.2958 8.61131C31.524 9.61486 31.5976 10.6382 31.4258 11.6508C31.3326 12.1998 31.0774 12.7213 30.8844 13.2798Z" fill="#EE2434"/>
<path d="M12.791 17.26C13.1806 16.9016 13.6725 16.8936 14.1348 16.8541C15.1337 16.769 16.1085 16.9005 16.9887 17.4199C17.753 17.871 18.4878 18.3661 18.9915 19.2017C18.7302 19.1845 18.4993 19.1557 18.2689 19.1596C18.1425 19.1617 18.0169 19.2189 17.8909 19.2512C17.9491 19.3873 17.9801 19.5465 18.0716 19.6545C18.234 19.8463 18.4332 20.0071 18.6648 20.2261C18.309 20.2683 17.9986 20.3347 17.6878 20.3363C16.8478 20.3405 16.03 20.2349 15.2596 19.8494C14.4749 19.4567 13.838 18.9055 13.3398 18.1926C13.1376 17.9032 12.9718 17.5883 12.791 17.26Z" fill="#1983C1"/>
</svg>
