<svg width="549" height="539" viewBox="0 0 549 539" fill="none" xmlns="http://www.w3.org/2000/svg">
<path opacity="0.09" d="M247.506 538.298C246.15 538.32 244.793 538.343 242.916 538.145C240.692 537.993 238.988 538.061 237.283 538.128C235.73 538.128 234.177 538.128 232.194 537.882C229.708 537.166 227.65 536.696 225.592 536.227C225.313 536.071 225.033 535.915 224.349 535.556C221.852 534.492 219.76 533.631 217.672 532.756C217.675 532.742 217.652 532.759 217.586 532.518C216.798 532.023 216.076 531.77 215.177 531.374C214.851 531.208 214.702 531.185 214.505 530.903C212.398 528.729 210.337 526.815 208.273 524.895C208.269 524.89 208.261 524.881 208.267 524.592C204.757 518.071 201.706 511.646 204.043 504.285C205.36 500.139 207.361 496.211 209.141 491.978C208.834 491.782 208.337 491.336 207.755 491.119C205.92 490.435 204.083 489.722 202.193 489.224C187.129 485.257 172.423 480.162 158.712 472.811C141.595 463.634 124.975 453.532 107.983 444.114C96.4174 437.704 84.4552 432.035 71.0456 430.733C68.3825 430.475 65.5835 431.619 62.8471 432.116C62.8471 432.116 62.5559 432.133 62.152 432.208C59.9416 433.227 57.8673 433.874 56.3954 435.193C54.4968 436.894 53.0962 436.655 51.495 435.087C51.495 435.087 51.414 434.805 51.2896 434.488C50.7518 433.738 50.3384 433.306 49.925 432.875C49.925 432.875 49.8265 432.952 49.8412 432.663C45.6623 426.014 41.4688 419.654 37.2753 413.294C33.5944 406.089 29.7263 398.973 26.2653 391.664C11.9702 361.475 3.3745 329.811 0.856615 296.396C-3.46961 238.982 8.55726 185.343 37.7037 135.805C67.7755 84.6936 110.216 47.1565 164.493 23.1722C220.503 -1.57762 278.563 -6.04922 337.832 7.59706C378.755 17.0192 415.553 35.7095 448.054 62.506C492.655 99.2789 522.532 145.767 538.546 201.167C547.495 232.125 549.796 263.824 547.493 295.913C546.311 312.387 543.766 328.62 539.199 345.006C538.95 345.707 538.962 345.974 538.975 346.24C538.975 346.24 538.973 346.532 538.631 346.778C537.597 349.773 536.905 352.521 536.212 355.269C536.158 355.631 536.104 355.993 535.671 356.687C534.664 359.181 534.035 361.342 533.406 363.503C533.352 363.794 533.298 364.085 532.869 364.624C531.226 368.605 529.96 372.338 528.693 376.07C528.693 376.07 528.697 376.347 528.378 376.593C527.444 378.615 526.83 380.391 526.216 382.167C526.216 382.167 526.094 382.519 525.725 382.713C523.756 386.783 522.157 390.658 520.558 394.533C520.558 394.533 520.57 394.577 520.36 394.704C520.026 395.244 519.902 395.656 519.778 396.068C519.733 396.213 519.687 396.359 519.29 396.733C518.677 397.717 518.416 398.471 518.155 399.226C517.575 400.48 516.995 401.735 515.953 403.238C515.197 404.299 514.904 405.111 514.61 405.923C514.534 406.205 514.458 406.487 513.989 406.98C511.928 409.09 509.973 410.812 508.652 412.929C506.262 416.76 501.688 418.815 497.406 417.349C490.651 415.037 484.033 412.255 477.168 410.354C471.909 408.898 466.36 408.495 460.639 407.641C459.749 407.748 459.16 407.837 458.584 407.823C458.597 407.72 458.564 407.514 458.389 407.39C457.796 407.245 457.376 407.225 456.771 407.274C456.467 407.402 456.348 407.461 455.89 407.379C452.619 407.194 449.688 407.15 446.455 407.021C445.33 407.01 444.506 407.082 443.358 407.107C442.174 406.957 441.313 406.854 440.386 406.506C438.801 406.436 437.282 406.611 435.579 406.873C435.282 407.036 435.17 407.113 434.789 407.156C434.166 407.185 433.811 407.247 433.27 407.21C432.945 407.085 432.806 407.059 432.587 406.927C432.311 406.925 432.116 407.029 431.635 407.184C430.203 407.376 429.056 407.515 427.69 407.504C426.031 407.634 424.594 407.917 422.83 408.299C409.347 410.427 396.892 414.576 385.169 420.885C384.325 421.34 383.728 422.253 382.864 422.614C382.103 418.274 381.493 414.273 380.914 409.928C379.542 400.132 378.141 390.681 376.717 380.945C378.122 379.319 379.549 377.978 381.213 376.587C381.262 376.267 381.074 375.997 380.622 375.658C379.851 374.698 379.345 373.808 379.023 372.776C379.32 372.041 379.431 371.449 379.703 370.583C380.302 368.669 381.065 367.04 381.113 365.389C381.218 361.814 381.59 358.055 380.667 354.697C379.76 351.399 377.413 348.49 375.651 345.438C371.925 338.985 368.673 331.978 359.956 331.785C359.775 329.464 360.111 327.322 359.348 325.695C358.506 323.899 356.873 321.71 355.185 321.288C353.455 320.855 350.471 321.776 349.443 323.155C348.241 324.766 345.643 326.758 347.806 329.75C348.916 331.286 348.512 332.639 346.574 334.175C343.831 336.35 340.855 339.234 339.867 342.405C338.02 348.326 332.431 351.267 330.1 356.59C330.066 356.668 329.616 356.565 329.148 356.531C327.876 351.715 326.212 346.893 325.42 341.932C324.849 338.353 323.295 336.236 320.074 334.988C318.182 334.256 316.359 333.345 314.327 332.434C318.919 328.325 320.047 324.16 317.737 320.787C315.852 318.035 313.158 317.101 310.403 318.848C308.567 320.014 306.475 322.075 306.151 324.011C305.717 326.612 306.879 329.48 307.394 332.454C307.409 332.449 306.951 332.714 306.464 332.791C301.451 333.581 297.764 335.835 296.212 341.07C294.048 348.37 291.549 355.569 289.338 362.856C288.547 365.466 288.432 368.292 287.557 370.866C286.296 374.573 286.462 375.109 290.754 376.072C292.019 371.518 290.548 366.022 294.42 362.95C294.42 369.428 294.544 376.3 294.385 383.164C294.225 390.011 293.78 396.852 293.45 403.921C296.168 403.921 298.993 403.921 302.084 403.921C303.062 411.511 309.992 418.63 302.52 426.259C307.62 428.335 311.28 427.008 311.727 422.938C314.698 423.067 315.205 421.959 314.504 418.924C313.793 415.841 314.038 412.397 314.532 409.215C315.041 405.935 315.24 401.873 319.219 402.228C320.375 393.903 322.13 385.99 322.396 378.026C322.665 369.992 321.457 361.908 320.896 353.846C322.881 355.668 324.104 357.931 325.289 360.213C325.939 361.466 326.524 362.752 327.138 364.023C328.256 363.031 329.373 362.04 330.71 360.854C337.018 362.858 339.421 355.33 343.902 354.03C345.234 356.633 346.436 358.983 347.638 361.332C347.9 363.574 346.921 366.412 347.173 369.134C347.774 375.618 348.743 382.088 349.951 388.49C352.206 400.448 352.643 412.461 351.833 424.564C351.789 425.214 352.264 425.976 352.672 426.565C354.001 428.488 355.411 430.356 357.434 433.127C359.516 432.652 362.585 431.951 366.022 431.167C365.206 426.404 363.56 422.264 364.037 418.386C364.906 411.322 361.827 404.481 364.408 397.204C367.161 389.444 368.145 381.048 369.8 372.909C370.314 370.377 370.585 367.784 370.809 365.204C371.085 362.022 371.196 358.825 371.378 355.634C371.669 355.617 371.96 355.599 372.251 355.582C373.052 358.112 373.854 360.643 374.483 363.319C374.501 364.135 374.692 364.806 374.914 365.734C374.976 367.023 375.006 368.055 374.847 369.227C374.61 369.972 374.562 370.576 374.392 371.44C374.176 372.265 374.081 372.829 373.827 373.578C373.545 374.927 373.423 376.09 373.305 377.509C373.421 378.084 373.533 378.404 373.58 378.955C374.138 379.869 374.761 380.552 375.388 381.229C375.392 381.224 375.382 381.232 375.38 381.567C376.805 391.389 378.232 400.877 379.67 410.723C379.932 415.666 380.183 420.25 380.073 424.743C378.982 425.278 378.252 425.903 377.502 426.53C377.483 426.532 377.444 426.527 377.184 426.591C374.567 428.479 372.209 430.303 369.638 432.146C369.182 432.46 368.938 432.755 368.476 433.225C366.415 435.061 364.572 436.723 362.49 438.5C359.574 440.964 356.897 443.314 353.949 445.632C353.106 446.141 352.535 446.682 351.822 447.397C351.207 447.937 350.735 448.302 349.97 448.659C349.065 448.856 348.372 448.941 347.852 449.286C340.184 454.377 331.686 457.396 322.795 459.473C320.194 460.081 317.621 460.815 314.772 461.459C314.163 461.489 313.818 461.552 313.138 461.524C310.083 461.68 307.361 461.896 304.645 462.178C294.83 463.198 285.005 464.137 275.207 465.298C261.169 466.961 248.392 472.439 236.055 478.957C232.453 480.86 229.373 483.751 225.923 486.25C225.791 486.312 225.555 486.482 225.281 486.479C223.616 487.77 222.225 489.063 220.755 490.483C220.676 490.609 220.582 490.891 220.336 490.982C218.936 492.536 217.781 493.999 216.58 495.497C216.534 495.532 216.476 495.632 216.245 495.728C214.68 498.677 213.346 501.529 211.948 504.521C211.884 504.662 211.834 504.966 211.627 505.094C211.279 505.802 211.138 506.383 210.917 507.263C210.87 508.591 210.902 509.618 210.83 510.937C211.391 512.695 212.057 514.163 212.753 515.624C212.782 515.618 212.771 515.676 212.775 515.961C213.558 517.605 214.335 518.965 215.13 520.342C215.147 520.358 215.183 520.39 215.226 520.655C217.405 525.165 221.416 526.654 225.876 528.031C231.445 528.936 236.708 529.741 242.169 530.698C243.281 530.677 244.195 530.503 245.416 530.384C247.346 530.228 248.968 530.017 250.734 529.94C251.316 529.917 251.755 529.761 252.459 529.636C253.07 529.583 253.414 529.5 254.021 529.488C254.634 529.484 254.985 529.409 255.606 529.429C256.747 529.302 257.619 529.08 258.808 528.888C259.952 528.772 260.78 528.627 261.854 528.585C262.719 528.462 263.339 528.237 264.279 528.054C265.432 527.931 266.265 527.764 267.379 527.691C274.023 526.069 280.388 524.353 286.986 522.651C287.589 522.419 287.96 522.173 288.619 521.918C290.02 521.62 291.131 521.332 292.475 521.043C293.084 520.797 293.46 520.551 294.149 520.301C295.281 520.157 296.099 520.018 297.136 519.949C297.737 519.82 298.118 519.62 298.774 519.436C299.401 519.369 299.755 519.286 300.283 519.198C300.682 519.067 300.798 518.875 300.83 518.617C300.854 518.616 300.846 518.567 301.155 518.54C307.971 516.882 314.497 515.324 320.977 513.598C326.067 512.243 331.101 510.679 336.489 509.231C337.904 509.136 338.99 509.019 340.343 508.977C341.745 508.582 342.879 508.112 344.279 507.644C344.887 507.546 345.227 507.446 345.859 507.431C347.812 507.086 349.472 506.656 351.392 506.228C351.983 506.143 352.315 506.055 352.932 505.981C354.596 505.506 355.976 505.016 357.672 504.55C358.821 504.466 359.654 504.359 360.775 504.328C362.531 503.981 363.999 503.556 365.693 503.156C366.203 503.085 366.487 502.99 367.054 502.917C368.185 502.662 369.035 502.385 370.185 502.145C371.075 502.08 371.665 501.978 372.526 501.961C373.67 501.841 374.544 501.636 375.739 501.443C377.933 501.162 379.806 500.87 381.978 500.617C382.866 500.54 383.454 500.424 384.359 500.345C394.382 499.581 404.086 498.781 414.14 498.057C416.378 498.116 418.268 498.099 420.447 498.2C423.421 499.33 426.105 500.341 428.609 501.539C427.248 502.405 426.067 503.084 424.703 503.817C424.294 504.001 424.12 504.182 423.801 504.491C423.425 504.782 423.246 504.995 422.848 505.204C422.357 505.303 422.084 505.407 421.447 505.423C419.131 505.279 417.172 505.316 415.23 505.15C405.206 504.291 395.36 505.475 385.591 507.618C385.253 507.633 384.915 507.648 384 507.639C379.598 508.567 375.772 509.518 371.946 510.469C371.671 510.46 371.397 510.451 370.685 510.308C368.32 510.71 366.391 511.247 364.462 511.783C364.133 511.82 363.803 511.856 362.93 511.832C359.771 512.199 357.114 512.464 354.552 513.108C352.706 513.572 350.988 514.541 348.956 515.277C348.189 515.306 347.679 515.342 346.963 515.217C341.857 516.013 336.944 516.91 332.068 517.977C331.03 518.204 330.128 519.048 328.912 519.585C328.02 519.75 327.379 519.94 326.451 520.123C325.231 520.605 324.299 521.093 323.148 521.565C322.64 521.578 322.35 521.608 321.847 521.459C319.36 521.682 317.04 521.914 314.819 522.512C303.317 525.611 291.855 528.859 280.349 531.941C273.883 533.673 267.359 535.186 260.861 536.798C260.526 536.811 260.19 536.824 259.272 536.794C254.962 537.266 251.234 537.782 247.506 538.298ZM191.455 270.975C191.455 270.975 191.685 270.78 191.97 270.864C192.2 270.767 192.267 270.603 192.494 270.004C192.723 269.77 192.951 269.536 193.615 269.318C193.957 268.888 194.299 268.458 194.946 267.797C194.946 267.797 195.261 267.579 195.546 267.447C195.723 267.316 195.831 267.141 196.139 266.613C196.237 266.517 196.335 266.421 196.748 266.288C196.958 266.161 197.033 265.978 197.077 265.618C197.077 265.618 197.19 265.505 197.498 265.483C197.713 265.353 197.767 265.174 198.004 264.539C198.549 263.839 199.094 263.139 199.912 262.362C200.09 262.231 200.14 262.062 200.179 261.706C200.179 261.706 200.295 261.556 200.7 261.383C200.924 260.844 201.147 260.304 201.571 259.181C201.918 258.434 202.266 257.688 202.457 256.479C200.794 256.755 199.132 257.031 196.909 257.429C195.965 257.558 195.021 257.688 193.749 257.556C192.881 257.208 190.859 259.016 191.503 256.04C191.503 256.04 191.716 255.839 191.95 255.944L192.129 255.762C192.129 255.762 192.028 255.527 192.271 255.306C192.271 255.306 192.528 255.102 192.79 255.199C193.01 255.13 193.091 254.983 193.56 254.426C193.742 254.325 193.924 254.224 194.303 254.294L194.525 254.159C194.525 254.159 194.499 253.9 194.669 253.799C194.669 253.799 194.843 253.708 195.306 253.819C195.853 253.34 196.4 252.861 197.366 252.041C197.826 251.755 198.285 251.47 199.03 251.274C199.266 251.179 199.332 251.015 199.349 250.652C199.349 250.652 199.477 250.526 199.985 250.475C200.532 249.749 201.08 249.024 201.628 248.299C200.956 248.127 200.284 247.956 199.632 247.759C199.632 247.759 199.613 247.783 199.298 247.398C198.123 247.188 196.947 246.977 195.272 246.727C194.951 246.642 194.63 246.556 193.921 246.054C189.5 246.237 185.079 246.42 180.166 246.732C179.831 246.774 179.495 246.816 178.839 246.568C178.209 246.73 177.579 246.892 176.437 247.155C176.1 247.243 175.763 247.331 174.946 247.252C174.244 247.565 173.542 247.878 172.304 248.401C171.232 248.819 170.161 249.237 168.587 249.596C167.722 250.052 166.857 250.509 165.643 251.082C165.643 251.082 165.287 251.181 164.829 251.087C164.375 251.441 163.921 251.794 162.975 252.427C153.081 257.631 145.733 265.335 140.519 275.178C139.471 277.156 139.267 278.666 141.876 279.281C146.546 280.381 151.182 281.988 155.916 282.386C168.969 283.483 180.612 279.454 191.139 271.594L191.329 271.422C191.329 271.422 191.236 271.181 191.455 270.975ZM206.561 105.926C199.854 98.3847 191.546 93.2338 182.371 89.2025C171.752 117.263 184.957 152.182 208.837 160.648C207.962 158.614 207.356 157.203 206.733 155.455C206.733 155.455 206.684 155.121 206.971 154.69C206.614 152.824 206.112 150.971 205.938 149.088C205.754 147.095 205.882 145.073 206.072 143.335C206.072 143.335 206.375 143.48 206.513 144.026C209.776 148.856 212.112 154.485 218.104 157.922C218.937 146.989 220.121 136.758 217.409 126.647C215.442 119.311 212.716 112.29 206.707 106.757C206.707 106.757 206.597 106.449 206.561 105.926ZM268.676 266.079C268.907 263.617 269.091 261.15 269.374 258.694C272.233 233.931 279.375 210.43 290.278 188.054C292.791 182.898 295.502 177.839 298.122 172.735C283.624 181.576 275.092 195.278 267.007 209.356C258.88 223.507 252.216 238.284 248.222 254.68C237.953 246.523 226.979 241.109 215.147 237.472C217.157 239.652 219.429 241.35 221.524 243.245C238.256 258.384 244.186 278.27 245.362 299.824C246.131 313.912 245.844 328.079 245.508 342.199C245.192 355.492 245.28 368.945 243.171 382.001C241.27 393.775 236.532 405.079 233.309 416.663C232.789 418.532 233.037 421.115 233.96 422.805C239.656 433.233 245.64 443.504 251.546 453.817C252.862 456.114 254.249 458.37 256.185 461.622C256.185 450.125 256.121 439.825 256.23 429.527C256.257 427.017 255.685 425.249 253.719 423.432C252.196 422.025 250.615 419.236 251.029 417.543C251.544 415.44 253.77 412.998 255.831 412.217C258.627 411.158 261.895 411.843 263.557 415.109C264.932 417.812 264.958 420.66 262.42 422.559C259.347 424.857 259.208 427.809 259.252 431.161C259.368 440.057 259.281 448.955 259.293 457.852C259.294 458.781 259.42 459.711 259.532 461.26C267.395 447.478 274.928 434.349 282.325 421.144C282.841 420.222 282.619 418.649 282.277 417.52C279.356 407.892 276.255 398.319 273.365 388.683C272.058 384.321 270.242 379.87 270.15 375.429C269.804 358.567 270.008 341.692 270.135 324.823C270.187 317.773 269.93 310.636 270.911 303.694C273.413 286.002 280.499 270.143 291.647 256.135C292.26 255.365 292.676 254.436 293.183 253.58C292.776 253.238 292.369 252.896 291.962 252.554C283.998 259.839 276.034 267.124 267.86 274.601C268.114 271.919 268.358 269.351 268.676 266.079ZM342.295 190.687C332.5 194.704 323.68 200.095 316.674 208.043C316.802 208.442 316.929 208.842 317.057 209.241C325.234 209.241 333.411 209.241 341.588 209.241C341.634 209.597 341.681 209.953 341.728 210.309C332.973 213.34 324.219 216.37 315.464 219.401C315.497 219.786 315.53 220.172 315.563 220.558C334.079 229.632 352.895 236.625 374.347 231.897C392.796 227.831 406.446 216.65 419.854 203.728C395.943 185.712 370.627 180.903 342.295 190.687ZM176.027 401.079C174.875 403.543 173.724 406.008 172.791 408.004C169.806 402.577 166.691 396.916 163.458 391.039C163.696 390.883 164.436 390.396 164.47 390.374C163.49 387.309 162.638 385.052 162.049 382.728C160.335 375.962 155.546 371.938 149.831 373.865C146.313 375.051 143.505 378.346 140.633 380.501C142.587 384.392 144.429 387.106 145.352 390.104C147.028 395.551 148.636 396.696 154.428 394.832C153.178 398.545 152.04 401.928 150.81 405.582C145.564 399.725 144.188 399.677 137.965 405.167C135.629 403.397 133.284 401.405 130.725 399.745C128.374 398.22 125.791 397.052 123.237 395.687C122.049 399.871 122.161 399.732 125.046 402.06C126.897 403.554 128.28 405.615 130.033 407.251C130.761 407.93 131.901 408.517 132.861 408.527C135.038 408.55 135.617 409.866 134.689 411.229C131.561 415.82 130.192 421.919 123.93 423.935C121.549 424.701 119.319 425.936 116.753 427.076C117.258 427.477 117.689 428.113 118.177 428.16C122.447 428.573 126.724 428.979 131.008 429.109C131.633 429.128 132.504 427.767 132.907 426.884C133.59 425.387 133.527 423.226 134.601 422.294C137.514 419.767 140.86 417.739 144.288 415.335C146.285 418.177 148.543 421.011 150.388 424.094C154.311 430.651 160.626 430.401 166.651 429.355C169.085 428.932 171.053 425.821 172.78 424.325C173.918 425.561 175.548 428.944 177.672 429.291C181.752 429.957 187.18 430.346 190.088 428.196C193.754 425.483 200.124 423.677 199.277 416.759C199.173 415.903 200.386 414.886 201.08 413.8C202.556 415.006 203.807 415.933 204.95 416.979C208.231 419.982 212.773 422.111 212.352 427.743C212.319 428.186 213.593 429.175 214.225 429.147C218.248 428.97 222.266 428.626 226.274 428.218C227.066 428.137 227.804 427.534 229.312 426.819C217.589 424.291 210.775 416.815 210.729 409.197C212.274 408.582 213.974 408.314 215.104 407.367C217.024 405.758 218.336 403.361 220.361 401.954C222.921 400.176 223.405 398.456 221.425 395.325C216.384 398.702 211.5 401.975 206.675 405.207C202.077 399.944 201.764 399.944 193.888 404.923C192.893 401.583 191.92 398.314 190.873 394.797C195 396.232 198.303 395.464 199.583 392.704C200.634 390.441 201.303 387.996 202.078 385.612C204.155 379.221 204.142 379.217 198.358 375.138C192.467 370.985 185.268 374.16 184.527 381.388C184.211 384.47 184.474 387.612 184.474 390.878C179.746 392.27 178.456 396.792 176.027 401.079ZM267.607 87.5508C264.679 76.6758 260.206 66.5989 252.147 58.483C241.761 48.0253 228.911 44.176 213.979 44.3316C213.377 63.2836 215.799 80.8532 229.996 94.4812C241.21 105.246 255.299 109.168 271.263 110.693C269.989 102.59 268.855 95.3882 267.607 87.5508ZM312.262 268.897C315.502 272.623 318.232 277.019 322.074 279.958C336.977 291.358 353.949 294.636 372.034 290.158C382.692 287.519 383.245 288.019 376.515 278.384C376.44 278.277 376.388 278.155 376.321 278.044C364.378 258.366 346.932 248.702 323.905 249.47C319.098 249.63 314.315 250.483 309.52 251.017C309.47 251.459 309.419 251.902 309.369 252.344C313.606 255.73 317.844 259.116 322.081 262.502C321.842 262.921 321.603 263.341 321.364 263.761C317.331 262.832 313.298 261.903 308.057 260.696C309.77 264.065 310.873 266.232 312.262 268.897ZM102.878 238.491C99.6795 243.629 96.4809 248.766 93.1296 254.149C127.128 262.351 146.514 250.59 152.164 228.533C135.79 221.283 115.642 222.178 102.878 238.491ZM401.851 135.637C403.225 132.617 404.599 129.598 405.98 126.563C378.057 115.534 357.216 126.007 347.502 151.885C365.465 157.738 390.479 156.606 401.851 135.637ZM149.724 123.776C139 115.278 126.986 114.551 114.147 117.449C122.145 141.11 145.618 155.763 164.037 146.377C161.602 137.641 156.946 130.213 149.724 123.776ZM308.274 51.7013C307.057 47.655 305.84 43.6087 304.575 39.402C286.424 49.8767 275.482 69.9312 288.163 87.2807C299.895 82.4248 311.672 69.8761 308.274 51.7013ZM295.412 112.329C285.165 131.4 286.747 151.415 290.08 171.57C290.458 171.701 290.835 171.832 291.213 171.962C295.832 164.735 300.451 157.508 305.07 150.28C305.421 150.416 305.772 150.552 306.122 150.687C304.724 158.268 303.325 165.848 301.739 174.445C322.184 163.576 334.119 147.344 339.925 126.458C344.661 109.422 343.898 92.5711 337.071 75.8178C319.955 84.6748 304.414 94.322 295.412 112.329ZM280.627 228.049C280.417 228.666 280.175 229.275 280.002 229.902C278.475 235.435 280.52 241.083 285.213 244.323C290.232 247.789 295.593 247.705 300.859 244.078C305.161 241.114 307.304 235.133 305.681 229.854C304.099 224.708 300.533 221.371 295.238 220.43C288.861 219.296 284.131 222.045 280.627 228.049ZM243.433 128.96C241.36 127.625 239.377 126.112 237.187 125.009C235.4 124.108 233.907 124.62 233.475 126.928C231.168 139.257 233.384 150.232 243.086 158.918C244.274 159.982 245.801 160.667 247.483 161.724C248.017 159.994 248.373 158.838 248.772 157.544C250.393 158.318 251.736 158.96 253.103 159.613C256.504 150.682 253.195 135.414 243.433 128.96ZM226.384 218.574C226.058 219.696 225.654 220.802 225.421 221.943C224.328 227.292 226.593 232.455 231.234 235.318C236.302 238.444 241.319 238.152 246.109 234.454C250.264 231.246 252.095 225.794 250.63 220.861C249.12 215.782 245.756 212.553 240.562 211.617C234.534 210.53 229.866 212.818 226.384 218.574ZM132.321 188.35C149.573 217.844 178.254 221.371 200.812 215.739C196.997 212.275 193.355 208.968 189.713 205.662C189.904 205.311 190.095 204.96 190.286 204.609C194.77 205.065 199.254 205.52 204.113 206.014C188.194 177.544 150.2 167.644 127.735 180.555C129.16 182.986 130.591 185.425 132.321 188.35ZM239.465 197.235C242.239 200.793 245.843 202.783 250.316 203.208C253.708 192.45 246.311 181.415 235.762 181.498C235.386 186.928 236.009 192.113 239.465 197.235Z" fill="#9F9F9F"/>
</svg>
