<svg width="92" height="92" viewBox="0 0 92 92" fill="none" xmlns="http://www.w3.org/2000/svg">
<path d="M52.8104 60.1676C57.183 59.2602 61.4287 56.9722 63.8736 53.128C66.5382 48.9422 66.5626 43.6784 66.2161 38.8975C65.8257 33.5507 64.6154 28.0478 61.1213 23.8231C59.1302 21.4131 56.3924 19.6179 53.3229 18.9544C48.4184 17.8909 43.3723 20.2326 38.9949 22.1742C34.2563 24.2768 29.9179 27.0185 26.2822 30.7066C23.0857 33.9556 19.7965 37.9609 18.7278 42.4881C18.23 44.6004 18.2642 46.8884 19.1036 48.913C19.9283 50.9034 21.5192 52.406 23.2907 53.5817C27.5217 56.3916 32.6068 58.343 37.526 59.5334C42.4695 60.7383 47.7937 61.2067 52.8104 60.1676Z" fill="#DAF7DC"/>
<g clip-path="url(#clip0_4669_348)">
<path d="M83.3654 76.0544C82.1705 68.0133 81.7949 59.4997 77.7663 52.2224C75.3262 47.8147 69.9266 42.7798 64.4335 42.8787L64.8486 42.5301C67.4091 40.3738 69.8493 37.8025 71.6767 34.9832C75.4933 29.0822 75.4178 21.3539 73.01 14.9301C72.8609 14.5329 72.4602 14.2221 72.0127 14.364C70.0092 15.0001 67.8476 15.3092 65.8009 15.8554C63.8244 16.3945 61.8298 16.8922 59.8497 17.4223C56.3009 18.3729 52.6784 19.4708 49.5518 21.4527C46.6768 23.2747 44.2869 25.9287 42.9501 28.9852C41.3742 25.767 39.0544 23.2352 35.4032 21.6845C30.3216 19.5283 24.683 19.9595 19.4703 21.3772C16.3583 22.2061 13.3101 23.2582 10.3494 24.5254C8.05835 25.5155 8.46804 27.1919 9.16522 29.2889C10.8974 34.4998 14.581 39.6227 18.8683 43.044C21.3897 45.0602 24.3792 46.4076 27.5598 46.9612C28.3163 47.0941 29.1051 47.2073 29.9066 47.2972C28.7155 48.8558 27.7461 50.572 27.0262 52.3967C24.259 59.3919 24.6579 67.8498 25.8905 75.1379C25.975 75.6393 26.6255 75.9699 27.0873 75.8172C31.8669 74.2341 36.4777 72.4193 40.8711 69.9324C43.7874 68.2811 47.3901 66.3908 49.9543 63.8608C51.1956 66.5469 53.0367 68.9124 55.3359 70.7751C62.7031 76.7497 72.9848 77.9447 82.1687 77.632C83.0473 77.6033 83.4858 76.863 83.3654 76.0544ZM52.6694 49.7158C51.0144 49.3222 49.5985 48.4939 48.8366 46.9055C48.2544 45.6944 48.3371 44.5462 48.6228 43.38C50.1953 43.3606 51.7554 43.6608 53.2084 44.2622C53.9613 44.5678 54.675 44.9623 55.3341 45.4374C55.6719 45.68 56.008 45.9262 56.353 46.1562C56.6512 46.3556 56.9459 46.6485 57.3251 46.5856C57.3686 46.575 57.4084 46.5526 57.4401 46.521C57.4718 46.4893 57.4942 46.4495 57.5048 46.4059C57.6 46.0178 57.2604 45.6674 57.0322 45.3871C56.7317 45.026 56.3835 44.7074 55.9972 44.4401C55.2487 43.9177 54.4388 43.4892 53.5858 43.1644C52.1706 42.6299 50.6506 42.4318 49.1457 42.5858C50.1483 42.1024 51.0666 41.4861 52.168 41.2183C53.9775 40.7781 55.5947 41.1159 57.1867 42.0683C60.2001 43.8651 61.7831 47.2199 61.9754 50.6501C58.8866 50.4273 55.6665 50.4291 52.6694 49.7158ZM46.9194 43.4177C43.8485 43.8993 40.6465 44.4258 38.3429 41.7646C36.4382 39.5652 34.6844 36.6938 33.8148 33.8763C39.8972 32.8916 46.1 35.1844 47.949 41.3603C47.7488 41.6289 47.5715 41.9138 47.4189 42.212C47.2034 41.8043 46.9495 41.418 46.6606 41.0584C45.9592 40.2028 45.1279 39.4625 44.1971 38.8644C42.1612 37.5491 39.8073 36.8573 37.4193 36.568C37.1066 36.5303 37.0599 37.0262 37.3474 37.1071C39.5037 37.7019 41.6994 38.3649 43.5754 39.6335C44.4051 40.1879 45.1553 40.8529 45.8053 41.6101C46.1296 41.9879 46.4296 42.3858 46.7037 42.8014C46.8062 42.9559 46.9086 43.1033 47.011 43.2452C46.9948 43.3045 46.9751 43.3638 46.9589 43.4249L46.9194 43.4177ZM52.6101 21.8552C55.5731 20.4177 58.7877 19.5804 61.9628 18.752C63.6465 18.3118 65.3337 17.8859 67.021 17.4619C68.4962 17.0899 69.9607 16.5634 71.4359 16.1681C71.5941 22.1158 72.3218 28.1299 69.1485 33.5079C67.5999 36.1634 65.7057 38.6015 63.5153 40.7583C62.7616 41.475 61.9374 42.1137 61.0554 42.6648C60.2652 41.5664 59.261 40.6391 58.1031 39.939C55.8426 38.5626 52.8419 38.3362 50.4161 39.4269C50.7036 38.3379 50.921 37.2293 51.2786 36.1601C51.7937 34.6248 52.4739 33.1499 53.3073 31.7614C54.9852 28.9567 57.2197 26.5253 59.873 24.617C61.3741 23.5344 63.0037 22.6423 64.7246 21.9612C65.0337 21.8372 64.9169 21.3413 64.5844 21.4491C58.0187 23.5461 52.8131 28.8702 50.3712 35.2581C49.8016 36.7495 49.2661 38.417 49.293 40.045C49.214 40.1007 49.1421 40.1618 49.0684 40.2247C48.5186 37.5743 46.4737 35.303 44.163 33.9787C43.9294 33.844 43.694 33.7218 43.4568 33.6068C43.5664 31.535 44.1162 29.5153 45.2914 27.722C47.0146 25.086 49.8105 23.2029 52.6065 21.8462L52.6101 21.8552ZM19.9231 40.2804C17.6477 38.2847 15.6347 36.0085 13.9323 33.5062C13.0718 32.2771 12.3145 30.9789 11.6683 29.6249C11.3448 28.9367 10.7501 27.9862 10.7195 27.2081C10.68 26.2432 11.2748 26.2971 12.157 25.9395C17.9483 23.6036 24.2823 21.3 30.6253 22.3458C33.2344 22.7788 35.8362 23.7006 37.9673 25.2998C39.9439 26.793 41.2718 28.7247 42.2619 30.8881C42.076 31.5713 41.9456 32.2683 41.8719 32.9725C38.9682 32.0489 35.9423 32.3094 32.8498 32.7676C32.7357 32.7848 32.6324 32.8445 32.5605 32.9347C32.2642 32.6914 31.9547 32.4647 31.6333 32.2555C31.0247 31.8397 30.3897 31.464 29.7323 31.1307C28.3631 30.4473 26.9277 29.9055 25.4485 29.5135C22.0919 28.6007 18.6096 28.4138 15.156 28.1874C14.7966 28.164 14.8074 28.7067 15.156 28.7462C18.4964 29.1218 21.8637 29.544 25.0963 30.4946C26.4984 30.9031 27.8582 31.4446 29.1573 32.1118C29.8137 32.4499 30.4491 32.8274 31.0601 33.242C31.5417 33.5672 32.0089 33.9608 32.5354 34.2285C32.9199 36.117 33.7033 37.9786 34.5119 39.7054C34.9088 40.5937 35.3701 41.4519 35.8919 42.2731C34.6203 42.9024 33.4394 43.7002 32.3808 44.645C31.0146 44.6285 29.6514 44.5126 28.3019 44.2982C25.1952 43.7471 22.2979 42.3578 19.9231 40.2804ZM44.8134 64.7358C42.9698 65.9901 41.0681 67.1592 39.1083 68.2433C35.4607 70.2666 31.6477 72.1192 27.7108 73.5369C27.2436 67.167 26.2643 60.9768 28.2175 54.6859C29.7358 49.7984 32.7294 45.8938 37.0869 43.7645C37.3404 44.0276 37.613 44.2714 37.9026 44.494C39.775 45.9154 42.3427 46.3628 44.72 45.9783C42.5705 47.3284 40.5717 48.9049 38.758 50.6807C36.4112 52.9663 34.3969 55.6383 33.0655 58.6408C32.692 59.4526 32.3867 60.2941 32.1526 61.1565C31.933 62.0633 31.8476 62.9974 31.8993 63.929C31.9019 63.9875 31.9249 64.0431 31.9643 64.0864C32.0037 64.1296 32.0571 64.1576 32.115 64.1655C32.173 64.1734 32.2319 64.1607 32.2814 64.1297C32.331 64.0986 32.3681 64.0511 32.3862 63.9955C32.636 63.2462 32.9253 62.5167 33.1805 61.7656C33.4356 61.0145 33.6656 60.3281 33.9513 59.6094C34.5412 58.1661 35.282 56.7892 36.1615 55.5017C37.9583 52.8333 40.2763 50.5998 42.7578 48.573C44.0659 47.5056 45.4334 46.5065 46.7774 45.4841C46.8489 46.3796 47.1029 47.2509 47.5238 48.0445C47.9447 48.838 48.5235 49.5371 49.2248 50.0985C47.9551 53.7492 47.8821 57.7095 49.0163 61.4044C47.8376 62.7449 46.2689 63.7458 44.8134 64.7358ZM58.3996 69.6341C52.0423 65.5337 48.9804 58.2204 50.9156 51.0706C52.3747 51.6744 54.0242 51.9008 55.5462 52.1487C57.0522 52.4071 58.5719 52.5787 60.0977 52.6626C60.1196 52.6995 60.1498 52.7308 60.1857 52.7543C62.4965 54.314 64.7659 55.9635 66.7928 57.8879C68.813 59.806 70.6001 61.9555 72.1169 64.292C72.5518 64.9586 72.9507 65.6451 73.3622 66.3261C73.7395 66.9532 74.1654 67.6935 74.7242 68.1751C74.7532 68.2025 74.7894 68.2209 74.8286 68.2282C74.8678 68.2354 74.9082 68.2312 74.945 68.216C74.9819 68.2008 75.0135 68.1753 75.0362 68.1425C75.0589 68.1098 75.0716 68.0711 75.0728 68.0313C75.0494 66.6854 74.1492 65.3001 73.4646 64.195C71.1865 60.5057 68.2045 57.3008 64.6887 54.7632C63.6035 53.9807 62.4542 53.2912 61.253 52.7022C61.8191 52.7022 62.3869 52.7022 62.9565 52.6662C63.4273 52.6411 63.9915 52.2422 63.9232 51.7013C63.6411 49.5145 63.2691 47.3295 62.4983 45.3565C65.2852 45.4913 67.8044 45.9315 70.2248 47.5469C73.0298 49.4139 74.9309 52.2296 76.3306 55.2268C79.0996 61.1169 80.9432 68.3961 80.9432 75.005C73.1466 74.1928 65.2277 74.0419 58.3996 69.6341Z" fill="#383137"/>
</g>
<defs>
<clipPath id="clip0_4669_348">
<rect width="92" height="92" fill="white"/>
</clipPath>
</defs>
</svg>
