<svg width="52" height="53" viewBox="0 0 52 53" fill="none" xmlns="http://www.w3.org/2000/svg">
<path d="M51.0215 27.9638C51.0231 27.9953 51.0246 28.0268 50.9943 28.0899C50.9345 28.4661 50.9064 28.8107 50.8784 29.1553C50.8777 29.1862 50.8769 29.2171 50.8448 29.2799C50.7632 29.6777 50.713 30.0434 50.6628 30.4092C50.6611 30.4415 50.6594 30.4738 50.6263 30.5394C50.5774 30.6141 50.5551 30.6543 50.543 30.6972C50.268 31.6713 49.9958 32.6462 49.7194 33.6199C49.5879 34.083 49.4489 34.5441 49.3133 35.0061C49.3133 35.0061 49.3172 35.0215 49.2889 35.0379C48.9226 35.7503 48.5833 36.4455 48.2503 37.1438C48.2291 37.1884 48.2575 37.2567 48.2628 37.314C48.2549 37.336 48.2469 37.358 48.2051 37.3983C47.845 37.6849 47.8302 38.0712 47.7403 38.4463C47.568 39.166 47.3298 39.87 47.1204 40.5809C47.1144 40.6012 47.125 40.6263 47.1278 40.6492C47.1278 40.6492 47.1209 40.6771 47.0871 40.6908C47.0315 40.7564 47.0096 40.8082 46.9877 40.8601C46.9877 40.8601 46.9848 40.8863 46.9522 40.8993C46.7521 41.2141 46.5846 41.5159 46.417 41.8178C46.417 41.8178 46.4193 41.8186 46.3975 41.8289C46.3149 41.963 46.254 42.0869 46.1932 42.2108C46.1932 42.2108 46.194 42.2225 46.1666 42.2313C46.0949 42.335 46.0507 42.4298 46.0064 42.5246C46.0064 42.5246 45.9966 42.5176 45.9783 42.5276C45.8991 42.6652 45.8383 42.7927 45.7775 42.9202C45.7775 42.9202 45.7779 42.9283 45.7513 42.9337C45.6349 43.1056 45.5453 43.2721 45.4557 43.4387C45.4557 43.4387 45.4427 43.4308 45.428 43.4407C45.3748 43.4901 45.3365 43.5296 45.2978 43.5396C45.4425 43.1336 45.2123 42.797 45.1345 42.4625C44.9933 41.8552 45.2847 41.2198 44.8502 40.608C44.5778 40.2247 44.5116 39.6826 44.1775 39.2756C43.7449 38.7486 43.799 38.5532 44.2282 38.2582C44.1731 38.1533 44.1054 38.0247 44.0642 37.896C44.7057 38.1015 45.3177 38.3175 45.9388 38.503C46.0504 38.5363 46.2613 38.4871 46.3206 38.4021C46.5569 38.0635 46.7514 37.6958 46.9734 37.3233C46.9922 37.2827 46.999 37.2575 47.0254 37.2207C47.0745 37.1405 47.1041 37.072 47.1502 36.9873C47.2184 36.8592 47.2701 36.7474 47.3413 36.6265C47.3839 36.5534 47.407 36.4896 47.4422 36.4095C47.4584 36.3802 47.4625 36.3673 47.4851 36.3462C47.5136 36.2996 47.5234 36.2611 47.5352 36.2221C47.5371 36.2215 47.536 36.2176 47.557 36.2065C47.7219 35.8548 47.8658 35.5142 48.0196 35.1604C48.0296 35.1471 48.0404 35.1158 48.061 35.1027C48.1372 34.9325 48.1929 34.7753 48.2551 34.6077C48.2616 34.5972 48.2612 34.5725 48.2815 34.5592C48.4173 34.2192 48.5328 33.8925 48.6577 33.5482C48.6718 33.5047 48.6766 33.4788 48.7012 33.4393C48.7777 33.2363 48.8344 33.047 48.9041 32.8368C48.9219 32.7837 48.9268 32.7515 48.9502 32.7027C49.0331 32.4446 49.0974 32.2029 49.1697 31.951C49.1777 31.9408 49.1779 31.9148 49.1896 31.9012C49.2013 31.8644 49.2013 31.8412 49.2112 31.7919C49.605 30.3449 49.8319 28.8985 49.9372 27.4308C50.1425 24.5718 49.9374 21.7475 49.1396 18.9892C47.712 14.0532 45.0486 9.91121 41.0725 6.63485C38.1751 4.24735 34.8946 2.58209 31.2465 1.7426C25.9628 0.526755 20.7869 0.925163 15.7938 3.1303C10.9551 5.26724 7.17163 8.6117 4.49081 13.1656C1.89248 17.5793 0.820312 22.3584 1.20598 27.4738C1.43045 30.451 2.19673 33.2722 3.4711 35.962C3.77964 36.6132 4.12447 37.2472 4.45038 37.9157C4.75647 38.4685 5.06147 38.9967 5.37768 39.5182C5.41369 39.5776 5.51259 39.5988 5.57693 39.6392C5.57152 39.6406 5.58031 39.6337 5.57744 39.6562C5.61363 39.716 5.65269 39.7533 5.70239 39.7982C5.71304 39.8057 5.72027 39.8308 5.71747 39.8574C5.81863 39.9585 5.97494 40.1192 6.01782 40.0931C6.25585 39.9485 6.46632 39.7586 6.69627 39.5759C6.70632 39.5676 6.73228 39.5661 6.76646 39.5705C7.31459 39.5461 7.81519 39.5884 8.30259 39.7807C8.91116 40.0209 9.56094 40.176 10.1366 40.4759C11.0855 40.9703 11.9893 41.5515 12.896 42.1101C12.911 42.2125 12.9423 42.301 12.9713 42.3832C12.877 42.4579 12.7998 42.519 12.7226 42.5801C12.757 42.5815 12.7913 42.583 12.8257 42.5844C12.8774 42.7797 12.9291 42.9749 12.9806 43.1702C13.0478 43.425 13.0402 43.7491 13.1984 43.9193C13.4758 44.2177 13.4252 44.335 13.0952 44.4936C12.7856 44.6423 12.7569 45.1187 12.9969 45.3682C13.0705 45.4447 13.1104 45.5894 13.1008 45.6971C13.0949 45.7625 12.9703 45.8561 12.889 45.8679C12.7132 45.8934 12.5309 45.8745 12.3475 45.8646C12.3381 45.8521 12.3324 45.8488 12.3267 45.8456C12.3348 45.8551 12.3429 45.8645 12.3541 45.9004C12.4325 46.0019 12.4983 46.1274 12.5845 46.1435C13.024 46.2254 13.4112 46.3912 13.7255 46.7185C13.7853 46.7807 13.8802 46.8091 13.963 46.8769C14.1877 47.1108 14.4085 47.3208 14.6527 47.5533C14.9521 47.3526 15.0618 47.7657 15.2948 47.876C15.3818 47.9172 15.4776 47.94 15.5867 47.9715C15.604 47.9717 15.6387 47.9725 15.6387 47.9997C15.6988 48.4064 15.9935 48.3818 16.2889 48.4028C16.4587 48.5001 16.6076 48.5869 16.7572 48.6982C16.8044 48.7757 16.8507 48.8289 16.9226 48.8851C17.5375 49.0725 18.127 49.2568 18.7399 49.4516C18.8635 49.4791 18.9638 49.496 19.0699 49.5384C19.1893 49.5927 19.3028 49.6216 19.4386 49.6526C19.5155 49.6787 19.57 49.7025 19.6399 49.7447C19.7619 49.7958 19.8686 49.8286 19.9946 49.8807C20.2329 49.9352 20.4521 49.9703 20.6719 50.0219C20.6724 50.0383 20.6749 50.071 20.6795 50.0964C20.9149 50.1974 21.1457 50.2729 21.4034 50.35C21.8541 50.469 22.2778 50.5863 22.6959 50.7297C22.5537 50.7723 22.4168 50.8039 22.2805 50.8021C22.0024 50.7985 21.7245 50.7769 21.4465 50.7627C21.3934 50.7592 21.3402 50.7557 21.2529 50.7183C20.8704 50.6068 20.516 50.5492 20.1747 50.4478C18.853 50.055 17.5356 49.6476 16.216 49.2475C16.0435 49.1952 15.8677 49.1537 15.6934 49.1072C15.6934 49.1072 15.6989 49.0998 15.6919 49.08C15.329 48.9164 14.9732 48.7726 14.6174 48.6287C14.6174 48.6287 14.5998 48.6322 14.5839 48.6008C14.49 48.5439 14.412 48.5184 14.334 48.493C14.3118 48.4866 14.2896 48.4803 14.2504 48.4386C13.6922 48.1234 13.1512 47.8433 12.6101 47.5633C12.6101 47.5633 12.5828 47.5579 12.5687 47.5246C12.4555 47.4454 12.3564 47.3994 12.2574 47.3534C12.2574 47.3534 12.2316 47.3456 12.2196 47.3122C11.7189 46.9393 11.2331 46.5957 10.7405 46.262C10.5089 46.105 10.2645 45.9668 10.0258 45.8201C10.0258 45.8201 10.0331 45.809 10.0271 45.7958C9.99759 45.7741 9.97402 45.7656 9.95046 45.7571C9.95046 45.7571 9.97188 45.748 9.96067 45.729C9.71329 45.537 9.47712 45.3641 9.24096 45.1913C9.24096 45.1913 9.21855 45.1861 9.20924 45.1532C8.8883 44.8634 8.57666 44.6066 8.26503 44.3498C8.21206 44.3073 8.1591 44.2648 8.09675 44.1788C7.71681 43.7808 7.34625 43.4261 6.97569 43.0715C6.94844 43.048 6.92118 43.0246 6.88527 42.9618C6.84073 42.9014 6.80484 42.8804 6.76895 42.8593C6.76895 42.8593 6.76081 42.86 6.76056 42.8315C6.44768 42.457 6.13506 42.1111 5.82244 41.7652C5.82244 41.7652 5.84301 41.7624 5.83872 41.7405C5.7497 41.6338 5.66498 41.5489 5.58025 41.464C5.58025 41.464 5.56139 41.4433 5.56052 41.4039C5.374 41.1429 5.18835 40.9215 5.0027 40.7001C5.0027 40.7001 5.00649 40.6978 5.00448 40.6745C4.84544 40.4558 4.68841 40.2605 4.53138 40.0652C4.53138 40.0652 4.51119 40.0467 4.51033 40.0068C4.28456 39.5794 4.04444 39.1999 3.83758 38.803C3.21928 37.6168 2.61498 36.4233 2.00135 35.2347C1.96263 35.1597 1.89087 35.1018 1.83448 35.0359C1.83448 35.0359 1.8246 35.0217 1.83605 34.9843C1.83664 34.8792 1.83808 34.8066 1.81317 34.7446C1.00624 32.7353 0.529868 30.6436 0.246735 28.5029C0.235327 28.4166 0.184906 28.3355 0.152662 28.252C0.139743 28.1528 0.126823 28.0535 0.134306 27.9052C0.128869 27.7049 0.103028 27.5536 0.0771901 27.4022C0.0693259 27.3715 0.0614618 27.3407 0.0728909 27.2635C0.0971707 26.5435 0.104388 25.8698 0.103126 25.1962C0.103018 25.1389 0.0463056 25.0818 0.0158907 25.0246C0.0108187 24.9739 0.00574676 24.9232 0.0306605 24.8348C0.0607873 24.4554 0.0609281 24.1137 0.061069 23.7721C0.0604094 23.7409 0.059752 23.7097 0.0904678 23.646C0.122228 23.4327 0.122616 23.252 0.123005 23.0712C0.124369 22.9962 0.125733 22.9212 0.161745 22.8096C0.219221 22.4773 0.242051 22.1815 0.264884 21.8857C0.264421 21.8539 0.263959 21.8221 0.294974 21.7584C0.550254 20.7592 0.760488 19.7886 1.00089 18.8254C1.41276 17.1754 2.03125 15.6022 2.80477 14.0881C2.94455 13.8144 3.04455 13.5205 3.16292 13.236C3.1688 13.2128 3.17469 13.1896 3.2158 13.1487C3.55296 12.6162 3.85488 12.1015 4.1568 11.5867C4.1568 11.5867 4.16341 11.5966 4.18416 11.5927C4.28219 11.4456 4.35946 11.3025 4.43673 11.1594C4.43673 11.1594 4.43999 11.1326 4.47202 11.1191C4.6436 10.8919 4.78315 10.6782 4.9227 10.4646C4.9227 10.4646 4.92888 10.4716 4.94822 10.4653C5.16475 10.1815 5.36194 9.90407 5.55913 9.62664C5.55913 9.62664 5.5667 9.59695 5.60131 9.58519C5.75485 9.41336 5.87377 9.25329 5.99269 9.09321C5.99269 9.09321 5.99144 9.08622 6.01825 9.08299C6.27947 8.79649 6.51389 8.51322 6.7483 8.22995C6.7483 8.22995 6.74984 8.23808 6.77198 8.23661C6.93712 8.06699 7.08012 7.89885 7.22313 7.73071C7.22313 7.73071 7.23403 7.73256 7.24998 7.72925C7.27729 7.70072 7.28866 7.6755 7.30003 7.65028C7.33032 7.61401 7.36061 7.57774 7.43344 7.5366C7.5775 7.41109 7.67903 7.29043 7.78056 7.16977C7.78056 7.16977 7.78609 7.16758 7.80401 7.16804C7.83409 7.14638 7.84624 7.12428 7.8584 7.10217C7.8584 7.10217 7.85947 7.11821 7.88248 7.11505C8.15296 6.86219 8.40044 6.61248 8.64792 6.36278C8.67311 6.33536 8.6983 6.30795 8.76735 6.27781C8.89568 6.18599 8.98017 6.09688 9.06465 6.00777C9.06465 6.00777 9.07792 5.99049 9.11065 5.98695C9.15881 5.96029 9.17426 5.93716 9.18971 5.91403C9.18971 5.91403 9.19006 5.92566 9.21247 5.92423C9.31887 5.83507 9.40285 5.74736 9.48684 5.65964C9.48684 5.65964 9.48435 5.65427 9.51147 5.65316C9.86658 5.39062 10.1946 5.12919 10.5226 4.86777C10.5226 4.86777 10.5246 4.8773 10.5477 4.87815C10.9466 4.64161 11.3266 4.41053 11.6957 4.16318C11.8138 4.08407 11.903 3.96189 12.0054 3.85942C12.0527 3.82637 12.1 3.79333 12.1961 3.75949C12.6077 3.53353 12.9707 3.30836 13.3338 3.08319C13.3338 3.08319 13.3563 3.06368 13.3975 3.06126C14.1506 2.73297 14.8622 2.40671 15.5743 2.08139C15.9916 1.89074 16.4096 1.70158 16.8272 1.51175C16.8272 1.51175 16.8418 1.49984 16.8803 1.50903C16.9645 1.51431 17.0123 1.51772 17.0556 1.50541C18.0396 1.22582 19.0221 0.941026 20.0071 0.665095C20.4583 0.538701 20.9143 0.429109 21.368 0.311894C21.4015 0.302423 21.4351 0.29295 21.5153 0.301669C22.3336 0.250605 23.1054 0.18244 23.8766 0.108308C23.9092 0.105171 23.9365 0.0466374 23.9663 0.0139095C23.9976 0.00759624 24.0288 0.0012829 24.1059 0.0169568C24.8852 0.0442956 25.6186 0.0533573 26.352 0.0523764C26.5336 0.052133 26.715 0.0193038 26.8966 0.00145365C26.9495 -0.00110795 27.0025 -0.00366959 27.0904 0.0255873C27.3986 0.062562 27.6719 0.0677183 27.9452 0.0728746C27.9984 0.0755761 28.0515 0.0782775 28.1406 0.111778C28.3323 0.143514 28.4879 0.144451 28.6436 0.145389C28.6758 0.145216 28.708 0.145042 28.7734 0.177233C29.3132 0.277909 29.8197 0.346222 30.3263 0.414534C30.3791 0.418237 30.432 0.421939 30.5183 0.457804C30.7316 0.5158 30.9116 0.541632 31.0915 0.567464C31.1238 0.569025 31.1561 0.570585 31.2201 0.603119C31.3457 0.675075 31.4367 0.725402 31.5339 0.755606C32.606 1.08849 33.6794 1.41691 34.7514 1.74964C35.079 1.85132 35.4037 1.96248 35.7297 2.0693C35.7297 2.0693 35.7242 2.07753 35.7311 2.09705C36.1308 2.28883 36.5237 2.46108 36.9165 2.63334C36.9165 2.63334 36.9105 2.63719 36.9205 2.65598C37.0359 2.74142 37.1354 2.82087 37.2478 2.87203C37.487 2.98086 37.7329 3.07498 37.976 3.17512C37.976 3.17512 37.9565 3.18197 37.9672 3.20459C38.3029 3.40272 38.6278 3.57822 38.9527 3.75372C39.0055 3.77561 39.0584 3.79749 39.1275 3.86059C39.5157 4.13604 39.8877 4.37028 40.2597 4.60451C40.2597 4.60451 40.2608 4.60389 40.2636 4.62805C40.638 4.91559 41.0097 5.17898 41.3814 5.44236C41.3814 5.44236 41.38 5.44332 41.3835 5.46665C41.4384 5.51739 41.4898 5.54481 41.5412 5.57223C41.5412 5.57223 41.5686 5.58036 41.5808 5.6143C41.8564 5.85543 42.1199 6.06261 42.3835 6.26979C42.4154 6.28925 42.4473 6.30871 42.4898 6.36906C43.1876 7.10639 43.8745 7.80317 44.5636 8.49771C44.5842 8.51849 44.6284 8.51582 44.6617 8.52408C44.6617 8.52408 44.6666 8.52179 44.6682 8.54853C45.0146 9.01492 45.3588 9.45511 45.7068 9.89224C45.7213 9.91042 45.7717 9.89998 45.8053 9.90288C45.8053 9.90288 45.8003 9.91571 45.8034 9.9281C45.8268 9.95485 45.8471 9.96922 45.8674 9.98358C45.8674 9.98358 45.8592 9.98451 45.8589 10.0079C45.9689 10.1587 46.0791 10.2861 46.1893 10.4135C46.1893 10.4135 46.2101 10.4313 46.2121 10.4709C46.5335 11.0185 46.8462 11.5311 47.1754 12.0328C47.3182 12.2505 47.495 12.4457 47.6565 12.6511C47.6565 12.6511 47.6762 12.6741 47.677 12.7156C47.788 12.9325 47.8981 13.108 48.0082 13.2835C48.0323 13.3147 48.0564 13.346 48.0723 13.4058C48.0789 13.449 48.0936 13.4637 48.1084 13.4785C48.1084 13.4785 48.0983 13.4823 48.0981 13.5056C48.2529 13.872 48.399 14.2195 48.5669 14.5562C48.6395 14.7017 48.7571 14.8248 48.8542 14.9581C48.867 14.9782 48.8797 14.9984 48.8838 15.0657C48.8818 15.1699 48.8783 15.2306 48.8969 15.2835C49.3259 16.5066 49.777 17.7225 50.1792 18.9544C50.3535 19.4884 50.4197 20.0571 50.5508 20.6062C50.6423 20.9892 50.7606 21.3658 50.867 21.7452C50.8732 21.7755 50.8795 21.8058 50.8659 21.8802C50.8411 22.0162 50.8242 22.1091 50.833 22.1996C50.8967 22.8534 51.0124 23.5059 51.0221 24.1602C51.0384 25.2591 50.9855 26.3588 50.9691 27.4583C50.9666 27.6265 51.0031 27.7953 51.0215 27.9638ZM11.6121 45.6907C11.5964 45.7291 11.5807 45.7675 11.565 45.8058C11.6042 45.8127 11.6435 45.8196 11.6828 45.8265C11.6713 45.7874 11.6598 45.7482 11.6121 45.6907ZM45.4169 42.6246C45.4362 42.6062 45.4557 42.588 45.4738 42.5684C45.4743 42.5679 45.4596 42.5534 45.452 42.5454C45.4327 42.5638 45.4134 42.5823 45.4169 42.6246Z" fill="#75C223"/>
<path d="M35.2231 50.7726C35.0775 50.8608 34.9348 50.9542 34.7858 51.0362C33.9842 51.4775 33.1965 51.9478 32.3744 52.3471C31.3861 52.8272 30.3506 53.1525 29.2246 52.9269C29.1122 52.9044 29.005 52.8557 28.8701 52.7826C28.7813 52.7359 28.7178 52.7257 28.6543 52.7156C28.6131 52.7091 28.5718 52.7026 28.5034 52.6843C28.4762 52.6725 28.4806 52.669 28.4806 52.669C28.4583 52.6595 28.436 52.65 28.3777 52.5999C28.2476 52.5243 28.1535 52.4894 28.0594 52.4545C28.0315 52.4531 28.0036 52.4517 27.9525 52.4161C27.8116 52.3324 27.6939 52.2829 27.5762 52.2333C27.5762 52.2333 27.5442 52.2217 27.5239 52.1898C27.3468 52.0934 27.1899 52.0287 27.0246 51.9402C26.9478 51.8181 26.8445 51.6257 26.8164 51.6361C26.4814 51.7601 26.3209 51.4625 26.0813 51.364C25.8655 51.2753 25.6354 51.0409 25.3835 51.4567C25.3117 51.2306 25.2253 51.0841 25.2272 50.9389C25.2314 50.6197 24.922 50.6228 24.7727 50.468C24.7322 50.4261 24.5464 50.5243 24.3666 50.5753C24.2805 50.0714 24.1907 49.5455 24.1211 49.0166C24.1771 48.9782 24.2129 48.9429 24.2706 48.9022C24.3223 48.8956 24.3522 48.8944 24.403 48.9109C24.7133 48.8887 25.0027 48.8489 25.2938 48.8301C25.3238 48.8734 25.352 48.8958 25.3802 48.9181C25.3954 48.8815 25.4105 48.8449 25.4499 48.8056C25.5525 48.7821 25.6308 48.7613 25.727 48.7599C26.1566 48.8062 26.399 49.0427 26.5643 49.4036C26.6021 49.486 26.7355 49.5372 26.8354 49.5753C26.9628 49.624 27.1008 49.6446 27.2341 49.6776C27.8002 49.8175 28.3657 50.0864 28.9544 49.8732C29.462 49.6893 29.9753 49.66 30.485 49.7353C30.8514 49.7895 31.1055 49.7579 31.3112 49.4224C31.3749 49.3185 31.562 49.2746 31.7017 49.237C31.8676 49.1923 32.0615 49.2214 32.2093 49.1491C32.3465 49.082 32.5545 48.8911 32.5319 48.8105C32.4019 48.3464 32.6558 48.2989 33.0002 48.3025C33.0428 48.3029 33.0864 48.27 33.1283 48.2498C33.4802 48.0799 33.6975 47.5542 33.5749 47.1873C33.5311 47.0562 33.5066 46.9185 33.4753 46.7682C33.4812 46.7321 33.4849 46.7117 33.5092 46.6828C33.5591 46.671 33.5885 46.6677 33.6363 46.6798C33.8281 46.6458 34.0015 46.5964 34.1933 46.5461C34.2361 46.5458 34.2605 46.5466 34.3166 46.5558C34.5937 46.5428 34.8392 46.5214 35.0967 46.5181C35.1672 46.5221 35.2257 46.5081 35.2934 46.4753C35.3239 46.4061 35.3452 46.3558 35.3888 46.3013C35.4412 46.296 35.4713 46.2947 35.5214 46.3125C35.8764 46.316 36.2113 46.3005 36.5453 46.3102C36.2963 46.7171 36.1005 47.1109 35.9881 47.5656C35.8692 48.0466 35.6143 48.4924 35.4482 48.9639C35.3855 49.1417 35.3616 49.2402 35.1272 49.2008C34.853 49.1547 34.7157 49.415 34.8584 49.6621C34.8975 49.7298 34.9536 49.7877 35.0067 49.8562C34.9299 49.9546 34.8635 50.0397 34.8034 50.1168C34.9529 50.3503 35.088 50.5615 35.2231 50.7726Z" fill="#AEE151"/>
<path d="M35.2437 50.7717C35.0876 50.5617 34.9525 50.3505 34.803 50.117C34.8631 50.0399 34.9295 49.9548 35.0062 49.8564C34.9532 49.7879 34.897 49.73 34.8579 49.6623C34.7153 49.4152 34.8526 49.1549 35.1267 49.201C35.3612 49.2404 35.3851 49.1419 35.4477 48.9641C35.6139 48.4926 35.8688 48.0468 35.9877 47.5658C36.1001 47.1111 36.2958 46.7173 36.5717 46.2998C36.7019 46.2483 36.8041 46.2205 36.9066 46.2194C37.5066 46.213 38.1067 46.213 38.7085 46.2377C38.7368 46.653 38.7 47.0134 38.3459 47.2707C38.2841 47.3156 38.2873 47.4431 38.2469 47.5259C38.1758 47.6716 38.061 47.8042 38.0239 47.9567C37.9481 48.2687 37.9052 48.5894 37.8622 48.9083C37.8439 49.0443 37.8591 49.1848 37.8591 49.3579C37.8623 49.3582 37.941 49.3657 38.005 49.392C37.6526 49.5485 37.3102 49.6757 36.9794 49.8281C36.8028 49.9094 36.6462 50.0341 36.4806 50.1392C36.2064 50.2846 35.9322 50.43 35.606 50.5723C35.4902 50.6135 35.4262 50.6578 35.3623 50.7021C35.3298 50.725 35.2972 50.7478 35.2437 50.7717Z" fill="#A5DC46"/>
<path d="M24.0973 49.0197C24.1871 49.5456 24.2769 50.0715 24.363 50.5754C24.5427 50.5243 24.7285 50.4261 24.769 50.4681C24.9183 50.6229 25.2278 50.6198 25.2235 50.9389C25.2216 51.0842 25.308 51.2306 25.3798 51.4568C25.6318 51.0409 25.8619 51.2754 26.0777 51.3641C26.3173 51.4625 26.4778 51.7601 26.8127 51.6362C26.8409 51.6257 26.9441 51.8182 26.9933 51.9392C26.8437 51.9405 26.7133 51.9189 26.5829 51.8973C26.4909 51.8896 26.3989 51.8818 26.2749 51.8405C26.1753 51.7896 26.1078 51.7723 26.0402 51.755C25.9626 51.7429 25.8849 51.7308 25.7833 51.6841C25.7403 51.6158 25.7213 51.5822 25.7008 51.5269C25.672 51.4809 25.6446 51.4565 25.6172 51.4321C25.5988 51.4679 25.5805 51.5037 25.538 51.5381C25.2626 51.4697 25.0114 51.4027 24.7602 51.3357C24.7357 51.339 24.7112 51.3424 24.6587 51.3205C24.5907 51.2627 24.5508 51.2301 24.5262 51.1852C24.5398 51.144 24.5381 51.1152 24.5364 51.0864C24.5051 51.1215 24.4739 51.1566 24.4149 51.1928C24.3502 51.1948 24.3132 51.1958 24.2761 51.1967C24.2761 51.1967 24.2547 51.2062 24.2477 51.176C24.2157 51.0461 24.1907 50.9464 24.1658 50.8467C24.134 50.856 24.1021 50.8654 24.0703 50.8747C24.0542 50.934 24.0381 50.9932 23.9939 51.0527C23.5423 50.9366 23.1188 50.8202 22.6953 50.7039C22.2715 50.5866 21.8478 50.4693 21.3922 50.3257C21.1298 50.2233 20.8992 50.1473 20.6686 50.0713C20.6686 50.0713 20.6662 50.0386 20.671 49.9976C20.7586 49.9046 20.8415 49.8525 20.9507 49.784C20.812 49.6806 20.7517 49.6357 20.669 49.574C20.9784 49.2903 20.8419 49.0155 20.6945 48.7529C20.8522 48.7775 20.9842 48.7912 21.1379 48.8028C21.1845 48.8146 21.2094 48.8285 21.2418 48.8646C21.4336 48.9299 21.6178 48.9731 21.8316 49.014C21.9996 49.0118 22.1381 49.0118 22.2905 49.0354C22.4578 49.0514 22.6112 49.0438 22.7948 49.0346C22.946 49.0309 23.0669 49.0289 23.2086 49.0457C23.5186 49.0495 23.808 49.0346 24.0973 49.0197Z" fill="#A5DB4B"/>
<path d="M36.4961 50.15C36.6437 50.0341 36.8003 49.9094 36.9769 49.8281C37.3077 49.6757 37.6501 49.5485 38.0315 49.3916C38.5923 49.2095 39.1092 49.0465 39.6498 48.8829C39.7287 48.8594 39.7839 48.8366 39.8647 48.8137C39.9415 48.8129 39.9926 48.8121 40.07 48.8083C40.2238 48.7604 40.3498 48.7099 40.4793 48.6713C41.1045 48.4853 41.7307 48.3025 42.3772 48.116C42.4316 48.0921 42.4654 48.0707 42.5222 48.0453C42.5987 47.9742 42.6522 47.907 42.7243 47.8244C43.1282 47.1428 43.5135 46.4765 43.9171 45.7954C44.3877 45.0435 44.8401 44.3065 45.2926 43.5696C45.3309 43.53 45.3692 43.4905 45.4279 43.4463C45.1488 43.9765 44.8583 44.5167 44.5479 45.0451C44.0009 45.9762 43.4518 46.9065 42.8799 47.8223C42.7546 48.0229 42.5539 48.264 42.3472 48.3124C40.3544 48.7796 38.4332 49.4657 36.4961 50.15Z" fill="#A5DB4B"/>
<path d="M3.14041 13.249C3.04229 13.5205 2.94229 13.8144 2.80251 14.088C2.02899 15.6021 1.4105 17.1753 0.998631 18.8254C0.75823 19.7885 0.547996 20.7592 0.300781 21.7357C0.507175 20.6421 0.688402 19.5264 0.978127 18.4395C1.41671 16.7942 2.06793 15.2238 2.85548 13.7124C2.93582 13.5582 3.03157 13.412 3.14041 13.249Z" fill="#8AC447"/>
<path d="M50.8691 21.7167C50.7577 21.3658 50.6393 20.9892 50.5479 20.6062C50.4168 20.0571 50.3506 19.4884 50.1762 18.9543C49.774 17.7225 49.3229 16.5066 48.8939 15.2835C48.8754 15.2306 48.8789 15.1699 48.8797 15.084C49.1617 15.704 49.4656 16.3422 49.7045 17.0038C50.2534 18.524 50.6352 20.0891 50.8691 21.7167Z" fill="#8AC447"/>
<path d="M0.140625 28.2812C0.181942 28.3364 0.232363 28.4175 0.24377 28.5037C0.526903 30.6445 1.00327 32.7362 1.8102 34.7454C1.83511 34.8075 1.83368 34.8801 1.83636 34.9771C1.6644 34.5987 1.48135 34.1975 1.34017 33.782C0.735664 32.0031 0.312138 30.1828 0.140625 28.2812Z" fill="#8AC447"/>
<path d="M51.0283 27.9393C50.9966 27.7952 50.9601 27.6264 50.9626 27.4582C50.9791 26.3587 51.0319 25.2589 51.0156 24.1601C51.0059 23.5058 50.8902 22.8532 50.8266 22.1994C50.8178 22.109 50.8347 22.0161 50.8568 21.9033C50.96 22.6186 51.1073 23.3539 51.1184 24.0913C51.1374 25.3652 51.0717 26.6403 51.0283 27.9393Z" fill="#8AC447"/>
<path d="M15.7031 49.1279C15.8654 49.1543 16.0413 49.1958 16.2138 49.2481C17.5334 49.6482 18.8507 50.0556 20.1725 50.4484C20.5138 50.5498 20.8682 50.6074 21.2269 50.7065C20.1342 50.474 19.0214 50.2557 17.9316 49.9539C17.1763 49.7448 16.4528 49.4208 15.7031 49.1279Z" fill="#8AC447"/>
<path d="M1.83203 35.0635C1.88634 35.1017 1.95811 35.1596 1.99682 35.2346C2.61045 36.4233 3.21476 37.6167 3.83305 38.8029C4.03992 39.1998 4.28004 39.5793 4.5028 39.9934C4.1581 39.5005 3.76957 39.0051 3.48267 38.4566C2.90391 37.3501 2.38041 36.2147 1.83203 35.0635Z" fill="#8AC447"/>
<path d="M49.3281 34.989C49.445 34.5433 49.584 34.0822 49.7155 33.6191C49.9919 32.6454 50.2641 31.6705 50.5391 30.6964C50.5512 30.6535 50.5735 30.6133 50.6114 30.5605C50.4803 31.2252 50.364 31.9116 50.1683 32.5745C49.9293 33.3842 49.6237 34.1743 49.3281 34.989Z" fill="#8AC447"/>
<path d="M47.143 40.6367C47.1195 40.6257 47.109 40.6006 47.1149 40.5803C47.3243 39.8694 47.5625 39.1654 47.7349 38.4457C47.8247 38.0706 47.8395 37.6843 48.1881 37.4111C47.9825 38.244 47.7665 39.0853 47.5194 39.9174C47.4455 40.1665 47.2846 40.3897 47.143 40.6367Z" fill="#8AC447"/>
<path d="M44.6522 8.50122C44.623 8.51607 44.5787 8.51874 44.5581 8.49796C43.869 7.80342 43.1821 7.10664 42.4922 6.38672C43.0306 6.86918 43.5761 7.37072 44.1108 7.8834C44.3032 8.06783 44.4698 8.2791 44.6522 8.50122Z" fill="#8AC447"/>
<path d="M22.6951 50.7305C23.1243 50.8207 23.5478 50.937 23.9993 51.0653C24.0259 51.0934 24.0243 51.1094 24.0224 51.1254C23.1788 51.0138 22.3353 50.9023 21.4688 50.7771C21.7237 50.7776 22.0016 50.7992 22.2797 50.8028C22.416 50.8046 22.5529 50.7731 22.6951 50.7305Z" fill="#8AC447"/>
<path d="M10.0273 45.8428C10.2586 45.9675 10.5031 46.1056 10.7347 46.2626C11.2272 46.5964 11.7131 46.94 12.2052 47.3025C11.484 46.8386 10.7593 46.3517 10.0273 45.8428Z" fill="#8AC447"/>
<path d="M47.6536 12.6259C47.4902 12.445 47.3133 12.2497 47.1705 12.0321C46.8413 11.5304 46.5287 11.0178 46.2109 10.4834C46.6017 11.0118 46.9937 11.5645 47.378 12.1224C47.4824 12.2739 47.5637 12.4413 47.6536 12.6259Z" fill="#8AC447"/>
<path d="M48.2775 37.2988C48.2529 37.2565 48.2245 37.1882 48.2458 37.1436C48.5787 36.4453 48.918 35.7501 49.2793 35.0439C48.9673 35.7838 48.632 36.5338 48.2775 37.2988Z" fill="#8AC447"/>
<path d="M0 25.0557C0.0426808 25.0819 0.0993927 25.139 0.0995016 25.1963C0.100763 25.8699 0.0935458 26.5436 0.0710677 27.2396C0.0316295 26.5369 0.00968292 25.8118 0 25.0557Z" fill="#8AC447"/>
<path d="M45.7981 9.88C45.7687 9.90071 45.7183 9.91114 45.7038 9.89296C45.3558 9.45583 45.0116 9.01564 44.6641 8.55176C45.0389 8.97048 45.4165 9.41344 45.7981 9.88Z" fill="#8AC447"/>
<path d="M12.6172 47.585C13.1478 47.8436 13.6888 48.1236 14.2341 48.4269C13.7015 48.1689 13.1646 47.8876 12.6172 47.585Z" fill="#8AC447"/>
<path d="M48.8498 14.9322C48.7526 14.8247 48.635 14.7017 48.5624 14.5562C48.3945 14.2195 48.2484 13.8719 48.0977 13.502C48.3512 13.9522 48.6005 14.4292 48.8498 14.9322Z" fill="#8AC447"/>
<path d="M4.1324 11.5938C3.85279 12.1014 3.55087 12.6162 3.22656 13.1358C3.50614 12.6273 3.80811 12.1141 4.1324 11.5938Z" fill="#8AC447"/>
<path d="M6.97266 43.0947C7.34063 43.4262 7.71119 43.7809 8.08224 44.1605C7.71357 43.8296 7.34441 43.4738 6.97266 43.0947Z" fill="#8AC447"/>
<path d="M5.82422 41.7881C6.13146 42.1106 6.44408 42.4565 6.75767 42.827C6.44896 42.5048 6.13928 42.1581 5.82422 41.7881Z" fill="#8AC447"/>
<path d="M8.26953 44.3721C8.5719 44.6068 8.88354 44.8636 9.19766 45.144C8.89303 44.9099 8.58591 44.652 8.26953 44.3721Z" fill="#8AC447"/>
<path d="M6.72325 8.23535C6.51164 8.51273 6.27723 8.796 6.01953 9.08294C6.23098 8.80483 6.46571 8.52304 6.72325 8.23535Z" fill="#8AC447"/>
<path d="M8.6235 6.36621C8.39905 6.61221 8.15157 6.86192 7.87891 7.10704C8.10264 6.85828 8.35156 6.6141 8.6235 6.36621Z" fill="#8AC447"/>
<path d="M14.6289 48.6484C14.9703 48.7726 15.3261 48.9165 15.6888 49.0847C15.3449 48.9621 14.9941 48.8151 14.6289 48.6484Z" fill="#8AC447"/>
<path d="M42.3717 6.2478C42.1163 6.06298 41.8528 5.8558 41.5859 5.62598C41.8429 5.8107 42.1032 6.01806 42.3717 6.2478Z" fill="#8AC447"/>
<path d="M50.6797 30.3902C50.7114 30.0435 50.7616 29.6778 50.8346 29.3018C50.8043 29.6514 50.7512 30.0113 50.6797 30.3902Z" fill="#8AC447"/>
<path d="M46.4336 41.8083C46.5796 41.516 46.7471 41.2141 46.9384 40.9092C46.7932 41.2036 46.6242 41.5012 46.4336 41.8083Z" fill="#8AC447"/>
<path d="M0.0417839 23.7979C0.054782 24.1139 0.0546411 24.4556 0.0325899 24.8104C0.0166674 24.4902 0.0226573 24.1569 0.0417839 23.7979Z" fill="#8AC447"/>
<path d="M5.53074 9.63379C5.35574 9.90331 5.15855 10.1807 4.9375 10.4633C5.11194 10.1928 5.31024 9.91727 5.53074 9.63379Z" fill="#8AC447"/>
<path d="M25.7082 51.5481C25.7272 51.5818 25.7463 51.6154 25.7727 51.667C25.4522 51.5825 25.1243 51.48 24.7812 51.3564C25.0173 51.4023 25.2685 51.4694 25.5673 51.5393C25.646 51.5442 25.6771 51.5462 25.7082 51.5481Z" fill="#8AC447"/>
<path d="M50.8867 29.1301C50.903 28.8103 50.931 28.4657 50.984 28.1123C50.9721 28.4374 50.9353 28.7713 50.8867 29.1301Z" fill="#8AC447"/>
<path d="M0.247139 21.9082C0.239369 22.1814 0.216539 22.4772 0.171875 22.7844C0.177387 22.5075 0.204732 22.2191 0.247139 21.9082Z" fill="#8AC447"/>
<path d="M5.00391 40.7246C5.18642 40.9218 5.37207 41.1432 5.55619 41.3903C5.37212 41.1937 5.18958 40.9713 5.00391 40.7246Z" fill="#8AC447"/>
<path d="M9.24609 45.2129C9.47281 45.3637 9.70898 45.5366 9.9463 45.7343C9.71681 45.5845 9.48618 45.4097 9.24609 45.2129Z" fill="#8AC447"/>
<path d="M4.89672 10.4717C4.77922 10.6781 4.63967 10.8918 4.47656 11.1084C4.59356 10.9006 4.73412 10.6897 4.89672 10.4717Z" fill="#8AC447"/>
<path d="M4.53125 40.0889C4.68736 40.2604 4.84439 40.4557 5.0021 40.6761C4.84591 40.5051 4.68904 40.3089 4.53125 40.0889Z" fill="#8AC447"/>
<path d="M7.19734 7.7373C7.07658 7.89911 6.93357 8.06725 6.76562 8.23383C6.88548 8.06939 7.03029 7.90652 7.19734 7.7373Z" fill="#8AC447"/>
<path d="M5.96778 9.09961C5.87098 9.25352 5.75207 9.41359 5.60938 9.5746C5.70562 9.41895 5.82564 9.26236 5.96778 9.09961Z" fill="#8AC447"/>
<path d="M48.0033 13.2587C47.8935 13.1081 47.7833 12.9326 47.6758 12.7305C47.7866 12.8805 47.8948 13.0571 48.0033 13.2587Z" fill="#8AC447"/>
<path d="M24.0411 51.1453C24.0211 51.109 24.0228 51.093 24.0242 51.0647C24.0405 50.9933 24.0566 50.934 24.0727 50.8748C24.1045 50.8654 24.1363 50.856 24.1681 50.8467C24.1931 50.9464 24.218 51.0461 24.2402 51.1696C24.1793 51.1842 24.1211 51.1749 24.0411 51.1453Z" fill="#AEE151"/>
<path d="M45.4727 43.4282C45.5418 43.2716 45.6314 43.105 45.7437 42.9326C45.6753 43.0906 45.5842 43.2544 45.4727 43.4282Z" fill="#A5DB4B"/>
<path d="M46.186 10.3895C46.0762 10.2855 45.966 10.1581 45.8594 10.0049C45.9705 10.1081 46.078 10.2371 46.186 10.3895Z" fill="#8AC447"/>
<path d="M0.109331 23.0967C0.120327 23.252 0.119938 23.4327 0.0974859 23.6243C0.0829274 23.4641 0.0904351 23.2931 0.109331 23.0967Z" fill="#8AC447"/>
<path d="M4.41111 11.1689C4.35561 11.3026 4.27834 11.4457 4.17578 11.5889C4.23011 11.4521 4.30972 11.3153 4.41111 11.1689Z" fill="#8AC447"/>
<path d="M0.0625 27.4307C0.0972995 27.5542 0.12314 27.7055 0.131678 27.8757C0.0940997 27.7492 0.0738202 27.6038 0.0625 27.4307Z" fill="#8AC447"/>
<path d="M7.75435 7.17578C7.67482 7.29004 7.57329 7.4107 7.44531 7.52829C7.52336 7.41088 7.62786 7.29653 7.75435 7.17578Z" fill="#8AC447"/>
<path d="M9.03701 6.00977C8.97559 6.097 8.8911 6.18611 8.78125 6.27284C8.8419 6.1842 8.92793 6.09792 9.03701 6.00977Z" fill="#8AC447"/>
<path d="M9.46115 5.66211C9.39989 5.74669 9.3159 5.83441 9.20703 5.9183C9.26758 5.83139 9.353 5.74832 9.46115 5.66211Z" fill="#8AC447"/>
<path d="M45.7969 42.9134C45.8356 42.793 45.8964 42.6655 45.9804 42.5312C45.9421 42.6518 45.8805 42.779 45.7969 42.9134Z" fill="#A5DB4B"/>
<path d="M46.2109 42.2033C46.2504 42.0869 46.3112 41.963 46.3938 41.8301C46.3544 41.946 46.2934 42.0709 46.2109 42.2033Z" fill="#A5DB4B"/>
<path d="M5.57422 41.4863C5.65832 41.5486 5.74305 41.6335 5.82207 41.7431C5.73585 41.6815 5.65535 41.5952 5.57422 41.4863Z" fill="#8AC447"/>
<path d="M46.0273 42.5165C46.0501 42.4289 46.0944 42.334 46.1605 42.2324C46.1379 42.3202 46.0934 42.4148 46.0273 42.5165Z" fill="#A5DB4B"/>
<path d="M24.293 51.2161C24.3142 51.1949 24.3513 51.1939 24.433 51.1934C24.4778 51.1937 24.5118 51.1967 24.5118 51.1967C24.5518 51.2292 24.5917 51.2618 24.6431 51.3101C24.5393 51.296 24.4241 51.2662 24.293 51.2161Z" fill="#8AC447"/>
<path d="M12.2617 47.375C12.3515 47.3994 12.4506 47.4454 12.5543 47.5144C12.463 47.4905 12.367 47.4435 12.2617 47.375Z" fill="#8AC447"/>
<path d="M35.3867 50.7025C35.426 50.6568 35.4899 50.6125 35.5818 50.5732C35.5437 50.6202 35.4776 50.662 35.3867 50.7025Z" fill="#AEE151"/>
<path d="M14.3438 48.5117C14.406 48.5189 14.484 48.5443 14.5714 48.595C14.5071 48.5902 14.4333 48.5601 14.3438 48.5117Z" fill="#8AC447"/>
<path d="M47.0039 40.8512C47.006 40.8079 47.0279 40.756 47.0722 40.6992C47.0709 40.7438 47.0473 40.7932 47.0039 40.8512Z" fill="#8AC447"/>
<path d="M6.76953 42.8799C6.80107 42.8802 6.83696 42.9013 6.87611 42.944C6.84421 42.944 6.80905 42.9223 6.76953 42.8799Z" fill="#8AC447"/>
<path d="M48.1047 13.462C48.0901 13.4648 48.075 13.4498 48.0703 13.4264C48.0806 13.418 48.1044 13.4443 48.1047 13.462Z" fill="#8AC447"/>
<path d="M45.8621 9.9638C45.8438 9.96889 45.8235 9.95452 45.8008 9.92091C45.8189 9.91588 45.8395 9.93011 45.8621 9.9638Z" fill="#8AC447"/>
<path d="M7.27706 7.6582C7.28486 7.67583 7.2735 7.70105 7.24085 7.73105C7.23234 7.71248 7.24511 7.68914 7.27706 7.6582Z" fill="#8AC447"/>
<path d="M7.8366 7.10645C7.84298 7.12464 7.83083 7.14675 7.79865 7.17042C7.79178 7.15144 7.80492 7.1309 7.8366 7.10645Z" fill="#8AC447"/>
<path d="M9.16625 5.91895C9.171 5.9375 9.15555 5.96063 9.11816 5.9857C9.11283 5.96627 9.12945 5.94489 9.16625 5.91895Z" fill="#8AC447"/>
<path d="M9.95312 45.774C9.97038 45.7649 9.99395 45.7734 10.0218 45.8015C10.0038 45.8113 9.98162 45.8015 9.95312 45.774Z" fill="#8AC447"/>
<path d="M41.7956 37.3747C41.8061 37.3694 41.8167 37.3642 41.8569 37.3692C41.9256 37.3777 41.9647 37.376 42.0037 37.3742C42.0037 37.3742 42.0066 37.3925 42.0064 37.4226C42.0284 37.4858 42.0507 37.519 42.0767 37.5773C42.18 37.8141 42.327 37.7984 42.5173 37.6889C42.5962 37.6661 42.6514 37.6431 42.7268 37.629C42.8064 37.6233 42.8659 37.6087 42.947 37.5914C42.9965 37.597 43.0243 37.6052 43.0573 37.6398C43.2955 37.7175 43.5285 37.7689 43.7583 37.8206C43.7551 37.8208 43.7566 37.8146 43.7709 37.8373C43.8551 37.8706 43.9251 37.8811 44.0049 37.8874C44.0148 37.8832 44.032 37.8961 44.032 37.8961C44.0996 38.0247 44.1673 38.1533 44.2225 38.2582C43.7933 38.5533 43.7392 38.7487 44.1718 39.2757C44.5058 39.6826 44.572 40.2247 44.8444 40.6081C45.279 41.2198 44.9875 41.8552 45.1288 42.4625C45.2065 42.7971 45.4367 43.1336 45.292 43.5396C44.84 44.3061 44.3876 45.0431 43.8943 45.782C43.6531 45.586 43.7784 45.4207 43.9192 45.275C44.1487 45.0377 44.1509 44.9224 43.8941 44.7308C43.8135 44.6706 43.7242 44.6219 43.6407 44.5691C43.6579 44.5296 43.6614 44.5033 43.6764 44.4901C43.8627 44.3254 44.0829 44.1752 43.6579 44.0145C43.5848 43.9869 43.5484 43.7754 43.5504 43.6497C43.5618 42.9421 43.6319 42.2324 43.5926 41.5285C43.5761 41.2331 43.3383 40.9508 43.2046 40.661C43.1493 40.5411 43.0945 40.4199 43.0544 40.2945C42.9201 39.8742 42.9113 39.4096 42.5619 39.0685C42.3407 38.8527 42.0952 38.6296 41.9681 38.3592C41.8536 38.1157 41.869 37.8144 41.5039 37.7727C41.618 37.617 41.7068 37.4958 41.7956 37.3747Z" fill="#7DC725"/>
<path d="M16.7546 48.6743C16.6058 48.5875 16.4569 48.5007 16.2762 48.3821C16.0418 48.2246 15.8393 48.0988 15.6368 47.9731C15.6368 47.9731 15.6022 47.9723 15.5821 47.9475C15.5623 47.8364 15.5408 47.7429 15.5665 47.665C15.6707 47.3484 15.9243 47.0126 15.8735 46.7284C15.781 46.2105 15.7762 45.7038 15.7794 45.1882C15.78 45.1004 15.73 45.0134 15.7154 44.924C15.6894 44.7644 15.6726 44.6034 15.652 44.4429C15.6217 44.4413 15.5913 44.4397 15.561 44.4381C15.6801 44.1936 15.7992 43.9491 15.9439 43.708C16.4182 43.8962 16.8668 44.0811 17.3199 44.2908C17.3918 44.4529 17.458 44.5909 17.5272 44.7273C17.5668 44.8054 17.5937 44.9028 17.6568 44.9538C17.9359 45.1791 17.9599 45.4744 17.9387 45.8002C17.9265 45.9864 17.9865 46.1775 17.9726 46.3633C17.9381 46.8256 18.0987 47.2199 18.3402 47.597C18.3734 47.649 18.3598 47.7323 18.3644 47.8013C18.4026 48.3649 18.3345 48.9511 18.7146 49.4417C18.1251 49.2574 17.5356 49.0731 16.9189 48.8632C16.846 48.7832 16.8003 48.7287 16.7546 48.6743Z" fill="#8DCE34"/>
<path d="M18.7357 49.4514C18.3322 48.9503 18.4003 48.3641 18.3622 47.8005C18.3575 47.7315 18.3712 47.6483 18.3379 47.5963C18.0964 47.2191 17.9358 46.8249 17.9704 46.3626C17.9843 46.1767 17.9242 45.9856 17.9364 45.7994C17.9576 45.4736 17.9337 45.1784 17.6545 44.953C17.5914 44.902 17.5645 44.8046 17.5249 44.7265C17.4557 44.5901 17.3896 44.4521 17.3438 44.293C17.5066 44.3184 17.6461 44.3717 17.7893 44.4119C18.2756 44.5485 18.764 44.6777 19.2501 44.8152C19.5273 44.8936 19.66 45.0174 19.3998 45.2837C19.3276 45.3576 19.3122 45.487 19.2506 45.5943C19.2211 45.6441 19.2118 45.6906 19.2022 45.7667C19.1788 46.0614 19.1072 46.333 19.1429 46.5897C19.2064 47.0466 19.225 47.544 19.6914 47.831C19.6914 47.831 19.6922 47.8318 19.6949 47.8562C19.8825 48.0507 20.0674 48.2207 20.2522 48.3907C20.2656 48.3927 20.2789 48.3947 20.3137 48.4299C20.3997 48.4864 20.4641 48.5096 20.5286 48.5329C20.5286 48.5329 20.5307 48.5314 20.5312 48.548C20.5317 48.5646 20.5329 48.5954 20.5349 48.6185C20.5816 48.6749 20.6263 48.7082 20.6709 48.7415C20.844 49.015 20.9805 49.2897 20.6712 49.5735C20.7539 49.6352 20.8141 49.6801 20.9528 49.7835C20.8436 49.852 20.7608 49.904 20.6726 49.9806C20.448 49.9701 20.2288 49.935 19.9897 49.8539C19.9039 49.5653 19.7658 49.6301 19.6205 49.7261C19.5659 49.7023 19.5114 49.6784 19.429 49.6268C19.2874 49.5702 19.1737 49.5415 19.0599 49.5127C18.9597 49.4958 18.8594 49.4789 18.7357 49.4514Z" fill="#97D43D"/>
<path d="M13.9553 46.8535C13.8766 46.8095 13.7817 46.781 13.7219 46.7188C13.4076 46.3916 13.0204 46.2257 12.5809 46.1438C12.4947 46.1278 12.4289 46.0022 12.3506 45.9007C12.3475 45.8742 12.3477 45.8741 12.3477 45.8741C12.5273 45.8748 12.7096 45.8938 12.8854 45.8682C12.9667 45.8564 13.0913 45.7628 13.0972 45.6975C13.1068 45.5898 13.0669 45.4451 12.9933 45.3685C12.7533 45.119 12.782 44.6427 13.0916 44.494C13.4216 44.3354 13.4722 44.2181 13.1948 43.9196C13.0366 43.7495 13.0442 43.4253 12.977 43.1706C12.9255 42.9753 12.8738 42.7801 12.8221 42.5848C12.7877 42.5834 12.7534 42.5819 12.719 42.5805C12.7962 42.5193 12.8734 42.4582 12.9677 42.3836C12.9387 42.3013 12.9074 42.2129 12.9167 42.1133C13.5241 42.4498 14.091 42.7976 14.6571 43.1629C14.6563 43.1923 14.6562 43.204 14.6534 43.2406C14.6053 43.5016 14.6452 43.759 14.4311 43.9485C14.1388 44.2073 14.2752 44.4718 14.4275 44.7481C14.496 44.8723 14.5208 45.034 14.5222 45.1792C14.526 45.567 14.4187 45.9792 14.5169 46.3375C14.6595 46.8579 14.6731 46.906 14.1291 46.8548C14.0716 46.8494 14.0132 46.8537 13.9553 46.8535Z" fill="#7AC622"/>
<path d="M13.9609 46.877C14.0148 46.8534 14.0732 46.8491 14.1307 46.8545C14.6747 46.9057 14.6611 46.8576 14.5185 46.3371C14.4203 45.9789 14.5276 45.5667 14.5238 45.1789C14.5224 45.0337 14.4975 44.872 14.4291 44.7478C14.2768 44.4715 14.1404 44.207 14.4327 43.9482C14.6468 43.7587 14.6068 43.5013 14.6728 43.24C14.7051 43.2145 14.717 43.2141 14.7573 43.2139C15.1631 43.3775 15.5406 43.5408 15.9181 43.7041C15.799 43.9486 15.6799 44.1931 15.5608 44.4376C15.5912 44.4392 15.6215 44.4408 15.6519 44.4424C15.6725 44.6028 15.6892 44.7639 15.7152 44.9235C15.7298 45.0129 15.7798 45.0998 15.7793 45.1877C15.776 45.7033 15.7809 46.21 15.8734 46.7279C15.9241 47.0121 15.6706 47.3479 15.5663 47.6644C15.5406 47.7424 15.5621 47.8358 15.5646 47.9467C15.4756 47.94 15.3798 47.9173 15.2928 47.8761C15.0598 47.7657 14.9501 47.3527 14.6507 47.5533C14.4064 47.3209 14.1857 47.1108 13.9609 46.877Z" fill="#82CA2A"/>
<path d="M15.941 43.7073C15.5379 43.5406 15.1604 43.3773 14.7464 43.1991C14.6959 43.166 14.6782 43.1529 14.6567 43.1449C14.0898 42.7971 13.5229 42.4494 12.9317 42.0988C11.9845 41.5514 11.0808 40.9702 10.1319 40.4758C9.55619 40.1758 8.90642 40.0208 8.29784 39.7806C7.81045 39.5883 7.30985 39.5459 6.76172 39.5704C6.97147 39.5217 7.22101 39.4198 7.45841 39.4428C8.65384 39.5588 9.72024 40.0639 10.7513 40.635C12.2661 41.4741 13.7477 42.3742 15.2737 43.1918C16.496 43.8468 17.8069 44.3007 19.1499 44.6542C19.3184 44.6986 19.4821 44.7621 19.6457 44.823C19.6976 44.8423 19.7419 44.882 19.7693 44.8995C19.6106 45.2767 19.4322 45.6267 19.3148 45.9961C19.1064 46.6519 19.3784 47.2243 19.6913 47.8053C19.2244 47.5441 19.2058 47.0466 19.1423 46.5898C19.1066 46.3331 19.1782 46.0614 19.2188 45.7541C19.2475 45.6714 19.2588 45.6312 19.2702 45.591C19.3116 45.4871 19.327 45.3577 19.3992 45.2838C19.6594 45.0174 19.5266 44.8937 19.2495 44.8153C18.7634 44.6778 18.275 44.5486 17.7887 44.412C17.6455 44.3718 17.5059 44.3185 17.3386 44.2682C16.8639 44.0804 16.4153 43.8955 15.941 43.7073Z" fill="#8AC447"/>
<path d="M43.0553 37.6132C43.0276 37.6049 42.9998 37.5967 42.9273 37.5759C42.7522 37.5491 42.6218 37.5349 42.4748 37.506C42.3875 37.4794 42.3168 37.4674 42.2387 37.4377C42.2271 37.4078 42.2229 37.3957 42.2188 37.3836C42.7019 37.4612 43.1967 37.4972 43.6654 37.6269C44.2774 37.7963 44.8674 38.0441 45.4696 38.2502C45.8514 38.3808 46.2591 38.1977 46.4722 37.8564C46.5899 37.6677 46.7642 37.5143 46.936 37.3418C46.7489 37.6955 46.5544 38.0633 46.3181 38.4019C46.2588 38.4868 46.0479 38.5361 45.9363 38.5027C45.3152 38.3173 44.7032 38.1013 44.0617 37.8958C44.0353 37.8958 44.0181 37.8829 43.9896 37.8679C43.894 37.8401 43.827 37.8272 43.7599 37.8143C43.7599 37.8143 43.7584 37.8205 43.7472 37.7982C43.5091 37.7217 43.2822 37.6674 43.0553 37.6132Z" fill="#D9D9D9"/>
<path d="M4.44531 37.916C4.82139 38.4561 5.19523 39.0228 5.57317 39.6137C5.50753 39.5991 5.40862 39.5779 5.37261 39.5185C5.0564 38.9971 4.7514 38.4688 4.44531 37.916Z" fill="#8AC447"/>
<path d="M5.71484 39.8569C5.86038 39.97 5.98525 39.9914 6.1545 39.8398C6.28571 39.7222 6.47063 39.6646 6.65764 39.582C6.46369 39.7581 6.25322 39.948 6.01519 40.0926C5.97231 40.1187 5.816 39.958 5.71484 39.8569Z" fill="#8AC447"/>
<path d="M15.6367 48C15.8392 48.0986 16.0417 48.2243 16.2551 48.3713C15.9915 48.3821 15.6968 48.4067 15.6367 48Z" fill="#82CA2A"/>
<path d="M47.5547 36.2065C47.6762 35.8723 47.8188 35.5271 47.9843 35.1777C47.8635 35.5142 47.7196 35.8548 47.5547 36.2065Z" fill="#D9D9D9"/>
<path d="M48.2773 34.5592C48.37 34.24 48.4829 33.9075 48.62 33.5703C48.5286 33.8924 48.4131 34.2192 48.2773 34.5592Z" fill="#D9D9D9"/>
<path d="M20.6758 50.0957C20.9018 50.1463 21.1324 50.2223 21.368 50.323C21.1421 50.2722 20.9112 50.1967 20.6758 50.0957Z" fill="#8DCE34"/>
<path d="M48.9492 32.7024C48.9923 32.4741 49.054 32.2293 49.1382 31.9727C49.0964 32.2026 49.0321 32.4443 48.9492 32.7024Z" fill="#D9D9D9"/>
<path d="M48.6992 33.439C48.7355 33.2601 48.7916 33.0675 48.8683 32.8662C48.8324 33.0467 48.7757 33.2361 48.6992 33.439Z" fill="#D9D9D9"/>
<path d="M19.6328 49.7445C19.7629 49.6301 19.901 49.5653 19.9676 49.8346C19.8616 49.8284 19.7548 49.7956 19.6328 49.7445Z" fill="#8DCE34"/>
<path d="M48.0586 35.103C48.0928 34.9578 48.1476 34.7996 48.2242 34.6299C48.1905 34.7756 48.1348 34.9328 48.0586 35.103Z" fill="#D9D9D9"/>
<path d="M19.0703 49.5381C19.1782 49.5413 19.292 49.5701 19.4112 49.6244C19.3032 49.6212 19.1897 49.5924 19.0703 49.5381Z" fill="#8DCE34"/>
<path d="M11.6278 45.6992C11.6573 45.7475 11.6688 45.7867 11.6803 45.8259C11.641 45.819 11.6018 45.8121 11.5625 45.8052C11.5782 45.7668 11.594 45.7285 11.6278 45.6992Z" fill="#7AC622"/>
<path d="M47.3359 36.6272C47.3397 36.5692 47.363 36.502 47.4055 36.4307C47.4016 36.4904 47.3785 36.5542 47.3359 36.6272Z" fill="#D9D9D9"/>
<path d="M16.7539 48.6982C16.7988 48.7283 16.8445 48.7827 16.892 48.8596C16.8474 48.829 16.801 48.7758 16.7539 48.6982Z" fill="#82CA2A"/>
<path d="M47.0234 37.221C47.03 37.1604 47.0562 37.088 47.107 37.0098C47.1021 37.0724 47.0726 37.1408 47.0234 37.221Z" fill="#D9D9D9"/>
<path d="M5.57031 39.6562C5.61003 39.6722 5.64689 39.7107 5.68418 39.77C5.64556 39.7534 5.6065 39.7161 5.57031 39.6562Z" fill="#8AC447"/>
<path d="M45.3984 42.6131C45.4063 42.5827 45.4256 42.5643 45.4449 42.5459C45.4525 42.5539 45.4672 42.5684 45.4668 42.5689C45.4487 42.5884 45.4292 42.6067 45.3984 42.6131Z" fill="#7DC725"/>
<path d="M47.4789 36.3462C47.4713 36.3176 47.4824 36.2809 47.5102 36.2334C47.5171 36.2611 47.5073 36.2995 47.4789 36.3462Z" fill="#D9D9D9"/>
<path d="M49.186 31.9005C49.1732 31.8904 49.1721 31.8667 49.1844 31.8301C49.1978 31.8405 49.1978 31.8637 49.186 31.9005Z" fill="#D9D9D9"/>
<path d="M12.345 45.8746C12.3367 45.865 12.3285 45.8554 12.3203 45.8457C12.3261 45.849 12.3318 45.8524 12.3414 45.865C12.3452 45.8743 12.345 45.8746 12.345 45.8746Z" fill="#7AC622"/>
<path d="M29.836 47.5418C29.8618 47.5392 29.8877 47.5366 29.9582 47.5399C30.0863 47.4997 30.1697 47.4536 30.253 47.4075C30.3102 47.3906 30.3673 47.3737 30.4647 47.3747C30.7837 47.3446 31.0668 47.3138 31.3398 47.2436C31.5903 47.1792 31.8299 47.0723 32.0743 46.9842C32.1198 46.981 32.1653 46.9777 32.2638 46.9786C32.7017 46.9162 33.0865 46.8497 33.4714 46.7832C33.5047 46.9179 33.5293 47.0555 33.5731 47.1867C33.6956 47.5536 33.4783 48.0793 33.1264 48.2492C33.0846 48.2694 33.0409 48.3023 32.9984 48.3018C32.6539 48.2983 32.4 48.3458 32.5301 48.8099C32.5526 48.8905 32.3446 49.0814 32.2075 49.1485C32.0597 49.2208 31.8657 49.1917 31.6999 49.2363C31.5602 49.274 31.373 49.3179 31.3093 49.4218C31.1037 49.7572 30.8495 49.7889 30.4831 49.7347C29.9735 49.6594 29.4602 49.6887 28.9526 49.8725C28.3638 50.0857 27.7983 49.8169 27.2323 49.6769C27.0989 49.644 26.9609 49.6233 26.8335 49.5747C26.7337 49.5365 26.6002 49.4853 26.5625 49.4029C26.3972 49.0421 26.1547 48.8055 25.7422 48.7403C26.5671 48.4786 27.3946 48.2613 28.2181 48.03C28.7603 47.8777 29.2969 47.7052 29.836 47.5418Z" fill="#BDE75E"/>
<path d="M29.8182 47.5254C29.2981 47.7047 28.7616 47.8772 28.2193 48.0295C27.3958 48.2608 26.5684 48.4781 25.7255 48.7203C25.6302 48.7601 25.5518 48.7809 25.427 48.8044C25.3508 48.8073 25.3211 48.8076 25.2914 48.8079C25.002 48.8477 24.7126 48.8875 24.4023 48.9097C24.9607 48.7485 25.5423 48.6137 26.1187 48.4594C27.1445 48.1847 28.1663 47.8954 29.1917 47.6193C29.3897 47.566 29.5965 47.5453 29.8182 47.5254Z" fill="#CBE686"/>
<path d="M35.5195 46.3118C36.3705 46.1017 37.2482 45.9962 38.1418 46.0728C38.3149 46.0876 38.4896 46.0843 38.6937 46.1149C38.7177 46.1636 38.7115 46.1867 38.7053 46.2099C38.1052 46.2121 37.5051 46.2121 36.9051 46.2184C36.8026 46.2195 36.7004 46.2474 36.5713 46.2735C36.2095 46.2997 35.8745 46.3153 35.5195 46.3118Z" fill="#CBE686"/>
<path d="M33.4758 46.7675C33.0889 46.8497 32.7041 46.9162 32.2891 46.9792C32.4172 46.9095 32.5704 46.8232 32.7349 46.7819C32.9633 46.7245 33.2001 46.7009 33.4612 46.6768C33.4854 46.7111 33.4817 46.7315 33.4758 46.7675Z" fill="#CBE686"/>
<path d="M34.3164 46.5554C34.6259 46.4622 34.967 46.3775 35.3372 46.2988C35.345 46.3553 35.3237 46.4057 35.2684 46.4764C35.1845 46.4977 35.1345 46.4986 35.0845 46.4995C34.839 46.5209 34.5935 46.5424 34.3164 46.5554Z" fill="#CBE686"/>
<path d="M23.2109 49.0448C23.5225 48.9801 23.8549 48.9341 24.2173 48.8975C24.2116 48.9421 24.1758 48.9774 24.1198 49.0157C23.8103 49.0337 23.521 49.0486 23.2109 49.0448Z" fill="#CBE686"/>
<path d="M33.6367 46.6799C33.7902 46.6168 33.9622 46.569 34.1548 46.5342C34.002 46.5965 33.8285 46.6459 33.6367 46.6799Z" fill="#CBE686"/>
<path d="M25.293 48.8295C25.3209 48.8082 25.3506 48.8079 25.4025 48.8076C25.4097 48.8443 25.3945 48.8809 25.3794 48.9175C25.3512 48.8952 25.3229 48.8729 25.293 48.8295Z" fill="#BDE75E"/>
<path d="M35.0938 46.5175C35.1317 46.4985 35.1817 46.4976 35.2565 46.4951C35.2228 46.5075 35.1643 46.5215 35.0938 46.5175Z" fill="#BDE75E"/>
<path d="M38.7067 46.2364C38.7111 46.1863 38.7173 46.1632 38.7259 46.1222C38.7525 46.0952 38.7768 46.086 38.8461 46.0787C38.9249 46.0818 38.9588 46.083 38.9949 46.1083C39.043 46.1842 39.0889 46.2361 39.1485 46.3061C39.2238 46.2913 39.2853 46.2582 39.376 46.2252C39.5028 46.2258 39.6004 46.2264 39.7152 46.2423C39.9171 46.0217 39.8772 45.8221 39.627 45.7328C39.6263 45.7331 39.627 45.7318 39.6253 45.7114C39.6016 45.6586 39.5796 45.6263 39.5497 45.5759C39.523 45.5233 39.5043 45.4886 39.4998 45.4346C39.5354 45.347 39.5895 45.2695 39.5732 45.212C39.4677 44.8416 39.3369 44.4783 39.2337 44.1074C39.1093 43.6601 38.883 43.2251 39.0565 42.7338C39.0825 42.6602 39.0257 42.557 39.0058 42.4678C38.9566 42.248 38.8391 42.0185 38.8696 41.8106C38.9597 41.196 38.4757 40.8263 38.2841 40.3371C38.1379 39.9637 37.8285 39.6545 37.5932 39.3156C37.3242 38.928 37.1986 38.4008 36.6211 38.2928C36.7094 38.1971 36.784 38.0921 36.8814 38.0624C37.3264 37.927 37.7778 37.8126 38.227 37.7207C38.2098 37.9644 38.2119 38.1555 38.4636 38.2616C38.5255 38.2877 38.5197 38.4614 38.5567 38.563C38.6092 38.7075 38.6616 38.854 38.7344 38.9886C38.8109 39.1301 38.9346 39.2488 38.9964 39.395C39.1132 39.6714 38.9813 40.0721 39.413 40.1898C39.4476 40.1992 39.4853 40.2905 39.4797 40.3388C39.4501 40.5916 39.6073 40.7085 39.7878 40.8351C39.9728 40.9648 40.1103 41.1149 39.9618 41.3889C39.8879 41.5251 39.8946 41.7344 39.9315 41.8954C40.01 42.238 40.1265 42.5725 40.2384 42.9066C40.3132 43.1302 40.4079 43.3471 40.492 43.5677C40.525 43.654 40.6039 43.7664 40.5755 43.8256C40.3931 44.2069 40.5792 44.5681 40.5931 44.9388C40.6153 45.5275 40.5678 46.12 40.5279 46.7095C40.5101 46.9717 40.4829 47.249 40.3822 47.4864C40.209 47.8949 39.9748 48.2775 39.7428 48.6713C39.6886 48.7418 39.6577 48.812 39.6268 48.8822C39.1099 49.0452 38.5929 49.2082 38.0469 49.3715C37.9392 49.3644 37.8605 49.3569 37.8573 49.3566C37.8573 49.1835 37.842 49.043 37.8604 48.907C37.9034 48.5881 37.9463 48.2674 38.0221 47.9554C38.0592 47.8029 38.1739 47.6703 38.2451 47.5245C38.2855 47.4418 38.2823 47.3143 38.3441 47.2694C38.6981 47.0121 38.735 46.6517 38.7067 46.2364Z" fill="#97D53B"/>
<path d="M20.5333 48.595C20.5333 48.595 20.532 48.5642 20.5312 48.5488C20.7169 48.6102 20.9034 48.6869 21.1043 48.7838C20.9867 48.7902 20.8547 48.7765 20.697 48.752C20.6714 48.7411 20.6713 48.7411 20.6686 48.7186C20.6217 48.6623 20.5775 48.6287 20.5333 48.595Z" fill="#8AC447"/>
<path d="M21.2461 48.8633C21.422 48.8829 21.6055 48.9247 21.7976 48.9907C21.6221 48.9717 21.4378 48.9286 21.2461 48.8633Z" fill="#8AC447"/>
<path d="M22.293 49.0353C22.431 49.0057 22.5829 48.9997 22.751 49.0149C22.6137 49.0437 22.4603 49.0513 22.293 49.0353Z" fill="#CBE686"/>
<path d="M24.5314 51.1847C24.516 51.1971 24.4819 51.1941 24.4648 51.1927C24.479 51.1561 24.5103 51.121 24.5416 51.0859C24.5433 51.1147 24.545 51.1436 24.5314 51.1847Z" fill="#AEE151"/>
<path d="M39.7679 48.6712C39.9765 48.2778 40.2106 47.8952 40.3839 47.4867C40.4846 47.2492 40.5117 46.972 40.5295 46.7097C40.5695 46.1203 40.6169 45.5278 40.5948 44.9391C40.5809 44.5684 40.3948 44.2072 40.5772 43.8259C40.6055 43.7667 40.5266 43.6543 40.4937 43.5679C40.4096 43.3474 40.3149 43.1305 40.24 42.9069C40.1281 42.5728 40.0117 42.2383 39.9332 41.8957C39.8963 41.7347 39.8895 41.5254 39.9634 41.3891C40.112 41.1152 39.9745 40.9651 39.7894 40.8353C39.6089 40.7088 39.4518 40.5919 39.4813 40.3391C39.487 40.2907 39.4492 40.1995 39.4146 40.19C38.9829 40.0724 39.1148 39.6716 38.998 39.3952C38.9363 39.2491 38.8125 39.1304 38.736 38.9889C38.6632 38.8543 38.6109 38.7078 38.5583 38.5633C38.5213 38.4617 38.5272 38.2879 38.4652 38.2618C38.2136 38.1558 38.2114 37.9646 38.2572 37.7191C38.5988 37.6406 38.9146 37.6065 39.2243 37.5426C39.4105 37.5042 39.5871 37.4193 39.768 37.3553C39.7996 37.3498 39.8311 37.3442 39.9048 37.3597C40.0503 37.3903 40.1536 37.4 40.252 37.4348C40.1463 37.5124 40.0457 37.5649 39.8961 37.6429C39.9993 37.6665 40.051 37.6799 40.1033 37.69C40.6519 37.7959 40.6443 37.7973 40.7571 38.3521C40.7742 38.4364 40.8906 38.5428 40.9784 38.5628C41.3189 38.6404 41.2848 38.7968 41.1286 39.0326C41.0661 39.1268 41.0129 39.2943 41.0551 39.3788C41.223 39.7159 41.4311 40.0328 41.6224 40.3583C41.7708 40.6109 41.9197 40.8634 42.0599 41.1206C42.0848 41.1662 42.0761 41.2356 42.069 41.2923C42.0145 41.7241 42.0539 42.1255 42.364 42.4727C42.4195 42.5348 42.4261 42.727 42.3735 42.7851C42.0699 43.1203 42.375 43.4397 42.3791 43.7627C42.3815 43.9418 42.4709 44.1181 42.4924 44.2991C42.5323 44.636 42.509 44.9858 42.5894 45.3111C42.6901 45.7184 42.5029 46.1832 42.8359 46.5434C42.8544 46.5633 42.8138 46.6379 42.7955 46.7066C42.6873 46.6319 42.6089 46.5777 42.4436 46.4635C42.464 46.8344 42.48 47.1233 42.4708 47.4149C42.3255 47.5219 42.1246 47.6152 42.1083 47.7338C42.0926 47.848 42.2676 47.9885 42.3589 48.1175C41.733 48.3014 41.1069 48.4843 40.4817 48.6703C40.3521 48.7088 40.2261 48.7593 40.0724 48.7831C40.0287 48.5009 39.8619 48.6976 39.7679 48.6712ZM39.6641 37.6697C39.6246 37.662 39.5852 37.6543 39.5458 37.6466C39.5454 37.6747 39.5451 37.7027 39.5447 37.7308C39.5843 37.7241 39.6239 37.7175 39.6641 37.6697Z" fill="#8ECF35"/>
<path d="M42.4943 47.4132C42.4784 47.1243 42.4625 46.8354 42.442 46.4645C42.6073 46.5787 42.6858 46.6329 42.7939 46.7076C42.8122 46.6389 42.8528 46.5644 42.8343 46.5444C42.5013 46.1842 42.6885 45.7194 42.5879 45.3122C42.5075 44.9868 42.5307 44.637 42.4908 44.3001C42.4694 44.1191 42.3799 43.9429 42.3776 43.7638C42.3734 43.4407 42.0684 43.1213 42.3719 42.7861C42.4245 42.7281 42.4179 42.5359 42.3624 42.4738C42.0523 42.1266 42.013 41.7252 42.0674 41.2933C42.0745 41.2367 42.0832 41.1672 42.0583 41.1216C41.9181 40.8644 41.7693 40.612 41.6208 40.3594C41.4296 40.0338 41.2214 39.7169 41.0535 39.3799C41.0114 39.2953 41.0646 39.1278 41.127 39.0336C41.2833 38.7978 41.3174 38.6414 40.9769 38.5639C40.889 38.5439 40.7727 38.4374 40.7555 38.3532C40.6427 37.7984 40.6504 37.7969 40.1017 37.6911C40.0494 37.681 39.9977 37.6675 39.8945 37.6439C40.0441 37.5659 40.1448 37.5135 40.2706 37.4342C40.3299 37.3889 40.3641 37.3704 40.3987 37.3401C40.3991 37.3283 40.39 37.3066 40.39 37.3066C40.4667 37.3158 40.5435 37.3249 40.6619 37.3561C40.7864 37.3648 40.8692 37.3515 40.952 37.3382C41.2133 37.3421 41.4746 37.3461 41.7662 37.3625C41.7077 37.4963 41.6189 37.6174 41.5049 37.7731C41.87 37.8148 41.8545 38.1161 41.969 38.3596C42.0962 38.63 42.3417 38.8531 42.5628 39.0689C42.9122 39.41 42.9211 39.8746 43.0554 40.2949C43.0954 40.4203 43.1503 40.5416 43.2056 40.6614C43.3393 40.9512 43.5771 41.2335 43.5936 41.5289C43.6329 42.2329 43.5627 42.9425 43.5514 43.6502C43.5494 43.7758 43.5857 43.9873 43.6589 44.0149C44.0839 44.1757 43.8636 44.3258 43.6774 44.4905C43.6624 44.5037 43.6589 44.53 43.6416 44.5695C43.7252 44.6223 43.8144 44.671 43.8951 44.7312C44.1519 44.9229 44.1497 45.0381 43.9202 45.2755C43.7794 45.4211 43.654 45.5865 43.8771 45.7973C43.5143 46.4765 43.129 47.1428 42.7214 47.7977C42.6309 47.662 42.5626 47.5376 42.4943 47.4132Z" fill="#84CB2C"/>
<path d="M42.3816 48.1161C42.2697 47.9896 42.0947 47.8491 42.1104 47.7348C42.1266 47.6162 42.3276 47.523 42.4735 47.4434C42.5006 47.6618 42.5021 47.8555 42.5036 48.0493C42.4698 48.0707 42.4361 48.0922 42.3816 48.1161Z" fill="#84CB2C"/>
<path d="M42.5242 48.0451C42.4997 47.8553 42.4982 47.6616 42.4961 47.4404C42.5638 47.5374 42.6321 47.6618 42.704 47.8129C42.6542 47.9068 42.6007 47.974 42.5242 48.0451Z" fill="#8ECF35"/>
<path d="M39.7656 48.6717C39.8596 48.698 40.0264 48.5013 40.0439 48.7865C39.9927 48.8114 39.9415 48.8123 39.8473 48.8011C39.7913 48.75 39.7785 48.7108 39.7656 48.6717Z" fill="#97D53B"/>
<path d="M39.7447 48.6719C39.7809 48.7107 39.7938 48.7499 39.8241 48.801C39.7864 48.8358 39.7312 48.8587 39.6523 48.8822C39.6595 48.8126 39.6904 48.7424 39.7447 48.6719Z" fill="#8ECF35"/>
<path d="M25.0772 24.8042C25.0522 25.0643 25.0304 25.2931 25.0077 25.5321C25.7365 24.8659 26.4464 24.2168 27.1564 23.5677C27.1927 23.5982 27.229 23.6287 27.2653 23.6592C27.22 23.7354 27.183 23.8181 27.1283 23.8868C26.1345 25.1349 25.5028 26.5478 25.2798 28.1241C25.1923 28.7427 25.2153 29.3786 25.2106 30.0067C25.1993 31.5097 25.1811 33.0132 25.212 34.5156C25.2201 34.9112 25.382 35.3078 25.4986 35.6964C25.7561 36.555 26.0326 37.408 26.293 38.2658C26.3236 38.3664 26.3433 38.5065 26.2973 38.5886C25.6379 39.7652 24.9663 40.9349 24.2654 42.1628C24.2553 42.0249 24.2442 41.942 24.2441 41.8592C24.243 41.0665 24.2507 40.2737 24.2404 39.4812C24.2365 39.1825 24.2488 38.9194 24.5228 38.7147C24.749 38.5456 24.7468 38.2918 24.6241 38.0509C24.4761 37.76 24.1847 37.6989 23.9354 37.7933C23.7517 37.8629 23.5532 38.0805 23.5074 38.2678C23.4704 38.4186 23.6114 38.6671 23.7471 38.7925C23.9224 38.9543 23.9734 39.1119 23.971 39.3355C23.9613 40.2531 23.967 41.1708 23.967 42.1952C23.7944 41.9054 23.6707 41.7044 23.5535 41.4998C23.0269 40.5809 22.4935 39.6658 21.9857 38.7366C21.9034 38.5861 21.8813 38.356 21.9276 38.1894C22.215 37.1573 22.6373 36.1502 22.8068 35.1011C22.9948 33.9378 22.987 32.7392 23.0152 31.5548C23.0451 30.2968 23.0707 29.0345 23.0022 27.7794C22.8973 25.859 22.3686 24.0872 20.877 22.7383C20.6903 22.5695 20.4878 22.4182 20.3086 22.224C21.3634 22.548 22.3417 23.0303 23.2571 23.7571C23.6131 22.2963 24.2073 20.9797 24.9318 19.7189C25.6525 18.4646 26.4131 17.2438 27.7055 16.4561C27.472 16.9108 27.2303 17.3616 27.0063 17.821C26.0343 19.8146 25.3976 21.9085 25.1428 24.1148C25.1175 24.3336 25.1011 24.5534 25.0772 24.8042Z" fill="#35383A"/>
<path d="M34.8978 34.291C34.943 34.3703 34.9881 34.4496 35.0576 34.5555C35.0842 34.5954 35.0863 34.6089 35.0884 34.6223C34.9612 34.7418 34.834 34.8613 34.6891 34.999C34.6442 35.0221 34.617 35.0269 34.5897 35.0317C34.5897 35.0317 34.5906 35.031 34.5932 35.0107C34.5421 34.9297 34.4885 34.8689 34.4348 34.8082C34.4249 34.7798 34.4149 34.7513 34.4198 34.6851C34.4448 34.5427 34.455 34.438 34.4653 34.3334C34.4737 34.2831 34.4822 34.2328 34.5192 34.1471C34.5515 34.0576 34.5552 34.0036 34.5589 33.9496C34.5562 33.8577 34.5535 33.7658 34.5611 33.637C34.556 33.5409 34.5405 33.4819 34.525 33.4228C34.4535 33.1973 34.382 32.9718 34.3105 32.7464C34.2846 32.7479 34.2587 32.7495 34.2328 32.751C34.2165 33.0353 34.2067 33.3202 34.182 33.6037C34.1621 33.8335 34.1379 34.0645 34.092 34.2902C33.9445 35.0154 33.8568 35.7634 33.6114 36.4548C33.3813 37.1031 33.6558 37.7127 33.5783 38.3421C33.5358 38.6876 33.6826 39.0565 33.7553 39.4808C33.4489 39.5507 33.1753 39.6131 32.9896 39.6554C32.8093 39.4085 32.6836 39.2421 32.5651 39.0708C32.5288 39.0183 32.4865 38.9504 32.4903 38.8925C32.5625 37.8142 32.5236 36.7438 32.3226 35.6784C32.2149 35.108 32.1285 34.5315 32.0749 33.9539C32.0524 33.7113 32.1397 33.4585 32.1164 33.2587C32.0092 33.0494 31.9021 32.8401 31.7833 32.6081C31.3838 32.7239 31.1697 33.3946 30.6073 33.2161C30.4881 33.3218 30.3885 33.4101 30.2889 33.4984C30.2341 33.3852 30.182 33.2706 30.124 33.159C30.0184 32.9557 29.9094 32.7541 29.7324 32.5917C29.7824 33.31 29.8901 34.0303 29.8662 34.7461C29.8424 35.4556 29.686 36.1607 29.5829 36.9024C29.2281 36.8708 29.2104 37.2327 29.165 37.525C29.121 37.8085 29.0992 38.1153 29.1626 38.39C29.2251 38.6604 29.1799 38.7592 28.915 38.7477C28.8752 39.1103 28.5488 39.2285 28.0943 39.0435C28.7603 38.3638 28.1425 37.7295 28.0554 37.0533C27.7798 37.0533 27.528 37.0533 27.2857 37.0533C27.3151 36.4234 27.3548 35.814 27.369 35.2039C27.3832 34.5923 27.3721 33.9801 27.3721 33.4028C27.0269 33.6766 27.158 34.1662 27.0453 34.572C26.6627 34.4862 26.6479 34.4385 26.7603 34.1081C26.8383 33.8788 26.8485 33.627 26.9191 33.3944C27.1162 32.7452 27.339 32.1038 27.5319 31.4534C27.6702 30.987 27.9989 30.7862 28.4458 30.7158C28.4893 30.7089 28.5301 30.6853 28.5288 30.6858C28.4829 30.4208 28.3793 30.1653 28.418 29.9335C28.4468 29.761 28.6333 29.5774 28.797 29.4735C29.0425 29.3178 29.2827 29.401 29.4508 29.6462C29.6567 29.9468 29.5562 30.3178 29.1468 30.684C29.328 30.7651 29.4905 30.8463 29.6591 30.9116C29.9462 31.0227 30.0848 31.2113 30.1357 31.5302C30.2063 31.9722 30.3546 32.4018 30.4681 32.8309C30.5097 32.834 30.5499 32.8432 30.5529 32.8362C30.7607 32.3619 31.259 32.0999 31.4236 31.5723C31.5117 31.2899 31.777 31.0328 32.0215 30.8391C32.1943 30.7022 32.2304 30.5816 32.1313 30.4448C31.9385 30.1783 32.1702 30.0008 32.2773 29.8572C32.369 29.7344 32.635 29.6523 32.7892 29.6908C32.9396 29.7285 33.0852 29.9235 33.1603 30.0835C33.2283 30.2285 33.1984 30.4194 33.2145 30.6261C33.9916 30.6434 34.2815 31.2676 34.6136 31.8426C34.7707 32.1145 34.98 32.3737 35.0608 32.6675C35.1431 32.9667 35.11 33.3017 35.1006 33.6202C35.0963 33.7672 35.0283 33.9124 34.9547 34.0928C34.9128 34.1818 34.9053 34.2364 34.8978 34.291Z" fill="#35383A"/>
<path d="M31.6664 18.0448C34.1676 17.1839 36.4245 17.6123 38.5561 19.2175C37.3608 20.3689 36.1439 21.365 34.4993 21.7273C32.5869 22.1485 30.9094 21.5255 29.2588 20.717C29.2559 20.6827 29.2529 20.6483 29.25 20.6139C30.0304 20.3439 30.8109 20.0739 31.5913 19.8039C31.5872 19.7722 31.583 19.7404 31.5788 19.7087C30.8499 19.7087 30.1209 19.7087 29.392 19.7087C29.3806 19.6731 29.3692 19.6375 29.3579 19.602C29.9824 18.8938 30.7687 18.4135 31.6664 18.0448Z" fill="#EE763C"/>
<path d="M16.8258 36.7764C17.032 36.4181 17.1469 36.0153 17.5685 35.8912C17.5685 35.6002 17.545 35.3203 17.5732 35.0457C17.6392 34.4018 18.281 34.1188 18.8062 34.4889C19.3218 34.8522 19.323 34.8526 19.1378 35.4221C19.0687 35.6345 19.009 35.8523 18.9154 36.0539C18.8012 36.2999 18.5068 36.3683 18.1389 36.2405C18.2323 36.5537 18.319 36.845 18.4077 37.1426C19.1098 36.699 19.1377 36.699 19.5476 37.1679C19.9777 36.8799 20.4132 36.5883 20.8626 36.2874C21.0391 36.5664 20.9959 36.7197 20.7677 36.8781C20.5872 37.0034 20.4702 37.217 20.2991 37.3603C20.1983 37.4448 20.0468 37.4687 19.909 37.5234C19.9132 38.2021 20.5205 38.8682 21.5656 39.0935C21.4312 39.1572 21.3654 39.2109 21.2948 39.2181C20.9375 39.2545 20.5793 39.2852 20.2207 39.3009C20.1643 39.3034 20.0508 39.2153 20.0537 39.1758C20.0913 38.6741 19.6863 38.4843 19.3938 38.2168C19.292 38.1236 19.1804 38.041 19.0488 37.9336C18.9869 38.0303 18.8788 38.1209 18.8881 38.1971C18.9636 38.8135 18.3958 38.9745 18.0689 39.2162C17.8097 39.4078 17.3258 39.3731 16.9621 39.3138C16.7727 39.2829 16.6274 38.9814 16.526 38.8713C16.372 39.0046 16.1966 39.2818 15.9796 39.3194C15.4425 39.4127 14.8795 39.4349 14.5297 38.8507C14.3653 38.576 14.164 38.3235 13.9859 38.0703C13.6804 38.2845 13.3821 38.4652 13.1224 38.6904C13.0266 38.7733 13.0323 38.966 12.9714 39.0993C12.9354 39.178 12.8578 39.2992 12.8021 39.2975C12.4202 39.286 12.0389 39.2497 11.6582 39.213C11.6147 39.2088 11.5763 39.1521 11.5312 39.1164C11.76 39.0148 11.9588 38.9048 12.1711 38.8365C12.7294 38.6569 12.8514 38.1135 13.1302 37.7044C13.213 37.5831 13.1613 37.4658 12.9673 37.4637C12.8817 37.4628 12.78 37.4106 12.7152 37.35C12.5589 37.2043 12.4356 37.0206 12.2706 36.8875C12.0134 36.6801 12.0034 36.6925 12.1093 36.3197C12.337 36.4413 12.5673 36.5454 12.7769 36.6813C13.005 36.8292 13.214 37.0067 13.4223 37.1644C13.977 36.6753 14.0997 36.6795 14.5674 37.2013C14.677 36.8757 14.7785 36.5744 14.8899 36.2436C14.3736 36.4097 14.2303 36.3076 14.0808 35.8223C13.9986 35.5552 13.8344 35.3133 13.6602 34.9667C13.9161 34.7746 14.1665 34.4811 14.4801 34.3755C14.9896 34.2038 15.4165 34.5623 15.5693 35.1651C15.6218 35.3721 15.6978 35.5732 15.7852 35.8463C15.7821 35.8483 15.7162 35.8917 15.695 35.9056C15.9832 36.4292 16.2608 36.9336 16.5269 37.4171C16.6101 37.2393 16.7127 37.0197 16.8258 36.7764Z" fill="#35383A"/>
<path d="M24.9887 8.89407C25.0948 9.56406 25.1958 10.2057 25.3095 10.9277C23.8863 10.7918 22.6303 10.4424 21.6306 9.48324C20.365 8.26902 20.149 6.70362 20.2027 5.01505C21.5339 5.00118 22.6794 5.34415 23.6053 6.2759C24.3238 6.99901 24.7225 7.89683 24.9887 8.89407Z" fill="#45B24D"/>
<path d="M32.5656 46.1455C32.536 46.1533 32.5064 46.1611 32.4392 46.1487C32.246 46.1751 32.0902 46.2217 31.9345 46.2684C31.9041 46.2773 31.8738 46.2861 31.8053 46.2768C31.6597 46.308 31.5523 46.3575 31.4449 46.4069C31.3481 46.4174 31.2513 46.4278 31.1253 46.407C31.075 46.152 31.1232 45.9975 31.3537 45.8672C31.4772 45.7974 31.5996 45.4511 31.5417 45.3828C31.3093 45.1084 31.3851 44.8086 31.3789 44.5169C31.3666 43.9386 31.2556 43.7846 30.6878 43.6506C30.8226 43.3419 30.5987 43.3086 30.3833 43.2153C30.0005 43.0496 29.6107 43.2087 29.235 43.14C28.5817 43.0206 28.1156 43.3229 27.7125 43.7718C27.5278 43.9774 27.3302 44.0914 27.0464 44.0593C26.9072 44.0435 26.7677 44.0529 26.7968 44.281C26.866 44.8242 26.926 45.3694 26.9628 45.9156C26.9814 46.1928 27.0771 46.3203 27.3661 46.2965C27.5892 46.2782 27.7398 46.3507 27.754 46.6246C27.7582 46.7038 27.9195 46.795 28.0259 46.8408C28.085 46.8663 28.1834 46.7847 28.257 46.7962C28.3415 46.8094 28.4182 46.8723 28.4982 46.9136C28.4359 46.9634 28.3775 47.0197 28.3102 47.0616C28.1923 47.1351 28.0688 47.1997 27.9477 47.2681C27.9477 47.2681 27.9484 47.2724 27.9334 47.278C27.9019 47.2935 27.8898 47.3072 27.882 47.3248C27.8504 47.3322 27.8189 47.3396 27.7526 47.3302C27.6778 47.3372 27.6376 47.3611 27.5974 47.3849C27.5245 47.3973 27.4515 47.4098 27.339 47.4051C27.2598 47.4215 27.2203 47.4551 27.1807 47.4887C27.0816 47.5144 26.9826 47.5401 26.8569 47.5452C26.8298 47.5104 26.8293 47.4962 26.8288 47.4538C26.8067 47.0868 26.7073 46.8288 26.3067 46.7714C25.9532 46.7207 25.8285 46.4616 25.8657 46.1121C25.9019 45.7713 25.8891 45.4231 25.8728 45.0794C25.8492 44.5826 25.8049 44.0899 26.2695 43.7379C26.6335 43.462 26.5589 42.9696 26.7998 42.6307C26.8022 42.6273 26.7702 42.5994 26.7695 42.5596C26.8907 42.5061 26.9955 42.4565 27.1031 42.4493C27.5838 42.4172 28.0665 42.4106 28.5457 42.3658C28.7254 42.3491 28.8976 42.2535 29.0733 42.1938C29.1041 42.1882 29.1349 42.1826 29.2103 42.1968C29.5167 42.1885 29.794 42.2059 30.0373 42.1232C30.6782 41.9055 31.3043 41.6443 31.9334 41.4248C31.8124 41.6667 31.9644 41.7304 32.1229 41.8013C32.2312 41.8497 32.3633 41.8939 32.4284 41.9818C32.738 42.3991 32.8622 42.9457 33.3284 43.2582C33.38 43.2927 33.3911 43.401 33.4038 43.478C33.4898 43.9996 33.5262 44.5347 33.67 45.0395C33.7634 45.3674 33.7739 45.6199 33.5193 45.8709C33.4175 45.9124 33.341 45.9525 33.2645 45.9927C33.1903 46.0022 33.116 46.0117 32.9985 46.0003C32.8254 46.0348 32.6955 46.0901 32.5656 46.1455Z" fill="#C0EA5E"/>
<path d="M28.948 25.0016C28.8369 24.7863 28.7386 24.5932 28.5859 24.2931C29.0531 24.4006 29.4127 24.4834 29.7722 24.5661C29.7935 24.5287 29.8148 24.4913 29.8361 24.4539C29.4584 24.1523 29.0806 23.8506 28.7029 23.5489C28.7074 23.5095 28.7119 23.4701 28.7164 23.4307C29.1438 23.3831 29.5702 23.3071 29.9987 23.2928C32.0516 23.2244 33.6067 24.0854 34.6714 25.8387C34.6775 25.8486 34.6821 25.8595 34.6887 25.869C35.2887 26.7275 35.2394 26.6829 34.2893 26.918C32.677 27.317 31.1641 27.025 29.8355 26.0093C29.493 25.7474 29.2496 25.3557 28.948 25.0016Z" fill="#FAC64C"/>
<path d="M27.9714 47.2661C28.065 47.2002 28.1885 47.1355 28.3064 47.062C28.3737 47.0201 28.4321 46.9638 28.4944 46.914C28.4144 46.8727 28.3377 46.8098 28.2532 46.7966C28.1795 46.7851 28.0812 46.8667 28.0221 46.8413C27.9157 46.7954 27.7543 46.7043 27.7502 46.625C27.736 46.3512 27.5854 46.2786 27.3623 46.2969C27.0733 46.3207 26.9776 46.1932 26.9589 45.916C26.9222 45.3698 26.8622 44.8246 26.7929 44.2814C26.7639 44.0533 26.9034 44.0439 27.0426 44.0597C27.3264 44.0918 27.524 43.9779 27.7087 43.7722C28.1118 43.3233 28.5779 43.0211 29.2312 43.1405C29.6069 43.2091 29.9967 43.05 30.3794 43.2157C30.5949 43.309 30.8188 43.3424 30.684 43.651C31.2518 43.785 31.3628 43.9391 31.3751 44.5173C31.3813 44.8091 31.3055 45.1088 31.5379 45.3832C31.5958 45.4516 31.4734 45.7978 31.3499 45.8676C31.1194 45.9979 31.0712 46.1524 31.0922 46.4054C30.641 46.5657 30.1922 46.705 29.7385 46.8258C29.1608 46.9796 28.579 47.1184 27.9714 47.2661ZM28.8683 46.7868C28.8046 46.8035 28.7409 46.8203 28.6772 46.837C28.6949 46.8731 28.7125 46.9092 28.7302 46.9453C28.7919 46.8959 28.8536 46.8466 28.8683 46.7868Z" fill="#CAEE68"/>
<path d="M19.5547 14.887C19.5547 14.887 19.559 14.9168 19.5549 14.9562C19.4583 14.9964 19.3407 15.0342 19.2778 14.9915C19.0531 14.8392 18.8453 14.6615 18.6341 14.4897C18.0825 14.041 17.793 13.425 17.5602 12.7776C17.2507 11.9172 17.0316 11.0461 17.3019 10.1264C17.3305 10.0293 17.3011 9.91639 17.3198 9.81471C17.3492 9.65465 17.3731 9.37692 17.4413 9.36361C17.6119 9.33028 17.8413 9.36667 17.9841 9.46581C18.4276 9.77371 18.8389 10.1275 19.27 10.454C19.3442 10.5101 19.4537 10.5195 19.5469 10.5505C19.5469 10.5505 19.5568 10.578 19.5574 10.6197C19.5704 10.7285 19.5587 10.8206 19.5986 10.8588C20.104 11.3422 20.2812 11.9912 20.3854 12.6303C20.4888 13.2647 20.4435 13.9237 20.4547 14.572C20.4556 14.6253 20.3902 14.6797 20.3146 14.7974C20.1656 14.5801 20.057 14.3959 19.9223 14.2332C19.806 14.0927 19.6601 13.9767 19.5272 13.8499C19.5272 13.8499 19.5001 13.837 19.4917 13.802C19.4468 13.7009 19.4104 13.6348 19.3739 13.5688C19.2966 14.0457 19.2228 14.5025 19.5547 14.887Z" fill="#A44998"/>
<path d="M16.7667 23.1108C16.7967 23.1029 16.8267 23.0951 16.8932 23.0964C16.9863 23.0906 17.0429 23.0757 17.0995 23.0609C17.1294 23.0571 17.1593 23.0533 17.2436 23.0524C17.682 23.0456 18.066 23.036 18.4499 23.0264C18.4786 23.034 18.5072 23.0416 18.5782 23.0665C18.7213 23.1037 18.8221 23.1235 18.9228 23.1432C18.9228 23.1432 18.9245 23.1411 18.9259 23.1671C18.9218 23.2579 18.9162 23.3228 18.9107 23.3876C18.9107 23.3876 18.8993 23.3988 18.884 23.4068C18.8557 23.4214 18.8479 23.4319 18.8454 23.4464C18.8045 23.4718 18.7635 23.4972 18.6841 23.538C18.5964 23.5926 18.547 23.6319 18.4976 23.6712C18.4976 23.6712 18.4821 23.6793 18.4672 23.6836C18.4523 23.6879 18.4319 23.7081 18.4319 23.7081C18.4156 23.7171 18.3994 23.7261 18.3498 23.7506C18.3031 23.7715 18.2946 23.7813 18.2912 23.7954C18.2912 23.7954 18.2683 23.8135 18.2505 23.8249C18.2327 23.8363 18.2188 23.861 18.2188 23.861C18.2188 23.861 18.1999 23.8789 18.1678 23.8905C17.9261 24.0133 17.7165 24.1246 17.5069 24.236C17.5168 24.2615 17.5266 24.287 17.5364 24.3125C17.8341 24.2208 18.1317 24.129 18.4293 24.0373C18.5135 24.0258 18.5976 24.0142 18.7387 23.9981C18.9272 23.9821 19.0588 23.9706 19.1904 23.9592C19.1594 24.0257 19.1284 24.0922 19.0688 24.1908C19.0214 24.272 19.0025 24.3212 18.9836 24.3704C18.9836 24.3704 18.9733 24.3838 18.9571 24.3948C18.9266 24.417 18.9214 24.4314 18.9252 24.4491C18.8766 24.5114 18.828 24.5738 18.7533 24.6585C18.7137 24.6914 18.707 24.7052 18.7069 24.7222C18.7069 24.7222 18.6968 24.7323 18.6798 24.7417C18.6467 24.7615 18.6389 24.7762 18.6394 24.7953C18.6306 24.8039 18.6219 24.8124 18.5846 24.8353C18.5332 24.8629 18.5261 24.882 18.5349 24.9071C18.5349 24.9071 18.5068 24.9265 18.4755 24.9405C18.4125 24.9898 18.3809 25.0252 18.3493 25.0605C18.3289 25.0814 18.3086 25.1022 18.2638 25.1416C18.2265 25.167 18.2187 25.1777 18.216 25.1922C18.216 25.1922 18.1956 25.2096 18.1792 25.2199C18.1627 25.2302 18.1482 25.2522 18.1482 25.2522C17.229 25.9651 16.191 26.324 15.0274 26.2263C14.6053 26.1908 14.1921 26.0477 13.7757 25.9496C13.5431 25.8948 13.5613 25.7603 13.6548 25.584C14.1195 24.7071 14.7746 24.0207 15.6984 23.5506C15.781 23.5114 15.8219 23.4787 15.8628 23.446C15.8628 23.446 15.8945 23.4372 15.9326 23.4338C16.0478 23.3902 16.1247 23.3501 16.2017 23.31C16.2972 23.2728 16.3928 23.2355 16.5333 23.1974C16.6411 23.1679 16.7039 23.1393 16.7667 23.1108Z" fill="#1EACBE"/>
<path d="M34.0943 39.567C34.3045 39.4044 34.5147 39.2419 34.7559 39.1016C34.7166 39.2432 34.6463 39.3625 34.5403 39.5423C34.7017 39.7322 34.8869 39.9766 35.1 40.1934C35.3211 40.4183 35.5758 40.6096 35.8039 40.8279C36.1235 41.1337 35.9598 41.6965 36.3889 41.9523C36.4129 41.9667 36.3945 42.0426 36.4081 42.0859C36.4564 42.2389 36.5102 42.3901 36.5616 42.5421C36.6967 42.9412 36.8305 43.3407 36.9672 43.7393C37.0069 43.8549 37.0527 43.9686 37.0993 44.0817C37.1705 44.2547 37.244 44.4267 37.3181 44.5985C37.3677 44.7137 37.3959 44.8496 37.4761 44.9377C37.6394 45.117 37.8313 45.2703 38.0115 45.4343C37.1463 45.5056 36.2812 45.5769 35.3875 45.6322C35.359 45.6163 35.3557 45.5909 35.3719 45.5719C35.4442 45.4272 35.5563 45.2954 35.5431 45.1776C35.5248 45.0141 35.4406 44.8379 35.334 44.7091C35.1555 44.4933 35.1318 44.3047 35.2387 44.0398C35.2903 43.9118 35.2151 43.6896 35.1266 43.5573C34.9513 43.2952 34.7805 43.0626 34.7841 42.7123C34.7869 42.434 34.7164 42.126 34.5837 41.8828C34.4365 41.6131 34.1875 41.3967 33.9719 41.1673C33.8002 40.9846 33.6121 40.8172 33.4102 40.6227C33.421 40.5134 33.4402 40.319 33.4593 40.1245C33.6237 39.9764 33.788 39.8283 33.989 39.6613C34.0485 39.6173 34.0714 39.5921 34.0943 39.567Z" fill="#AADF4E"/>
<path d="M38.0452 45.4409C37.834 45.2701 37.6421 45.1169 37.4788 44.9375C37.3986 44.8495 37.3704 44.7135 37.3207 44.5983C37.2467 44.4265 37.1731 44.2545 37.1019 44.0815C37.0554 43.9684 37.0096 43.8547 36.9699 43.7391C36.8332 43.3405 36.6993 42.941 36.5643 42.5419C36.5128 42.3899 36.4591 42.2387 36.4108 42.0858C36.3971 42.0424 36.4156 41.9665 36.3915 41.9522C35.9625 41.6963 36.1261 41.1336 35.8066 40.8277C35.5784 40.6094 35.3237 40.4181 35.1027 40.1933C34.8896 39.9764 34.7044 39.732 34.543 39.5421C34.6489 39.3623 34.7193 39.243 34.7817 39.0957C34.7739 39.0678 34.7773 39.0682 34.8076 39.0754C34.8958 39.1493 34.9584 39.2125 35.0104 39.2835C35.078 39.3756 35.1371 39.4738 35.2207 39.5665C35.2822 39.4984 35.323 39.4332 35.3829 39.3478C35.4933 38.6466 35.6371 38.491 36.2697 38.4189C36.2411 38.6038 36.2164 38.7592 36.1825 38.9127C36.1603 39.0135 36.0739 39.1734 36.1049 39.1989C36.198 39.2753 36.3351 39.3364 36.454 39.3346C36.6771 39.3313 37.1917 39.6424 37.1652 39.8503C37.1099 40.2831 37.439 40.5021 37.6505 40.7527C37.8855 41.0309 38.0063 41.307 38.0203 41.6563C38.0366 42.0616 38.038 42.471 38.1021 42.8695C38.1401 43.1061 38.2722 43.3329 38.3877 43.5505C38.5361 43.8304 38.6688 44.0823 38.5502 44.4322C38.4717 44.6634 38.5353 44.9428 38.5353 45.2479C38.8376 45.1505 39.0365 45.1467 39.0431 45.446C38.8718 45.4439 38.7268 45.4435 38.5817 45.4431C38.4132 45.4446 38.2448 45.4461 38.0452 45.4409Z" fill="#A2DA43"/>
<path d="M10.3127 22.2943C11.4366 20.8615 13.2327 20.7817 14.6925 21.4276C14.1887 23.3928 12.4605 24.4408 9.42969 23.7099C9.72845 23.2303 10.0136 22.7726 10.3127 22.2943Z" fill="#47B24F"/>
<path d="M36.938 13.1737C35.9367 15.0196 33.7068 15.1204 32.1055 14.599C32.9714 12.2932 34.8293 11.3601 37.3186 12.3428C37.1955 12.6132 37.073 12.8822 36.938 13.1737Z" fill="#47B24F"/>
<path d="M20.7876 44.8032C20.7876 44.8032 20.7961 44.778 20.8276 44.7647C20.9831 44.6377 21.1071 44.524 21.2311 44.4103C21.2311 44.4103 21.2521 44.3951 21.2929 44.3952C21.4118 44.3963 21.49 44.3974 21.5921 44.3979C21.6479 44.3501 21.6795 44.303 21.7168 44.2316C21.8105 44.1775 21.8986 44.1475 22.011 44.1199C22.0652 44.0746 22.0951 44.0269 22.138 43.9587C22.3095 43.8561 22.4679 43.7742 22.6269 43.7197C22.797 44.0438 22.7967 44.2995 22.4932 44.5276C22.443 44.5654 22.4567 44.7946 22.5192 44.8573C22.7704 45.1094 22.7802 45.4091 22.7713 45.7285C22.7682 45.8397 22.8067 45.9533 22.8347 46.0636C22.8783 46.2353 22.9808 46.4094 22.9673 46.575C22.9284 47.0524 23.0198 47.4231 23.5405 47.5696C23.587 47.5826 23.6129 47.6687 23.6484 47.7209C23.5925 47.7476 23.539 47.7838 23.4801 47.7989C23.391 47.8217 23.2982 47.8298 23.2069 47.8441C23.209 47.8796 23.211 47.9151 23.213 47.9506C23.3192 47.9698 23.4343 48.0249 23.5297 48.001C23.7751 47.9393 23.74 48.0978 23.7453 48.2357C23.7146 48.2431 23.6839 48.2505 23.6184 48.2387C23.5434 48.2364 23.5031 48.2534 23.4629 48.2704C23.3183 48.2892 23.1736 48.308 22.9862 48.304C22.8605 48.2996 22.7774 48.3179 22.6944 48.3363C22.2253 48.2645 21.7561 48.1928 21.2548 48.089C20.9173 47.8484 20.6118 47.6399 20.3064 47.4314C20.3064 47.4314 20.3032 47.4286 20.3045 47.402C20.2343 47.2541 20.1628 47.1328 20.0913 47.0114C20.0913 47.0114 20.0924 47.0062 20.0944 46.9805C20.0402 46.8243 19.9839 46.6938 19.9277 46.5633C19.9248 46.4717 19.9219 46.3801 19.9459 46.2525C19.9845 46.1634 19.9962 46.1103 20.0079 46.0572C20.0079 46.0572 20.0123 46.0301 20.0401 46.0076C20.1859 45.7319 20.3038 45.4787 20.4217 45.2255C20.4217 45.2255 20.4268 45.2166 20.4555 45.2156C20.5854 45.0774 20.6865 44.9403 20.7876 44.8032Z" fill="#A7DD49"/>
<path d="M23.7748 48.2411C23.7462 48.0968 23.7812 47.9383 23.5358 48C23.4405 48.024 23.3253 47.9688 23.2191 47.9497C23.2171 47.9142 23.2151 47.8787 23.2131 47.8432C23.3043 47.8289 23.3972 47.8208 23.4862 47.798C23.5451 47.7829 23.5986 47.7467 23.6546 47.7199C23.6191 47.6678 23.5931 47.5817 23.5466 47.5686C23.0259 47.4221 22.9345 47.0515 22.9734 46.5741C22.987 46.4085 22.8844 46.2344 22.8408 46.0627C22.8128 45.9524 22.7743 45.8387 22.7774 45.7276C22.7863 45.4082 22.7765 45.1084 22.5253 44.8564C22.4628 44.7937 22.4491 44.5645 22.4994 44.5267C22.8028 44.2985 22.8031 44.0429 22.6484 43.7016C23.3528 43.3934 24.0425 43.1298 24.7322 42.8955C24.7178 43.2161 24.7004 43.5072 24.6909 43.7985C24.6884 43.8752 24.6839 43.9745 24.7261 44.0258C24.8745 44.2061 24.8294 44.3763 24.7606 44.5708C24.6068 45.0055 24.3286 45.4421 24.7201 45.8989C24.7501 45.934 24.7164 46.017 24.7362 46.0685C24.8341 46.3236 24.9054 46.5986 25.0538 46.8216C25.1825 47.0151 25.4021 47.5577 25.3193 47.7546C25.2925 47.8184 25.2101 47.8599 25.1507 47.9087C25.0821 47.965 25.0108 48.0181 24.9406 48.0726C24.8663 48.0875 24.792 48.1023 24.6765 48.0967C24.5739 48.1012 24.5125 48.1263 24.4512 48.1513C24.3774 48.1643 24.3036 48.1773 24.187 48.1692C24.0601 48.1745 23.9761 48.2009 23.8921 48.2273C23.8608 48.2341 23.8295 48.2408 23.7748 48.2411Z" fill="#B2E354"/>
<path d="M33.4387 40.1348C33.4408 40.319 33.4216 40.5134 33.4108 40.6228C33.6127 40.8173 33.8008 40.9846 33.9726 41.1674C34.1882 41.3968 34.4372 41.6132 34.5844 41.8829C34.7171 42.126 34.7875 42.434 34.7847 42.7124C34.7812 43.0627 34.9519 43.2953 35.1273 43.5574C35.2158 43.6897 35.2909 43.9119 35.2393 44.0399C35.1325 44.3048 35.1561 44.4934 35.3347 44.7092C35.4413 44.838 35.5255 45.0142 35.5438 45.1776C35.557 45.2955 35.4449 45.4273 35.3491 45.573C35.2562 45.6173 35.2028 45.6416 35.1494 45.6658C34.9824 45.6918 34.8155 45.7178 34.6057 45.7236C34.4783 45.7294 34.3938 45.7554 34.3093 45.7814C34.2567 45.7905 34.2041 45.7996 34.1092 45.7873C33.9848 45.8013 33.9026 45.8367 33.8204 45.8722C33.7951 45.8807 33.7698 45.8891 33.6973 45.889C33.6135 45.8769 33.5769 45.8735 33.5403 45.87C33.7695 45.6204 33.759 45.3679 33.6656 45.04C33.5219 44.5352 33.4854 44 33.3995 43.4784C33.3868 43.4015 33.3756 43.2932 33.3241 43.2587C32.8579 42.9462 32.7336 42.3996 32.4241 41.9822C32.3589 41.8944 32.2268 41.8502 32.1185 41.8018C31.9601 41.7308 31.808 41.6671 31.9525 41.4209C32.1023 41.275 32.2255 41.1578 32.3487 41.0406C32.3908 41.0081 32.4329 40.9756 32.5095 40.9261C32.5965 40.8638 32.649 40.8184 32.7015 40.7731C32.9402 40.5637 33.1788 40.3543 33.4387 40.1348Z" fill="#B4E454"/>
<path d="M14.4939 12.111C15.1201 12.667 15.5351 13.3288 15.7522 14.1071C14.1103 14.9434 12.0177 13.6378 11.3047 11.5298C12.4493 11.2716 13.5202 11.3363 14.4939 12.111Z" fill="#48B250"/>
<path d="M24.9609 48.0814C25.0061 48.0185 25.0774 47.9655 25.146 47.9091C25.2054 47.8604 25.2878 47.8189 25.3146 47.7551C25.3974 47.5581 25.1778 47.0156 25.0491 46.822C24.9007 46.5991 24.8294 46.324 24.7314 46.069C24.7116 46.0174 24.7454 45.9344 24.7154 45.8994C24.3239 45.4425 24.6021 45.0059 24.7558 44.5713C24.8247 44.3768 24.8698 44.2065 24.7214 44.0262C24.6792 43.975 24.6837 43.8756 24.6862 43.799C24.6956 43.5076 24.7131 43.2165 24.7536 42.892C25.3213 42.7669 25.8629 42.6751 26.4151 42.5993C26.4666 42.6042 26.5074 42.593 26.5737 42.582C26.6497 42.5826 26.7004 42.583 26.751 42.5834C26.767 42.5998 26.7989 42.6277 26.7965 42.6311C26.5557 42.97 26.6302 43.4624 26.2662 43.7383C25.8017 44.0904 25.846 44.583 25.8696 45.0798C25.8859 45.4236 25.8986 45.7717 25.8624 46.1125C25.8253 46.462 25.95 46.7211 26.3034 46.7718C26.7041 46.8292 26.8035 47.0872 26.8027 47.4578C26.7492 47.5367 26.7186 47.5839 26.688 47.6311C26.1206 47.784 25.5532 47.9369 24.9609 48.0814Z" fill="#BDE75E"/>
<path d="M28.6171 5.70209C28.9122 7.29133 27.8623 8.40939 26.8165 8.84204C25.686 7.29625 26.6614 5.50944 28.2795 4.57617C28.3923 4.95098 28.5008 5.31149 28.6171 5.70209Z" fill="#1EACBE"/>
<path d="M27.4756 11.0529C28.2638 9.46997 29.6492 8.61043 31.175 7.82129C31.7837 9.31397 31.8517 10.8153 31.4295 12.3332C30.9119 14.1941 29.8479 15.6404 28.0253 16.6087C28.1667 15.8427 28.2914 15.1673 28.416 14.492C28.3848 14.4799 28.3535 14.4678 28.3223 14.4557C27.9105 15.0996 27.4987 15.7436 27.0869 16.3875C27.0532 16.3759 27.0196 16.3642 26.9859 16.3525C26.6888 14.5568 26.5478 12.7736 27.4756 11.0529ZM30.8966 13.2555C31.0787 12.7216 31.334 12.2001 31.4271 11.6511C31.599 10.6385 31.5254 9.61511 31.2972 8.61156C31.255 8.42605 31.1184 8.26201 31.0268 8.09082C27.0612 10.0777 26.5073 13.0313 27.1327 15.973C27.5925 15.2813 28.0034 14.6631 28.4142 14.045C28.4686 14.0615 28.5229 14.078 28.5772 14.0946C28.6723 14.8031 28.2517 15.4828 28.3425 16.2672C29.4537 15.4524 30.4169 14.5986 30.8966 13.2555Z" fill="#C44653"/>
<path d="M26.1539 21.3608C26.4555 20.8498 26.8772 20.605 27.4457 20.706C27.9177 20.7898 28.2356 21.0872 28.3767 21.5456C28.5214 22.016 28.3303 22.5489 27.9468 22.8129C27.4774 23.1361 26.9994 23.1436 26.552 22.8348C26.1337 22.5461 25.9513 22.0429 26.0875 21.5499C26.1029 21.494 26.1245 21.4398 26.1539 21.3608Z" fill="#35383A"/>
<path d="M22.8485 12.573C23.7 13.1314 23.9949 14.4918 23.6917 15.2875C23.5699 15.2293 23.4501 15.1721 23.3057 15.1032C23.2701 15.2185 23.2383 15.3215 23.1908 15.4755C23.0408 15.3814 22.9047 15.3203 22.7988 15.2256C21.9338 14.4516 21.7363 13.4738 21.942 12.3753C21.9805 12.1697 22.1135 12.1241 22.2729 12.2043C22.4681 12.3026 22.6449 12.4374 22.8485 12.573Z" fill="#F6C654"/>
<path d="M21.3171 20.5161C21.6157 20.027 22.0319 19.8231 22.5693 19.9199C23.0323 20.0034 23.3322 20.291 23.4668 20.7436C23.5974 21.1831 23.4341 21.6689 23.0638 21.9547C22.6368 22.2842 22.1895 22.3101 21.7377 22.0316C21.3239 21.7766 21.1221 21.3165 21.2195 20.84C21.2403 20.7383 21.2763 20.6398 21.3171 20.5161Z" fill="#35383A"/>
<path d="M12.9111 17.8254C12.7702 17.5864 12.6427 17.369 12.5156 17.1525C14.5183 16.0022 17.9053 16.8842 19.3245 19.4208C18.8913 19.3768 18.4916 19.3362 18.0919 19.2957C18.0749 19.3269 18.0578 19.3582 18.0408 19.3895C18.3654 19.684 18.6901 19.9786 19.0303 20.2873C17.0193 20.7891 14.4624 20.4749 12.9111 17.8254ZM12.7907 17.2844C12.9731 17.5877 13.1389 17.9026 13.3411 18.192C13.8393 18.9049 14.4762 19.4561 15.2609 19.8488C16.0313 20.2343 16.8491 20.3399 17.6891 20.3357C17.9999 20.3341 18.3103 20.2677 18.6661 20.2255C18.4344 20.0064 18.2353 19.8457 18.0729 19.6539C17.9814 19.5459 17.9504 19.3867 17.8922 19.2506C18.0182 19.2183 18.1437 19.1611 18.2702 19.159C18.5006 19.1551 18.7315 19.1839 18.9928 19.2011C18.4891 18.3655 17.7543 17.8704 16.99 17.4193C16.1097 16.8999 15.135 16.7684 14.1361 16.8535C13.6738 16.893 13.1819 16.901 12.7907 17.2844Z" fill="#4183A6"/>
<path d="M22.4563 18.6192C22.1635 18.1831 22.1079 17.7211 22.1415 17.2373C23.0819 17.23 23.7413 18.2132 23.4389 19.1717C23.0401 19.1338 22.7188 18.9564 22.4563 18.6192Z" fill="#48B250"/>
<path d="M19.5397 10.527C19.448 10.5193 19.3385 10.5099 19.2643 10.4537C18.8332 10.1273 18.4219 9.77346 17.9784 9.46556C17.8356 9.36641 17.6062 9.33003 17.4356 9.36335C17.3674 9.37667 17.3436 9.6544 17.3141 9.81446C17.2954 9.91613 17.3248 10.029 17.2962 10.1262C17.0259 11.0459 17.2451 11.9169 17.5545 12.7774C17.7873 13.4248 18.0768 14.0407 18.6284 14.4894C18.8396 14.6612 19.0474 14.8389 19.2721 14.9913C19.335 15.034 19.4526 14.9961 19.55 14.9709C19.6089 15.0724 19.663 15.198 19.7409 15.3793C17.6122 14.625 16.4349 11.5138 17.3816 9.01367C18.1995 9.37285 18.9402 9.83178 19.5397 10.527Z" fill="#976091"/>
<path d="M26.407 42.5837C25.8655 42.6755 25.3239 42.7673 24.7562 42.8631C24.0404 43.1306 23.3507 43.3943 22.6456 43.6751C22.4718 43.7741 22.3134 43.8561 22.1212 43.963C22.0551 44.0311 22.0229 44.0743 21.9907 44.1174C21.9026 44.1474 21.8144 44.1774 21.6992 44.2367C21.6387 44.3101 21.6054 44.3542 21.572 44.3984C21.4939 44.3973 21.4158 44.3962 21.3086 44.3896C21.5754 44.1669 21.85 43.9093 22.171 43.7398C23.2709 43.159 24.4099 42.6709 25.6613 42.5228C26.5348 42.4193 27.4107 42.3357 28.2856 42.2448C28.5277 42.2197 28.7705 42.2004 29.0428 42.1865C28.8969 42.2543 28.7247 42.3499 28.545 42.3667C28.0658 42.4115 27.5831 42.418 27.1024 42.4501C26.9948 42.4573 26.89 42.5069 26.7688 42.5604C26.7029 42.5834 26.6523 42.583 26.565 42.5676C26.4879 42.563 26.4475 42.5734 26.407 42.5837Z" fill="#CBE686"/>
<path d="M19.5312 13.874C19.658 13.9765 19.8039 14.0924 19.9203 14.233C20.0549 14.3956 20.1635 14.5799 20.3125 14.7972C20.3881 14.6795 20.4536 14.625 20.4526 14.5718C20.4414 13.9234 20.4867 13.2644 20.3833 12.6301C20.2792 11.9909 20.1019 11.3419 19.5965 10.8585C19.5566 10.8203 19.5683 10.7282 19.5577 10.6338C20.0903 11.0707 20.3334 11.6963 20.5088 12.3499C20.7505 13.2507 20.6449 14.1623 20.5707 15.1364C20.0365 14.8301 19.8283 14.3286 19.5312 13.874Z" fill="#976091"/>
<path d="M36.2686 38.3889C35.6361 38.4911 35.4923 38.6468 35.3744 39.3206C35.3217 39.1254 35.2956 38.9374 35.2695 38.7494C35.333 38.6871 35.3863 38.6057 35.4615 38.5652C36.5066 38.0031 37.6169 37.6334 38.8446 37.4538C39.0234 37.432 39.1476 37.4092 39.2718 37.3864C39.374 37.374 39.4762 37.3616 39.6211 37.3471C39.6639 37.3452 39.6959 37.3311 39.6959 37.3311C39.7082 37.3334 39.7206 37.3357 39.7496 37.3468C39.5854 37.4196 39.4088 37.5046 39.2226 37.543C38.9129 37.6069 38.5971 37.6409 38.2554 37.6894C37.7777 37.8133 37.3263 37.9276 36.8814 38.063C36.7839 38.0927 36.7094 38.1977 36.5951 38.2934C36.4667 38.3422 36.3677 38.3656 36.2686 38.3889Z" fill="#A5DB4B"/>
<path d="M32.3237 41.04C32.2265 41.158 32.1033 41.2751 31.9566 41.3967C31.3011 41.6449 30.6749 41.9061 30.034 42.1238C29.7907 42.2065 29.5134 42.1891 29.2305 42.2004C29.4399 42.1232 29.6692 42.0578 29.9012 42.0036C30.6937 41.8185 31.4513 41.5495 32.1348 41.096C32.1812 41.0652 32.243 41.0577 32.3237 41.04Z" fill="#CBE686"/>
<path d="M34.5898 35.0621C34.6173 35.0275 34.6446 35.0226 34.6915 35.0249C34.836 35.8741 34.9609 36.7163 35.0559 37.5906C35.0077 37.6245 34.9895 37.6262 34.9713 37.6279C34.8441 36.7826 34.7169 35.9372 34.5898 35.0621Z" fill="#505050"/>
<path d="M34.9727 37.6597C34.9899 37.626 35.008 37.6243 35.0536 37.6211C35.1352 37.976 35.1895 38.3325 35.2574 38.7192C35.297 38.9373 35.323 39.1253 35.3566 39.3406C35.3233 39.4332 35.2826 39.4984 35.2202 39.5376C35.146 39.3133 35.0934 39.1151 35.0408 38.9169C35.0184 38.5085 34.996 38.1001 34.9727 37.6597Z" fill="#35383A"/>
<path d="M39.1394 46.2892C39.0936 46.2374 39.0477 46.1855 39.0007 46.0924C38.9994 46.0512 38.9997 46.0168 39.0033 46.0003C39.0068 45.9838 39.007 45.9501 39.007 45.9501C39.1122 45.8896 39.2175 45.8291 39.357 45.7465C39.4243 45.7063 39.4573 45.6881 39.5032 45.6855C39.5547 45.7118 39.5932 45.7225 39.6317 45.7331C39.6317 45.7331 39.631 45.7344 39.6348 45.7614C39.6599 45.9351 39.6812 46.0817 39.7026 46.2284C39.6051 46.2277 39.5075 46.2271 39.367 46.2086C39.2625 46.2236 39.201 46.2564 39.1394 46.2892Z" fill="#75C223"/>
<path d="M32.0572 46.9697C31.8311 47.0723 31.5915 47.1791 31.341 47.2435C31.068 47.3137 30.7849 47.3446 30.4883 47.3768C30.5564 47.3111 30.6368 47.2359 30.7293 47.2157C31.164 47.1206 31.602 47.0406 32.0572 46.9697Z" fill="#CBE686"/>
<path d="M19.567 14.8674C19.2223 14.502 19.2961 14.0453 19.3734 13.5684C19.4099 13.6344 19.4463 13.7004 19.4823 13.7894C19.4827 13.9914 19.4713 14.1715 19.4877 14.3491C19.5032 14.5169 19.5479 14.682 19.567 14.8674Z" fill="#976091"/>
<path d="M18.4156 24.0248C18.1326 24.1281 17.8349 24.2199 17.5373 24.3116C17.5274 24.2861 17.5176 24.2606 17.5078 24.2351C17.7174 24.1237 17.927 24.0124 18.1591 23.8984C18.1433 24.1432 18.3235 23.9821 18.4156 24.0248Z" fill="#B5B5B5"/>
<path d="M18.4327 23.007C18.066 23.0352 17.6821 23.0448 17.2656 23.0459C17.6272 23.0211 18.0214 23.0048 18.4327 23.007Z" fill="#B5B5B5"/>
<path d="M20.3086 47.4551C20.6103 47.64 20.9157 47.8484 21.226 48.0801C20.8604 47.9895 20.5029 47.8569 20.3086 47.4551Z" fill="#CBE686"/>
<path d="M39.4845 45.6688C39.4515 45.687 39.4185 45.7052 39.3674 45.7288C39.1099 45.6441 38.8706 45.554 38.6055 45.4533C38.7247 45.4432 38.8698 45.4436 39.064 45.4375C39.2369 45.4387 39.3608 45.4464 39.4846 45.4541C39.5033 45.4888 39.5219 45.5234 39.5403 45.5918C39.5215 45.6399 39.503 45.6543 39.4845 45.6688Z" fill="#AADF4E"/>
<path d="M20.2521 48.3673C20.0714 48.2204 19.8865 48.0504 19.6992 47.8564C19.8805 48.003 20.0642 48.1736 20.2521 48.3673Z" fill="#8AC447"/>
<path d="M20.4022 45.2344C20.3048 45.4789 20.1869 45.7321 20.0469 45.9953C20.1437 45.7512 20.2626 45.4971 20.4022 45.2344Z" fill="#CBE686"/>
<path d="M35.0074 38.9092C35.0923 39.1154 35.1449 39.3136 35.1983 39.5408C35.1363 39.4741 35.0772 39.3759 35.0096 39.2838C34.9576 39.2128 34.895 39.1496 34.8086 39.0756C34.8451 39.0125 34.9102 38.9568 35.0074 38.9092Z" fill="#AADF4E"/>
<path d="M20.771 44.8105C20.6917 44.9395 20.5906 45.0766 20.4648 45.2117C20.5432 45.0793 20.6462 44.949 20.771 44.8105Z" fill="#CBE686"/>
<path d="M21.208 44.4092C21.1084 44.5231 20.9844 44.6368 20.8359 44.7526C20.9355 44.6394 21.0595 44.5242 21.208 44.4092Z" fill="#CBE686"/>
<path d="M31.9609 46.2759C32.0906 46.2217 32.2464 46.175 32.4166 46.1484C32.283 46.2068 32.135 46.2451 31.9609 46.2759Z" fill="#CAEE68"/>
<path d="M39.9727 37.3087C40.108 37.293 40.2434 37.2774 40.3847 37.2836C40.3907 37.3055 40.3998 37.3272 40.3696 37.331C40.2171 37.3261 40.0949 37.3174 39.9727 37.3087Z" fill="#D9D9D9"/>
<path d="M19.9219 46.5889C19.9875 46.6935 20.0437 46.824 20.0954 46.9808C20.0313 46.8763 19.9719 46.7455 19.9219 46.5889Z" fill="#CBE686"/>
<path d="M31.4688 46.4133C31.5522 46.3572 31.6596 46.3077 31.7814 46.2764C31.6948 46.3363 31.5937 46.3781 31.4688 46.4133Z" fill="#CAEE68"/>
<path d="M32.5898 46.1475C32.6944 46.0909 32.8242 46.0355 32.9692 45.999C32.8613 46.0615 32.7382 46.1051 32.5898 46.1475Z" fill="#CAEE68"/>
<path d="M33.5182 45.8711C33.5801 45.8732 33.6167 45.8767 33.6804 45.8866C33.5765 45.9309 33.4456 45.9687 33.2891 45.9997C33.3399 45.9527 33.4164 45.9126 33.5182 45.8711Z" fill="#CAEE68"/>
<path d="M20.0938 47.0361C20.1648 47.1321 20.2363 47.2534 20.305 47.3999C20.2328 47.3038 20.1635 47.1826 20.0938 47.0361Z" fill="#CBE686"/>
<path d="M39.2535 37.373C39.149 37.4093 39.0248 37.4321 38.875 37.445C38.9775 37.4098 39.1057 37.3847 39.2535 37.373Z" fill="#D9D9D9"/>
<path d="M18.9298 23.3842C18.9127 23.3216 18.9182 23.2568 18.9215 23.167C18.9791 23.1575 19.039 23.1728 19.0989 23.1881C19.0501 23.2527 19.0012 23.3173 18.9298 23.3842Z" fill="#B5B5B5"/>
<path d="M34.4506 34.3506C34.4546 34.4388 34.4444 34.5435 34.4189 34.6631C34.4146 34.5744 34.4254 34.4707 34.4506 34.3506Z" fill="#505050"/>
<path d="M33.8516 45.8743C33.9086 45.8369 33.9908 45.8015 34.0885 45.7842C34.0282 45.827 33.9525 45.8516 33.8516 45.8743Z" fill="#C0EA5E"/>
<path d="M23.9102 48.2363C23.9702 48.2014 24.0542 48.175 24.1528 48.167C24.0896 48.2052 24.0119 48.225 23.9102 48.2363Z" fill="#BDE75E"/>
<path d="M22.7148 48.3495C22.7802 48.3176 22.8632 48.2993 22.9615 48.2988C22.8954 48.3322 22.814 48.3476 22.7148 48.3495Z" fill="#BDE75E"/>
<path d="M34.3359 45.789C34.3963 45.7555 34.4808 45.7295 34.5795 45.7227C34.5159 45.7601 34.438 45.7783 34.3359 45.789Z" fill="#C0EA5E"/>
<path d="M19.1815 23.9385C19.0569 23.9705 18.9252 23.9819 18.7617 23.9925C18.878 23.9671 19.0263 23.9425 19.1815 23.9385Z" fill="#B5B5B5"/>
<path d="M39.9569 37.3174C40.0956 37.3184 40.2178 37.3271 40.3699 37.3438C40.3655 37.3703 40.3313 37.3888 40.2769 37.409C40.1534 37.401 40.05 37.3913 39.9285 37.3636C39.9204 37.3388 39.9304 37.3319 39.9569 37.3174Z" fill="#A5DB4B"/>
<path d="M18.9059 23.1252C18.8192 23.1226 18.7185 23.1028 18.5977 23.0674C18.6823 23.0705 18.7871 23.0893 18.9059 23.1252Z" fill="#B5B5B5"/>
<path d="M34.4297 34.8291C34.4891 34.8692 34.5427 34.9299 34.5934 35.0114C34.5349 34.9714 34.4794 34.9106 34.4297 34.8291Z" fill="#505050"/>
<path d="M34.5078 33.4365C34.5388 33.4827 34.5543 33.5418 34.5566 33.6148C34.5264 33.569 34.5094 33.5093 34.5078 33.4365Z" fill="#505050"/>
<path d="M16.7428 23.1025C16.7014 23.1385 16.6386 23.1671 16.5547 23.1872C16.5961 23.1509 16.6588 23.123 16.7428 23.1025Z" fill="#B5B5B5"/>
<path d="M17.0832 23.0479C17.0409 23.0756 16.9843 23.0905 16.9141 23.0918C16.9566 23.0638 17.0127 23.0494 17.0832 23.0479Z" fill="#B5B5B5"/>
<path d="M30.2262 47.4062C30.1685 47.4529 30.0852 47.499 29.9766 47.5406C30.0344 47.4927 30.1175 47.4492 30.2262 47.4062Z" fill="#CBE686"/>
<path d="M24.4688 48.1616C24.5082 48.1272 24.5696 48.1021 24.6437 48.0938C24.6011 48.1306 24.5459 48.1507 24.4688 48.1616Z" fill="#BDE75E"/>
<path d="M40.9258 37.3302C40.8699 37.351 40.7871 37.3643 40.6914 37.3598C40.752 37.3356 40.8255 37.3292 40.9258 37.3302Z" fill="#A5DB4B"/>
<path d="M20.5214 48.5121C20.4628 48.5103 20.3983 48.4871 20.3281 48.4434C20.3868 48.4455 20.4511 48.468 20.5214 48.5121Z" fill="#8AC447"/>
<path d="M16.1764 23.3066C16.1218 23.3494 16.0449 23.3894 15.9453 23.4278C15.9998 23.3853 16.0769 23.3447 16.1764 23.3066Z" fill="#B5B5B5"/>
<path d="M32.6786 40.7705C32.6503 40.8187 32.5977 40.8641 32.5234 40.9108C32.5526 40.864 32.6034 40.8159 32.6786 40.7705Z" fill="#CBE686"/>
<path d="M18.5156 23.6747C18.5444 23.6305 18.5937 23.5912 18.6628 23.5518C18.6338 23.5942 18.585 23.6369 18.5156 23.6747Z" fill="#B5B5B5"/>
<path d="M42.1873 37.3857C42.2183 37.3963 42.2225 37.4084 42.2126 37.4506C42.1563 37.5046 42.114 37.5285 42.0717 37.5523C42.0494 37.5192 42.0271 37.4861 42.0039 37.4321C42.0555 37.4032 42.108 37.3953 42.1873 37.3857Z" fill="#8ECF35"/>
<path d="M34.9138 34.2792C34.9048 34.2373 34.9123 34.1827 34.9399 34.1182C34.9501 34.161 34.9402 34.2138 34.9138 34.2792Z" fill="#505050"/>
<path d="M34.5431 33.9629C34.5563 34.0044 34.5526 34.0584 34.5311 34.1246C34.5177 34.083 34.522 34.0292 34.5431 33.9629Z" fill="#505050"/>
<path d="M23.4805 48.2817C23.5079 48.2528 23.5481 48.2358 23.5994 48.2354C23.5714 48.2658 23.5323 48.2797 23.4805 48.2817Z" fill="#BDE75E"/>
<path d="M26.7109 47.6318C26.7207 47.5833 26.7514 47.5361 26.8048 47.4854C26.8282 47.496 26.8287 47.5102 26.83 47.5458C26.7978 47.5892 26.7648 47.6111 26.7109 47.6318Z" fill="#CAEE68"/>
<path d="M27.1992 47.4895C27.218 47.4559 27.2576 47.4224 27.3089 47.4062C27.287 47.4456 27.2535 47.4676 27.1992 47.4895Z" fill="#CAEE68"/>
<path d="M27.6172 47.3915C27.6378 47.3614 27.678 47.3376 27.7285 47.3291C27.7048 47.3623 27.6707 47.38 27.6172 47.3915Z" fill="#CAEE68"/>
<path d="M19.9876 46.0674C19.9944 46.1091 19.9827 46.1622 19.9512 46.2247C19.944 46.1823 19.9566 46.1305 19.9876 46.0674Z" fill="#CBE686"/>
<path d="M15.8408 23.4404C15.8203 23.4773 15.7794 23.51 15.7188 23.5367C15.7394 23.4992 15.7799 23.4677 15.8408 23.4404Z" fill="#B5B5B5"/>
<path d="M18.3672 25.0607C18.3794 25.0246 18.411 24.9893 18.4603 24.9502C18.4476 24.9848 18.4171 25.0231 18.3672 25.0607Z" fill="#B5B5B5"/>
<path d="M19 24.3617C19.0008 24.3202 19.0197 24.271 19.0582 24.2158C19.0579 24.2579 19.038 24.3059 19 24.3617Z" fill="#B5B5B5"/>
<path d="M35.1797 45.669C35.2064 45.6413 35.2598 45.6171 35.3366 45.5918C35.36 45.5908 35.3633 45.6161 35.3635 45.6289C35.3112 45.6519 35.2588 45.6622 35.1797 45.669Z" fill="#C0EA5E"/>
<path d="M41.9935 37.3629C41.97 37.3758 41.931 37.3775 41.8789 37.3629C41.9032 37.3482 41.9406 37.35 41.9935 37.3629Z" fill="#D9D9D9"/>
<path d="M38.9953 46.0176C38.9953 46.0176 38.9951 46.052 38.994 46.0692C38.9591 46.0851 38.9253 46.0839 38.8659 46.0812C38.8563 46.0607 38.8723 46.0417 38.9235 46.0204C38.9709 46.0179 38.9831 46.0177 38.9953 46.0176Z" fill="#8DCE34"/>
<path d="M34.0787 39.5684C34.0747 39.5919 34.0518 39.617 34.0117 39.6456C34.0163 39.6226 34.038 39.5963 34.0787 39.5684Z" fill="#B4E454"/>
<path d="M38.9969 46C38.9811 46.0166 38.9689 46.0167 38.9391 46.0123C38.9323 45.9871 38.9478 45.9709 38.9843 45.9546C39.0006 45.9498 39.0004 45.9835 38.9969 46Z" fill="#CBE686"/>
<path d="M18.2265 23.8656C18.2159 23.8608 18.23 23.8357 18.2371 23.8341C18.2442 23.8325 18.2533 23.8538 18.2533 23.8538C18.2533 23.8538 18.2371 23.8703 18.2265 23.8656Z" fill="#B5B5B5"/>
<path d="M27.8969 47.3254C27.889 47.308 27.9013 47.294 27.9311 47.2783C27.9435 47.296 27.933 47.3134 27.8969 47.3254Z" fill="#CAEE68"/>
<path d="M18.8561 23.4495C18.8457 23.4308 18.8536 23.4201 18.8769 23.4111C18.8964 23.43 18.8904 23.4449 18.8561 23.4495Z" fill="#B5B5B5"/>
<path d="M18.5434 24.9016C18.5215 24.8821 18.5287 24.8626 18.5689 24.8486C18.5821 24.8678 18.5723 24.8836 18.5434 24.9016Z" fill="#B5B5B5"/>
<path d="M18.6479 24.7945C18.6331 24.7767 18.6411 24.7617 18.6699 24.7471C18.688 24.7646 18.6812 24.7812 18.6479 24.7945Z" fill="#B5B5B5"/>
<path d="M18.2271 25.1968C18.2168 25.1783 18.2247 25.1674 18.248 25.1582C18.2669 25.177 18.2609 25.1918 18.2271 25.1968Z" fill="#B5B5B5"/>
<path d="M18.1556 25.2575C18.1458 25.2511 18.1606 25.2287 18.1674 25.2276C18.1742 25.2265 18.1826 25.2483 18.1826 25.2483C18.1826 25.2483 18.1654 25.2639 18.1556 25.2575Z" fill="#B5B5B5"/>
<path d="M35.1108 34.6198C35.0872 34.6106 35.0851 34.5969 35.082 34.5625C35.0982 34.5663 35.1152 34.5908 35.1108 34.6198Z" fill="#505050"/>
<path d="M39.6912 37.3213C39.6985 37.3309 39.666 37.3452 39.6484 37.3426C39.6486 37.3305 39.6662 37.3211 39.6912 37.3213Z" fill="#D9D9D9"/>
<path d="M18.4397 23.7157C18.4308 23.7079 18.4516 23.6873 18.459 23.6875C18.4664 23.6877 18.4688 23.7112 18.4688 23.7112C18.4688 23.7112 18.4486 23.7235 18.4397 23.7157Z" fill="#B5B5B5"/>
<path d="M18.935 24.4453C18.9188 24.4308 18.9241 24.4162 18.9497 24.4004C18.968 24.4147 18.9635 24.43 18.935 24.4453Z" fill="#B5B5B5"/>
<path d="M18.718 24.721C18.7042 24.7047 18.711 24.6907 18.7356 24.6758C18.7563 24.6921 18.7514 24.7083 18.718 24.721Z" fill="#B5B5B5"/>
<path d="M18.3039 23.7995C18.2955 23.7807 18.3041 23.7708 18.3277 23.7646C18.3431 23.7843 18.3358 23.7976 18.3039 23.7995Z" fill="#B5B5B5"/>
<path d="M42.0781 37.577C42.1167 37.5279 42.1591 37.504 42.2228 37.4678C42.315 37.4674 42.3857 37.4793 42.475 37.5304C42.4941 37.5856 42.4946 37.6017 42.4951 37.6355C42.495 37.6649 42.495 37.6766 42.495 37.6884C42.3284 37.7981 42.1814 37.8138 42.0781 37.577Z" fill="#84CB2C"/>
<path d="M43.0586 37.6396C43.2803 37.6676 43.5072 37.7218 43.7484 37.7981C43.5298 37.7687 43.2968 37.7173 43.0586 37.6396Z" fill="#75C223"/>
<path d="M42.4958 37.6181C42.4953 37.6019 42.4947 37.5858 42.4922 37.5453C42.6206 37.5351 42.751 37.5493 42.9044 37.5787C42.8679 37.6086 42.8085 37.6232 42.7022 37.6283C42.6021 37.6185 42.549 37.6183 42.4958 37.6181Z" fill="#75C223"/>
<path d="M43.7734 37.8372C43.8262 37.8274 43.8933 37.8403 43.979 37.8724C43.9276 37.881 43.8577 37.8705 43.7734 37.8372Z" fill="#75C223"/>
<path d="M42.4922 37.6357C42.5454 37.6183 42.5986 37.6186 42.6784 37.6194C42.6499 37.643 42.5947 37.666 42.5158 37.6888C42.4921 37.6769 42.4921 37.6651 42.4922 37.6357Z" fill="#8ECF35"/>
<path d="M20.5352 48.6191C20.5774 48.6297 20.6216 48.6633 20.6686 48.7195C20.6266 48.7088 20.5819 48.6755 20.5352 48.6191Z" fill="#A5DB4B"/>
<path d="M19.2524 45.5947C19.2612 45.6315 19.2499 45.6717 19.2214 45.7247C19.2136 45.691 19.2229 45.6445 19.2524 45.5947Z" fill="#A5DB4B"/>
<path d="M14.6565 43.1622C14.6788 43.1527 14.6965 43.1658 14.7185 43.1986C14.7148 43.2137 14.703 43.2141 14.6733 43.2148C14.6556 43.2033 14.6557 43.1916 14.6565 43.1622Z" fill="#8DCE34"/>
<path d="M39.5001 45.4347C39.3622 45.4463 39.2384 45.4386 39.0916 45.439C39.0359 45.1463 38.837 45.1501 38.5347 45.2475C38.5347 44.9424 38.4712 44.663 38.5496 44.4318C38.6682 44.0819 38.5355 43.83 38.3871 43.5501C38.2717 43.3325 38.1395 43.1057 38.1015 42.8691C38.0375 42.4706 38.0361 42.0612 38.0198 41.6559C38.0057 41.3066 37.8849 41.0305 37.6499 40.7523C37.4384 40.5017 37.1093 40.2827 37.1646 39.8499C37.1911 39.642 36.6765 39.3309 36.4534 39.3342C36.3345 39.336 36.1974 39.2749 36.1043 39.1985C36.0733 39.173 36.1597 39.0131 36.1819 38.9123C36.2158 38.7588 36.2405 38.6034 36.2691 38.4185C36.3681 38.365 36.4672 38.3417 36.5922 38.3184C37.199 38.4009 37.3246 38.9281 37.5936 39.3157C37.8289 39.6545 38.1383 39.9638 38.2845 40.3372C38.4761 40.8264 38.9601 41.1961 38.87 41.8107C38.8395 42.0186 38.957 42.2481 39.0061 42.4679C39.0261 42.5571 39.0829 42.6603 39.0569 42.7339C38.8834 43.2251 39.1097 43.6602 39.2341 44.1075C39.3373 44.4784 39.4681 44.8417 39.5735 45.2121C39.5899 45.2696 39.5358 45.3471 39.5001 45.4347Z" fill="#9BD83D"/>
<path d="M39.7173 46.2432C39.6786 46.0814 39.6573 45.9347 39.6328 45.7607C39.8793 45.823 39.9192 46.0226 39.7173 46.2432Z" fill="#8DCE34"/>
<path d="M39.1484 46.3068C39.1962 46.2558 39.2577 46.223 39.333 46.208C39.2852 46.2589 39.2237 46.292 39.1484 46.3068Z" fill="#8DCE34"/>
<path d="M39.5 45.685C39.5055 45.6549 39.524 45.6404 39.5508 45.6104C39.5811 45.627 39.6031 45.6594 39.6268 45.7121C39.59 45.7219 39.5515 45.7113 39.5 45.685Z" fill="#8DCE34"/>
<path d="M39.666 37.6911C39.6261 37.7183 39.5865 37.7249 39.5469 37.7316C39.5473 37.7036 39.5476 37.6755 39.548 37.6475C39.5874 37.6551 39.6268 37.6628 39.666 37.6911Z" fill="#84CB2C"/>
<path d="M28.8904 46.793C28.8522 46.8476 28.7905 46.8969 28.7288 46.9463C28.7112 46.9102 28.6935 46.8741 28.6758 46.838C28.7395 46.8213 28.8032 46.8045 28.8904 46.793Z" fill="#C0EA5E"/>
<path d="M22.0156 44.1197C22.0236 44.0741 22.0558 44.031 22.1089 43.9834C22.0998 44.0267 22.0698 44.0744 22.0156 44.1197Z" fill="#B2E354"/>
<path d="M21.5938 44.3977C21.603 44.3542 21.6363 44.31 21.6912 44.2607C21.6811 44.3028 21.6495 44.35 21.5938 44.3977Z" fill="#B2E354"/>
<path d="M26.418 42.5997C26.4477 42.5733 26.4882 42.563 26.5398 42.5674C26.5103 42.5934 26.4695 42.6045 26.418 42.5997Z" fill="#C0EA5E"/>
<path d="M30.8849 13.2801C30.416 14.5986 29.4529 15.4524 28.3416 16.2672C28.2509 15.4828 28.6715 14.8031 28.5763 14.0946C28.522 14.078 28.4677 14.0615 28.4134 14.045C28.0025 14.6631 27.5916 15.2813 27.1318 15.973C26.5064 13.0313 27.0603 10.0777 31.026 8.09082C31.1175 8.26201 31.2541 8.42604 31.2963 8.61155C31.5245 9.61511 31.5981 10.6385 31.4263 11.6511C31.3331 12.2001 31.0779 12.7216 30.8849 13.2801Z" fill="#EE2434"/>
<path d="M12.793 17.2598C13.1826 16.9014 13.6744 16.8934 14.1368 16.854C15.1356 16.7688 16.1104 16.9004 16.9906 17.4198C17.755 17.8709 18.4898 18.366 18.9935 19.2016C18.7321 19.1844 18.5012 19.1556 18.2709 19.1595C18.1444 19.1616 18.0188 19.2187 17.8929 19.2511C17.9511 19.3872 17.9821 19.5464 18.0735 19.6544C18.236 19.8462 18.4351 20.0069 18.6668 20.2259C18.311 20.2682 18.0005 20.3346 17.6897 20.3362C16.8498 20.3404 16.032 20.2348 15.2615 19.8493C14.4768 19.4566 13.84 18.9053 13.3418 18.1925C13.1395 17.9031 12.9738 17.5882 12.793 17.2598Z" fill="#1983C1"/>
</svg>
