<svg width="160" height="220" viewBox="0 0 160 220" fill="none" xmlns="http://www.w3.org/2000/svg">
<mask id="mask0_601_1794" style="mask-type:alpha" maskUnits="userSpaceOnUse" x="-6" y="0" width="166" height="220">
<rect x="-6" width="165.693" height="220" fill="#D9D9D9"/>
</mask>
<g mask="url(#mask0_601_1794)">
<path opacity="0.09" d="M19.3284 238.281C18.7279 238.291 18.1273 238.301 17.2966 238.213C16.3121 238.146 15.5577 238.176 14.8032 238.206C14.1156 238.206 13.428 238.205 12.5505 238.096C11.4497 237.78 10.5389 237.572 9.62799 237.364C9.50431 237.295 9.38062 237.226 9.07757 237.067C7.97228 236.596 7.04637 236.215 6.12202 235.827C6.12359 235.821 6.11311 235.829 6.08396 235.722C5.73519 235.503 5.4156 235.391 5.01786 235.216C4.8735 235.142 4.80722 235.132 4.72022 235.007C3.78735 234.045 2.87526 233.198 1.96157 232.348C1.96002 232.346 1.95608 232.342 1.95888 232.214C0.405205 229.327 -0.945518 226.483 0.0893021 223.225C0.67215 221.39 1.558 219.651 2.34597 217.777C2.20983 217.69 1.99006 217.493 1.73249 217.397C0.920074 217.094 0.106865 216.778 -0.729759 216.558C-7.39799 214.802 -13.9074 212.547 -19.9768 209.293C-27.554 205.23 -34.9106 200.759 -42.4323 196.59C-47.552 193.752 -52.8471 191.243 -58.7829 190.667C-59.9618 190.552 -61.2008 191.059 -62.412 191.279C-62.412 191.279 -62.5409 191.286 -62.7197 191.319C-63.6982 191.771 -64.6164 192.057 -65.2679 192.641C-66.1083 193.394 -66.7283 193.288 -67.4371 192.594C-67.4371 192.594 -67.473 192.469 -67.528 192.329C-67.7661 191.997 -67.9491 191.806 -68.1321 191.615C-68.1321 191.615 -68.1757 191.649 -68.1692 191.521C-70.019 188.578 -71.8753 185.762 -73.7316 182.947C-75.3609 179.758 -77.0732 176.608 -78.6052 173.373C-84.933 160.009 -88.7379 145.993 -89.8525 131.201C-91.7675 105.787 -86.4438 82.0431 -73.5419 60.1147C-60.2305 37.4901 -41.4438 20.8741 -17.4178 10.2573C7.37506 -0.698345 33.0759 -2.67772 59.3117 3.36288C77.4263 7.53366 93.7153 15.807 108.102 27.6687C127.845 43.9464 141.07 64.5248 148.159 89.0479C152.12 102.752 153.139 116.783 152.119 130.988C151.596 138.28 150.47 145.466 148.448 152.719C148.338 153.029 148.343 153.147 148.349 153.265C148.349 153.265 148.348 153.394 148.197 153.503C147.739 154.829 147.432 156.045 147.126 157.262C147.102 157.422 147.078 157.582 146.886 157.89C146.441 158.994 146.162 159.95 145.884 160.907C145.86 161.036 145.836 161.164 145.646 161.403C144.919 163.165 144.358 164.817 143.797 166.47C143.797 166.47 143.799 166.592 143.658 166.701C143.245 167.596 142.973 168.382 142.701 169.168C142.701 169.168 142.647 169.324 142.484 169.41C141.612 171.212 140.904 172.927 140.196 174.643C140.196 174.643 140.202 174.662 140.109 174.718C139.961 174.957 139.906 175.139 139.851 175.322C139.831 175.386 139.811 175.45 139.635 175.616C139.364 176.052 139.248 176.386 139.133 176.72C138.876 177.275 138.619 177.83 138.158 178.496C137.823 178.965 137.693 179.325 137.563 179.684C137.53 179.809 137.496 179.934 137.289 180.152C136.376 181.086 135.511 181.848 134.926 182.786C133.868 184.481 131.844 185.391 129.948 184.742C126.958 183.719 124.028 182.487 120.99 181.646C118.662 181.001 116.205 180.823 113.673 180.445C113.279 180.492 113.018 180.532 112.763 180.525C112.769 180.48 112.754 180.389 112.677 180.333C112.414 180.269 112.229 180.26 111.961 180.282C111.826 180.339 111.774 180.365 111.571 180.329C110.123 180.247 108.825 180.227 107.394 180.17C106.896 180.165 106.531 180.197 106.023 180.208C105.499 180.142 105.118 180.096 104.708 179.942C104.006 179.911 103.334 179.989 102.58 180.105C102.448 180.177 102.399 180.211 102.23 180.23C101.954 180.243 101.797 180.27 101.558 180.254C101.414 180.199 101.352 180.187 101.255 180.129C101.133 180.128 101.047 180.174 100.834 180.243C100.2 180.327 99.6927 180.389 99.0878 180.384C98.3537 180.442 97.7172 180.567 96.9367 180.736C90.968 181.678 85.4549 183.515 80.2658 186.307C79.8921 186.509 79.6276 186.913 79.2453 187.073C78.9084 185.152 78.6386 183.381 78.3821 181.457C77.775 177.121 77.1546 172.937 76.5244 168.627C77.1464 167.908 77.7781 167.314 78.5146 166.699C78.5361 166.557 78.4529 166.437 78.2527 166.287C77.9117 165.862 77.6876 165.468 77.5452 165.011C77.6764 164.686 77.7258 164.424 77.8459 164.041C78.1111 163.194 78.449 162.472 78.4704 161.742C78.5169 160.159 78.6813 158.495 78.2726 157.009C77.8714 155.549 76.8324 154.261 76.0524 152.91C74.4033 150.054 72.9634 146.952 69.1048 146.867C69.025 145.839 69.1735 144.891 68.8358 144.171C68.463 143.376 67.7401 142.407 66.9932 142.22C66.2274 142.028 64.9065 142.436 64.4513 143.046C63.9194 143.76 62.7691 144.642 63.7267 145.966C64.2182 146.646 64.0392 147.245 63.1812 147.925C61.9669 148.887 60.6499 150.164 60.2123 151.567C59.3949 154.188 56.9209 155.49 55.8892 157.847C55.874 157.881 55.6747 157.836 55.4678 157.821C54.9044 155.689 54.1682 153.554 53.8176 151.358C53.5646 149.774 52.8766 148.837 51.4509 148.285C50.6135 147.96 49.8066 147.557 48.9072 147.154C50.9399 145.335 51.4391 143.491 50.4164 141.998C49.5821 140.78 48.3894 140.367 47.1703 141.14C46.3572 141.656 45.4312 142.568 45.2881 143.426C45.0959 144.577 45.6103 145.846 45.8383 147.163C45.8449 147.16 45.6422 147.278 45.4264 147.312C43.2074 147.662 41.5751 148.66 40.8883 150.977C39.9306 154.208 38.824 157.395 37.8457 160.62C37.4952 161.776 37.4443 163.027 37.057 164.166C36.4991 165.807 36.5725 166.044 38.4722 166.471C39.0321 164.455 38.3809 162.022 40.095 160.662C40.095 163.53 40.1502 166.571 40.0794 169.61C40.0088 172.641 39.812 175.669 39.6658 178.798C40.8688 178.798 42.1193 178.798 43.4877 178.798C43.9205 182.158 46.988 185.309 43.6808 188.686C45.938 189.605 47.5583 189.018 47.756 187.216C49.0714 187.273 49.2957 186.783 48.9855 185.439C48.6705 184.075 48.779 182.55 48.9977 181.141C49.2231 179.689 49.311 177.891 51.0725 178.049C51.5842 174.364 52.3611 170.861 52.479 167.336C52.598 163.779 52.0632 160.201 51.8148 156.632C52.6936 157.439 53.235 158.44 53.7595 159.451C54.0471 160.005 54.306 160.574 54.578 161.137C55.0726 160.698 55.5673 160.259 56.159 159.734C58.9515 160.621 60.015 157.289 61.9985 156.714C62.5881 157.866 63.1202 158.906 63.6523 159.946C63.7681 160.938 63.3349 162.194 63.4466 163.4C63.7126 166.27 64.1417 169.134 64.6762 171.968C65.6744 177.261 65.8678 182.578 65.5092 187.936C65.49 188.223 65.7003 188.561 65.8806 188.822C66.469 189.673 67.093 190.499 67.9884 191.726C68.9101 191.516 70.2687 191.206 71.7903 190.859C71.4291 188.75 70.7002 186.918 70.9114 185.201C71.2961 182.074 69.933 179.046 71.0758 175.825C72.2945 172.39 72.73 168.673 73.4623 165.071C73.6902 163.949 73.8101 162.802 73.9092 161.66C74.0315 160.251 74.0804 158.836 74.1611 157.423C74.2898 157.416 74.4185 157.408 74.5473 157.4C74.9022 158.521 75.2572 159.641 75.5355 160.825C75.5434 161.187 75.6279 161.484 75.7262 161.895C75.7535 162.465 75.7669 162.922 75.6967 163.441C75.5917 163.77 75.5704 164.038 75.4953 164.42C75.3996 164.785 75.3576 165.035 75.2449 165.367C75.1202 165.964 75.0661 166.479 75.0139 167.107C75.0654 167.361 75.1149 167.503 75.1358 167.747C75.3827 168.151 75.6583 168.454 75.936 168.753C75.938 168.751 75.9333 168.755 75.9324 168.903C76.5632 173.251 77.1949 177.45 77.8315 181.809C77.9474 183.997 78.0586 186.026 78.0098 188.015C77.5268 188.252 77.2037 188.528 76.872 188.806C76.8634 188.807 76.8461 188.805 76.7312 188.833C75.5724 189.669 74.5286 190.476 73.3909 191.292C73.1889 191.431 73.0809 191.562 72.8765 191.769C71.9642 192.582 71.1481 193.318 70.2265 194.105C68.9359 195.195 67.751 196.235 66.4457 197.262C66.0728 197.487 65.8201 197.726 65.5044 198.043C65.2322 198.282 65.0231 198.443 64.6845 198.601C64.284 198.689 63.9771 198.726 63.7469 198.879C60.3528 201.133 56.5912 202.469 52.6557 203.389C51.5039 203.658 50.3652 203.983 49.1041 204.268C48.8346 204.281 48.6816 204.309 48.3805 204.296C47.0286 204.365 45.8233 204.461 44.6211 204.586C40.2765 205.037 35.9276 205.453 31.5903 205.967C25.3765 206.703 19.7206 209.128 14.2594 212.013C12.6652 212.856 11.3017 214.135 9.77425 215.242C9.71602 215.269 9.61176 215.344 9.49043 215.343C8.75327 215.914 8.13745 216.487 7.48685 217.115C7.45206 217.171 7.41004 217.296 7.30148 217.336C6.68164 218.024 6.17033 218.672 5.6387 219.335C5.61837 219.35 5.59271 219.394 5.49064 219.437C4.79781 220.742 4.20705 222.005 3.58818 223.329C3.56005 223.392 3.53805 223.526 3.4464 223.583C3.2923 223.896 3.22981 224.154 3.13206 224.543C3.11118 225.131 3.12556 225.586 3.09341 226.169C3.34185 226.948 3.63677 227.597 3.94471 228.244C3.95773 228.241 3.95245 228.267 3.95457 228.393C4.30081 229.121 4.64494 229.723 4.99679 230.332C5.00451 230.34 5.02047 230.354 5.03923 230.471C6.00409 232.467 7.77933 233.126 9.75376 233.736C12.2188 234.136 14.5484 234.493 16.9658 234.917C17.4581 234.907 17.8625 234.83 18.4031 234.778C19.2574 234.709 19.9756 234.615 20.7573 234.581C21.0149 234.571 21.209 234.502 21.5209 234.446C21.7911 234.423 21.9436 234.386 22.2122 234.381C22.4837 234.379 22.6391 234.346 22.9137 234.355C23.4189 234.299 23.8049 234.2 24.3311 234.115C24.8378 234.064 25.2043 234 25.6794 233.981C26.0624 233.927 26.3368 233.827 26.7528 233.746C27.2633 233.692 27.6321 233.618 28.125 233.585C31.0663 232.868 33.8835 232.108 36.8042 231.355C37.0715 231.252 37.2354 231.143 37.5273 231.03C38.1473 230.898 38.6392 230.771 39.2342 230.643C39.5037 230.534 39.6702 230.425 39.9753 230.314C40.476 230.251 40.8383 230.189 41.2973 230.158C41.5632 230.101 41.7322 230.013 42.0223 229.932C42.3 229.902 42.4567 229.865 42.6905 229.826C42.8669 229.768 42.9182 229.683 42.9324 229.569C42.9433 229.568 42.9395 229.547 43.0764 229.535C46.0935 228.801 48.9821 228.111 51.8509 227.347C54.1038 226.747 56.3322 226.055 58.7172 225.414C59.3435 225.372 59.8241 225.32 60.4233 225.302C61.0438 225.127 61.5457 224.919 62.1656 224.712C62.4344 224.668 62.5851 224.624 62.8651 224.617C63.7293 224.465 64.4643 224.274 65.3139 224.085C65.5756 224.047 65.7227 224.008 65.9956 223.976C66.7323 223.765 67.3433 223.549 68.0942 223.342C68.6027 223.305 68.9713 223.258 69.4675 223.244C70.2449 223.09 70.8948 222.902 71.6445 222.725C71.8702 222.694 71.9961 222.651 72.2468 222.619C72.7478 222.506 73.1239 222.384 73.6328 222.277C74.0268 222.249 74.2881 222.203 74.6692 222.196C75.1758 222.143 75.5626 222.052 76.0915 221.967C77.0627 221.842 77.8917 221.713 78.8533 221.601C79.2461 221.567 79.5064 221.516 79.9072 221.481C84.3437 221.143 88.6396 220.788 93.0898 220.468C94.0806 220.494 94.917 220.486 95.8818 220.531C97.1982 221.031 98.3864 221.479 99.4947 222.009C98.8921 222.392 98.3694 222.693 97.7658 223.018C97.5847 223.099 97.5076 223.179 97.3662 223.316C97.1998 223.445 97.1207 223.539 96.9446 223.632C96.7271 223.675 96.6065 223.721 96.3244 223.728C95.2992 223.665 94.432 223.681 93.5725 223.608C89.1354 223.227 84.777 223.752 80.4523 224.7C80.3027 224.707 80.1532 224.713 79.7483 224.71C77.7994 225.12 76.1058 225.541 74.4122 225.962C74.2908 225.958 74.1694 225.954 73.8544 225.891C72.8071 226.069 71.9534 226.306 71.0997 226.544C70.9538 226.56 70.808 226.576 70.4215 226.566C69.0229 226.728 67.8467 226.845 66.7128 227.13C65.8958 227.336 65.135 227.765 64.2358 228.09C63.8964 228.103 63.6704 228.119 63.3535 228.064C61.0935 228.416 58.9185 228.813 56.76 229.286C56.3009 229.386 55.9014 229.76 55.3633 229.997C54.9685 230.071 54.6847 230.154 54.2736 230.236C53.7336 230.449 53.321 230.665 52.8118 230.874C52.5869 230.88 52.4586 230.893 52.2359 230.827C51.1349 230.925 50.1081 231.028 49.1249 231.293C44.0334 232.665 38.9597 234.102 33.8663 235.467C31.0043 236.234 28.1162 236.903 25.2399 237.617C25.0915 237.623 24.9431 237.628 24.5366 237.615C22.6285 237.824 20.9785 238.052 19.3284 238.281ZM-5.48277 119.949C-5.48277 119.949 -5.38138 119.862 -5.25512 119.899C-5.15302 119.856 -5.12357 119.784 -5.02285 119.519C-4.92186 119.415 -4.82087 119.312 -4.5269 119.215C-4.37556 119.025 -4.22424 118.835 -3.93767 118.542C-3.93767 118.542 -3.79809 118.446 -3.67195 118.387C-3.5938 118.329 -3.54597 118.252 -3.40947 118.018C-3.36607 117.975 -3.3227 117.933 -3.14017 117.874C-3.04691 117.818 -3.01394 117.737 -2.99442 117.578C-2.99442 117.578 -2.94421 117.527 -2.80801 117.517C-2.71294 117.46 -2.68906 117.381 -2.58412 117.1C-2.34279 116.79 -2.10143 116.48 -1.73937 116.136C-1.66054 116.078 -1.63847 116.003 -1.62128 115.846C-1.62128 115.846 -1.5699 115.779 -1.39043 115.703C-1.2916 115.464 -1.19274 115.225 -1.00528 114.728C-0.851311 114.397 -0.697342 114.067 -0.612823 113.532C-1.34882 113.654 -2.08481 113.776 -3.06869 113.952C-3.48654 114.01 -3.90438 114.067 -4.46737 114.009C-4.85191 113.855 -5.74699 114.655 -5.4617 113.338C-5.4617 113.338 -5.36749 113.249 -5.26381 113.295L-5.18486 113.215C-5.18486 113.215 -5.22939 113.11 -5.12189 113.013C-5.12189 113.013 -5.00793 112.922 -4.89224 112.966C-4.79466 112.935 -4.75894 112.87 -4.5514 112.623C-4.47083 112.578 -4.39022 112.534 -4.22243 112.565L-4.12395 112.505C-4.12395 112.505 -4.13548 112.39 -4.06049 112.346C-4.06049 112.346 -3.98329 112.305 -3.77829 112.354C-3.53624 112.142 -3.29419 111.93 -2.86633 111.567C-2.66296 111.441 -2.45962 111.315 -2.12984 111.228C-2.02531 111.186 -1.99637 111.113 -1.98865 110.952C-1.98865 110.952 -1.93216 110.897 -1.70731 110.874C-1.46487 110.553 -1.22242 110.232 -0.979988 109.911C-1.27744 109.835 -1.57491 109.759 -1.86341 109.672C-1.86341 109.672 -1.87195 109.683 -2.01127 109.512C-2.53156 109.419 -3.05183 109.326 -3.79324 109.215C-3.9355 109.177 -4.07777 109.14 -4.39137 108.917C-6.3484 108.998 -8.3054 109.079 -10.48 109.217C-10.6285 109.236 -10.7771 109.255 -11.0676 109.145C-11.3464 109.216 -11.6252 109.288 -12.131 109.405C-12.28 109.444 -12.429 109.482 -12.7906 109.447C-13.1015 109.586 -13.4124 109.725 -13.9604 109.956C-14.4348 110.141 -14.9091 110.326 -15.6056 110.485C-15.9885 110.687 -16.3714 110.889 -16.909 111.143C-16.909 111.143 -17.0664 111.187 -17.2692 111.145C-17.47 111.302 -17.6709 111.458 -18.0899 111.739C-22.4694 114.042 -25.7223 117.452 -28.0301 121.809C-28.4941 122.685 -28.5845 123.353 -27.4294 123.625C-25.3622 124.112 -23.3101 124.823 -21.2145 125C-15.4368 125.486 -10.2827 123.702 -5.62296 120.223L-5.53874 120.146C-5.53874 120.146 -5.58006 120.04 -5.48277 119.949ZM1.20393 46.8887C-1.76502 43.5506 -5.44279 41.2705 -9.50401 39.486C-14.2047 51.9074 -8.3592 67.3643 2.21104 71.1119C1.82399 70.2114 1.55558 69.587 1.27969 68.8131C1.27969 68.8131 1.25807 68.665 1.3852 68.4746C1.22704 67.6485 1.0051 66.8282 0.928085 65.9946C0.846596 65.1124 0.903046 64.2174 0.987122 63.4483C0.987122 63.4483 1.12159 63.5123 1.18256 63.7541C2.62695 65.8921 3.66105 68.3835 6.31355 69.905C6.682 65.0656 7.20621 60.5368 6.00591 56.0612C5.13503 52.8139 3.92825 49.7057 1.26838 47.2565C1.26838 47.2565 1.21966 47.1201 1.20393 46.8887ZM28.6995 117.781C28.8014 116.692 28.8829 115.599 29.0084 114.512C30.2738 103.551 33.4354 93.148 38.2618 83.2434C39.374 80.961 40.574 78.7214 41.7337 76.4621C35.3161 80.3758 31.5394 86.4409 27.9606 92.6726C24.3632 98.9368 21.4131 105.478 19.6452 112.736C15.0997 109.125 10.242 106.728 5.00463 105.118C5.89427 106.083 6.89999 106.835 7.82707 107.674C15.2336 114.375 17.8587 123.178 18.3794 132.719C18.7196 138.955 18.5927 145.226 18.4441 151.476C18.3042 157.361 18.3428 163.316 17.4095 169.095C16.5678 174.307 14.4707 179.311 13.0439 184.439C12.8137 185.266 12.9235 186.409 13.3321 187.157C15.8536 191.773 18.5024 196.32 21.1169 200.885C21.6991 201.902 22.3131 202.9 23.17 204.34C23.17 199.25 23.1419 194.691 23.1902 190.133C23.2019 189.022 22.9489 188.239 22.0785 187.435C21.4045 186.812 20.7046 185.577 20.8879 184.828C21.1158 183.897 22.1013 182.816 23.0133 182.47C24.2513 182.002 25.6979 182.305 26.4332 183.75C27.042 184.947 27.0534 186.208 25.9299 187.048C24.5697 188.065 24.5083 189.372 24.5276 190.856C24.579 194.794 24.5405 198.732 24.546 202.671C24.5465 203.082 24.6019 203.494 24.6518 204.179C28.1322 198.079 31.4668 192.267 34.7409 186.422C34.9695 186.014 34.8715 185.318 34.7199 184.818C33.427 180.556 32.0541 176.318 30.7752 172.053C30.1964 170.122 29.3923 168.152 29.352 166.186C29.1989 158.722 29.2892 151.252 29.3451 143.785C29.3684 140.664 29.2543 137.505 29.6888 134.432C30.796 126.6 33.9328 119.58 38.8675 113.38C39.1391 113.039 39.3229 112.627 39.5476 112.249C39.3674 112.097 39.1871 111.946 39.007 111.794C35.4817 115.019 31.9564 118.244 28.3379 121.554C28.4507 120.367 28.5586 119.23 28.6995 117.781ZM61.2873 84.4088C56.9515 86.1869 53.0472 88.5732 49.946 92.0914C50.0025 92.2682 50.0589 92.4451 50.1154 92.6219C53.735 92.6219 57.3545 92.6219 60.9741 92.6219C60.9948 92.7794 61.0155 92.937 61.0362 93.0946C57.161 94.4361 53.2857 95.7775 49.4105 97.119C49.425 97.2898 49.4395 97.4606 49.4541 97.6313C57.6502 101.648 65.9795 104.743 75.4754 102.651C83.6418 100.851 89.684 95.9016 95.6194 90.1815C85.0349 82.2064 73.8287 80.0779 61.2873 84.4088ZM-12.3124 177.54C-12.8222 178.631 -13.3319 179.722 -13.7447 180.605C-15.0662 178.203 -16.4448 175.697 -17.8759 173.096C-17.7706 173.027 -17.4433 172.811 -17.4279 172.801C-17.8619 171.444 -18.2391 170.445 -18.4997 169.417C-19.2585 166.422 -21.3782 164.641 -23.9082 165.494C-25.4655 166.019 -26.7085 167.477 -27.9795 168.431C-27.1145 170.153 -26.2992 171.355 -25.8907 172.682C-25.1487 175.093 -24.4371 175.6 -21.8732 174.775C-22.4265 176.419 -22.9304 177.916 -23.4749 179.533C-25.797 176.941 -26.4062 176.92 -29.1607 179.35C-30.1947 178.566 -31.2325 177.684 -32.3655 176.949C-33.4063 176.274 -34.5495 175.757 -35.68 175.153C-36.2058 177.005 -36.1562 176.944 -34.8792 177.974C-34.0598 178.635 -33.4477 179.548 -32.6719 180.272C-32.3497 180.573 -31.8448 180.833 -31.4201 180.837C-30.4565 180.847 -30.2 181.43 -30.6108 182.033C-31.9953 184.065 -32.6013 186.765 -35.3734 187.657C-36.4274 187.996 -37.4146 188.543 -38.5505 189.048C-38.3267 189.225 -38.1359 189.507 -37.92 189.528C-36.0298 189.71 -34.1364 189.89 -32.2403 189.948C-31.9635 189.956 -31.5782 189.354 -31.3996 188.963C-31.0972 188.3 -31.1253 187.343 -30.65 186.931C-29.3601 185.812 -27.8791 184.915 -26.3619 183.851C-25.4779 185.108 -24.4781 186.363 -23.6616 187.728C-21.9249 190.63 -19.1295 190.52 -16.4625 190.056C-15.3851 189.869 -14.5142 188.492 -13.7494 187.83C-13.2456 188.377 -12.5244 189.875 -11.584 190.028C-9.77807 190.323 -7.37524 190.495 -6.08826 189.543C-4.46513 188.343 -1.64569 187.543 -2.02041 184.481C-2.06673 184.102 -1.52975 183.652 -1.22251 183.171C-0.568893 183.705 -0.0151443 184.115 0.490562 184.578C1.94283 185.908 3.95366 186.85 3.76734 189.343C3.75269 189.539 4.31635 189.977 4.59642 189.965C6.37715 189.886 8.15587 189.734 9.92984 189.553C10.2803 189.517 10.6073 189.251 11.2745 188.934C6.08528 187.815 3.06933 184.506 3.04883 181.133C3.73284 180.861 4.485 180.743 4.98551 180.323C5.83534 179.611 6.41603 178.55 7.31237 177.927C8.44558 177.14 8.65997 176.379 7.78351 174.993C5.55219 176.488 3.38992 177.936 1.25432 179.367C-0.781273 177.038 -0.919701 177.038 -4.40608 179.242C-4.84626 177.763 -5.27708 176.316 -5.74045 174.759C-3.9137 175.395 -2.4519 175.055 -1.88486 173.833C-1.42007 172.831 -1.12389 171.749 -0.780777 170.693C0.138885 167.864 0.132965 167.862 -2.42733 166.057C-5.03502 164.219 -8.2219 165.624 -8.54977 168.824C-8.68958 170.188 -8.5731 171.579 -8.5731 173.024C-10.6662 173.641 -11.2371 175.642 -12.3124 177.54ZM28.226 38.7549C26.9302 33.941 24.9502 29.4804 21.3825 25.8879C16.7853 21.2587 11.0971 19.5548 4.4872 19.6237C4.22079 28.0128 5.29313 35.7901 11.5772 41.8227C16.5412 46.5879 22.778 48.3238 29.8447 48.9989C29.2804 45.4122 28.7788 42.2242 28.226 38.7549ZM47.9928 119.029C49.4273 120.678 50.6357 122.624 52.3365 123.925C58.9332 128.971 66.4458 130.422 74.4515 128.44C79.1691 127.272 79.4139 127.493 76.4349 123.228C76.4019 123.181 76.3789 123.127 76.3489 123.078C71.0622 114.367 63.34 110.09 53.1469 110.429C51.0192 110.5 48.9016 110.878 46.7794 111.114C46.757 111.31 46.7347 111.506 46.7123 111.701C48.5881 113.2 50.4638 114.699 52.3396 116.198C52.2337 116.384 52.1279 116.57 52.0221 116.755C50.2368 116.344 48.4516 115.933 46.1317 115.399C46.89 116.89 47.3779 117.849 47.9928 119.029ZM-44.6921 105.57C-46.108 107.844 -47.5238 110.118 -49.0073 112.5C-33.9579 116.131 -25.3765 110.925 -22.8752 101.161C-30.1236 97.9522 -39.0419 98.3485 -44.6921 105.57ZM87.6501 60.0405C88.2583 58.7038 88.8665 57.3672 89.4778 56.0239C77.1174 51.1418 67.8923 55.7776 63.5924 67.2329C71.5437 69.8236 82.6161 69.3226 87.6501 60.0405ZM-23.9552 54.79C-28.7027 51.0285 -34.0204 50.7068 -39.7038 51.9896C-36.1635 62.463 -25.7728 68.9494 -17.6198 64.7945C-18.6977 60.9278 -20.7585 57.6396 -23.9552 54.79ZM46.2277 22.8859C45.689 21.0948 45.1503 19.3036 44.5902 17.4415C36.5556 22.0782 31.7122 30.9555 37.3254 38.6353C42.5185 36.4858 47.7318 30.9311 46.2277 22.8859ZM40.5341 49.723C35.9983 58.1652 36.6985 67.0249 38.174 75.9464C38.3411 76.0044 38.5083 76.0623 38.6754 76.1202C40.7201 72.9209 42.7648 69.7216 44.8095 66.5224C44.9647 66.5824 45.1199 66.6425 45.2751 66.7026C44.6561 70.0581 44.037 73.4136 43.3348 77.2191C52.3852 72.4081 57.6681 65.2227 60.2382 55.9773C62.3346 48.4362 61.9969 40.9772 58.9748 33.5612C51.3982 37.4818 44.519 41.7522 40.5341 49.723ZM33.9895 100.947C33.8965 101.221 33.7895 101.49 33.7129 101.767C33.0367 104.217 33.9424 106.717 36.0196 108.151C38.2411 109.685 40.6143 109.648 42.9452 108.043C44.8497 106.731 45.7983 104.083 45.0798 101.746C44.3795 99.4684 42.801 97.9911 40.457 97.5746C37.6342 97.0729 35.5406 98.2893 33.9895 100.947ZM17.5252 57.085C16.6078 56.4938 15.7299 55.8241 14.7608 55.3358C13.9693 54.9371 13.3085 55.1638 13.1174 56.1855C12.0961 61.6429 13.077 66.501 17.3719 70.346C17.8979 70.8169 18.5737 71.1202 19.3183 71.5879C19.5543 70.8224 19.7122 70.3108 19.8888 69.7379C20.6062 70.0806 21.2007 70.3646 21.8057 70.6536C23.3112 66.7003 21.8467 59.9418 17.5252 57.085ZM9.97837 96.7532C9.83437 97.2499 9.65548 97.7394 9.55228 98.2445C9.06854 100.612 10.0709 102.898 12.1255 104.165C14.3689 105.549 16.5896 105.42 18.7099 103.783C20.549 102.363 21.3599 99.9492 20.711 97.7657C20.0428 95.5172 18.5538 94.0879 16.2547 93.6734C13.5861 93.1923 11.5199 94.2054 9.97837 96.7532ZM-31.6591 83.3745C-24.0222 96.4301 -11.3264 97.991 -1.34093 95.4982C-3.03 93.9647 -4.6421 92.5011 -6.25419 91.0375C-6.16956 90.8822 -6.08493 90.7268 -6.00031 90.5715C-4.01559 90.7731 -2.03089 90.9747 0.120232 91.1932C-6.9266 78.5911 -23.745 74.2087 -33.6889 79.9239C-33.0582 80.9996 -32.4249 82.0796 -31.6591 83.3745ZM15.769 87.3071C16.9967 88.882 18.592 89.7632 20.5722 89.9513C22.0739 85.1893 18.7994 80.3046 14.1298 80.3412C13.9634 82.7448 14.2393 85.0401 15.769 87.3071Z" fill="#9F9F9F"/>
</g>
</svg>
