<svg width="92" height="92" viewBox="0 0 92 92" fill="none" xmlns="http://www.w3.org/2000/svg">
<g clip-path="url(#clip0_4669_317)">
<path d="M44.4627 67.7226C49.1947 66.7443 53.7893 64.2775 56.4352 60.133C59.3188 55.6203 59.3452 49.9452 58.9702 44.7908C58.5477 39.0263 57.238 33.0935 53.4566 28.5387C51.3019 25.9405 48.3391 24.0049 45.0173 23.2896C39.7096 22.143 34.2489 24.6676 29.5116 26.761C24.3836 29.0278 19.6886 31.9837 15.7541 35.96C12.2949 39.4628 8.73535 43.781 7.57877 48.6618C7.04008 50.9392 7.07705 53.406 7.98542 55.5887C8.87794 57.7346 10.5996 59.3546 12.5167 60.6221C17.0955 63.6517 22.5985 65.7555 27.922 67.0388C33.2719 68.3379 39.0336 68.8429 44.4627 67.7226Z" fill="#FCD7F7"/>
</g>
<g clip-path="url(#clip1_4669_317)">
<path d="M71.2588 50.9915C65.4826 49.1227 59.5065 52.4206 54.6646 55.2737C52.0014 56.8427 49.5829 58.7015 47.0546 60.4603C44.901 61.9593 42.2028 63.5283 39.4845 62.7089C36.4665 61.7994 35.9468 58.3067 35.5621 55.6285C35.2973 53.7897 35.2473 51.9309 35.2723 50.0771C35.2823 49.2376 35.2923 48.3882 35.3123 47.5387C36.6014 47.6737 38.0155 47.4788 39.1697 47.3339C41.0835 47.094 42.9773 46.6943 44.7811 46.0047C48.3388 44.6406 51.057 42.1822 52.9907 38.8994C55.0994 35.3217 56.2736 31.0045 56.6084 26.8822C56.7033 25.753 56.7283 24.6137 56.6683 23.4794C56.6284 22.7049 56.6733 21.5857 56.2436 20.9061C55.9738 20.4814 55.589 20.2066 55.1393 20.0417C55.1393 19.9467 55.1393 19.8518 55.1393 19.7569C55.1793 18.4727 55.1993 17.1885 55.1893 15.8994C55.1743 13.5009 55.0844 11.0276 54.8745 8.63412C54.7246 6.90524 54.2149 5.37624 52.3412 5.03147C51.1319 4.80661 49.9227 4.77663 48.6935 4.75665C48.1089 4.74665 47.4893 4.68169 46.9097 4.73166C46.5449 4.35691 46.0253 4.11207 45.5206 4.00214C45.4007 3.97715 45.2608 3.95717 45.1159 3.94218C45.1009 3.92719 45.0909 3.9122 45.0759 3.89721C44.1715 3.02278 41.833 2.3732 40.7187 3.21265C40.5139 3.31758 40.339 3.50246 40.249 3.76729C39.9342 4.69668 40.0342 8.05449 40.8586 8.36429C41.5182 8.61413 42.4676 8.46922 43.1571 8.39927C43.8367 8.32932 44.5163 8.18441 45.0559 7.7447C45.4656 7.72971 45.8704 7.63976 46.1902 7.50985C46.6649 7.31498 47.0746 6.96021 47.2745 6.5105C49.3981 6.65041 52.576 6.87027 52.8458 7.21504C53.0907 7.52484 52.9807 8.10946 52.9607 8.46922C52.9058 9.4286 52.8708 10.388 52.8308 11.3523C52.7459 13.3211 52.526 15.2798 52.4361 17.2535C52.3961 18.1779 52.3611 19.1073 52.3312 20.0317C52.1113 20.0866 51.9014 20.1516 51.7066 20.2266C51.7066 20.2266 51.7016 20.2266 51.6966 20.2266C51.4867 20.2515 51.3068 20.3865 51.2519 20.6663C50.997 21.9704 51.062 23.2996 50.997 24.6187C50.9371 25.8579 50.6323 27.0771 50.2675 28.2613C48.1789 34.957 42.5975 39.6639 35.4572 39.7588C33.7882 39.7838 32.1093 39.549 30.5254 39.0243C28.1819 38.2498 26.0683 36.8607 24.4194 35.0219C22.7554 33.1681 21.4963 30.7997 20.7368 28.4312C20.332 27.167 20.0172 25.8529 19.9073 24.5238C19.8024 23.2346 19.9123 21.9354 19.6874 20.6563C19.5975 20.1466 19.2028 20.0617 19.1978 20.0617C19.0179 19.9967 18.818 19.9417 18.6081 19.8918C18.5782 19.0074 18.5482 18.1229 18.5082 17.2385C18.4183 15.2648 18.1984 13.3061 18.1135 11.3374C18.0735 10.378 18.0385 9.41361 17.9836 8.45423C17.9636 8.09447 17.8536 7.50985 18.0985 7.20005C18.3683 6.85528 21.5412 6.63542 23.6698 6.49551C23.8697 6.94022 24.2794 7.29999 24.7541 7.49486C25.0739 7.62478 25.4787 7.71472 25.8884 7.72971C26.428 8.16942 27.1076 8.31432 27.7872 8.38428C28.4767 8.45423 29.4261 8.59914 30.0857 8.3493C30.9101 8.0395 31.0101 4.68169 30.6953 3.7523C30.6053 3.48747 30.4304 3.30259 30.2256 3.19766C29.1113 2.35821 26.7728 3.00779 25.8684 3.88222C25.8534 3.89721 25.8384 3.9122 25.8284 3.92719C25.6835 3.94218 25.5436 3.96216 25.4237 3.98715C24.919 4.09708 24.3994 4.33692 24.0346 4.71667C23.455 4.66171 22.8354 4.73166 22.2508 4.74166C21.0216 4.75665 19.8174 4.79162 18.6031 5.01648C16.7294 5.36125 16.2247 6.89025 16.0698 8.61913C15.8599 11.0126 15.775 13.481 15.755 15.8844C15.745 17.1686 15.77 18.4577 15.805 19.7419C15.805 19.8318 15.805 19.9317 15.805 20.0217C15.3553 20.2016 14.9655 20.4814 14.7057 20.8911C14.3459 21.4608 14.3609 22.3951 14.306 23.0397C14.216 24.169 14.226 25.3082 14.306 26.4425C14.5758 30.4799 15.6651 34.6621 17.5888 38.2348C19.3577 41.5127 21.971 44.2409 25.4337 45.685C27.1925 46.4195 29.0413 46.8542 30.9251 47.124C31.7296 47.2389 32.634 47.3938 33.5484 47.4788C33.5084 47.8136 33.4735 48.1483 33.4535 48.4931C33.3535 50.137 33.3335 51.786 33.3885 53.4349C33.4785 56.0682 33.4735 58.6965 34.5727 61.1449C36.8712 66.2815 42.8374 66.1416 47.0996 63.6332C49.568 62.1792 51.7415 60.2455 54.14 58.6815C56.7783 56.9576 59.5914 55.3037 62.5495 54.1894C65.1028 53.23 67.866 52.7653 70.4993 53.6947C72.7578 54.4942 74.3518 56.363 74.5767 58.7714C74.7865 61.01 74.022 63.1985 72.6579 64.9424C72.453 64.7076 72.2332 64.4777 71.9933 64.2678C70.3344 62.7938 68.1159 61.9493 65.9173 61.7445C61.1104 61.2948 56.8482 64.9174 55.704 69.4545C55.4391 70.4938 55.3392 71.5781 55.4341 72.6474C55.8239 76.9795 59.1667 80.3673 63.4589 80.897C67.6262 81.4117 71.9134 79.1781 73.7322 75.3606C74.8065 73.1021 75.0314 70.2539 74.2369 67.7955C75.4761 66.5264 76.4554 65.0423 77.065 63.3284C78.8689 58.2568 76.4254 52.6554 71.2438 50.9815L71.2588 50.9915ZM42.3327 6.9652C42.2477 7.37494 42.0728 7.83963 41.7031 8.06949C41.4233 8.23937 41.1634 7.90959 41.2834 7.64976C41.3583 7.49486 41.4632 7.35495 41.5282 7.19506C41.5932 7.04016 41.6331 6.87526 41.6631 6.71037C41.7281 6.37059 41.7231 6.01582 41.7131 5.67105C41.6981 5.29629 41.6331 4.92154 41.4882 4.57676C41.3433 4.23698 41.1035 3.95717 40.9586 3.61739C40.8936 3.46749 41.0035 3.22764 41.1984 3.30259C42.0678 3.64737 42.3776 4.78663 42.4176 5.63108C42.4376 6.07579 42.4176 6.53049 42.3277 6.9652H42.3327ZM28.5367 5.63108C28.5716 4.78663 28.8864 3.64737 29.7559 3.30259C29.9507 3.22764 30.0607 3.46749 29.9957 3.61739C29.8458 3.95717 29.606 4.23698 29.4661 4.57676C29.3212 4.92154 29.2562 5.30129 29.2412 5.67105C29.2262 6.01582 29.2262 6.37059 29.2912 6.71037C29.3212 6.87526 29.3611 7.04016 29.4261 7.19506C29.496 7.35495 29.601 7.49486 29.6709 7.64976C29.7909 7.90959 29.531 8.23937 29.2512 8.06949C28.8765 7.83963 28.7066 7.37494 28.6216 6.9652C28.5317 6.53049 28.5117 6.07579 28.5317 5.63108H28.5367ZM53.7602 31.0195C53.7302 30.9446 53.6703 30.8796 53.5704 30.8446C53.1206 30.6997 52.7059 30.4849 52.3112 30.2051C52.2312 30.1451 52.1513 30.0901 52.0713 30.0302C52.3012 29.1857 52.4711 28.3263 52.596 27.4618C52.8208 27.5118 53.0407 27.5668 53.2606 27.6317C53.5254 27.7117 53.7852 27.8116 54.05 27.8916C54.1849 27.9315 54.3149 27.9715 54.4498 28.0065C54.4698 28.0115 54.4898 28.0165 54.5147 28.0215C54.3948 28.6061 54.2549 29.1857 54.105 29.7603C53.9951 30.1801 53.8801 30.5998 53.7602 31.0195ZM52.7809 21.5257C53.4954 21.7056 54.2199 21.8555 54.9495 21.9654C54.9495 22.3402 55.0044 22.8399 55.0144 23.0147C55.0644 24.4638 54.9095 25.9128 54.6447 27.3419C54.5247 27.277 54.4048 27.227 54.2799 27.177C54.0051 27.0671 53.7103 27.0021 53.4205 26.9422C53.1756 26.8922 52.9308 26.8522 52.6809 26.8173C52.8858 25.0634 52.9008 23.2846 52.7809 21.5257ZM55.2193 22.0104C55.2193 22.0104 55.2043 22.0154 55.1943 22.0104C55.2043 22.0104 55.2143 22.0104 55.2193 22.0104ZM49.8128 35.0469C49.9527 35.1968 50.1026 35.3367 50.2575 35.4766C50.5773 35.7564 50.9221 36.0113 51.2818 36.2361C51.4068 36.3161 51.5966 36.2661 51.6666 36.1362C51.7365 36.0013 51.7016 35.8314 51.5667 35.7514C51.2219 35.5466 50.9071 35.3267 50.6173 35.0719C50.4674 34.942 50.3225 34.807 50.1826 34.6671C50.1576 34.6422 50.1326 34.6172 50.1126 34.5922C50.8471 33.413 51.4367 32.1288 51.8665 30.7497C51.8914 30.7697 51.9164 30.7897 51.9414 30.8097C52.3811 31.1045 52.8958 31.3143 53.4055 31.4442C53.5004 31.4692 53.5853 31.4492 53.6453 31.4093C52.8009 34.1924 51.6116 36.8807 49.7329 39.0843C48.8784 40.0886 47.919 40.9331 46.8747 41.6426C46.495 40.8531 46.1202 40.0486 45.6455 39.3091C47.2844 38.1549 48.6935 36.7208 49.8128 35.0519V35.0469ZM16.8743 29.8653C17.0791 29.8103 17.284 29.7553 17.4939 29.7004C17.8037 29.6204 18.1135 29.5355 18.4233 29.4505C18.5232 29.4206 18.6181 29.3906 18.7131 29.3606C18.853 29.9802 19.0229 30.5898 19.2277 31.1894C19.0329 31.2644 18.843 31.3443 18.6531 31.4243C18.2634 31.5891 17.8686 31.744 17.4739 31.8939C17.254 31.2244 17.0592 30.5448 16.8793 29.8653H16.8743ZM15.9399 23.4844C15.9399 23.1497 15.9649 22.4301 15.9998 21.9504C16.6894 21.8305 17.6638 21.6356 18.2434 21.5157C18.0085 22.615 18.0835 23.8042 18.1434 24.9135C18.1634 25.2533 18.1834 25.5931 18.2084 25.9278C18.0885 25.9378 17.9686 25.9678 17.8536 25.9928C17.6038 26.0478 17.359 26.1077 17.1141 26.1727C16.7943 26.2576 16.4795 26.3526 16.1697 26.4575C16.0298 25.4731 15.9549 24.4838 15.9449 23.4844H15.9399ZM16.5945 28.726C16.4645 28.1714 16.3546 27.6167 16.2597 27.0571C16.5945 26.9422 16.9292 26.8372 17.274 26.7473C17.5089 26.6823 17.7487 26.6224 17.9886 26.5724C18.0785 26.5524 18.1734 26.5324 18.2634 26.5075C18.3383 27.247 18.4383 27.9815 18.5782 28.711C18.4632 28.731 18.3533 28.756 18.2384 28.786C17.9286 28.8709 17.6238 28.9559 17.319 29.0558C17.1191 29.1208 16.9242 29.1907 16.7244 29.2607C16.6794 29.0858 16.6394 28.9059 16.5945 28.731V28.726ZM20.4469 38.0999C19.2327 36.361 18.3433 34.4423 17.6538 32.4486C18.0585 32.3237 18.4682 32.1938 18.868 32.0588C19.0678 31.9889 19.2627 31.9189 19.4576 31.839C20.1921 33.7477 21.2614 35.5166 22.6555 37.0556C23.8597 38.3797 25.2688 39.469 26.8078 40.3135C26.7878 40.3534 26.7678 40.3984 26.7428 40.4384C26.3981 41.1229 26.0733 41.8225 25.7635 42.527C25.7335 42.597 25.7185 42.6719 25.7185 42.7419C23.5949 41.6976 21.8061 40.0686 20.437 38.1049L20.4469 38.0999ZM26.3581 43.0267C26.3931 42.9967 26.428 42.9617 26.448 42.9168C26.7678 42.2222 27.1126 41.5327 27.4724 40.8581C27.5023 40.8031 27.5323 40.7482 27.5623 40.6932C28.5816 41.1879 29.6509 41.5826 30.7502 41.8724C30.7103 41.9524 30.6753 42.0323 30.6403 42.1173C30.5304 42.4021 30.4354 42.6919 30.3455 42.9817C30.2356 43.3515 30.1556 43.7262 30.0907 44.106C29.2362 43.9311 28.3918 43.7212 27.5573 43.4664C27.1476 43.3415 26.7478 43.1916 26.3581 43.0267ZM30.6203 44.2109C30.7202 43.8511 30.8302 43.5014 30.9451 43.1466C31.035 42.8768 31.135 42.607 31.2449 42.3471C31.2899 42.2422 31.3249 42.1323 31.3648 42.0223C34.178 42.6619 37.1511 42.6319 39.9592 41.9074C41.783 41.4377 43.4769 40.7032 44.9959 39.7338C45.3407 40.5333 45.7904 41.2928 46.2251 42.0473C41.9279 44.6606 36.4265 45.1053 31.4698 44.3508C31.1849 44.3059 30.9051 44.2559 30.6203 44.2059V44.2109ZM71.9584 73.1171C71.0789 76.225 68.1708 78.5585 64.9379 78.7184C61.5551 78.8833 58.3872 76.6947 57.6027 73.3519C57.208 71.668 57.4928 69.8492 58.2523 68.3052C60.1411 64.4527 66.0322 62.429 69.6249 65.1972C69.6249 65.1972 69.6299 65.2022 69.6349 65.2072L69.6948 65.2522C70.1995 65.6569 70.6292 66.1366 70.984 66.6563C70.1595 67.3208 69.2451 67.8805 68.2957 68.3552C68.1508 68.4301 68.0009 68.5001 67.851 68.565C67.831 68.545 67.8111 68.5251 67.7861 68.5051C65.8773 66.9511 62.9093 67.4358 61.6901 69.6193C61.3203 70.2789 61.1204 71.0584 61.1704 71.8129C61.2304 72.6424 61.5701 73.4718 62.1298 74.0914C62.6794 74.696 63.4989 75.0708 64.2984 75.1857C66.0122 75.4256 67.8111 74.5461 68.5456 72.9472C68.7604 72.4825 68.8904 71.9928 68.9253 71.4981C70.1046 70.9735 71.2238 70.2689 72.1532 69.5994C72.3481 70.7636 72.2832 71.9778 71.9634 73.1171H71.9584ZM65.0329 72.2826C65.8473 72.3725 66.7118 72.2526 67.5712 71.9978C67.5712 71.9978 67.5712 72.0028 67.5712 72.0078C67.2314 73.212 66.0972 74.1114 64.848 74.1464C63.6088 74.1814 62.4446 73.3469 62.1498 72.1327C61.805 70.7086 62.8593 69.1796 64.1784 68.685C65.0179 68.3752 65.9673 68.4201 66.6868 68.9798C66.7068 68.9948 66.7218 69.0097 66.7368 69.0247C65.9423 69.3445 65.1528 69.6693 64.4632 70.189C63.5488 70.8785 63.8836 72.1577 65.0329 72.2876V72.2826Z" fill="#383137"/>
</g>
<defs>
<clipPath id="clip0_4669_317">
<rect width="51.9143" height="45.3429" fill="white" transform="translate(7.22656 23)"/>
</clipPath>
<clipPath id="clip1_4669_317">
<rect width="92" height="92" fill="white"/>
</clipPath>
</defs>
</svg>
