<svg width="92" height="92" viewBox="0 0 92 92" fill="none" xmlns="http://www.w3.org/2000/svg">
<g clip-path="url(#clip0_4669_334)">
<path d="M35.6114 76.7091C40.1369 75.5677 44.5311 72.6899 47.0615 67.8545C49.8192 62.5897 49.8445 55.9688 49.4859 49.9553C49.0818 43.2301 47.8292 36.3085 44.2129 30.9945C42.1522 27.9632 39.3187 25.7051 36.1417 24.8706C31.0657 23.5329 25.8432 26.4783 21.3127 28.9205C16.4084 31.5652 11.9183 35.0137 8.15543 39.6527C4.84717 43.7394 1.44295 48.7772 0.336836 54.4715C-0.178342 57.1285 -0.142987 60.0064 0.725746 62.5529C1.57933 65.0564 3.22588 66.9464 5.05931 68.4252C9.43832 71.9597 14.7012 74.4141 19.7924 75.9114C24.9088 77.427 30.4192 78.0161 35.6114 76.7091Z" fill="#CFF9FF"/>
</g>
<g clip-path="url(#clip1_4669_334)">
<path d="M82.7961 54.0164C82.1393 53.4019 81.228 53.1259 80.3576 53.1457C78.4659 53.1851 76.7125 54.3942 75.1193 55.3339C73.479 56.2999 71.8544 57.2922 70.1795 58.1925C67.0686 59.8649 63.7189 61.3041 60.1994 61.6261C57.1262 61.9054 53.9085 61.4289 51.1903 59.8452C50.9578 59.7105 50.7316 59.5692 50.5053 59.4214C52.2116 59.5101 53.9179 59.5265 55.6242 59.4214C57.9747 59.2768 60.4257 58.9942 62.6945 58.3042C64.429 57.7752 66.459 56.5497 66.3867 54.3811C66.305 51.9332 63.8791 50.5237 61.9183 49.8599C59.7438 49.1239 57.4248 49.0089 55.2 48.5029C52.8621 47.9707 50.5587 47.2051 48.3811 46.1635C46.2097 45.1285 44.1735 43.5744 41.7664 43.2129C39.2903 42.8417 36.811 43.4528 34.4982 44.3597C33.3512 44.8098 32.242 45.3355 31.1359 45.8842C30.0769 46.4099 29.0054 46.9159 27.9558 47.4581C27.9495 47.3924 27.9433 47.3267 27.9307 47.2642C27.7359 46.3837 26.9283 46.2752 26.1993 46.2194C25.3603 46.1537 24.5181 46.1372 23.676 46.1438C21.9697 46.1569 20.2602 46.2719 18.5665 46.4855C16.9702 46.6859 15.2702 46.8601 13.8278 47.6651C13.1962 48.0167 12.6652 48.5325 12.4169 49.2488C12.1498 50.0275 12.1373 50.9475 12.0493 51.7657C11.8607 53.5202 11.7193 55.2814 11.6313 57.0425C11.4522 60.6141 11.4271 64.2152 11.6376 67.7868C11.7413 69.5742 11.889 71.3551 12.1278 73.1261C12.2315 73.9048 12.3321 74.7131 12.8223 75.3472C13.3408 76.0142 14.1138 76.1194 14.8805 76.2114C18.2774 76.6188 21.7308 76.7141 25.1371 76.4249C25.8662 76.3625 26.6423 76.1621 27.054 75.4655C27.4373 74.8215 27.4028 73.9245 27.4688 73.1951C27.5065 72.7778 27.5442 72.3638 27.585 71.9465C30.652 72.2619 33.4047 74.1939 36.1134 75.6232C39.3563 77.3318 42.8317 78.6034 46.392 79.3525C49.9083 80.0918 53.5282 80.3119 57.0917 79.8552C60.7556 79.3854 64.2436 78.2091 67.5023 76.3987C70.6855 74.6277 73.6675 72.3605 76.304 69.7911C78.8084 67.3564 81.0395 64.5175 82.5227 61.2778C83.2046 59.7894 84.0844 57.8837 83.8236 56.1849C83.7011 55.3799 83.3868 54.5618 82.7929 54.0098L82.7961 54.0164ZM76.6276 67.0114C74.2646 69.6005 71.5245 71.8578 68.6304 73.7635C65.6137 75.7514 62.3614 77.2069 58.8514 77.9167C55.4671 78.6001 51.9476 78.5902 48.5445 78.0579C45.1068 77.5224 41.7413 76.4709 38.577 74.9727C35.3372 73.4415 32.2766 71.1021 28.7257 70.4154C28.4052 70.3529 28.0847 70.3102 27.761 70.2774C27.8458 69.4428 27.9307 68.6049 27.9967 67.7671C28.2889 64.1429 28.5215 60.5057 28.5497 56.8684C28.5623 55.0941 28.5623 53.3198 28.5152 51.5455C28.4869 50.5171 28.3989 49.4164 28.0281 48.4438C29.6621 47.7637 31.2836 47.0539 32.9207 46.3804C35.0764 45.4932 37.2917 44.6127 39.6328 44.5207C40.7829 44.4747 41.9141 44.6291 42.9951 45.0529C43.9912 45.4472 44.9119 46.0387 45.8389 46.5775C47.8595 47.7538 49.9962 48.7165 52.2022 49.4459C54.3515 50.1524 56.5512 50.4842 58.7634 50.8621C60.6268 51.1841 62.8453 51.6112 64.1839 53.1358C64.4542 53.4447 64.6867 53.8291 64.7464 54.2497C64.7936 54.5881 64.7244 54.8904 64.5799 55.1532C64.2531 55.7545 63.5712 56.1619 62.9176 56.4281C61.9686 56.8158 60.9379 56.9998 59.9386 57.1838C58.8325 57.3908 57.7201 57.5354 56.5983 57.6241C54.1693 57.8179 51.7308 57.7588 49.3018 57.5682C48.0354 57.4697 46.7691 57.3317 45.5058 57.1969C44.8742 57.1279 44.2458 57.0589 43.6141 56.9867C43.2685 56.9472 42.9228 56.9045 42.5709 56.9012C42.2064 56.8979 41.8639 56.9801 41.5088 57.0589C41.0406 57.1608 40.9149 57.9559 41.3705 58.1728C41.6439 58.3009 41.9173 58.4652 42.2095 58.5441C42.5426 58.6361 42.904 58.6755 43.2465 58.7182C43.8561 58.7938 44.4657 58.8661 45.0753 58.9384C46.2757 59.0797 47.4761 59.2045 48.6796 59.2998C48.8022 59.3097 48.9247 59.3162 49.0473 59.3261C53.5471 64.2218 61.0165 63.7224 66.6381 61.4782C70.0915 60.1015 73.3313 58.1629 76.5051 56.2014C77.8217 55.3865 79.7574 53.8817 81.3631 54.7031C81.3789 54.7097 81.3914 54.7228 81.4071 54.7294C81.6365 55.1269 81.5737 55.7677 81.47 56.1685C81.2186 57.1214 80.7567 58.0151 80.2382 58.8365C79.1949 60.4859 77.8594 61.9579 76.5208 63.3445C73.8655 66.0914 70.8206 68.4078 67.5117 70.2215C65.642 71.2467 63.7063 72.2028 61.7455 73.0177C61.3778 73.1688 61.5098 73.7504 61.912 73.6485C63.9231 73.1425 65.8462 72.4459 67.6971 71.4799C69.5354 70.5238 71.2982 69.4099 72.9637 68.1614C74.604 66.9292 76.1594 65.5722 77.5986 64.0937C79.0787 62.5724 80.5367 60.8999 81.6051 59.0271C81.6585 58.9318 81.7151 58.8332 81.7685 58.7314C80.697 61.8429 78.799 64.6227 76.6308 67.0015L76.6276 67.0114Z" fill="#383137"/>
<path d="M24.29 37.9957C24.9373 38.7809 25.7198 39.4644 26.4928 40.1117C26.9044 40.4567 27.3287 40.7852 27.7592 41.1007C28.1802 41.4128 28.5416 41.6789 29.0255 41.8005C29.2518 41.9911 29.588 42.0404 29.8645 41.7677C30.5087 41.1335 31.1403 40.4862 31.7782 39.8488C32.413 39.2179 32.9597 38.4524 33.4845 37.7197C34.5372 36.2509 35.5773 34.6869 36.2529 32.9849C36.8594 31.4538 36.894 29.6499 35.8193 28.3291C34.7729 27.0444 33.0069 27.1298 31.7751 28.0794C30.6407 28.9534 29.9148 30.3925 29.5283 31.8415C28.6767 29.2688 25.437 27.0214 23.2625 29.0749C22.744 29.5645 22.3543 30.1691 22.0998 30.8459C21.8233 31.5885 21.8201 32.3639 21.8767 33.1459C22.0118 34.9498 23.1965 36.6649 24.2931 37.9924L24.29 37.9957ZM23.1179 30.4517C23.6961 29.1308 25.0725 28.7694 26.3105 29.2688C27.7654 29.8537 29.1198 31.5162 29.1732 33.1854C29.1826 33.4482 29.4403 33.5238 29.6069 33.4252C29.7326 33.4351 29.8551 33.3694 29.8865 33.1919C30.1599 31.7429 30.757 30.2118 31.7751 29.1571C32.2496 28.6642 32.9095 28.2305 33.6071 28.3159C34.1633 28.3849 34.5875 28.7529 34.8546 29.2491C35.4736 30.3991 35.04 31.7659 34.4932 32.8469C33.8019 34.2171 32.944 35.5248 32.0642 36.7701C31.222 37.9595 30.3799 39.1489 29.4403 40.2529C29.0318 39.8389 28.4882 39.5235 28.0577 39.1785C27.4606 38.6988 26.8699 38.2092 26.3105 37.6802C25.2484 36.6748 24.1895 35.5774 23.495 34.2532C23.187 33.6684 22.8697 32.9652 22.8288 32.2884C22.7943 31.6805 22.876 31.0102 23.1211 30.4517H23.1179Z" fill="#383137"/>
<path d="M44.6874 34.9793C46.7614 38.3241 49.3224 41.4587 52.4302 43.7949C52.9769 44.2056 53.6023 43.8113 53.8379 43.2691C54.4664 42.8321 55.0289 42.313 55.6008 41.7906C56.311 41.14 57.0054 40.473 57.6873 39.7929C59.0542 38.4391 60.3395 37.0033 61.565 35.5083C63.9877 32.5511 66.2973 29.3279 67.7083 25.7004C68.9746 22.4476 69.6125 18.2484 67.8182 15.0646C67.0169 13.6451 65.7474 12.5773 64.126 12.5149C62.4323 12.4524 60.8045 13.3297 59.5162 14.414C57.1531 16.4019 55.5317 19.4181 55.0572 22.5659C54.3501 19.7861 53.0869 17.1411 50.8087 15.4227C49.5801 14.4961 48.0623 13.793 46.5351 13.7437C45.0959 13.6977 43.663 14.207 42.4909 15.0711C41.9002 15.5049 41.3723 16.0503 40.9889 16.6943C40.527 17.473 40.3164 18.4029 40.2064 19.3031C39.9551 21.3304 40.0902 23.4037 40.5615 25.385C41.3848 28.8219 42.846 32.0189 44.6843 34.9826L44.6874 34.9793ZM42.3935 17.0196C43.8579 14.6013 47.217 14.1971 49.5078 15.472C52.7161 17.2594 54.1836 20.9427 54.8089 24.5011C54.8718 24.8626 55.3243 24.787 55.4217 24.5011C55.4563 24.465 55.4814 24.4223 55.4908 24.3599C55.8993 21.2417 56.9646 18.1433 59.1454 15.8959C60.2326 14.7754 61.6687 13.6944 63.243 13.5893C64.6665 13.494 65.8448 14.3187 66.4765 15.6199C67.1081 16.9243 67.2118 18.4784 67.1206 19.9143C67.0138 21.613 66.5582 23.3216 65.9234 24.8856C64.6099 28.1253 62.6177 31.043 60.462 33.7274C59.2208 35.2717 57.8979 36.7404 56.5686 38.1993C55.8868 38.9484 55.1923 39.6844 54.4978 40.4204C54.0673 40.8771 53.64 41.324 53.2409 41.7971C51.0727 39.8191 49.005 37.7163 47.2704 35.3046C45.4385 32.7614 43.9427 29.9423 42.8366 26.9753C42.2395 25.3751 41.7273 23.6731 41.6048 21.9547C41.4854 20.2921 41.5168 18.4653 42.3967 17.0163L42.3935 17.0196Z" fill="#383137"/>
<path d="M65.1219 40.1382C65.2601 41.2981 65.6906 42.3725 66.1526 43.4305C66.5894 44.4294 67.089 45.3888 67.6043 46.3416C68.1825 47.4062 68.8487 48.3821 69.5369 49.3678C69.8668 49.8409 70.1968 50.3272 70.4544 50.8496C70.6933 51.3326 70.7844 51.8846 71.0546 52.3906C71.0829 52.4399 71.1112 52.4859 71.1426 52.5254C71.1426 52.5319 71.1426 52.5385 71.1426 52.5451C71.1552 52.9065 71.46 53.1431 71.7962 53.0642C72.3964 52.9262 72.8018 52.4038 73.2449 51.9898C73.6502 51.6086 74.0839 51.2735 74.5301 50.9482C75.5419 50.2122 76.5443 49.4729 77.4964 48.6581C79.4321 47.0054 81.1133 45.0241 82.5651 42.9015C83.8723 40.9892 84.8998 38.4789 83.7434 36.2151C82.5682 33.9151 79.7526 34.3455 77.9018 35.3641C76.4532 36.1625 75.1805 37.4045 74.4484 38.9356C74.0461 37.7528 73.1223 36.6981 72.2142 35.9752C70.7938 34.8482 68.8958 34.4178 67.2335 35.2195C65.4361 36.0869 64.8925 38.2226 65.1187 40.1349L65.1219 40.1382ZM70.7373 36.0771C71.5763 36.4582 72.2959 37.0924 72.8835 37.8185C73.446 38.5118 73.9487 39.4186 73.955 40.3551C73.9236 40.4931 73.8953 40.6311 73.8733 40.7724C73.8545 40.9005 73.9142 40.9958 73.999 41.0484C74.153 41.2422 74.4829 41.2586 74.5646 40.9399C74.6558 40.5884 74.6809 40.2401 74.6558 39.8951C75.2434 38.4198 76.3683 37.2304 77.6976 36.4221C78.5523 35.9029 79.5358 35.4725 80.5382 35.4594C81.4809 35.4462 82.1974 36.0442 82.5462 36.9281C83.3161 38.8864 81.8863 40.8184 80.7771 42.2674C79.3913 44.0778 77.8421 45.7338 76.1987 47.2912C75.2937 48.1455 74.329 48.9176 73.3737 49.7095C73.0783 49.9559 72.7829 50.2056 72.4938 50.4619C72.3493 50.0446 72.145 49.6471 71.9502 49.3152C71.4663 48.4872 70.8221 47.7742 70.2565 47.0086C69.1095 45.4512 68.0757 43.8445 67.2241 42.0866C66.4888 40.5719 65.7252 38.7056 66.6616 37.0956C67.4975 35.6565 69.3672 35.4561 70.7373 36.0771Z" fill="#383137"/>
</g>
<defs>
<clipPath id="clip0_4669_334">
<rect width="49.6491" height="52.9" fill="white" transform="translate(0 24.5332)"/>
</clipPath>
<clipPath id="clip1_4669_334">
<rect width="87.9857" height="92" fill="white" transform="translate(4.01562)"/>
</clipPath>
</defs>
</svg>
