<svg width="17" height="16" viewBox="0 0 17 16" fill="none" xmlns="http://www.w3.org/2000/svg">
<path fill-rule="evenodd" clip-rule="evenodd" d="M3.74706 15.9159C2.99369 15.5852 2.82967 14.5666 2.59632 13.8649C2.17762 12.6044 1.49677 11.3448 0.478918 10.4803C-0.71384 9.46718 0.572982 8.87816 1.60406 8.54699C2.77421 8.171 3.18971 9.2002 3.68712 10.0449C4.05229 10.6657 4.39058 11.2758 4.68727 11.9327C4.62371 11.7919 5.47669 10.7264 5.58461 10.5669C5.90392 10.0949 6.23496 9.63124 6.57559 9.17496C7.24705 8.27631 7.94219 7.39638 8.68489 6.55757C10.1618 4.88974 11.7594 3.32288 13.5197 1.96381C14.0783 1.53277 14.5836 1.0371 15.1525 0.616495C15.5802 0.30012 16.2902 -0.309568 16.8544 0.189148C17.2242 0.516185 16.8041 0.697656 16.5389 0.92569C15.8796 1.49273 15.1928 2.06782 14.5642 2.67076C11.9375 5.19198 9.62148 8.20603 7.83128 11.3946C7.29398 12.3511 6.80276 13.3351 6.21384 14.2609C5.78767 14.9313 4.80864 16.2405 3.87184 15.9616C3.82875 15.9487 3.78716 15.9333 3.74706 15.9159Z" fill="#A44998"/>
</svg>
