<svg width="218" height="174" viewBox="0 0 218 174" fill="none" xmlns="http://www.w3.org/2000/svg">
<g opacity="0.07" clip-path="url(#clip0_4743_1075)">
<path d="M172.398 75.8425C172.27 61.6127 180.154 41.3881 203.062 12.6512C205.407 9.72845 205.321 5.52565 202.849 2.70956C200.1 -0.447869 195.37 -0.874549 192.109 1.74953C171.247 18.6034 103.311 79.0639 121.616 138.18C122.383 140.932 123.406 143.599 124.621 146.138C132.676 162.842 149.852 174.299 169.691 174C196.158 173.595 217.702 151.919 218.001 125.423C218.299 99.2032 198.076 77.6559 172.398 75.8425Z" fill="#5A5A5A"/>
<path d="M53.8719 75.8425C53.7441 61.6127 61.6287 41.3881 84.5369 12.6512C86.8809 9.72845 86.7957 5.52565 84.3238 2.70956C81.5748 -0.447869 76.844 -0.874549 73.5836 1.74953C52.7212 18.6034 -15.2147 79.0639 3.09052 138.18C3.85767 140.932 4.88054 143.599 6.0952 146.138C14.129 162.842 31.3261 174.299 51.1443 174C77.6111 173.595 99.1554 151.919 99.4538 125.423C99.7521 99.2032 79.529 77.6559 53.8719 75.8425Z" fill="#5A5A5A"/>
</g>
<defs>
<clipPath id="clip0_4743_1075">
<rect width="218" height="174" fill="white" transform="matrix(-1 0 0 -1 218 174)"/>
</clipPath>
</defs>
</svg>
