<svg width="89" height="71" viewBox="0 0 89 71" fill="none" xmlns="http://www.w3.org/2000/svg">
<g opacity="0.07" clip-path="url(#clip0_4624_3452)">
<path d="M70.3809 30.9473C70.3287 25.1409 73.5476 16.8883 82.9 5.16232C83.857 3.9697 83.8222 2.25477 82.813 1.10567C81.6908 -0.182701 79.7594 -0.356804 78.4283 0.713943C69.9111 7.59109 42.1758 32.2618 49.649 56.384C49.9622 57.507 50.3798 58.5951 50.8757 59.6311C54.1643 66.4473 61.1764 71.122 69.276 71.0001C80.0813 70.8347 88.8769 61.9902 88.9987 51.1783C89.1205 40.4795 80.8643 31.6872 70.3809 30.9473Z" fill="#5A5A5A"/>
<path d="M21.9911 30.9473C21.9389 25.1409 25.1579 16.8883 34.5103 5.16232C35.4673 3.9697 35.4325 2.25477 34.4233 1.10567C33.301 -0.182701 31.3696 -0.356804 30.0385 0.713943C21.5213 7.59109 -6.21395 32.2618 1.25927 56.384C1.57247 57.507 1.99006 58.5951 2.48595 59.6311C5.76582 66.4473 12.7866 71.122 20.8776 71.0001C31.6828 70.8347 40.4784 61.9902 40.6002 51.1783C40.722 40.4795 32.4658 31.6872 21.9911 30.9473Z" fill="#5A5A5A"/>
</g>
<defs>
<clipPath id="clip0_4624_3452">
<rect width="89" height="71" fill="white" transform="matrix(-1 0 0 -1 89 71)"/>
</clipPath>
</defs>
</svg>
