<svg width="89" height="71" viewBox="0 0 89 71" fill="none" xmlns="http://www.w3.org/2000/svg">
<g opacity="0.07" clip-path="url(#clip0_4624_3456)">
<path d="M18.6191 40.0527C18.6713 45.8591 15.4524 54.1117 6.09996 65.8377C5.14297 67.0303 5.17777 68.7452 6.18696 69.8943C7.30925 71.1827 9.24063 71.3568 10.5717 70.2861C19.0889 63.4089 46.8242 38.7382 39.351 14.616C39.0378 13.493 38.6202 12.4049 38.1243 11.3689C34.8357 4.55273 27.8236 -0.121987 19.724 -0.000113481C8.91873 0.165286 0.123129 9.00982 0.00133039 19.8217C-0.120468 30.5205 8.13574 39.3128 18.6191 40.0527Z" fill="#5A5A5A"/>
<path d="M67.0089 40.0527C67.0611 45.8591 63.8421 54.1117 54.4897 65.8377C53.5327 67.0303 53.5675 68.7452 54.5767 69.8943C55.699 71.1827 57.6304 71.3568 58.9615 70.2861C67.4787 63.4089 95.2139 38.7382 87.7407 14.616C87.4275 13.493 87.0099 12.4049 86.514 11.3689C83.2342 4.55273 76.2134 -0.121987 68.1224 -0.000113481C57.3172 0.165286 48.5216 9.00982 48.3998 19.8217C48.278 30.5205 56.5342 39.3128 67.0089 40.0527Z" fill="#5A5A5A"/>
</g>
<defs>
<clipPath id="clip0_4624_3456">
<rect width="89" height="71" fill="white"/>
</clipPath>
</defs>
</svg>
