<svg width="110" height="88" viewBox="0 0 110 88" fill="none" xmlns="http://www.w3.org/2000/svg">
<g opacity="0.07" clip-path="url(#clip0_4672_429)">
<path d="M90.5875 39.1338C90.5216 31.7912 94.5808 21.3553 106.374 6.52708C107.581 5.01894 107.537 2.85029 106.265 1.39719C104.849 -0.232048 102.414 -0.452217 100.735 0.90181C89.9951 9.5984 55.0205 40.7961 64.4443 71.3002C64.8393 72.7203 65.3659 74.0963 65.9912 75.4063C70.1381 84.0258 78.9805 89.9373 89.1942 89.7832C102.82 89.574 113.911 78.3896 114.065 64.7172C114.218 51.1879 103.807 40.0695 90.5875 39.1338Z" fill="#5A5A5A"/>
<path d="M29.5711 39.1338C29.5053 31.7912 33.5644 21.3553 45.3579 6.52708C46.5647 5.01894 46.5208 2.85029 45.2482 1.39719C43.833 -0.232048 41.3975 -0.452217 39.719 0.90181C28.9787 9.5984 -5.99585 40.7961 3.42796 71.3002C3.82291 72.7203 4.3495 74.0963 4.97483 75.4063C9.11077 84.0258 17.9641 89.9373 28.1668 89.7832C41.7924 89.574 52.8838 78.3896 53.0374 64.7172C53.191 51.1879 42.7798 40.0695 29.5711 39.1338Z" fill="#5A5A5A"/>
</g>
<defs>
<clipPath id="clip0_4672_429">
<rect width="110" height="88" fill="white" transform="matrix(-1 0 0 -1 110 88)"/>
</clipPath>
</defs>
</svg>
